<?xml version="1.0" encoding="UTF-8" standalone="no"?>
<svg width="211.667mm" height="141.111mm"
 viewBox="0 0 600 400"
 xmlns="http://www.w3.org/2000/svg" xmlns:xlink="http://www.w3.org/1999/xlink"  version="1.2" baseProfile="tiny">
<title>Qt Svg Document</title>
<desc>Generated with Qt</desc>
<defs>
</defs>
<g fill="none" stroke="black" stroke-width="1" fill-rule="evenodd" stroke-linecap="square" stroke-linejoin="bevel" >

<g fill="#ffffff" fill-opacity="1" stroke="none" transform="matrix(1,0,0,1,0,0)"
font-family="Cantarell" font-size="11" font-weight="400" font-style="normal" 
>
<path vector-effect="non-scaling-stroke" fill-rule="evenodd" d="M0,0 L600,0 L600,400 L0,400 L0,0"/>
</g>

<g fill="none" stroke="#000000" stroke-opacity="1" stroke-width="1" stroke-linecap="round" stroke-linejoin="round" transform="matrix(1,0,0,1,0,0)"
font-family="Cantarell" font-size="11" font-weight="400" font-style="normal" 
>
<polyline fill="none" vector-effect="non-scaling-stroke" points="93,299 341,51 " />
<polyline fill="none" vector-effect="non-scaling-stroke" points="88,299 335,51 " />
<polyline fill="none" vector-effect="non-scaling-stroke" points="82,299 330,51 " />
<polyline fill="none" vector-effect="non-scaling-stroke" points="76,299 324,51 " />
<polyline fill="none" vector-effect="non-scaling-stroke" points="71,299 318,51 " />
<polyline fill="none" vector-effect="non-scaling-stroke" points="68,295 313,51 " />
<polyline fill="none" vector-effect="non-scaling-stroke" points="68,290 307,51 " />
<polyline fill="none" vector-effect="non-scaling-stroke" points="68,284 301,51 " />
<polyline fill="none" vector-effect="non-scaling-stroke" points="68,278 295,51 " />
<polyline fill="none" vector-effect="non-scaling-stroke" points="68,273 290,51 " />
<polyline fill="none" vector-effect="non-scaling-stroke" points="68,267 284,51 " />
<polyline fill="none" vector-effect="non-scaling-stroke" points="68,261 278,51 " />
<polyline fill="none" vector-effect="non-scaling-stroke" points="68,256 273,51 " />
<polyline fill="none" vector-effect="non-scaling-stroke" points="68,250 267,51 " />
<polyline fill="none" vector-effect="non-scaling-stroke" points="68,244 261,51 " />
<polyline fill="none" vector-effect="non-scaling-stroke" points="68,238 256,51 " />
<polyline fill="none" vector-effect="non-scaling-stroke" points="68,233 250,51 " />
<polyline fill="none" vector-effect="non-scaling-stroke" points="68,227 244,51 " />
<polyline fill="none" vector-effect="non-scaling-stroke" points="68,221 239,51 " />
<polyline fill="none" vector-effect="non-scaling-stroke" points="68,216 233,51 " />
<polyline fill="none" vector-effect="non-scaling-stroke" points="68,210 227,51 " />
<polyline fill="none" vector-effect="non-scaling-stroke" points="68,204 222,51 " />
<polyline fill="none" vector-effect="non-scaling-stroke" points="68,199 216,51 " />
<polyline fill="none" vector-effect="non-scaling-stroke" points="68,193 210,51 " />
<polyline fill="none" vector-effect="non-scaling-stroke" points="68,187 205,51 " />
<polyline fill="none" vector-effect="non-scaling-stroke" points="68,182 199,51 " />
<polyline fill="none" vector-effect="non-scaling-stroke" points="68,176 193,51 " />
<polyline fill="none" vector-effect="non-scaling-stroke" points="68,170 188,51 " />
<polyline fill="none" vector-effect="non-scaling-stroke" points="68,165 182,51 " />
<polyline fill="none" vector-effect="non-scaling-stroke" points="68,159 176,51 " />
<polyline fill="none" vector-effect="non-scaling-stroke" points="68,153 171,51 " />
<polyline fill="none" vector-effect="non-scaling-stroke" points="68,148 165,51 " />
<polyline fill="none" vector-effect="non-scaling-stroke" points="68,142 159,51 " />
<polyline fill="none" vector-effect="non-scaling-stroke" points="68,136 154,51 " />
<polyline fill="none" vector-effect="non-scaling-stroke" points="68,131 148,51 " />
<polyline fill="none" vector-effect="non-scaling-stroke" points="68,125 142,51 " />
<polyline fill="none" vector-effect="non-scaling-stroke" points="68,119 136,51 " />
<polyline fill="none" vector-effect="non-scaling-stroke" points="68,114 131,51 " />
<polyline fill="none" vector-effect="non-scaling-stroke" points="68,108 125,51 " />
<polyline fill="none" vector-effect="non-scaling-stroke" points="68,102 119,51 " />
<polyline fill="none" vector-effect="non-scaling-stroke" points="68,97 114,51 " />
<polyline fill="none" vector-effect="non-scaling-stroke" points="68,91 108,51 " />
<polyline fill="none" vector-effect="non-scaling-stroke" points="68,85 102,51 " />
<polyline fill="none" vector-effect="non-scaling-stroke" points="68,79 97,51 " />
<polyline fill="none" vector-effect="non-scaling-stroke" points="68,74 91,51 " />
<polyline fill="none" vector-effect="non-scaling-stroke" points="68,68 85,51 " />
<polyline fill="none" vector-effect="non-scaling-stroke" points="68,62 80,51 " />
<polyline fill="none" vector-effect="non-scaling-stroke" points="68,57 74,51 " />
</g>

<g fill="#000000" fill-opacity="1" stroke="none" transform="matrix(1,0,0,1,0,0)"
font-family="Cantarell" font-size="11" font-weight="400" font-style="normal" 
>
<path vector-effect="non-scaling-stroke" fill-rule="evenodd" d="M68.5,51 C68.5,51.2761 68.2761,51.5 68,51.5 C67.7239,51.5 67.5,51.2761 67.5,51 C67.5,50.7239 67.7239,50.5 68,50.5 C68.2761,50.5 68.5,50.7239 68.5,51 "/>
</g>

<g fill="none" stroke="#000000" stroke-opacity="1" stroke-width="1" stroke-linecap="round" stroke-linejoin="round" transform="matrix(1,0,0,1,0,0)"
font-family="Cantarell" font-size="11" font-weight="400" font-style="normal" 
>
<polyline fill="none" vector-effect="non-scaling-stroke" points="99,299 341,57 " />
<polyline fill="none" vector-effect="non-scaling-stroke" points="105,299 341,62 " />
<polyline fill="none" vector-effect="non-scaling-stroke" points="110,299 341,68 " />
<polyline fill="none" vector-effect="non-scaling-stroke" points="116,299 341,74 " />
<polyline fill="none" vector-effect="non-scaling-stroke" points="122,299 341,79 " />
<polyline fill="none" vector-effect="non-scaling-stroke" points="127,299 341,85 " />
<polyline fill="none" vector-effect="non-scaling-stroke" points="133,299 341,91 " />
<polyline fill="none" vector-effect="non-scaling-stroke" points="139,299 341,97 " />
<polyline fill="none" vector-effect="non-scaling-stroke" points="144,299 341,102 " />
<polyline fill="none" vector-effect="non-scaling-stroke" points="150,299 341,108 " />
<polyline fill="none" vector-effect="non-scaling-stroke" points="156,299 341,114 " />
<polyline fill="none" vector-effect="non-scaling-stroke" points="161,299 341,119 " />
<polyline fill="none" vector-effect="non-scaling-stroke" points="167,299 341,125 " />
<polyline fill="none" vector-effect="non-scaling-stroke" points="173,299 341,131 " />
<polyline fill="none" vector-effect="non-scaling-stroke" points="178,299 341,136 " />
<polyline fill="none" vector-effect="non-scaling-stroke" points="184,299 341,142 " />
<polyline fill="none" vector-effect="non-scaling-stroke" points="190,299 341,148 " />
<polyline fill="none" vector-effect="non-scaling-stroke" points="196,299 341,153 " />
<polyline fill="none" vector-effect="non-scaling-stroke" points="201,299 341,159 " />
<polyline fill="none" vector-effect="non-scaling-stroke" points="207,299 341,165 " />
<polyline fill="none" vector-effect="non-scaling-stroke" points="213,299 341,170 " />
<polyline fill="none" vector-effect="non-scaling-stroke" points="218,299 341,176 " />
<polyline fill="none" vector-effect="non-scaling-stroke" points="224,299 341,182 " />
<polyline fill="none" vector-effect="non-scaling-stroke" points="230,299 341,187 " />
<polyline fill="none" vector-effect="non-scaling-stroke" points="235,299 341,193 " />
<polyline fill="none" vector-effect="non-scaling-stroke" points="241,299 341,199 " />
<polyline fill="none" vector-effect="non-scaling-stroke" points="247,299 341,204 " />
<polyline fill="none" vector-effect="non-scaling-stroke" points="252,299 341,210 " />
<polyline fill="none" vector-effect="non-scaling-stroke" points="258,299 341,216 " />
<polyline fill="none" vector-effect="non-scaling-stroke" points="264,299 341,221 " />
<polyline fill="none" vector-effect="non-scaling-stroke" points="269,299 341,227 " />
<polyline fill="none" vector-effect="non-scaling-stroke" points="275,299 341,233 " />
<polyline fill="none" vector-effect="non-scaling-stroke" points="281,299 341,238 " />
<polyline fill="none" vector-effect="non-scaling-stroke" points="286,299 341,244 " />
<polyline fill="none" vector-effect="non-scaling-stroke" points="292,299 341,250 " />
<polyline fill="none" vector-effect="non-scaling-stroke" points="298,299 341,256 " />
<polyline fill="none" vector-effect="non-scaling-stroke" points="303,299 341,261 " />
<polyline fill="none" vector-effect="non-scaling-stroke" points="309,299 341,267 " />
<polyline fill="none" vector-effect="non-scaling-stroke" points="315,299 341,273 " />
<polyline fill="none" vector-effect="non-scaling-stroke" points="320,299 341,278 " />
<polyline fill="none" vector-effect="non-scaling-stroke" points="326,299 341,284 " />
<polyline fill="none" vector-effect="non-scaling-stroke" points="332,299 341,290 " />
<polyline fill="none" vector-effect="non-scaling-stroke" points="337,299 341,295 " />
<polyline fill="none" vector-effect="non-scaling-stroke" points="68,45 71,43 " />
<polyline fill="none" vector-effect="non-scaling-stroke" points="68,51 76,43 " />
<polyline fill="none" vector-effect="non-scaling-stroke" points="74,51 82,43 " />
<polyline fill="none" vector-effect="non-scaling-stroke" points="80,51 88,43 " />
<polyline fill="none" vector-effect="non-scaling-stroke" points="85,51 93,43 " />
<polyline fill="none" vector-effect="non-scaling-stroke" points="91,51 99,43 " />
<polyline fill="none" vector-effect="non-scaling-stroke" points="97,51 105,43 " />
<polyline fill="none" vector-effect="non-scaling-stroke" points="102,51 110,43 " />
<polyline fill="none" vector-effect="non-scaling-stroke" points="108,51 116,43 " />
<polyline fill="none" vector-effect="non-scaling-stroke" points="114,51 122,43 " />
<polyline fill="none" vector-effect="non-scaling-stroke" points="119,51 127,43 " />
<polyline fill="none" vector-effect="non-scaling-stroke" points="125,51 133,43 " />
<polyline fill="none" vector-effect="non-scaling-stroke" points="131,51 139,43 " />
<polyline fill="none" vector-effect="non-scaling-stroke" points="136,51 144,43 " />
<polyline fill="none" vector-effect="non-scaling-stroke" points="142,51 150,43 " />
<polyline fill="none" vector-effect="non-scaling-stroke" points="148,51 156,43 " />
<polyline fill="none" vector-effect="non-scaling-stroke" points="154,51 161,43 " />
<polyline fill="none" vector-effect="non-scaling-stroke" points="159,51 167,43 " />
<polyline fill="none" vector-effect="non-scaling-stroke" points="165,51 173,43 " />
<polyline fill="none" vector-effect="non-scaling-stroke" points="171,51 178,43 " />
<polyline fill="none" vector-effect="non-scaling-stroke" points="176,51 184,43 " />
<polyline fill="none" vector-effect="non-scaling-stroke" points="182,51 190,43 " />
<polyline fill="none" vector-effect="non-scaling-stroke" points="188,51 196,43 " />
<polyline fill="none" vector-effect="non-scaling-stroke" points="193,51 201,43 " />
<polyline fill="none" vector-effect="non-scaling-stroke" points="199,51 207,43 " />
<polyline fill="none" vector-effect="non-scaling-stroke" points="205,51 213,43 " />
<polyline fill="none" vector-effect="non-scaling-stroke" points="210,51 218,43 " />
<polyline fill="none" vector-effect="non-scaling-stroke" points="216,51 224,43 " />
<polyline fill="none" vector-effect="non-scaling-stroke" points="222,51 230,43 " />
<polyline fill="none" vector-effect="non-scaling-stroke" points="227,51 235,43 " />
<polyline fill="none" vector-effect="non-scaling-stroke" points="233,51 241,43 " />
<polyline fill="none" vector-effect="non-scaling-stroke" points="239,51 247,43 " />
<polyline fill="none" vector-effect="non-scaling-stroke" points="244,51 252,43 " />
<polyline fill="none" vector-effect="non-scaling-stroke" points="250,51 258,43 " />
<polyline fill="none" vector-effect="non-scaling-stroke" points="256,51 264,43 " />
<polyline fill="none" vector-effect="non-scaling-stroke" points="261,51 269,43 " />
<polyline fill="none" vector-effect="non-scaling-stroke" points="267,51 275,43 " />
<polyline fill="none" vector-effect="non-scaling-stroke" points="273,51 281,43 " />
<polyline fill="none" vector-effect="non-scaling-stroke" points="278,51 286,43 " />
<polyline fill="none" vector-effect="non-scaling-stroke" points="284,51 292,43 " />
<polyline fill="none" vector-effect="non-scaling-stroke" points="290,51 298,43 " />
<polyline fill="none" vector-effect="non-scaling-stroke" points="295,51 303,43 " />
<polyline fill="none" vector-effect="non-scaling-stroke" points="301,51 309,43 " />
<polyline fill="none" vector-effect="non-scaling-stroke" points="307,51 315,43 " />
<polyline fill="none" vector-effect="non-scaling-stroke" points="313,51 320,43 " />
<polyline fill="none" vector-effect="non-scaling-stroke" points="318,51 326,43 " />
<polyline fill="none" vector-effect="non-scaling-stroke" points="324,51 332,43 " />
<polyline fill="none" vector-effect="non-scaling-stroke" points="330,51 337,43 " />
<polyline fill="none" vector-effect="non-scaling-stroke" points="335,51 341,45 " />
<polyline fill="none" vector-effect="non-scaling-stroke" points="377,299 504,171 " />
<polyline fill="none" vector-effect="non-scaling-stroke" points="372,299 504,166 " />
<polyline fill="none" vector-effect="non-scaling-stroke" points="366,299 504,160 " />
<polyline fill="none" vector-effect="non-scaling-stroke" points="360,299 504,154 " />
<polyline fill="none" vector-effect="non-scaling-stroke" points="354,299 504,149 " />
<polyline fill="none" vector-effect="non-scaling-stroke" points="349,299 504,143 " />
<polyline fill="none" vector-effect="non-scaling-stroke" points="343,299 504,137 " />
<polyline fill="none" vector-effect="non-scaling-stroke" points="341,295 504,132 " />
<polyline fill="none" vector-effect="non-scaling-stroke" points="341,290 504,126 " />
<polyline fill="none" vector-effect="non-scaling-stroke" points="341,284 504,120 " />
<polyline fill="none" vector-effect="non-scaling-stroke" points="341,278 504,115 " />
<polyline fill="none" vector-effect="non-scaling-stroke" points="341,273 504,109 " />
<polyline fill="none" vector-effect="non-scaling-stroke" points="341,267 504,103 " />
<polyline fill="none" vector-effect="non-scaling-stroke" points="341,261 504,98 " />
<polyline fill="none" vector-effect="non-scaling-stroke" points="341,256 504,92 " />
<polyline fill="none" vector-effect="non-scaling-stroke" points="341,250 504,86 " />
<polyline fill="none" vector-effect="non-scaling-stroke" points="341,244 504,81 " />
<polyline fill="none" vector-effect="non-scaling-stroke" points="341,238 504,75 " />
<polyline fill="none" vector-effect="non-scaling-stroke" points="341,233 504,69 " />
<polyline fill="none" vector-effect="non-scaling-stroke" points="341,227 504,64 " />
<polyline fill="none" vector-effect="non-scaling-stroke" points="341,221 504,58 " />
<polyline fill="none" vector-effect="non-scaling-stroke" points="341,216 504,52 " />
<polyline fill="none" vector-effect="non-scaling-stroke" points="341,210 500,51 " />
<polyline fill="none" vector-effect="non-scaling-stroke" points="341,204 494,51 " />
<polyline fill="none" vector-effect="non-scaling-stroke" points="341,199 489,51 " />
<polyline fill="none" vector-effect="non-scaling-stroke" points="341,193 483,51 " />
<polyline fill="none" vector-effect="non-scaling-stroke" points="341,187 477,51 " />
<polyline fill="none" vector-effect="non-scaling-stroke" points="341,182 471,51 " />
<polyline fill="none" vector-effect="non-scaling-stroke" points="341,176 466,51 " />
<polyline fill="none" vector-effect="non-scaling-stroke" points="341,170 460,51 " />
<polyline fill="none" vector-effect="non-scaling-stroke" points="341,165 454,51 " />
<polyline fill="none" vector-effect="non-scaling-stroke" points="341,159 449,51 " />
<polyline fill="none" vector-effect="non-scaling-stroke" points="341,153 443,51 " />
<polyline fill="none" vector-effect="non-scaling-stroke" points="341,148 437,51 " />
<polyline fill="none" vector-effect="non-scaling-stroke" points="341,142 432,51 " />
<polyline fill="none" vector-effect="non-scaling-stroke" points="341,136 426,51 " />
<polyline fill="none" vector-effect="non-scaling-stroke" points="341,131 420,51 " />
<polyline fill="none" vector-effect="non-scaling-stroke" points="341,125 415,51 " />
<polyline fill="none" vector-effect="non-scaling-stroke" points="341,119 409,51 " />
<polyline fill="none" vector-effect="non-scaling-stroke" points="341,114 403,51 " />
<polyline fill="none" vector-effect="non-scaling-stroke" points="341,108 398,51 " />
<polyline fill="none" vector-effect="non-scaling-stroke" points="341,102 392,51 " />
<polyline fill="none" vector-effect="non-scaling-stroke" points="341,97 386,51 " />
<polyline fill="none" vector-effect="non-scaling-stroke" points="341,91 381,51 " />
<polyline fill="none" vector-effect="non-scaling-stroke" points="341,85 375,51 " />
<polyline fill="none" vector-effect="non-scaling-stroke" points="341,79 369,51 " />
<polyline fill="none" vector-effect="non-scaling-stroke" points="341,74 364,51 " />
<polyline fill="none" vector-effect="non-scaling-stroke" points="341,68 358,51 " />
<polyline fill="none" vector-effect="non-scaling-stroke" points="341,62 352,51 " />
<polyline fill="none" vector-effect="non-scaling-stroke" points="341,57 347,51 " />
<polyline fill="none" vector-effect="non-scaling-stroke" points="383,299 504,177 " />
<polyline fill="none" vector-effect="non-scaling-stroke" points="389,299 504,183 " />
<polyline fill="none" vector-effect="non-scaling-stroke" points="394,299 504,189 " />
<polyline fill="none" vector-effect="non-scaling-stroke" points="400,299 504,194 " />
<polyline fill="none" vector-effect="non-scaling-stroke" points="406,299 504,200 " />
<polyline fill="none" vector-effect="non-scaling-stroke" points="411,299 504,206 " />
<polyline fill="none" vector-effect="non-scaling-stroke" points="417,299 504,211 " />
<polyline fill="none" vector-effect="non-scaling-stroke" points="423,299 504,217 " />
<polyline fill="none" vector-effect="non-scaling-stroke" points="428,299 504,223 " />
<polyline fill="none" vector-effect="non-scaling-stroke" points="434,299 504,228 " />
<polyline fill="none" vector-effect="non-scaling-stroke" points="440,299 504,234 " />
<polyline fill="none" vector-effect="non-scaling-stroke" points="445,299 504,240 " />
<polyline fill="none" vector-effect="non-scaling-stroke" points="451,299 504,245 " />
<polyline fill="none" vector-effect="non-scaling-stroke" points="457,299 504,251 " />
<polyline fill="none" vector-effect="non-scaling-stroke" points="462,299 504,257 " />
<polyline fill="none" vector-effect="non-scaling-stroke" points="468,299 504,262 " />
<polyline fill="none" vector-effect="non-scaling-stroke" points="474,299 504,268 " />
<polyline fill="none" vector-effect="non-scaling-stroke" points="479,299 504,274 " />
<polyline fill="none" vector-effect="non-scaling-stroke" points="485,299 504,279 " />
<polyline fill="none" vector-effect="non-scaling-stroke" points="491,299 504,285 " />
<polyline fill="none" vector-effect="non-scaling-stroke" points="496,299 504,291 " />
<polyline fill="none" vector-effect="non-scaling-stroke" points="502,299 504,296 " />
<polyline fill="none" vector-effect="non-scaling-stroke" points="341,51 349,43 " />
<polyline fill="none" vector-effect="non-scaling-stroke" points="341,45 343,43 " />
<polyline fill="none" vector-effect="non-scaling-stroke" points="347,51 354,43 " />
<polyline fill="none" vector-effect="non-scaling-stroke" points="352,51 360,43 " />
<polyline fill="none" vector-effect="non-scaling-stroke" points="358,51 366,43 " />
<polyline fill="none" vector-effect="non-scaling-stroke" points="364,51 372,43 " />
<polyline fill="none" vector-effect="non-scaling-stroke" points="369,51 377,43 " />
<polyline fill="none" vector-effect="non-scaling-stroke" points="375,51 383,43 " />
<polyline fill="none" vector-effect="non-scaling-stroke" points="381,51 389,43 " />
<polyline fill="none" vector-effect="non-scaling-stroke" points="386,51 394,43 " />
<polyline fill="none" vector-effect="non-scaling-stroke" points="392,51 400,43 " />
<polyline fill="none" vector-effect="non-scaling-stroke" points="398,51 406,43 " />
<polyline fill="none" vector-effect="non-scaling-stroke" points="403,51 411,43 " />
<polyline fill="none" vector-effect="non-scaling-stroke" points="409,51 417,43 " />
<polyline fill="none" vector-effect="non-scaling-stroke" points="415,51 423,43 " />
<polyline fill="none" vector-effect="non-scaling-stroke" points="420,51 428,43 " />
<polyline fill="none" vector-effect="non-scaling-stroke" points="426,51 434,43 " />
<polyline fill="none" vector-effect="non-scaling-stroke" points="432,51 440,43 " />
<polyline fill="none" vector-effect="non-scaling-stroke" points="437,51 445,43 " />
<polyline fill="none" vector-effect="non-scaling-stroke" points="443,51 451,43 " />
<polyline fill="none" vector-effect="non-scaling-stroke" points="449,51 457,43 " />
<polyline fill="none" vector-effect="non-scaling-stroke" points="454,51 462,43 " />
<polyline fill="none" vector-effect="non-scaling-stroke" points="460,51 468,43 " />
<polyline fill="none" vector-effect="non-scaling-stroke" points="466,51 474,43 " />
<polyline fill="none" vector-effect="non-scaling-stroke" points="471,51 479,43 " />
<polyline fill="none" vector-effect="non-scaling-stroke" points="477,51 485,43 " />
<polyline fill="none" vector-effect="non-scaling-stroke" points="483,51 491,43 " />
<polyline fill="none" vector-effect="non-scaling-stroke" points="489,51 496,43 " />
<polyline fill="none" vector-effect="non-scaling-stroke" points="494,51 502,43 " />
<polyline fill="none" vector-effect="non-scaling-stroke" points="500,51 504,47 " />
<polyline fill="none" vector-effect="non-scaling-stroke" points="57,335 528,335 " />
<polyline fill="none" vector-effect="non-scaling-stroke" points="528,335 528,32 " />
<polyline fill="none" vector-effect="non-scaling-stroke" points="528,32 57,32 " />
<polyline fill="none" vector-effect="non-scaling-stroke" points="57,32 57,335 " />
<polyline fill="none" vector-effect="non-scaling-stroke" points="57,392 528,392 " />
</g>

<g fill="#000000" fill-opacity="1" stroke="#000000" stroke-opacity="1" stroke-width="1" stroke-linecap="round" stroke-linejoin="round" transform="matrix(1,0,0,1,0,0)"
font-family="Cantarell" font-size="11" font-weight="400" font-style="normal" 
>
<path vector-effect="non-scaling-stroke" fill-rule="evenodd" d="M57,392 L64,391 L64,393 L57,392"/>
</g>

<g fill="#000000" fill-opacity="1" stroke="#000000" stroke-opacity="1" stroke-width="1" stroke-linecap="round" stroke-linejoin="round" transform="matrix(1,0,0,1,0,0)"
font-family="Cantarell" font-size="11" font-weight="400" font-style="normal" 
>
<path vector-effect="non-scaling-stroke" fill-rule="evenodd" d="M528,392 L520,393 L520,391 L528,392"/>
<polyline fill="none" vector-effect="non-scaling-stroke" points="279,384 281,383 " />
<polyline fill="none" vector-effect="non-scaling-stroke" points="281,383 281,390 " />
<polyline fill="none" vector-effect="non-scaling-stroke" points="283,386 285,386 " />
<polyline fill="none" vector-effect="non-scaling-stroke" points="286,388 286,387 286,386 285,386 " />
</g>

<g fill="#000000" fill-opacity="1" stroke="none" transform="matrix(1,0,0,1,0,0)"
font-family="Cantarell" font-size="11" font-weight="400" font-style="normal" 
>
<path vector-effect="non-scaling-stroke" fill-rule="evenodd" d="M286.5,388 C286.5,388.276 286.276,388.5 286,388.5 C285.724,388.5 285.5,388.276 285.5,388 C285.5,387.724 285.724,387.5 286,387.5 C286.276,387.5 286.5,387.724 286.5,388 "/>
</g>

<g fill="#000000" fill-opacity="1" stroke="#000000" stroke-opacity="1" stroke-width="1" stroke-linecap="round" stroke-linejoin="round" transform="matrix(1,0,0,1,0,0)"
font-family="Cantarell" font-size="11" font-weight="400" font-style="normal" 
>
<polyline fill="none" vector-effect="non-scaling-stroke" points="283,388 283,389 284,390 285,390 285,390 286,389 286,389 286,388 " />
<polyline fill="none" vector-effect="non-scaling-stroke" points="283,388 283,386 " />
<polyline fill="none" vector-effect="non-scaling-stroke" points="286,383 284,384 283,385 283,386 " />
<polyline fill="none" vector-effect="non-scaling-stroke" points="292,383 289,383 " />
<polyline fill="none" vector-effect="non-scaling-stroke" points="289,383 289,386 " />
<polyline fill="none" vector-effect="non-scaling-stroke" points="289,386 290,386 " />
<polyline fill="none" vector-effect="non-scaling-stroke" points="292,388 292,387 291,386 290,386 " />
</g>

<g fill="#000000" fill-opacity="1" stroke="none" transform="matrix(1,0,0,1,0,0)"
font-family="Cantarell" font-size="11" font-weight="400" font-style="normal" 
>
<path vector-effect="non-scaling-stroke" fill-rule="evenodd" d="M292.5,388 C292.5,388.276 292.276,388.5 292,388.5 C291.724,388.5 291.5,388.276 291.5,388 C291.5,387.724 291.724,387.5 292,387.5 C292.276,387.5 292.5,387.724 292.5,388 "/>
</g>

<g fill="#000000" fill-opacity="1" stroke="#000000" stroke-opacity="1" stroke-width="1" stroke-linecap="round" stroke-linejoin="round" transform="matrix(1,0,0,1,0,0)"
font-family="Cantarell" font-size="11" font-weight="400" font-style="normal" 
>
<polyline fill="none" vector-effect="non-scaling-stroke" points="290,390 291,390 292,389 292,389 292,388 " />
<polyline fill="none" vector-effect="non-scaling-stroke" points="290,390 289,390 " />
</g>

<g fill="#000000" fill-opacity="1" stroke="none" transform="matrix(1,0,0,1,0,0)"
font-family="Cantarell" font-size="11" font-weight="400" font-style="normal" 
>
<path vector-effect="non-scaling-stroke" fill-rule="evenodd" d="M294.5,390 C294.5,390.276 294.276,390.5 294,390.5 C293.724,390.5 293.5,390.276 293.5,390 C293.5,389.724 293.724,389.5 294,389.5 C294.276,389.5 294.5,389.724 294.5,390 "/>
</g>

<g fill="#000000" fill-opacity="1" stroke="#000000" stroke-opacity="1" stroke-width="1" stroke-linecap="round" stroke-linejoin="round" transform="matrix(1,0,0,1,0,0)"
font-family="Cantarell" font-size="11" font-weight="400" font-style="normal" 
>
<polyline fill="none" vector-effect="non-scaling-stroke" points="297,384 297,383 " />
<polyline fill="none" vector-effect="non-scaling-stroke" points="297,383 300,383 " />
<polyline fill="none" vector-effect="non-scaling-stroke" points="300,383 298,390 " />
<polyline fill="none" vector-effect="non-scaling-stroke" points="305,383 302,383 " />
<polyline fill="none" vector-effect="non-scaling-stroke" points="302,383 302,386 " />
<polyline fill="none" vector-effect="non-scaling-stroke" points="302,386 304,386 " />
<polyline fill="none" vector-effect="non-scaling-stroke" points="305,388 305,387 305,386 304,386 " />
</g>

<g fill="#000000" fill-opacity="1" stroke="none" transform="matrix(1,0,0,1,0,0)"
font-family="Cantarell" font-size="11" font-weight="400" font-style="normal" 
>
<path vector-effect="non-scaling-stroke" fill-rule="evenodd" d="M305.5,388 C305.5,388.276 305.276,388.5 305,388.5 C304.724,388.5 304.5,388.276 304.5,388 C304.5,387.724 304.724,387.5 305,387.5 C305.276,387.5 305.5,387.724 305.5,388 "/>
</g>

<g fill="#000000" fill-opacity="1" stroke="#000000" stroke-opacity="1" stroke-width="1" stroke-linecap="round" stroke-linejoin="round" transform="matrix(1,0,0,1,0,0)"
font-family="Cantarell" font-size="11" font-weight="400" font-style="normal" 
>
<polyline fill="none" vector-effect="non-scaling-stroke" points="304,390 304,390 305,389 305,389 305,388 " />
<polyline fill="none" vector-effect="non-scaling-stroke" points="304,390 302,390 " />
<polyline fill="none" vector-effect="non-scaling-stroke" points="57,337 57,395 " />
<polyline fill="none" vector-effect="non-scaling-stroke" points="528,337 528,395 " />
<polyline fill="none" vector-effect="non-scaling-stroke" points="568,32 568,335 " />
</g>

<g fill="#000000" fill-opacity="1" stroke="#000000" stroke-opacity="1" stroke-width="1" stroke-linecap="round" stroke-linejoin="round" transform="matrix(1,0,0,1,0,0)"
font-family="Cantarell" font-size="11" font-weight="400" font-style="normal" 
>
<path vector-effect="non-scaling-stroke" fill-rule="evenodd" d="M568,32 L569,39 L567,39 L568,32"/>
</g>

<g fill="#000000" fill-opacity="1" stroke="#000000" stroke-opacity="1" stroke-width="1" stroke-linecap="round" stroke-linejoin="round" transform="matrix(1,0,0,1,0,0)"
font-family="Cantarell" font-size="11" font-weight="400" font-style="normal" 
>
<path vector-effect="non-scaling-stroke" fill-rule="evenodd" d="M568,335 L567,328 L569,328 L568,335"/>
<polyline fill="none" vector-effect="non-scaling-stroke" points="561,196 559,195 " />
<polyline fill="none" vector-effect="non-scaling-stroke" points="559,195 566,195 " />
<polyline fill="none" vector-effect="non-scaling-stroke" points="560,190 559,190 559,191 559,191 560,192 " />
<polyline fill="none" vector-effect="non-scaling-stroke" points="560,192 561,192 563,192 565,192 566,192 " />
<polyline fill="none" vector-effect="non-scaling-stroke" points="566,192 566,191 566,191 566,190 " />
<polyline fill="none" vector-effect="non-scaling-stroke" points="566,190 564,189 562,189 560,190 " />
<polyline fill="none" vector-effect="non-scaling-stroke" points="562,187 562,185 " />
<polyline fill="none" vector-effect="non-scaling-stroke" points="564,184 563,184 563,185 562,185 " />
<polyline fill="none" vector-effect="non-scaling-stroke" points="564,184 565,184 " />
<polyline fill="none" vector-effect="non-scaling-stroke" points="565,187 565,187 566,186 566,185 566,185 566,184 565,184 " />
<polyline fill="none" vector-effect="non-scaling-stroke" points="565,187 562,187 " />
<polyline fill="none" vector-effect="non-scaling-stroke" points="559,185 560,186 561,187 562,187 " />
</g>

<g fill="#000000" fill-opacity="1" stroke="none" transform="matrix(1,0,0,1,0,0)"
font-family="Cantarell" font-size="11" font-weight="400" font-style="normal" 
>
<path vector-effect="non-scaling-stroke" fill-rule="evenodd" d="M566.5,181 C566.5,181.276 566.276,181.5 566,181.5 C565.724,181.5 565.5,181.276 565.5,181 C565.5,180.724 565.724,180.5 566,180.5 C566.276,180.5 566.5,180.724 566.5,181 "/>
</g>

<g fill="#000000" fill-opacity="1" stroke="#000000" stroke-opacity="1" stroke-width="1" stroke-linecap="round" stroke-linejoin="round" transform="matrix(1,0,0,1,0,0)"
font-family="Cantarell" font-size="11" font-weight="400" font-style="normal" 
>
<polyline fill="none" vector-effect="non-scaling-stroke" points="560,179 559,179 " />
<polyline fill="none" vector-effect="non-scaling-stroke" points="559,179 559,176 " />
<polyline fill="none" vector-effect="non-scaling-stroke" points="559,176 566,178 " />
<polyline fill="none" vector-effect="non-scaling-stroke" points="563,170 563,172 " />
<polyline fill="none" vector-effect="non-scaling-stroke" points="562,174 562,173 563,173 563,172 " />
<polyline fill="none" vector-effect="non-scaling-stroke" points="562,174 561,174 " />
<polyline fill="none" vector-effect="non-scaling-stroke" points="561,170 560,171 559,171 559,172 559,173 560,173 560,174 561,174 " />
<polyline fill="none" vector-effect="non-scaling-stroke" points="561,170 563,170 " />
<polyline fill="none" vector-effect="non-scaling-stroke" points="566,173 565,171 564,171 563,170 " />
<polyline fill="none" vector-effect="non-scaling-stroke" points="529,32 572,32 " />
<polyline fill="none" vector-effect="non-scaling-stroke" points="529,335 572,335 " />
<polyline fill="none" vector-effect="non-scaling-stroke" points="68,43 504,43 " />
<polyline fill="none" vector-effect="non-scaling-stroke" points="504,43 504,299 " />
<polyline fill="none" vector-effect="non-scaling-stroke" points="504,299 68,299 " />
<polyline fill="none" vector-effect="non-scaling-stroke" points="68,299 68,43 " />
<polyline fill="none" vector-effect="non-scaling-stroke" points="540,299 540,43 " />
</g>

<g fill="#000000" fill-opacity="1" stroke="#000000" stroke-opacity="1" stroke-width="1" stroke-linecap="round" stroke-linejoin="round" transform="matrix(1,0,0,1,0,0)"
font-family="Cantarell" font-size="11" font-weight="400" font-style="normal" 
>
<path vector-effect="non-scaling-stroke" fill-rule="evenodd" d="M540,299 L538,292 L541,292 L540,299"/>
</g>

<g fill="#000000" fill-opacity="1" stroke="#000000" stroke-opacity="1" stroke-width="1" stroke-linecap="round" stroke-linejoin="round" transform="matrix(1,0,0,1,0,0)"
font-family="Cantarell" font-size="11" font-weight="400" font-style="normal" 
>
<path vector-effect="non-scaling-stroke" fill-rule="evenodd" d="M540,43 L541,50 L538,50 L540,43"/>
<polyline fill="none" vector-effect="non-scaling-stroke" points="535,172 535,174 " />
<polyline fill="none" vector-effect="non-scaling-stroke" points="533,175 534,175 534,175 535,174 " />
<polyline fill="none" vector-effect="non-scaling-stroke" points="533,175 532,175 " />
<polyline fill="none" vector-effect="non-scaling-stroke" points="532,172 532,172 531,173 531,174 531,174 531,175 532,175 " />
<polyline fill="none" vector-effect="non-scaling-stroke" points="532,172 535,172 " />
<polyline fill="none" vector-effect="non-scaling-stroke" points="538,174 537,173 536,172 535,172 " />
<polyline fill="none" vector-effect="non-scaling-stroke" points="531,167 531,168 531,168 531,169 " />
<polyline fill="none" vector-effect="non-scaling-stroke" points="531,169 533,170 535,170 537,169 " />
<polyline fill="none" vector-effect="non-scaling-stroke" points="537,169 538,169 538,168 538,168 537,167 " />
<polyline fill="none" vector-effect="non-scaling-stroke" points="537,167 536,167 534,167 532,167 531,167 " />
<polyline fill="none" vector-effect="non-scaling-stroke" points="506,299 543,299 " />
<polyline fill="none" vector-effect="non-scaling-stroke" points="506,43 543,43 " />
<polyline fill="none" vector-effect="non-scaling-stroke" points="68,363 504,363 " />
</g>

<g fill="#000000" fill-opacity="1" stroke="#000000" stroke-opacity="1" stroke-width="1" stroke-linecap="round" stroke-linejoin="round" transform="matrix(1,0,0,1,0,0)"
font-family="Cantarell" font-size="11" font-weight="400" font-style="normal" 
>
<path vector-effect="non-scaling-stroke" fill-rule="evenodd" d="M68,363 L75,362 L75,365 L68,363"/>
</g>

<g fill="#000000" fill-opacity="1" stroke="#000000" stroke-opacity="1" stroke-width="1" stroke-linecap="round" stroke-linejoin="round" transform="matrix(1,0,0,1,0,0)"
font-family="Cantarell" font-size="11" font-weight="400" font-style="normal" 
>
<path vector-effect="non-scaling-stroke" fill-rule="evenodd" d="M504,363 L497,365 L497,362 L504,363"/>
<polyline fill="none" vector-effect="non-scaling-stroke" points="276,356 278,355 " />
<polyline fill="none" vector-effect="non-scaling-stroke" points="278,355 278,362 " />
<polyline fill="none" vector-effect="non-scaling-stroke" points="283,355 280,355 " />
<polyline fill="none" vector-effect="non-scaling-stroke" points="280,355 280,358 " />
<polyline fill="none" vector-effect="non-scaling-stroke" points="280,358 282,358 " />
<polyline fill="none" vector-effect="non-scaling-stroke" points="283,359 283,358 283,358 282,358 " />
<polyline fill="none" vector-effect="non-scaling-stroke" points="283,359 283,360 " />
<polyline fill="none" vector-effect="non-scaling-stroke" points="282,362 282,361 283,361 283,360 " />
<polyline fill="none" vector-effect="non-scaling-stroke" points="282,362 280,362 " />
<polyline fill="none" vector-effect="non-scaling-stroke" points="286,355 287,355 " />
<polyline fill="none" vector-effect="non-scaling-stroke" points="287,358 288,357 289,357 289,356 289,355 288,355 287,355 " />
<polyline fill="none" vector-effect="non-scaling-stroke" points="286,358 287,358 " />
<polyline fill="none" vector-effect="non-scaling-stroke" points="289,359 289,358 288,358 287,358 " />
<polyline fill="none" vector-effect="non-scaling-stroke" points="289,359 289,360 " />
<polyline fill="none" vector-effect="non-scaling-stroke" points="287,362 288,361 289,361 289,360 " />
<polyline fill="none" vector-effect="non-scaling-stroke" points="287,362 286,362 " />
<polyline fill="none" vector-effect="non-scaling-stroke" points="291,362 291,361 " />
<polyline fill="none" vector-effect="non-scaling-stroke" points="293,358 295,358 " />
<polyline fill="none" vector-effect="non-scaling-stroke" points="297,359 296,358 296,358 295,358 " />
<polyline fill="none" vector-effect="non-scaling-stroke" points="297,359 297,360 " />
<polyline fill="none" vector-effect="non-scaling-stroke" points="293,360 294,361 294,361 295,362 296,361 296,361 297,360 " />
<polyline fill="none" vector-effect="non-scaling-stroke" points="293,360 293,358 " />
<polyline fill="none" vector-effect="non-scaling-stroke" points="296,355 294,355 294,357 293,358 " />
<polyline fill="none" vector-effect="non-scaling-stroke" points="68,45 68,367 " />
<polyline fill="none" vector-effect="non-scaling-stroke" points="504,45 504,367 " />
<polyline fill="none" vector-effect="non-scaling-stroke" points="43,14 83,14 " />
</g>

<g fill="#000000" fill-opacity="1" stroke="#000000" stroke-opacity="1" stroke-width="1" stroke-linecap="round" stroke-linejoin="round" transform="matrix(1,0,0,1,0,0)"
font-family="Cantarell" font-size="11" font-weight="400" font-style="normal" 
>
<path vector-effect="non-scaling-stroke" fill-rule="evenodd" d="M57,14 L50,15 L50,13 L57,14"/>
</g>

<g fill="#000000" fill-opacity="1" stroke="#000000" stroke-opacity="1" stroke-width="1" stroke-linecap="round" stroke-linejoin="round" transform="matrix(1,0,0,1,0,0)"
font-family="Cantarell" font-size="11" font-weight="400" font-style="normal" 
>
<path vector-effect="non-scaling-stroke" fill-rule="evenodd" d="M68,14 L75,13 L75,15 L68,14"/>
<polyline fill="none" vector-effect="non-scaling-stroke" points="62,5 61,11 " />
<polyline fill="none" vector-effect="non-scaling-stroke" points="61,11 65,11 " />
<polyline fill="none" vector-effect="non-scaling-stroke" points="63,9 63,12 " />
<polyline fill="none" vector-effect="non-scaling-stroke" points="57,41 57,11 " />
<polyline fill="none" vector-effect="non-scaling-stroke" points="68,41 68,11 " />
<polyline fill="none" vector-effect="non-scaling-stroke" points="37,18 37,57 " />
</g>

<g fill="#000000" fill-opacity="1" stroke="#000000" stroke-opacity="1" stroke-width="1" stroke-linecap="round" stroke-linejoin="round" transform="matrix(1,0,0,1,0,0)"
font-family="Cantarell" font-size="11" font-weight="400" font-style="normal" 
>
<path vector-effect="non-scaling-stroke" fill-rule="evenodd" d="M37,32 L36,25 L38,25 L37,32"/>
</g>

<g fill="#000000" fill-opacity="1" stroke="#000000" stroke-opacity="1" stroke-width="1" stroke-linecap="round" stroke-linejoin="round" transform="matrix(1,0,0,1,0,0)"
font-family="Cantarell" font-size="11" font-weight="400" font-style="normal" 
>
<path vector-effect="non-scaling-stroke" fill-rule="evenodd" d="M37,43 L38,50 L36,50 L37,43"/>
<polyline fill="none" vector-effect="non-scaling-stroke" points="28,38 34,39 " />
<polyline fill="none" vector-effect="non-scaling-stroke" points="34,39 34,36 " />
<polyline fill="none" vector-effect="non-scaling-stroke" points="32,37 35,37 " />
<polyline fill="none" vector-effect="non-scaling-stroke" points="67,32 34,32 " />
<polyline fill="none" vector-effect="non-scaling-stroke" points="67,43 34,43 " />
</g>
</g>
</svg>
