999
dxfrw 0.6.3
  0
SECTION
  2
HEADER
  9
$ACADVER
  1
AC1021
  9
$DWGCODEPAGE
  3
ANSI_1252
  9
$INSBASE
 10
0
 20
0
 30
0
  9
$EXTMIN
 10
-73.125
 20
-160
 30
0
  9
$EXTMAX
 10
190
 20
23.125
 30
0
  9
$LIMMIN
 10
0
 20
0
  9
$LIMMAX
 10
420
 20
297
  9
$ORTHOMODE
 70
    0
  9
$REGENMODE
 70
    1
  9
$FILLMODE
 70
    1
  9
$QTEXTMODE
 70
    0
  9
$MIRRTEXT
 70
    0
  9
$LTSCALE
 40
1
  9
$ATTMODE
 70
    0
  9
$TEXTSIZE
 40
2.5
  9
$TRACEWID
 40
15.68
  9
$TEXTSTYLE
  7
STANDARD
  9
$CLAYER
  8
annotation
  9
$CELTYPE
  6
BYLAYER
  9
$CECOLOR
 62
  256
  9
$CELTSCALE
 40
1
  9
$DISPSILH
 70
    0
  9
$DIMSCALE
 40
1
  9
$DIMASZ
 40
2.5
  9
$DIMEXO
 40
0.625
  9
$DIMDLI
 40
3.75
  9
$DIMRND
 40
0
  9
$DIMDLE
 40
0
  9
$DIMEXE
 40
1.25
  9
$DIMTP
 40
0
  9
$DIMTM
 40
0
  9
$DIMTXT
 40
2.5
  9
$DIMCEN
 40
2.5
  9
$DIMTSZ
 40
0
  9
$DIMTOL
 70
    0
  9
$DIMLIM
 70
    0
  9
$DIMTIH
 70
    0
  9
$DIMTOH
 70
    0
  9
$DIMSE1
 70
    0
  9
$DIMSE2
 70
    0
  9
$DIMTAD
 70
    1
  9
$DIMZIN
 70
    8
  9
$DIMBLK
  1

  9
$DIMASO
 70
    1
  9
$DIMSHO
 70
    1
  9
$DIMPOST
  1

  9
$DIMAPOST
  1

  9
$DIMALT
 70
    0
  9
$DIMALTD
 70
    3
  9
$DIMALTF
 40
0.03937
  9
$DIMLFAC
 40
1
  9
$DIMTOFL
 70
    1
  9
$DIMTVP
 40
0
  9
$DIMTIX
 70
    0
  9
$DIMSOXD
 70
    0
  9
$DIMSAH
 70
    0
  9
$DIMBLK1
  1

  9
$DIMBLK2
  1

  9
$DIMSTYLE
  2
STANDARD
  9
$DIMCLRD
 70
    0
  9
$DIMCLRE
 70
    0
  9
$DIMCLRT
 70
    0
  9
$DIMTFAC
 40
1
  9
$DIMGAP
 40
0.625
  9
$DIMJUST
 70
    0
  9
$DIMSD1
 70
    0
  9
$DIMSD2
 70
    0
  9
$DIMTOLJ
 70
    0
  9
$DIMTZIN
 70
    8
  9
$DIMALTZ
 70
    0
  9
$DIMALTTZ
 70
    0
  9
$DIMUPT
 70
    0
  9
$DIMDEC
 70
    2
  9
$DIMTDEC
 70
    2
  9
$DIMALTU
 70
    2
  9
$DIMALTTD
 70
    3
  9
$DIMTXSTY
  7
standard
  9
$DIMAUNIT
 70
    0
  9
$DIMADEC
 70
    0
  9
$DIMALTRND
 40
0
  9
$DIMAZIN
 70
    0
  9
$DIMDSEP
 70
   44
  9
$DIMATFIT
 70
    3
  9
$DIMFRAC
 70
    0
  9
$DIMLDRBLK
  1
STANDARD
  9
$DIMLUNIT
 70
    2
  9
$DIMLWD
 70
   -2
  9
$DIMLWE
 70
   -2
  9
$DIMTMOVE
 70
    0
  9
$DIMFXL
 40
1
  9
$DIMFXLON
 70
    0
  9
$DIMJOGANG
 40
0.7854
  9
$DIMTFILL
 70
    0
  9
$DIMTFILLCLR
 70
    0
  9
$DIMARCSYM
 70
    0
  9
$DIMLTYPE
  6

  9
$DIMLTEX1
  6

  9
$DIMLTEX2
  6

  9
$LUNITS
 70
    2
  9
$LUPREC
 70
    4
  9
$SKETCHINC
 40
1
  9
$FILLETRAD
 40
0
  9
$AUNITS
 70
    0
  9
$AUPREC
 70
    2
  9
$MENU
  1
.
  9
$ELEVATION
 40
0
  9
$PELEVATION
 40
0
  9
$THICKNESS
 40
0
  9
$LIMCHECK
 70
    0
  9
$CHAMFERA
 40
0
  9
$CHAMFERB
 40
0
  9
$CHAMFERC
 40
0
  9
$CHAMFERD
 40
0
  9
$SKPOLY
 70
    0
  9
$USRTIMER
 70
    1
  9
$ANGBASE
 50
0
  9
$ANGDIR
 70
    0
  9
$PDMODE
 70
   34
  9
$PDSIZE
 40
0
  9
$PLINEWID
 40
0
  9
$SPLFRAME
 70
    0
  9
$SPLINETYPE
 70
    2
  9
$SPLINESEGS
 70
    8
  9
$HANDSEED
  5
20000
  9
$SURFTAB1
 70
    6
  9
$SURFTAB2
 70
    6
  9
$SURFTYPE
 70
    6
  9
$SURFU
 70
    6
  9
$SURFV
 70
    6
  9
$UCSBASE
  2

  9
$UCSNAME
  2

  9
$UCSORG
 10
0
 20
0
 30
0
  9
$UCSXDIR
 10
1
 20
0
 30
0
  9
$UCSYDIR
 10
0
 20
1
 30
0
  9
$UCSORTHOREF
  2

  9
$UCSORTHOVIEW
 70
    0
  9
$UCSORGTOP
 10
0
 20
0
 30
0
  9
$UCSORGBOTTOM
 10
0
 20
0
 30
0
  9
$UCSORGLEFT
 10
0
 20
0
 30
0
  9
$UCSORGRIGHT
 10
0
 20
0
 30
0
  9
$UCSORGFRONT
 10
0
 20
0
 30
0
  9
$UCSORGBACK
 10
0
 20
0
 30
0
  9
$PUCSBASE
  2

  9
$PUCSNAME
  2

  9
$PUCSORG
 10
0
 20
0
 30
0
  9
$PUCSXDIR
 10
1
 20
0
 30
0
  9
$PUCSYDIR
 10
0
 20
1
 30
0
  9
$PUCSORTHOREF
  2

  9
$PUCSORTHOVIEW
 70
    0
  9
$PUCSORGTOP
 10
0
 20
0
 30
0
  9
$PUCSORGBOTTOM
 10
0
 20
0
 30
0
  9
$PUCSORGLEFT
 10
0
 20
0
 30
0
  9
$PUCSORGRIGHT
 10
0
 20
0
 30
0
  9
$PUCSORGFRONT
 10
0
 20
0
 30
0
  9
$PUCSORGBACK
 10
0
 20
0
 30
0
  9
$USERI1
 70
    0
  9
$USERI2
 70
    0
  9
$USERI3
 70
    0
  9
$USERI4
 70
    0
  9
$USERI5
 70
    0
  9
$USERR1
 40
0
  9
$USERR2
 40
0
  9
$USERR3
 40
0
  9
$USERR4
 40
0
  9
$USERR5
 40
0
  9
$WORLDVIEW
 70
    1
  9
$SHADEDGE
 70
    3
  9
$SHADEDIF
 70
   70
  9
$TILEMODE
 70
    1
  9
$MAXACTVP
 70
   64
  9
$PINSBASE
 10
89.46416382252561
 20
174.1382252559727
 30
0
  9
$PLIMCHECK
 70
    0
  9
$PEXTMIN
 10
0
 20
0
 30
0
  9
$PEXTMAX
 10
0
 20
0
 30
0
  9
$GRIDMODE
 70
    1
  9
$SNAPSTYLE
 70
    0
  9
$GRIDUNIT
 10
0
 20
0
  9
$PLIMMIN
 10
0
 20
0
  9
$PLIMMAX
 10
297
 20
210
  9
$UNITMODE
 70
    0
  9
$VISRETAIN
 70
    1
  9
$PLINEGEN
 70
    0
  9
$PSLTSCALE
 70
    1
  9
$TREEDEPTH
 70
 3020
  9
$CMLSTYLE
  2
Standard
  9
$CMLJUST
 70
    0
  9
$CMLSCALE
 40
20
  9
$PROXYGRAPHICS
 70
    1
  9
$MEASUREMENT
 70
    1
  9
$CELWEIGHT
370
   -1
  9
$ENDCAPS
280
    0
  9
$JOINSTYLE
280
    0
  9
$LWDISPLAY
290
    0
  9
$INSUNITS
 70
    0
  9
$HYPERLINKBASE
  1

  9
$STYLESHEET
  1

  9
$XEDIT
290
    1
  9
$CEPSNTYPE
380
    0
  9
$PSTYLEMODE
290
    1
  9
$EXTNAMES
290
    1
  9
$PSVPSCALE
 40
1.01024
  9
$OLESTARTUP
290
    0
  9
$SORTENTS
280
  127
  9
$INDEXCTL
280
    0
  9
$HIDETEXT
280
    1
  9
$XCLIPFRAME
290
    0
  9
$HALOGAP
280
    0
  9
$OBSCOLOR
 70
  257
  9
$OBSLTYPE
280
    0
  9
$INTERSECTIONDISPLAY
280
    0
  9
$INTERSECTIONCOLOR
 70
  257
  9
$DIMASSOC
280
    1
  9
$PROJECTNAME
  1

  9
$CAMERADISPLAY
290
    0
  9
$LENSLENGTH
 40
50
  9
$CAMERAHEIGHT
 40
0
  9
$STEPSPERSEC
 40
2
  9
$STEPSIZE
 40
50
  9
$3DDWFPREC
 40
2
  9
$PSOLWIDTH
 40
5
  9
$PSOLHEIGHT
 40
80
  9
$LOFTANG1
 40
1.570796326794897
  9
$LOFTANG2
 40
1.570796326794897
  9
$LOFTMAG1
 40
0
  9
$LOFTMAG2
 40
0
  9
$LOFTPARAM
 70
    7
  9
$LOFTNORMALS
280
    1
  9
$LATITUDE
 40
1
  9
$LONGITUDE
 40
1
  9
$NORTHDIRECTION
 40
0
  9
$TIMEZONE
 70
-8000
  9
$LIGHTGLYPHDISPLAY
280
    1
  9
$TILEMODELIGHTSYNCH
280
    1
  9
$SOLIDHIST
280
    1
  9
$SHOWHIST
280
    1
  9
$DWFFRAME
280
    2
  9
$DGNFRAME
280
    0
  9
$REALWORLDSCALE
290
    1
  9
$INTERFERECOLOR
 62
    1
  9
$CSHADOW
280
    0
  9
$SHADOWPLANELOCATION
 40
0
  0
ENDSEC
  0
SECTION
  2
CLASSES
  0
ENDSEC
  0
SECTION
  2
TABLES
  0
TABLE
  2
VPORT
  5
8
330
0
100
AcDbSymbolTable
 70
    1
  0
VPORT
  5
31
330
2
100
AcDbSymbolTableRecord
100
AcDbViewportTableRecord
  2
*ACTIVE
 70
    0
 10
0
 20
0
 11
1
 21
1
 12
96.12117346938774
 22
15.89489795918367
 13
0
 23
0
 14
10
 24
10
 15
10
 25
10
 16
0
 26
0
 36
1
 17
0
 27
0
 37
0
 40
200.4045918367347
 41
1.334405144694534
 42
50
 43
0
 44
0
 50
0
 51
0
 71
    0
 72
  100
 73
    1
 74
    3
 75
    0
 76
    1
 77
    0
 78
    0
281
    0
 65
    1
110
0
120
0
130
0
111
1
121
0
131
0
112
0
122
1
132
0
 79
    0
146
0
348
10020
 60
    7
 61
    5
292
1
282
    1
141
0
142
0
 63
  250
421
3358443
  0
ENDTAB
  0
TABLE
  2
LTYPE
  5
5
330
0
100
AcDbSymbolTable
 70
    4
  0
LTYPE
  5
14
330
5
100
AcDbSymbolTableRecord
100
AcDbLinetypeTableRecord
  2
ByBlock
 70
    0
  3

 72
   65
 73
    0
 40
0
  0
LTYPE
  5
15
330
5
100
AcDbSymbolTableRecord
100
AcDbLinetypeTableRecord
  2
ByLayer
 70
    0
  3

 72
   65
 73
    0
 40
0
  0
LTYPE
  5
16
330
5
100
AcDbSymbolTableRecord
100
AcDbLinetypeTableRecord
  2
Continuous
 70
    0
  3
Solid line
 72
   65
 73
    0
 40
0
  0
LTYPE
  5
32
330
5
100
AcDbSymbolTableRecord
100
AcDbLinetypeTableRecord
  2
DOT
 70
    0
  3
Dot . . . . . . . . . . . . . . . . . . . . . .
 72
   65
 73
    2
 40
6.35
 49
0
 74
    0
 49
-6.35
 74
    0
  0
LTYPE
  5
33
330
5
100
AcDbSymbolTableRecord
100
AcDbLinetypeTableRecord
  2
DOTTINY
 70
    0
  3
Dot (.15x) .....................................
 72
   65
 73
    2
 40
0.9525
 49
0
 74
    0
 49
-0.9525
 74
    0
  0
LTYPE
  5
34
330
5
100
AcDbSymbolTableRecord
100
AcDbLinetypeTableRecord
  2
DOT2
 70
    0
  3
Dot (.5x) .....................................
 72
   65
 73
    2
 40
3.175
 49
0
 74
    0
 49
-3.175
 74
    0
  0
LTYPE
  5
35
330
5
100
AcDbSymbolTableRecord
100
AcDbLinetypeTableRecord
  2
DOTX2
 70
    0
  3
Dot (2x) .  .  .  .  .  .  .  .  .  .  .  .  .
 72
   65
 73
    2
 40
12.7
 49
0
 74
    0
 49
-12.7
 74
    0
  0
LTYPE
  5
36
330
5
100
AcDbSymbolTableRecord
100
AcDbLinetypeTableRecord
  2
DASHED
 70
    0
  3
Dashed _ _ _ _ _ _ _ _ _ _ _ _ _ _ _ _ _
 72
   65
 73
    2
 40
19.05
 49
12.7
 74
    0
 49
-6.35
 74
    0
  0
LTYPE
  5
37
330
5
100
AcDbSymbolTableRecord
100
AcDbLinetypeTableRecord
  2
DASHEDTINY
 70
    0
  3
Dashed (.15x) _ _ _ _ _ _ _ _ _ _ _ _ _ _ _ _ _
 72
   65
 73
    2
 40
2.8575
 49
1.905
 74
    0
 49
-0.9525
 74
    0
  0
LTYPE
  5
38
330
5
100
AcDbSymbolTableRecord
100
AcDbLinetypeTableRecord
  2
DASHED2
 70
    0
  3
Dashed (.5x) _ _ _ _ _ _ _ _ _ _ _ _ _ _ _ _ _
 72
   65
 73
    2
 40
9.524999999999999
 49
6.35
 74
    0
 49
-3.175
 74
    0
  0
LTYPE
  5
39
330
5
100
AcDbSymbolTableRecord
100
AcDbLinetypeTableRecord
  2
DASHEDX2
 70
    0
  3
Dashed (2x) ____  ____  ____  ____  ____  ___
 72
   65
 73
    2
 40
38.09999999999999
 49
25.4
 74
    0
 49
-12.7
 74
    0
  0
LTYPE
  5
3A
330
5
100
AcDbSymbolTableRecord
100
AcDbLinetypeTableRecord
  2
DASHDOT
 70
    0
  3
Dash dot __ . __ . __ . __ . __ . __ . __ . __
 72
   65
 73
    4
 40
25.4
 49
12.7
 74
    0
 49
-6.35
 74
    0
 49
0
 74
    0
 49
-6.35
 74
    0
  0
LTYPE
  5
3B
330
5
100
AcDbSymbolTableRecord
100
AcDbLinetypeTableRecord
  2
DASHDOTTINY
 70
    0
  3
Dash dot (.15x) _._._._._._._._._._._._._._._.
 72
   65
 73
    4
 40
3.81
 49
1.905
 74
    0
 49
-0.9525
 74
    0
 49
0
 74
    0
 49
-0.9525
 74
    0
  0
LTYPE
  5
3C
330
5
100
AcDbSymbolTableRecord
100
AcDbLinetypeTableRecord
  2
DASHDOT2
 70
    0
  3
Dash dot (.5x) _._._._._._._._._._._._._._._.
 72
   65
 73
    4
 40
12.7
 49
6.35
 74
    0
 49
-3.175
 74
    0
 49
0
 74
    0
 49
-3.175
 74
    0
  0
LTYPE
  5
3D
330
5
100
AcDbSymbolTableRecord
100
AcDbLinetypeTableRecord
  2
DASHDOTX2
 70
    0
  3
Dash dot (2x) ____  .  ____  .  ____  .  ___
 72
   65
 73
    4
 40
50.8
 49
25.4
 74
    0
 49
-12.7
 74
    0
 49
0
 74
    0
 49
-12.7
 74
    0
  0
LTYPE
  5
3E
330
5
100
AcDbSymbolTableRecord
100
AcDbLinetypeTableRecord
  2
DIVIDE
 70
    0
  3
Divide ____ . . ____ . . ____ . . ____ . . ____
 72
   65
 73
    6
 40
31.75
 49
12.7
 74
    0
 49
-6.35
 74
    0
 49
0
 74
    0
 49
-6.35
 74
    0
 49
0
 74
    0
 49
-6.35
 74
    0
  0
LTYPE
  5
3F
330
5
100
AcDbSymbolTableRecord
100
AcDbLinetypeTableRecord
  2
DIVIDETINY
 70
    0
  3
Divide (.15x) __..__..__..__..__..__..__..__.._
 72
   65
 73
    6
 40
4.7625
 49
1.905
 74
    0
 49
-0.9525
 74
    0
 49
0
 74
    0
 49
-0.9525
 74
    0
 49
0
 74
    0
 49
-0.9525
 74
    0
  0
LTYPE
  5
40
330
5
100
AcDbSymbolTableRecord
100
AcDbLinetypeTableRecord
  2
DIVIDE2
 70
    0
  3
Divide (.5x) __..__..__..__..__..__..__..__.._
 72
   65
 73
    6
 40
15.875
 49
6.35
 74
    0
 49
-3.175
 74
    0
 49
0
 74
    0
 49
-3.175
 74
    0
 49
0
 74
    0
 49
-3.175
 74
    0
  0
LTYPE
  5
41
330
5
100
AcDbSymbolTableRecord
100
AcDbLinetypeTableRecord
  2
DIVIDEX2
 70
    0
  3
Divide (2x) ________  .  .  ________  .  .  _
 72
   65
 73
    6
 40
63.5
 49
25.4
 74
    0
 49
-12.7
 74
    0
 49
0
 74
    0
 49
-12.7
 74
    0
 49
0
 74
    0
 49
-12.7
 74
    0
  0
LTYPE
  5
42
330
5
100
AcDbSymbolTableRecord
100
AcDbLinetypeTableRecord
  2
BORDER
 70
    0
  3
Border __ __ . __ __ . __ __ . __ __ . __ __ .
 72
   65
 73
    6
 40
44.45
 49
12.7
 74
    0
 49
-6.35
 74
    0
 49
12.7
 74
    0
 49
-6.35
 74
    0
 49
0
 74
    0
 49
-6.35
 74
    0
  0
LTYPE
  5
43
330
5
100
AcDbSymbolTableRecord
100
AcDbLinetypeTableRecord
  2
BORDERTINY
 70
    0
  3
Border (.15x) __.__.__.__.__.__.__.__.__.__.__.
 72
   65
 73
    6
 40
6.6675
 49
1.905
 74
    0
 49
-0.9525
 74
    0
 49
1.905
 74
    0
 49
-0.9525
 74
    0
 49
0
 74
    0
 49
-0.9525
 74
    0
  0
LTYPE
  5
44
330
5
100
AcDbSymbolTableRecord
100
AcDbLinetypeTableRecord
  2
BORDER2
 70
    0
  3
Border (.5x) __.__.__.__.__.__.__.__.__.__.__.
 72
   65
 73
    6
 40
22.225
 49
6.35
 74
    0
 49
-3.175
 74
    0
 49
6.35
 74
    0
 49
-3.175
 74
    0
 49
0
 74
    0
 49
-3.175
 74
    0
  0
LTYPE
  5
45
330
5
100
AcDbSymbolTableRecord
100
AcDbLinetypeTableRecord
  2
BORDERX2
 70
    0
  3
Border (2x) ____  ____  .  ____  ____  .  ___
 72
   65
 73
    6
 40
88.89999999999999
 49
25.4
 74
    0
 49
-12.7
 74
    0
 49
25.4
 74
    0
 49
-12.7
 74
    0
 49
0
 74
    0
 49
-12.7
 74
    0
  0
LTYPE
  5
46
330
5
100
AcDbSymbolTableRecord
100
AcDbLinetypeTableRecord
  2
CENTER
 70
    0
  3
Center ____ _ ____ _ ____ _ ____ _ ____ _ ____
 72
   65
 73
    4
 40
50.8
 49
31.75
 74
    0
 49
-6.35
 74
    0
 49
6.35
 74
    0
 49
-6.35
 74
    0
  0
LTYPE
  5
47
330
5
100
AcDbSymbolTableRecord
100
AcDbLinetypeTableRecord
  2
CENTERTINY
 70
    0
  3
Center (.15x) ___ _ ___ _ ___ _ ___ _ ___ _ ___
 72
   65
 73
    4
 40
7.619999999999999
 49
4.7625
 74
    0
 49
-0.9525
 74
    0
 49
0.9525
 74
    0
 49
-0.9525
 74
    0
  0
LTYPE
  5
48
330
5
100
AcDbSymbolTableRecord
100
AcDbLinetypeTableRecord
  2
CENTER2
 70
    0
  3
Center (.5x) ___ _ ___ _ ___ _ ___ _ ___ _ ___
 72
   65
 73
    4
 40
28.575
 49
19.05
 74
    0
 49
-3.175
 74
    0
 49
3.175
 74
    0
 49
-3.175
 74
    0
  0
LTYPE
  5
49
330
5
100
AcDbSymbolTableRecord
100
AcDbLinetypeTableRecord
  2
CENTERX2
 70
    0
  3
Center (2x) ________  __  ________  __  _____
 72
   65
 73
    4
 40
101.6
 49
63.5
 74
    0
 49
-12.7
 74
    0
 49
12.7
 74
    0
 49
-12.7
 74
    0
  0
ENDTAB
  0
TABLE
  2
LAYER
  5
2
330
0
100
AcDbSymbolTable
 70
    1
  0
LAYER
  5
10
330
2
100
AcDbSymbolTableRecord
100
AcDbLayerTableRecord
  2
0
 70
    0
 62
    7
  6
CONTINUOUS
370
    0
390
F
  0
LAYER
  5
4A
330
2
100
AcDbSymbolTableRecord
100
AcDbLayerTableRecord
  2
BananaPro_ETHERNET
 70
    0
 62
    7
  6
CONTINUOUS
370
   35
390
F
  0
LAYER
  5
4B
330
2
100
AcDbSymbolTableRecord
100
AcDbLayerTableRecord
  2
BananaPro_GPIO
 70
    0
 62
    7
  6
CONTINUOUS
370
   35
390
F
  0
LAYER
  5
4C
330
2
100
AcDbSymbolTableRecord
100
AcDbLayerTableRecord
  2
BananaPro_USB
 70
    0
 62
    7
  6
CONTINUOUS
370
   35
390
F
  0
LAYER
  5
4D
330
2
100
AcDbSymbolTableRecord
100
AcDbLayerTableRecord
  2
BananaPro_anotation
 70
    0
 62
    7
  6
CONTINUOUS
370
   13
390
F
  0
LAYER
  5
4E
330
2
100
AcDbSymbolTableRecord
100
AcDbLayerTableRecord
  2
BananaPro_construction
 70
    1
 62
    5
  6
CONTINUOUS
370
    0
390
F
  0
LAYER
  5
4F
330
2
100
AcDbSymbolTableRecord
100
AcDbLayerTableRecord
  2
BananaPro_dimension
 70
    0
 62
    7
  6
CONTINUOUS
370
   13
390
F
  0
LAYER
  5
50
330
2
100
AcDbSymbolTableRecord
100
AcDbLayerTableRecord
  2
BananaPro_outlines
 70
    0
 62
    7
  6
CONTINUOUS
370
   50
390
F
  0
LAYER
  5
51
330
2
100
AcDbSymbolTableRecord
100
AcDbLayerTableRecord
  2
Infobox A3
 70
    1
 62
    7
  6
CONTINUOUS
370
    0
390
F
  0
LAYER
  5
52
330
2
100
AcDbSymbolTableRecord
100
AcDbLayerTableRecord
  2
Infobox A3 landscape
 70
    0
 62
    7
  6
CONTINUOUS
370
    0
390
F
  0
LAYER
  5
53
330
2
100
AcDbSymbolTableRecord
100
AcDbLayerTableRecord
  2
Infobox construction
 70
    1
 62
    5
  6
CONTINUOUS
370
    0
390
F
  0
LAYER
  5
54
330
2
100
AcDbSymbolTableRecord
100
AcDbLayerTableRecord
  2
annotation
 70
    0
 62
    7
  6
CONTINUOUS
370
    0
390
F
  0
ENDTAB
  0
TABLE
  2
STYLE
  5
3
330
0
100
AcDbSymbolTable
 70
    3
  0
STYLE
  5
55
330
2
100
AcDbSymbolTableRecord
100
AcDbTextStyleTableRecord
  2
standard
 70
    0
 40
0
 41
1
 50
0
 71
    0
 42
1
  3
standard
  4

  0
ENDTAB
  0
TABLE
  2
VIEW
  5
6
330
0
100
AcDbSymbolTable
 70
    0
  0
ENDTAB
  0
TABLE
  2
UCS
  5
7
330
0
100
AcDbSymbolTable
 70
    0
  0
ENDTAB
  0
TABLE
  2
APPID
  5
9
330
0
100
AcDbSymbolTable
 70
    1
  0
APPID
  5
12
330
9
100
AcDbSymbolTableRecord
100
AcDbRegAppTableRecord
  2
ACAD
 70
    0
  0
APPID
  5
56
330
9
100
AcDbSymbolTableRecord
100
AcDbRegAppTableRecord
  2
LibreCad
 70
    0
  0
ENDTAB
  0
TABLE
  2
DIMSTYLE
  5
A
330
0
100
AcDbSymbolTable
 70
    1
100
AcDbDimStyleTable
 71
    1
  0
DIMSTYLE
105
57
330
A
100
AcDbSymbolTableRecord
100
AcDbDimStyleTableRecord
  2
Standard
 70
    0
 40
1
 41
2.5
 42
0.625
 43
0.38
 44
1.25
 45
0
 46
0
 47
0
 48
0
 49
1
140
2.5
141
0.09
142
0
143
25.4
144
1
145
0
146
1
147
0.625
148
0
 71
    0
 72
    0
 73
    0
 74
    1
 75
    0
 76
    0
 77
    0
 78
    8
 79
    0
170
    0
171
    2
172
    0
173
    0
174
    0
175
    0
176
    0
177
    0
178
    0
179
    0
271
    2
272
    4
273
    2
274
    2
275
    0
276
    0
277
    2
278
   44
279
    0
280
    0
281
    0
282
    0
283
    1
284
    0
285
    0
286
    0
288
    0
289
    3
340
standard
341

371
   -2
372
   -2
  0
ENDTAB
  0
TABLE
  2
BLOCK_RECORD
  5
1
330
0
100
AcDbSymbolTable
 70
    2
  0
BLOCK_RECORD
  5
1F
330
1
100
AcDbSymbolTableRecord
100
AcDbBlockTableRecord
  2
*Model_Space
 70
    0
280
    1
281
    0
  0
BLOCK_RECORD
  5
1E
330
1
100
AcDbSymbolTableRecord
100
AcDbBlockTableRecord
  2
*Paper_Space
 70
    0
280
    1
281
    0
  0
BLOCK_RECORD
  5
58
330
1
100
AcDbSymbolTableRecord
100
AcDbBlockTableRecord
  2
*D5
 70
    0
280
    1
281
    0
  0
BLOCK_RECORD
  5
5B
330
1
100
AcDbSymbolTableRecord
100
AcDbBlockTableRecord
  2
*D15
 70
    0
280
    1
281
    0
  0
BLOCK_RECORD
  5
5E
330
1
100
AcDbSymbolTableRecord
100
AcDbBlockTableRecord
  2
*D2
 70
    0
280
    1
281
    0
  0
BLOCK_RECORD
  5
61
330
1
100
AcDbSymbolTableRecord
100
AcDbBlockTableRecord
  2
*D12
 70
    0
280
    1
281
    0
  0
BLOCK_RECORD
  5
64
330
1
100
AcDbSymbolTableRecord
100
AcDbBlockTableRecord
  2
*D13
 70
    0
280
    1
281
    0
  0
BLOCK_RECORD
  5
67
330
1
100
AcDbSymbolTableRecord
100
AcDbBlockTableRecord
  2
*D1
 70
    0
280
    1
281
    0
  0
BLOCK_RECORD
  5
6A
330
1
100
AcDbSymbolTableRecord
100
AcDbBlockTableRecord
  2
*D8
 70
    0
280
    1
281
    0
  0
BLOCK_RECORD
  5
6D
330
1
100
AcDbSymbolTableRecord
100
AcDbBlockTableRecord
  2
*D14
 70
    0
280
    1
281
    0
  0
BLOCK_RECORD
  5
70
330
1
100
AcDbSymbolTableRecord
100
AcDbBlockTableRecord
  2
*D10
 70
    0
280
    1
281
    0
  0
BLOCK_RECORD
  5
73
330
1
100
AcDbSymbolTableRecord
100
AcDbBlockTableRecord
  2
*D4
 70
    0
280
    1
281
    0
  0
BLOCK_RECORD
  5
76
330
1
100
AcDbSymbolTableRecord
100
AcDbBlockTableRecord
  2
*D6
 70
    0
280
    1
281
    0
  0
BLOCK_RECORD
  5
79
330
1
100
AcDbSymbolTableRecord
100
AcDbBlockTableRecord
  2
*D3
 70
    0
280
    1
281
    0
  0
BLOCK_RECORD
  5
7C
330
1
100
AcDbSymbolTableRecord
100
AcDbBlockTableRecord
  2
*D7
 70
    0
280
    1
281
    0
  0
BLOCK_RECORD
  5
7F
330
1
100
AcDbSymbolTableRecord
100
AcDbBlockTableRecord
  2
*D9
 70
    0
280
    1
281
    0
  0
BLOCK_RECORD
  5
82
330
1
100
AcDbSymbolTableRecord
100
AcDbBlockTableRecord
  2
*D11
 70
    0
280
    1
281
    0
  0
BLOCK_RECORD
  5
85
330
1
100
AcDbSymbolTableRecord
100
AcDbBlockTableRecord
  2
Infobox
 70
    0
280
    1
281
    0
  0
ENDTAB
  0
ENDSEC
  0
SECTION
  2
BLOCKS
  0
BLOCK
  5
20
330
1F
100
AcDbEntity
  8
0
100
AcDbBlockBegin
  2
*Model_Space
 70
    0
 10
0
 20
0
 30
0
  3
*Model_Space
  1

  0
ENDBLK
  5
21
330
1F
100
AcDbEntity
  8
0
100
AcDbBlockEnd
  0
BLOCK
  5
1C
330
1B
100
AcDbEntity
  8
0
100
AcDbBlockBegin
  2
*Paper_Space
 70
    0
 10
0
 20
0
 30
0
  3
*Paper_Space
  1

  0
ENDBLK
  5
1D
330
1F
100
AcDbEntity
  8
0
100
AcDbBlockEnd
  0
BLOCK
  5
59
330
58
100
AcDbEntity
  8
0
100
AcDbBlockBegin
  2
*D5
 70
    1
 10
0
 20
0
  3
*D5
  1

  0
LINE
  5
88
100
AcDbEntity
  8
BananaPro_dimension
  6
ByBlock
 62
    0
370
   -2
100
AcDbLine
 10
40
 20
-57
 11
40
 21
-48.99999999999999
  0
SOLID
  5
89
100
AcDbEntity
  8
BananaPro_dimension
  6
ByBlock
 62
    0
370
   -2
100
AcDbTrace
 10
40
 20
-57
 30
0
 11
39.58371534222716
 21
-54.5
 31
0
 12
40.41628465777284
 22
-54.5
 32
0
 13
40.41628465777284
 23
-54.5
 33
0
  0
SOLID
  5
8A
100
AcDbEntity
  8
BananaPro_dimension
  6
ByBlock
 62
    0
370
   -2
100
AcDbTrace
 10
40
 20
-48.99999999999999
 30
0
 11
40.41628465777284
 21
-51.49999999999999
 31
0
 12
39.58371534222716
 22
-51.49999999999999
 32
0
 13
39.58371534222716
 23
-51.49999999999999
 33
0
  0
MTEXT
  5
8B
100
AcDbEntity
  8
BananaPro_dimension
  6
CONTINUOUS
 62
    0
370
   -2
100
AcDbMText
 10
38.125
 20
-53
 30
0
 40
2.5
 41
1.111111111111111
 71
    5
 72
    1
  1
8
  7
standard
210
0
220
0
230
1
 50
90
 73
    2
 44
1
  0
LINE
  5
8C
100
AcDbEntity
  8
BananaPro_dimension
  6
ByBlock
 62
    0
370
   -2
100
AcDbLine
 10
35.125
 20
-57
 11
41.25
 21
-57
  0
LINE
  5
8D
100
AcDbEntity
  8
BananaPro_dimension
  6
ByBlock
 62
    0
370
   -2
100
AcDbLine
 10
35.125
 20
-48.99999999999999
 11
41.25
 21
-48.99999999999999
  0
ENDBLK
  5
5A
330
58
100
AcDbEntity
  8
0
100
AcDbBlockEnd
  0
BLOCK
  5
5C
330
5B
100
AcDbEntity
  8
0
100
AcDbBlockBegin
  2
*D15
 70
    1
 10
0
 20
0
  3
*D15
  1

  0
LINE
  5
8E
100
AcDbEntity
  8
annotation
  6
CONTINUOUS
 62
    7
370
    0
100
AcDbLine
 10
34.5
 20
-32.16173469387768
 11
40
 21
-28
  0
SOLID
  5
8F
100
AcDbEntity
  8
annotation
  6
CONTINUOUS
 62
    7
370
    0
100
AcDbTrace
 10
34.5
 20
-32.16173469387768
 30
0
 11
36.24240299960758
 21
-30.32126608418731
 31
0
 12
36.7447780390694
 22
-30.98518700185292
 32
0
 13
36.7447780390694
 23
-30.98518700185292
 33
0
  0
LINE
  5
90
100
AcDbEntity
  8
annotation
  6
CONTINUOUS
 62
    7
370
    0
100
AcDbLine
 10
40
 20
-28
 11
63
 21
-28
  0
ENDBLK
  5
5D
330
5B
100
AcDbEntity
  8
0
100
AcDbBlockEnd
  0
BLOCK
  5
5F
330
5E
100
AcDbEntity
  8
0
100
AcDbBlockBegin
  2
*D2
 70
    1
 10
0
 20
0
  3
*D2
  1

  0
LINE
  5
91
100
AcDbEntity
  8
BananaPro_anotation
  6
CONTINUOUS
 62
    7
370
    0
100
AcDbLine
 10
-43.57999999999999
 20
-19
 11
-41
 21
-20.5
  0
LINE
  5
92
100
AcDbEntity
  8
BananaPro_anotation
  6
CONTINUOUS
 62
    7
370
    0
100
AcDbLine
 10
-41
 20
-20.5
 11
-30
 21
-20.5
  0
SOLID
  5
93
100
AcDbEntity
  8
BananaPro_anotation
  6
CONTINUOUS
 62
    7
370
    0
100
AcDbTrace
 10
-43.57999999999999
 20
-19
 30
0
 11
-41.20949884820173
 21
-19.89667006508534
 31
0
 12
-41.6279652183773
 22
-20.61643222178732
 32
0
 13
-41.6279652183773
 23
-20.61643222178732
 33
0
  0
ENDBLK
  5
60
330
5E
100
AcDbEntity
  8
0
100
AcDbBlockEnd
  0
BLOCK
  5
62
330
61
100
AcDbEntity
  8
0
100
AcDbBlockBegin
  2
*D12
 70
    1
 10
0
 20
0
  3
*D12
  1

  0
LINE
  5
94
100
AcDbEntity
  8
BananaPro_dimension
  6
ByBlock
 62
    0
370
   -2
100
AcDbLine
 10
-30
 20
7.500000000000004
 11
-30
 21
-7.499999999999997
  0
SOLID
  5
95
100
AcDbEntity
  8
BananaPro_dimension
  6
ByBlock
 62
    0
370
   -2
100
AcDbTrace
 10
-30
 20
2.500000000000003
 30
0
 11
-30.41628465777284
 21
5.000000000000004
 31
0
 12
-29.58371534222716
 22
5.000000000000004
 32
0
 13
-29.58371534222716
 23
5.000000000000004
 33
0
  0
SOLID
  5
96
100
AcDbEntity
  8
BananaPro_dimension
  6
ByBlock
 62
    0
370
   -2
100
AcDbTrace
 10
-30
 20
-2.499999999999997
 30
0
 11
-29.58371534222716
 21
-4.999999999999997
 31
0
 12
-30.41628465777284
 22
-4.999999999999997
 32
0
 13
-30.41628465777284
 23
-4.999999999999997
 33
0
  0
MTEXT
  5
97
100
AcDbEntity
  8
BananaPro_dimension
  6
CONTINUOUS
 62
    0
370
   -2
100
AcDbMText
 10
-31.875
 20
3.338245743790567e-15
 30
0
 40
2.5
 41
1.111111111111266
 71
    5
 72
    1
  1
5
  7
standard
210
0
220
0
230
1
 50
90
 73
    2
 44
1
  0
LINE
  5
98
100
AcDbEntity
  8
BananaPro_dimension
  6
ByBlock
 62
    0
370
   -2
100
AcDbLine
 10
9.346808455640751
 20
2.5
 11
-31.25
 21
2.500000000000003
  0
LINE
  5
99
100
AcDbEntity
  8
BananaPro_dimension
  6
ByBlock
 62
    0
370
   -2
100
AcDbLine
 10
9.390164144578319
 20
-2.5
 11
-31.25
 21
-2.499999999999997
  0
ENDBLK
  5
63
330
61
100
AcDbEntity
  8
0
100
AcDbBlockEnd
  0
BLOCK
  5
65
330
64
100
AcDbEntity
  8
0
100
AcDbBlockBegin
  2
*D13
 70
    1
 10
0
 20
0
  3
*D13
  1

  0
LINE
  5
9A
100
AcDbEntity
  8
BananaPro_dimension
  6
ByBlock
 62
    0
370
   -2
100
AcDbLine
 10
27
 20
8
 11
27
 21
-2.5
  0
SOLID
  5
9B
100
AcDbEntity
  8
BananaPro_dimension
  6
ByBlock
 62
    0
370
   -2
100
AcDbTrace
 10
27
 20
3
 30
0
 11
26.58371534222716
 21
5.5
 31
0
 12
27.41628465777284
 22
5.5
 32
0
 13
27.41628465777284
 23
5.5
 33
0
  0
SOLID
  5
9C
100
AcDbEntity
  8
BananaPro_dimension
  6
ByBlock
 62
    0
370
   -2
100
AcDbTrace
 10
27
 20
2.5
 30
0
 11
27.41628465777284
 21
0
 31
0
 12
26.58371534222716
 22
0
 32
0
 13
26.58371534222716
 23
0
 33
0
  0
MTEXT
  5
9D
100
AcDbEntity
  8
BananaPro_dimension
  6
CONTINUOUS
 62
    0
370
   -2
100
AcDbMText
 10
25.125
 20
5.638888888888967
 30
0
 40
2.5
 41
4.027777777777933
 71
    5
 72
    1
  1
0,5
  7
standard
210
0
220
0
230
1
 50
90
 73
    2
 44
1
  0
LINE
  5
9E
100
AcDbEntity
  8
BananaPro_dimension
  6
ByBlock
 62
    0
370
   -2
100
AcDbLine
 10
25.625
 20
3
 11
28.25
 21
3
  0
LINE
  5
9F
100
AcDbEntity
  8
BananaPro_dimension
  6
ByBlock
 62
    0
370
   -2
100
AcDbLine
 10
25.625
 20
2.5
 11
28.25
 21
2.5
  0
ENDBLK
  5
66
330
64
100
AcDbEntity
  8
0
100
AcDbBlockEnd
  0
BLOCK
  5
68
330
67
100
AcDbEntity
  8
0
100
AcDbBlockBegin
  2
*D1
 70
    1
 10
0
 20
0
  3
*D1
  1

  0
LINE
  5
A0
100
AcDbEntity
  8
BananaPro_anotation
  6
CONTINUOUS
 62
    7
370
    0
100
AcDbLine
 10
-39.37
 20
-39
 11
-37
 21
-40.5
  0
LINE
  5
A1
100
AcDbEntity
  8
BananaPro_anotation
  6
CONTINUOUS
 62
    7
370
    0
100
AcDbLine
 10
-37
 20
-40.5
 11
-19
 21
-40.5
  0
SOLID
  5
A2
100
AcDbEntity
  8
BananaPro_anotation
  6
CONTINUOUS
 62
    7
370
    0
100
AcDbTrace
 10
-39.37
 20
-39
 30
0
 11
-37.0349214731517
 21
-39.98524169103273
 31
0
 12
-37.48017753940075
 22
-40.68874627570623
 32
0
 13
-37.48017753940075
 23
-40.68874627570623
 33
0
  0
ENDBLK
  5
69
330
67
100
AcDbEntity
  8
0
100
AcDbBlockEnd
  0
BLOCK
  5
6B
330
6A
100
AcDbEntity
  8
0
100
AcDbBlockBegin
  2
*D8
 70
    1
 10
0
 20
0
  3
*D8
  1

  0
LINE
  5
A3
100
AcDbEntity
  8
BananaPro_dimension
  6
ByBlock
 62
    0
370
   -2
100
AcDbLine
 10
-62
 20
10
 11
-49.00000000000001
 21
10
  0
SOLID
  5
A4
100
AcDbEntity
  8
BananaPro_dimension
  6
ByBlock
 62
    0
370
   -2
100
AcDbTrace
 10
-57
 20
10
 30
0
 11
-59.5
 21
9.58371534222716
 31
0
 12
-59.5
 22
10.41628465777284
 32
0
 13
-59.5
 23
10.41628465777284
 33
0
  0
SOLID
  5
A5
100
AcDbEntity
  8
BananaPro_dimension
  6
ByBlock
 62
    0
370
   -2
100
AcDbTrace
 10
-54.00000000000001
 20
10
 30
0
 11
-51.50000000000001
 21
10.41628465777284
 31
0
 12
-51.50000000000001
 22
9.583715342227158
 32
0
 13
-51.50000000000001
 23
9.583715342227158
 33
0
  0
MTEXT
  5
A6
100
AcDbEntity
  8
BananaPro_dimension
  6
CONTINUOUS
 62
    0
370
   -2
100
AcDbMText
 10
-55.5
 20
11.875
 30
0
 40
2.5
 41
1.111111111111266
 71
    5
 72
    1
  1
3
  7
standard
210
0
220
0
230
1
 50
0
 73
    2
 44
1
  0
LINE
  5
A7
100
AcDbEntity
  8
BananaPro_dimension
  6
ByBlock
 62
    0
370
   -2
100
AcDbLine
 10
-57
 20
3.625
 11
-57
 21
11.25
  0
LINE
  5
A8
100
AcDbEntity
  8
BananaPro_dimension
  6
ByBlock
 62
    0
370
   -2
100
AcDbLine
 10
-54.00000000000001
 20
3.625
 11
-54.00000000000001
 21
11.25
  0
ENDBLK
  5
6C
330
6A
100
AcDbEntity
  8
0
100
AcDbBlockEnd
  0
BLOCK
  5
6E
330
6D
100
AcDbEntity
  8
0
100
AcDbBlockBegin
  2
*D14
 70
    1
 10
0
 20
0
  3
*D14
  1

  0
LINE
  5
A9
100
AcDbEntity
  8
BananaPro_anotation
  6
CONTINUOUS
 62
    7
370
    0
100
AcDbLine
 10
0
 20
-2.5
 11
-5
 21
-13
  0
LINE
  5
AA
100
AcDbEntity
  8
BananaPro_anotation
  6
CONTINUOUS
 62
    7
370
    0
100
AcDbLine
 10
-5
 20
-13
 11
-12
 21
-13
  0
SOLID
  5
AB
100
AcDbEntity
  8
BananaPro_anotation
  6
CONTINUOUS
 62
    7
370
    0
100
AcDbTrace
 10
0
 20
-2.5
 30
0
 11
-0.698986968885641
 21
-4.936126050438506
 31
0
 12
-1.450680933076099
 22
-4.578176543681145
 32
0
 13
-1.450680933076099
 23
-4.578176543681145
 33
0
  0
ENDBLK
  5
6F
330
6D
100
AcDbEntity
  8
0
100
AcDbBlockEnd
  0
BLOCK
  5
71
330
70
100
AcDbEntity
  8
0
100
AcDbBlockBegin
  2
*D10
 70
    1
 10
0
 20
0
  3
*D10
  1

  0
LINE
  5
AC
100
AcDbEntity
  8
BananaPro_dimension
  6
ByBlock
 62
    0
370
   -2
100
AcDbLine
 10
-25.40000000000001
 20
-20
 11
25.40000000000001
 21
-20
  0
SOLID
  5
AD
100
AcDbEntity
  8
BananaPro_dimension
  6
ByBlock
 62
    0
370
   -2
100
AcDbTrace
 10
-25.40000000000001
 20
-20
 30
0
 11
-22.90000000000001
 21
-19.58371534222716
 31
0
 12
-22.90000000000001
 22
-20.41628465777284
 32
0
 13
-22.90000000000001
 23
-20.41628465777284
 33
0
  0
SOLID
  5
AE
100
AcDbEntity
  8
BananaPro_dimension
  6
ByBlock
 62
    0
370
   -2
100
AcDbTrace
 10
25.40000000000001
 20
-20
 30
0
 11
22.90000000000001
 21
-20.41628465777284
 31
0
 12
22.90000000000001
 22
-19.58371534222716
 32
0
 13
22.90000000000001
 23
-19.58371534222716
 33
0
  0
MTEXT
  5
AF
100
AcDbEntity
  8
BananaPro_dimension
  6
CONTINUOUS
 62
    0
370
   -2
100
AcDbMText
 10
1.148106374200644e-16
 20
-18.125
 30
0
 40
2.5
 41
5.972222222222378
 71
    5
 72
    1
  1
50,8
  7
standard
210
0
220
0
230
1
 50
0
 73
    2
 44
1
  0
LINE
  5
B0
100
AcDbEntity
  8
BananaPro_dimension
  6
ByBlock
 62
    0
370
   -2
100
AcDbLine
 10
-25.40000000000001
 20
-3.125
 11
-25.40000000000001
 21
-21.25
  0
LINE
  5
B1
100
AcDbEntity
  8
BananaPro_dimension
  6
ByBlock
 62
    0
370
   -2
100
AcDbLine
 10
25.40000000000001
 20
-3.125
 11
25.40000000000001
 21
-21.25
  0
ENDBLK
  5
72
330
70
100
AcDbEntity
  8
0
100
AcDbBlockEnd
  0
BLOCK
  5
74
330
73
100
AcDbEntity
  8
0
100
AcDbBlockBegin
  2
*D4
 70
    1
 10
0
 20
0
  3
*D4
  1

  0
LINE
  5
B2
100
AcDbEntity
  8
BananaPro_dimension
  6
ByBlock
 62
    0
370
   -2
100
AcDbLine
 10
-60
 20
8
 11
-60
 21
-5
  0
SOLID
  5
B3
100
AcDbEntity
  8
BananaPro_dimension
  6
ByBlock
 62
    0
370
   -2
100
AcDbTrace
 10
-60
 20
3
 30
0
 11
-60.41628465777284
 21
5.5
 31
0
 12
-59.58371534222716
 22
5.5
 32
0
 13
-59.58371534222716
 23
5.5
 33
0
  0
SOLID
  5
B4
100
AcDbEntity
  8
BananaPro_dimension
  6
ByBlock
 62
    0
370
   -2
100
AcDbTrace
 10
-60
 20
2.1316282072803e-16
 30
0
 11
-59.58371534222716
 21
-2.5
 31
0
 12
-60.41628465777284
 22
-2.5
 32
0
 13
-60.41628465777284
 23
-2.5
 33
0
  0
MTEXT
  5
B5
100
AcDbEntity
  8
BananaPro_dimension
  6
CONTINUOUS
 62
    0
370
   -2
100
AcDbMText
 10
-61.875
 20
1.5
 30
0
 40
2.5
 41
1.111111111111266
 71
    5
 72
    1
  1
3
  7
standard
210
0
220
0
230
1
 50
90
 73
    2
 44
1
  0
LINE
  5
B6
100
AcDbEntity
  8
BananaPro_dimension
  6
ByBlock
 62
    0
370
   -2
100
AcDbLine
 10
-57.625
 20
3
 11
-61.25
 21
3
  0
LINE
  5
B7
100
AcDbEntity
  8
BananaPro_dimension
  6
ByBlock
 62
    0
370
   -2
100
AcDbLine
 10
-57.625
 20
7.654042494670958e-17
 11
-61.25
 21
3.662436706214492e-16
  0
ENDBLK
  5
75
330
73
100
AcDbEntity
  8
0
100
AcDbBlockEnd
  0
BLOCK
  5
77
330
76
100
AcDbEntity
  8
0
100
AcDbBlockBegin
  2
*D6
 70
    1
 10
0
 20
0
  3
*D6
  1

  0
LINE
  5
B8
100
AcDbEntity
  8
BananaPro_dimension
  6
ByBlock
 62
    0
370
   -2
100
AcDbLine
 10
-60
 20
-48.99999999999999
 11
-60
 21
-62
  0
SOLID
  5
B9
100
AcDbEntity
  8
BananaPro_dimension
  6
ByBlock
 62
    0
370
   -2
100
AcDbTrace
 10
-60
 20
-53.99999999999999
 30
0
 11
-60.41628465777284
 21
-51.49999999999999
 31
0
 12
-59.58371534222716
 22
-51.49999999999999
 32
0
 13
-59.58371534222716
 23
-51.49999999999999
 33
0
  0
SOLID
  5
BA
100
AcDbEntity
  8
BananaPro_dimension
  6
ByBlock
 62
    0
370
   -2
100
AcDbTrace
 10
-60
 20
-57
 30
0
 11
-59.58371534222716
 21
-59.5
 31
0
 12
-60.41628465777284
 22
-59.5
 32
0
 13
-60.41628465777284
 23
-59.5
 33
0
  0
MTEXT
  5
BB
100
AcDbEntity
  8
BananaPro_dimension
  6
CONTINUOUS
 62
    0
370
   -2
100
AcDbMText
 10
-61.875
 20
-55.5
 30
0
 40
2.5
 41
1.111111111111266
 71
    5
 72
    1
  1
3
  7
standard
210
0
220
0
230
1
 50
90
 73
    2
 44
1
  0
LINE
  5
BC
100
AcDbEntity
  8
BananaPro_dimension
  6
ByBlock
 62
    0
370
   -2
100
AcDbLine
 10
-57.625
 20
-53.99999999999999
 11
-61.25
 21
-53.99999999999999
  0
LINE
  5
BD
100
AcDbEntity
  8
BananaPro_dimension
  6
ByBlock
 62
    0
370
   -2
100
AcDbLine
 10
-57.625
 20
-57
 11
-61.25
 21
-57
  0
ENDBLK
  5
78
330
76
100
AcDbEntity
  8
0
100
AcDbBlockEnd
  0
BLOCK
  5
7A
330
79
100
AcDbEntity
  8
0
100
AcDbBlockBegin
  2
*D3
 70
    1
 10
0
 20
0
  3
*D3
  1

  0
LINE
  5
BE
100
AcDbEntity
  8
BananaPro_dimension
  6
ByBlock
 62
    0
370
   -2
100
AcDbLine
 10
40
 20
8
 11
40
 21
-5
  0
SOLID
  5
BF
100
AcDbEntity
  8
BananaPro_dimension
  6
ByBlock
 62
    0
370
   -2
100
AcDbTrace
 10
40
 20
3
 30
0
 11
39.58371534222716
 21
5.5
 31
0
 12
40.41628465777284
 22
5.5
 32
0
 13
40.41628465777284
 23
5.5
 33
0
  0
SOLID
  5
C0
100
AcDbEntity
  8
BananaPro_dimension
  6
ByBlock
 62
    0
370
   -2
100
AcDbTrace
 10
40
 20
-3.907985046680551e-16
 30
0
 11
40.41628465777284
 21
-2.5
 31
0
 12
39.58371534222716
 22
-2.5
 32
0
 13
39.58371534222716
 23
-2.5
 33
0
  0
MTEXT
  5
C1
100
AcDbEntity
  8
BananaPro_dimension
  6
CONTINUOUS
 62
    0
370
   -2
100
AcDbMText
 10
38.125
 20
1.5
 30
0
 40
2.5
 41
1.111111111111266
 71
    5
 72
    1
  1
3
  7
standard
210
0
220
0
230
1
 50
90
 73
    2
 44
1
  0
LINE
  5
C2
100
AcDbEntity
  8
BananaPro_dimension
  6
ByBlock
 62
    0
370
   -2
100
AcDbLine
 10
35.125
 20
3
 11
41.25
 21
3
  0
LINE
  5
C3
100
AcDbEntity
  8
BananaPro_dimension
  6
ByBlock
 62
    0
370
   -2
100
AcDbLine
 10
35.125
 20
0
 11
41.25
 21
-3.907985046680551e-16
  0
ENDBLK
  5
7B
330
79
100
AcDbEntity
  8
0
100
AcDbBlockEnd
  0
BLOCK
  5
7D
330
7C
100
AcDbEntity
  8
0
100
AcDbBlockBegin
  2
*D7
 70
    1
 10
0
 20
0
  3
*D7
  1

  0
LINE
  5
C4
100
AcDbEntity
  8
BananaPro_dimension
  6
ByBlock
 62
    0
370
   -2
100
AcDbLine
 10
-70
 20
3
 11
-70
 21
-57
  0
SOLID
  5
C5
100
AcDbEntity
  8
BananaPro_dimension
  6
ByBlock
 62
    0
370
   -2
100
AcDbTrace
 10
-70
 20
3
 30
0
 11
-69.58371534222717
 21
0.5
 31
0
 12
-70.41628465777283
 22
0.5
 32
0
 13
-70.41628465777283
 23
0.5
 33
0
  0
SOLID
  5
C6
100
AcDbEntity
  8
BananaPro_dimension
  6
ByBlock
 62
    0
370
   -2
100
AcDbTrace
 10
-70
 20
-57
 30
0
 11
-70.41628465777283
 21
-54.5
 31
0
 12
-69.58371534222717
 22
-54.5
 32
0
 13
-69.58371534222717
 23
-54.5
 33
0
  0
MTEXT
  5
C7
100
AcDbEntity
  8
BananaPro_dimension
  6
CONTINUOUS
 62
    0
370
   -2
100
AcDbMText
 10
-71.875
 20
-27
 30
0
 40
2.5
 41
3.055555555555711
 71
    5
 72
    1
  1
60
  7
standard
210
0
220
0
230
1
 50
90
 73
    2
 44
1
  0
LINE
  5
C8
100
AcDbEntity
  8
BananaPro_dimension
  6
ByBlock
 62
    0
370
   -2
100
AcDbLine
 10
-57.625
 20
3
 11
-71.25
 21
3
  0
LINE
  5
C9
100
AcDbEntity
  8
BananaPro_dimension
  6
ByBlock
 62
    0
370
   -2
100
AcDbLine
 10
-57.625
 20
-57
 11
-71.25
 21
-57
  0
ENDBLK
  5
7E
330
7C
100
AcDbEntity
  8
0
100
AcDbBlockEnd
  0
BLOCK
  5
80
330
7F
100
AcDbEntity
  8
0
100
AcDbBlockBegin
  2
*D9
 70
    1
 10
0
 20
0
  3
*D9
  1

  0
LINE
  5
CA
100
AcDbEntity
  8
BananaPro_dimension
  6
ByBlock
 62
    0
370
   -2
100
AcDbLine
 10
-57
 20
20
 11
0
 21
20
  0
SOLID
  5
CB
100
AcDbEntity
  8
BananaPro_dimension
  6
ByBlock
 62
    0
370
   -2
100
AcDbTrace
 10
-57
 20
20
 30
0
 11
-54.5
 21
20.41628465777284
 31
0
 12
-54.5
 22
19.58371534222716
 32
0
 13
-54.5
 23
19.58371534222716
 33
0
  0
SOLID
  5
CC
100
AcDbEntity
  8
BananaPro_dimension
  6
ByBlock
 62
    0
370
   -2
100
AcDbTrace
 10
0
 20
20
 30
0
 11
-2.5
 21
19.58371534222716
 31
0
 12
-2.5
 22
20.41628465777284
 32
0
 13
-2.5
 23
20.41628465777284
 33
0
  0
MTEXT
  5
CD
100
AcDbEntity
  8
BananaPro_dimension
  6
CONTINUOUS
 62
    0
370
   -2
100
AcDbMText
 10
-28.5
 20
21.875
 30
0
 40
2.5
 41
3.055555555555711
 71
    5
 72
    1
  1
57
  7
standard
210
0
220
0
230
1
 50
0
 73
    2
 44
1
  0
LINE
  5
CE
100
AcDbEntity
  8
BananaPro_dimension
  6
ByBlock
 62
    0
370
   -2
100
AcDbLine
 10
-57
 20
3.625
 11
-57
 21
21.25
  0
LINE
  5
CF
100
AcDbEntity
  8
BananaPro_dimension
  6
ByBlock
 62
    0
370
   -2
100
AcDbLine
 10
3.827021247335479e-17
 20
3.625
 11
7.654042494670958e-17
 21
21.25
  0
ENDBLK
  5
81
330
7F
100
AcDbEntity
  8
0
100
AcDbBlockEnd
  0
BLOCK
  5
83
330
82
100
AcDbEntity
  8
0
100
AcDbBlockBegin
  2
*D11
 70
    1
 10
0
 20
0
  3
*D11
  1

  0
LINE
  5
D0
100
AcDbEntity
  8
BananaPro_dimension
  6
ByBlock
 62
    0
370
   -2
100
AcDbLine
 10
-57
 20
-70
 11
34.5
 21
-70
  0
SOLID
  5
D1
100
AcDbEntity
  8
BananaPro_dimension
  6
ByBlock
 62
    0
370
   -2
100
AcDbTrace
 10
-57
 20
-70
 30
0
 11
-54.5
 21
-69.58371534222717
 31
0
 12
-54.5
 22
-70.41628465777283
 32
0
 13
-54.5
 23
-70.41628465777283
 33
0
  0
SOLID
  5
D2
100
AcDbEntity
  8
BananaPro_dimension
  6
ByBlock
 62
    0
370
   -2
100
AcDbTrace
 10
34.5
 20
-70
 30
0
 11
32
 21
-70.41628465777283
 31
0
 12
32
 22
-69.58371534222717
 32
0
 13
32
 23
-69.58371534222717
 33
0
  0
MTEXT
  5
D3
100
AcDbEntity
  8
BananaPro_dimension
  6
CONTINUOUS
 62
    0
370
   -2
100
AcDbMText
 10
-11.25
 20
-68.125
 30
0
 40
2.5
 41
5.416666666666978
 71
    5
 72
    1
  1
91,5
  7
standard
210
0
220
0
230
1
 50
0
 73
    2
 44
1
  0
LINE
  5
D4
100
AcDbEntity
  8
BananaPro_dimension
  6
ByBlock
 62
    0
370
   -2
100
AcDbLine
 10
-57
 20
-57.625
 11
-57
 21
-71.25
  0
LINE
  5
D5
100
AcDbEntity
  8
BananaPro_dimension
  6
ByBlock
 62
    0
370
   -2
100
AcDbLine
 10
34.5
 20
-57.625
 11
34.5
 21
-71.25
  0
ENDBLK
  5
84
330
82
100
AcDbEntity
  8
0
100
AcDbBlockEnd
  0
BLOCK
  5
86
330
85
100
AcDbEntity
  8
0
100
AcDbBlockBegin
  2
Infobox
 70
    0
 10
0
 20
0
  3
Infobox
  1

  0
LINE
  5
D6
100
AcDbEntity
  8
Infobox construction
  6
ByLayer
 62
  256
370
   -1
100
AcDbLine
 10
380
 20
255.1884833388197
 11
380
 21
265.1884833388197
  0
LINE
  5
D7
100
AcDbEntity
  8
Infobox construction
  6
ByLayer
 62
  256
370
   -1
100
AcDbLine
 10
390
 20
255
 11
390
 21
265
  0
LINE
  5
D8
100
AcDbEntity
  8
Infobox construction
  6
ByLayer
 62
  256
370
   -1
100
AcDbLine
 10
400
 20
255
 11
400
 21
265
  0
LINE
  5
D9
100
AcDbEntity
  8
Infobox construction
  6
ByLayer
 62
  256
370
   -1
100
AcDbLine
 10
410
 20
256.8711897791678
 11
410
 21
266.8711897791678
  0
LINE
  5
DA
100
AcDbEntity
  8
Infobox construction
  6
ByLayer
 62
  256
370
   -1
100
AcDbLine
 10
399.5
 20
281.416015625
 11
400.5
 21
281.416015625
  0
LINE
  5
DB
100
AcDbEntity
  8
Infobox construction
  6
ByLayer
 62
  256
370
   -1
100
AcDbLine
 10
399.5
 20
256.416015625
 11
400.5
 21
256.416015625
  0
LINE
  5
DC
100
AcDbEntity
  8
Infobox construction
  6
ByLayer
 62
  256
370
   -1
100
AcDbLine
 10
394.5
 20
201.416015625
 11
395.5
 21
201.416015625
  0
LINE
  5
DD
100
AcDbEntity
  8
Infobox A3
  6
ByLayer
 62
  256
370
   -1
100
AcDbLine
 10
380
 20
281.416015625
 11
410
 21
281.416015625
  0
LINE
  5
DE
100
AcDbEntity
  8
Infobox A3
  6
ByLayer
 62
  256
370
   -1
100
AcDbLine
 10
410
 20
281.416015625
 11
410
 21
201.416015625
  0
LINE
  5
DF
100
AcDbEntity
  8
Infobox A3
  6
ByLayer
 62
  256
370
   -1
100
AcDbLine
 10
410
 20
201.416015625
 11
380
 21
201.416015625
  0
LINE
  5
E0
100
AcDbEntity
  8
Infobox A3
  6
ByLayer
 62
  256
370
   -1
100
AcDbLine
 10
380
 20
201.416015625
 11
380
 21
281.416015625
  0
LINE
  5
E1
100
AcDbEntity
  8
Infobox A3
  6
ByLayer
 62
  256
370
   -1
100
AcDbLine
 10
390
 20
281.416015625
 11
390
 21
201.416015625
  0
LINE
  5
E2
100
AcDbEntity
  8
Infobox A3
  6
ByLayer
 62
  256
370
   -1
100
AcDbLine
 10
400
 20
201.416015625
 11
400
 21
281.416015625
  0
LINE
  5
E3
100
AcDbEntity
  8
Infobox A3
  6
ByLayer
 62
  256
370
   -1
100
AcDbLine
 10
390
 20
256.416015625
 11
410
 21
256.416015625
  0
LINE
  5
E4
100
AcDbEntity
  8
Infobox construction
  6
ByLayer
 62
  256
370
   -1
100
AcDbLine
 10
394.5
 20
202.416015625
 11
395.5
 21
202.416015625
  0
LINE
  5
E5
100
AcDbEntity
  8
Infobox construction
  6
ByLayer
 62
  256
370
   -1
100
AcDbLine
 10
399.5
 20
258.416015625
 11
400.5
 21
258.416015625
  0
LINE
  5
E6
100
AcDbEntity
  8
Infobox construction
  6
ByLayer
 62
  256
370
   -1
100
AcDbLine
 10
382
 20
255.1884833388197
 11
382
 21
265.1884833388197
  0
LINE
  5
E7
100
AcDbEntity
  8
Infobox construction
  6
ByLayer
 62
  256
370
   -1
100
AcDbLine
 10
392
 20
255
 11
392
 21
265
  0
LINE
  5
E8
100
AcDbEntity
  8
Infobox construction
  6
ByLayer
 62
  256
370
   -1
100
AcDbLine
 10
402
 20
255
 11
402
 21
265
  0
MTEXT
  5
E9
100
AcDbEntity
  8
Infobox A3
  6
ByLayer
 62
  256
370
   -1
100
AcDbMText
 10
391
 20
258.416015625
 30
0
 40
1
 41
4.777778292065022
 71
    1
 72
    1
  1
Version
  7
standard
210
0
220
0
230
1
 50
90
 73
    2
 44
1
  0
MTEXT
  5
EA
100
AcDbEntity
  8
Infobox A3
  6
ByLayer
 62
  256
370
   -1
100
AcDbMText
 10
401
 20
258.416015625
 30
0
 40
1
 41
2.777777777777886
 71
    1
 72
    1
  1
Date
  7
standard
210
0
220
0
230
1
 50
90
 73
    2
 44
1
  0
MTEXT
  5
EB
100
AcDbEntity
  8
Infobox A3
  6
ByLayer
 62
  256
370
   -1
100
AcDbMText
 10
401
 20
202.416015625
 30
0
 40
1
 41
4.333333333333379
 71
    1
 72
    1
  1
Author
  7
standard
210
0
220
0
230
1
 50
90
 73
    2
 44
1
  0
MTEXT
  5
EC
100
AcDbEntity
  8
Infobox A3
  6
ByLayer
 62
  256
370
   -1
100
AcDbMText
 10
391
 20
202.416015625
 30
0
 40
1
 41
6.861111111111249
 71
    1
 72
    1
  1
Part Name
  7
standard
210
0
220
0
230
1
 50
90
 73
    2
 44
1
  0
MTEXT
  5
ED
100
AcDbEntity
  8
Infobox A3
  6
ByLayer
 62
  256
370
   -1
100
AcDbMText
 10
381
 20
202.416015625
 30
0
 40
1
 41
7.305555555555756
 71
    1
 72
    1
  1
Drawing No
  7
standard
210
0
220
0
230
1
 50
90
 73
    2
 44
1
  0
LINE
  5
EE
100
AcDbEntity
  8
Infobox construction
  6
ByLayer
 62
  256
370
   -1
100
AcDbLine
 10
378
 20
255.1884833388197
 11
378
 21
265.1884833388197
  0
MTEXT
  5
EF
100
AcDbEntity
  8
Infobox A3
  6
ByLayer
 62
  256
370
   -1
100
AcDbMText
 10
376
 20
202.416015625
 30
0
 40
2
 41
28.27777983492726
 71
    1
 72
    1
  1
All Dimensions in mm
  7
standard
210
0
220
0
230
1
 50
90
 73
    2
 44
1
  0
LINE
  5
F0
100
AcDbEntity
  8
Infobox construction
  6
ByLayer
 62
  256
370
   -1
100
AcDbLine
 10
-5
 20
0
 11
5
 21
0
  0
LINE
  5
F1
100
AcDbEntity
  8
Infobox construction
  6
ByLayer
 62
  256
370
   -1
100
AcDbLine
 10
0
 20
-0.5
 11
0
 21
0.5
  0
LINE
  5
F2
100
AcDbEntity
  8
Infobox A3 landscape
  6
ByLayer
 62
  256
370
   -1
100
AcDbLine
 10
410
 20
40
 11
410
 21
9.999999999999972
  0
LINE
  5
F3
100
AcDbEntity
  8
Infobox A3 landscape
  6
ByLayer
 62
  256
370
   -1
100
AcDbLine
 10
410
 20
9.999999999999972
 11
330
 21
10
  0
LINE
  5
F4
100
AcDbEntity
  8
Infobox A3 landscape
  6
ByLayer
 62
  256
370
   -1
100
AcDbLine
 10
330
 20
10
 11
330
 21
40
  0
LINE
  5
F5
100
AcDbEntity
  8
Infobox A3 landscape
  6
ByLayer
 62
  256
370
   -1
100
AcDbLine
 10
330
 20
40
 11
410
 21
40
  0
LINE
  5
F6
100
AcDbEntity
  8
Infobox A3 landscape
  6
ByLayer
 62
  256
370
   -1
100
AcDbLine
 10
410
 20
30
 11
330
 21
30
  0
LINE
  5
F7
100
AcDbEntity
  8
Infobox A3 landscape
  6
ByLayer
 62
  256
370
   -1
100
AcDbLine
 10
330
 20
20
 11
410
 21
20
  0
LINE
  5
F8
100
AcDbEntity
  8
Infobox A3 landscape
  6
ByLayer
 62
  256
370
   -1
100
AcDbLine
 10
385
 20
30
 11
385
 21
10
  0
MTEXT
  5
F9
100
AcDbEntity
  8
Infobox A3 landscape
  6
ByLayer
 62
  256
370
   -1
100
AcDbMText
 10
387
 20
29
 30
0
 40
1
 41
4.777778292065022
 71
    1
 72
    1
  1
Version
  7
standard
210
0
220
0
230
1
 50
360
 73
    2
 44
1
  0
MTEXT
  5
FA
100
AcDbEntity
  8
Infobox A3 landscape
  6
ByLayer
 62
  256
370
   -1
100
AcDbMText
 10
387
 20
19
 30
0
 40
1
 41
2.777777777777886
 71
    1
 72
    1
  1
Date
  7
standard
210
0
220
0
230
1
 50
360
 73
    2
 44
1
  0
MTEXT
  5
FB
100
AcDbEntity
  8
Infobox A3 landscape
  6
ByLayer
 62
  256
370
   -1
100
AcDbMText
 10
331
 20
19
 30
0
 40
1
 41
4.333333333333379
 71
    1
 72
    1
  1
Author
  7
standard
210
0
220
0
230
1
 50
360
 73
    2
 44
1
  0
MTEXT
  5
FC
100
AcDbEntity
  8
Infobox A3 landscape
  6
ByLayer
 62
  256
370
   -1
100
AcDbMText
 10
331
 20
29
 30
0
 40
1
 41
6.861111111111249
 71
    1
 72
    1
  1
Part Name
  7
standard
210
0
220
0
230
1
 50
360
 73
    2
 44
1
  0
MTEXT
  5
FD
100
AcDbEntity
  8
Infobox A3 landscape
  6
ByLayer
 62
  256
370
   -1
100
AcDbMText
 10
331
 20
39
 30
0
 40
1
 41
7.305555555555756
 71
    1
 72
    1
  1
Drawing No
  7
standard
210
0
220
0
230
1
 50
360
 73
    2
 44
1
  0
MTEXT
  5
FE
100
AcDbEntity
  8
Infobox A3 landscape
  6
ByLayer
 62
  256
370
   -1
100
AcDbMText
 10
331
 20
44
 30
0
 40
2
 41
28.27777983492726
 71
    1
 72
    1
  1
All Dimensions in mm
  7
standard
210
0
220
0
230
1
 50
360
 73
    2
 44
1
  0
ENDBLK
  5
87
330
85
100
AcDbEntity
  8
0
100
AcDbBlockEnd
  0
ENDSEC
  0
SECTION
  2
ENTITIES
  0
LINE
  5
FF
100
AcDbEntity
  8
BananaPro_construction
  6
ByLayer
 62
  256
370
   -1
100
AcDbLine
 10
-54
 20
3
 11
-54
 21
-54
  0
LINE
  5
100
100
AcDbEntity
  8
BananaPro_construction
  6
ByLayer
 62
  256
370
   -1
100
AcDbLine
 10
-57
 20
2.5
 11
31.5
 21
2.5
  0
LINE
  5
101
100
AcDbEntity
  8
BananaPro_construction
  6
ByLayer
 62
  256
370
   -1
100
AcDbLine
 10
-25.40000000000001
 20
3
 11
-25.40000000000001
 21
-54
  0
LINE
  5
102
100
AcDbEntity
  8
BananaPro_construction
  6
ByLayer
 62
  256
370
   -1
100
AcDbLine
 10
25.40000000000001
 20
3.000000000000028
 11
25.40000000000001
 21
-54
  0
LINE
  5
103
100
AcDbEntity
  8
BananaPro_construction
  6
ByLayer
 62
  256
370
   -1
100
AcDbLine
 10
-57
 20
-2.5
 11
31.5
 21
-2.5
  0
LINE
  5
104
100
AcDbEntity
  8
BananaPro_GPIO
  6
ByLayer
 62
  256
370
   -1
100
AcDbLine
 10
-25.40000000000001
 20
-2.5
 11
25.40000000000001
 21
-2.5
  0
LINE
  5
105
100
AcDbEntity
  8
BananaPro_GPIO
  6
ByLayer
 62
  256
370
   -1
100
AcDbLine
 10
25.40000000000001
 20
-2.5
 11
25.40000000000001
 21
2.5
  0
LINE
  5
106
100
AcDbEntity
  8
BananaPro_GPIO
  6
ByLayer
 62
  256
370
   -1
100
AcDbLine
 10
25.40000000000001
 20
2.5
 11
-25.40000000000001
 21
2.5
  0
LINE
  5
107
100
AcDbEntity
  8
BananaPro_construction
  6
ByLayer
 62
  256
370
   -1
100
AcDbLine
 10
-57
 20
0
 11
31.5
 21
0
  0
LINE
  5
108
100
AcDbEntity
  8
BananaPro_GPIO
  6
ByLayer
 62
  256
370
   -1
100
AcDbLine
 10
-25.40000000000001
 20
2.5
 11
-25.40000000000001
 21
-2.5
  0
LINE
  5
109
100
AcDbEntity
  8
BananaPro_GPIO
  6
DASHDOTTINY
 62
  256
370
   13
100
AcDbLine
 10
0
 20
-5.5
 11
0
 21
5.5
  0
LINE
  5
10A
100
AcDbEntity
  8
BananaPro_GPIO
  6
DASHDOTTINY
 62
  256
370
   13
100
AcDbLine
 10
-28.40000000000001
 20
0
 11
28.40000000000001
 21
0
  0
CIRCLE
  5
10B
100
AcDbEntity
  8
BananaPro_outlines
  6
ByLayer
 62
  256
370
   -1
100
AcDbCircle
 10
-54
 20
0
 40
1.5
  0
LINE
  5
10C
100
AcDbEntity
  8
BananaPro_outlines
  6
DASHDOTTINY
 62
  256
370
   13
100
AcDbLine
 10
-54.00000000000001
 20
4.5
 11
-54.00000000000001
 21
-4.5
  0
LINE
  5
10D
100
AcDbEntity
  8
BananaPro_outlines
  6
DASHDOTTINY
 62
  256
370
   13
100
AcDbLine
 10
-58.49999999999999
 20
0
 11
-49.49999999999999
 21
0
  0
LINE
  5
10E
100
AcDbEntity
  8
BananaPro_outlines
  6
ByLayer
 62
  256
370
   -1
100
AcDbLine
 10
-57
 20
3
 11
34.5
 21
3
  0
LINE
  5
10F
100
AcDbEntity
  8
BananaPro_construction
  6
ByLayer
 62
  256
370
   -1
100
AcDbLine
 10
31.5
 20
3.000000000000028
 11
31.5
 21
-53.99999999999997
  0
CIRCLE
  5
110
100
AcDbEntity
  8
BananaPro_outlines
  6
ByLayer
 62
  256
370
   -1
100
AcDbCircle
 10
31.5
 20
0
 40
1.5
  0
LINE
  5
111
100
AcDbEntity
  8
BananaPro_outlines
  6
DASHDOTTINY
 62
  256
370
   13
100
AcDbLine
 10
31.5
 20
-4.5
 11
31.5
 21
4.5
  0
LINE
  5
112
100
AcDbEntity
  8
BananaPro_outlines
  6
DASHDOTTINY
 62
  256
370
   13
100
AcDbLine
 10
27.00000000000239
 20
0
 11
35.99999999999761
 21
0
  0
LINE
  5
113
100
AcDbEntity
  8
BananaPro_ETHERNET
  6
ByLayer
 62
  256
370
   -1
100
AcDbLine
 10
-60.47
 20
-31.03
 11
-60.46999999999999
 21
-46.97
  0
MTEXT
  5
114
100
AcDbEntity
  8
BananaPro_anotation
  6
ByLayer
 62
  256
370
   -1
100
AcDbMText
 10
-32
 20
-43.5
 30
0
 40
2
 41
12.88888888888889
 71
    7
 72
    1
  1
ETHERNET
  7
standard
210
0
220
0
230
1
 50
0
 73
    2
 44
1
  0
LEADER
  5
115
100
AcDbEntity
  8
BananaPro_anotation
  6
ByLayer
 62
  256
370
   -1
100
AcDbLeader
  3
Standard
 71
    1
 72
    0
 73
    3
 74
    0
 75
    0
 40
1
 41
10
 76
3
 76
3
 10
-39.37
 20
-39
 30
0
 10
-37
 20
-40.5
 30
0
 10
-19
 20
-40.5
 30
0
  0
MTEXT
  5
116
100
AcDbEntity
  8
BananaPro_anotation
  6
ByLayer
 62
  256
370
   -1
100
AcDbMText
 10
-35
 20
-23.5
 30
0
 40
2
 41
4.666666242662368
 71
    7
 72
    1
  1
USB
  7
standard
210
0
220
0
230
1
 50
0
 73
    2
 44
1
  0
LEADER
  5
117
100
AcDbEntity
  8
BananaPro_anotation
  6
ByLayer
 62
  256
370
   -1
100
AcDbLeader
  3
Standard
 71
    1
 72
    0
 73
    3
 74
    0
 75
    0
 40
1
 41
10
 76
3
 76
3
 10
-43.57999999999999
 20
-19
 30
0
 10
-41
 20
-20.5
 30
0
 10
-30
 20
-20.5
 30
0
  0
DIMENSION
  5
118
100
AcDbEntity
  8
BananaPro_dimension
  6
ByLayer
 62
  256
370
   -1
100
AcDbDimension
  2
*D3
 10
40
 20
-6.735557395310443e-16
 30
0
 11
38.125
 21
1.5
 31
0
 70
   32
 71
    5
 72
    0
  3
Standard
 53
0
210
0
220
0
230
1
100
AcDbAlignedDimension
 13
34.5
 23
3
 33
0
 14
34.5
 24
0
 34
0
 50
90
100
AcDbRotatedDimension
  0
DIMENSION
  5
119
100
AcDbEntity
  8
BananaPro_dimension
  6
ByLayer
 62
  256
370
   -1
100
AcDbDimension
  2
*D4
 10
-60
 20
3.67394039744206e-16
 30
0
 11
-61.875
 21
1.5
 31
0
 70
   32
 71
    5
 72
    0
  3
Standard
 53
0
210
0
220
0
230
1
100
AcDbAlignedDimension
 13
-57
 23
3
 33
0
 14
-57
 24
0
 34
0
 50
90
100
AcDbRotatedDimension
  0
LINE
  5
11A
100
AcDbEntity
  8
BananaPro_outlines
  6
ByLayer
 62
  256
370
   -1
100
AcDbLine
 10
-57.00000000000001
 20
-57
 11
34.49999999999999
 21
-57
  0
LINE
  5
11B
100
AcDbEntity
  8
BananaPro_construction
  6
ByLayer
 62
  256
370
   -1
100
AcDbLine
 10
-57.00000000000001
 20
-49
 11
34.49999999999999
 21
-49
  0
LINE
  5
11C
100
AcDbEntity
  8
BananaPro_construction
  6
ByLayer
 62
  256
370
   -1
100
AcDbLine
 10
-57.00000000000001
 20
-54
 11
34.49999999999999
 21
-54
  0
CIRCLE
  5
11D
100
AcDbEntity
  8
BananaPro_outlines
  6
ByLayer
 62
  256
370
   -1
100
AcDbCircle
 10
-54
 20
-53.99999999999999
 40
1.5
  0
LINE
  5
11E
100
AcDbEntity
  8
BananaPro_outlines
  6
DASHDOTTINY
 62
  256
370
   13
100
AcDbLine
 10
-53.99999999999996
 20
-58.50000000000239
 11
-54.00000000000003
 21
-49.49999999999758
  0
LINE
  5
11F
100
AcDbEntity
  8
BananaPro_outlines
  6
DASHDOTTINY
 62
  256
370
   13
100
AcDbLine
 10
-58.49999999999999
 20
-53.99999999999999
 11
-49.50000000000001
 21
-53.99999999999999
  0
CIRCLE
  5
120
100
AcDbEntity
  8
BananaPro_outlines
  6
ByLayer
 62
  256
370
   -1
100
AcDbCircle
 10
31.5
 20
-48.99999999999999
 40
1.5
  0
LINE
  5
121
100
AcDbEntity
  8
BananaPro_outlines
  6
DASHDOTTINY
 62
  256
370
   13
100
AcDbLine
 10
31.5
 20
-53.49999999999758
 11
31.5
 21
-44.50000000000242
  0
LINE
  5
122
100
AcDbEntity
  8
BananaPro_outlines
  6
DASHDOTTINY
 62
  256
370
   13
100
AcDbLine
 10
27
 20
-48.99999999999999
 11
36
 21
-48.99999999999999
  0
LINE
  5
123
100
AcDbEntity
  8
BananaPro_outlines
  6
ByLayer
 62
  256
370
   -1
100
AcDbLine
 10
34.5
 20
3.000000000000028
 11
34.5
 21
-57
  0
LINE
  5
124
100
AcDbEntity
  8
BananaPro_outlines
  6
ByLayer
 62
  256
370
   -1
100
AcDbLine
 10
-57
 20
3
 11
-57
 21
-57
  0
DIMENSION
  5
125
100
AcDbEntity
  8
BananaPro_dimension
  6
ByLayer
 62
  256
370
   -1
100
AcDbDimension
  2
*D5
 10
40
 20
-48.99999999999999
 30
0
 11
38.125
 21
-53
 31
0
 70
   32
 71
    5
 72
    0
  3
Standard
 53
0
210
0
220
0
230
1
100
AcDbAlignedDimension
 13
34.5
 23
-57
 33
0
 14
34.5
 24
-48.99999999999999
 34
0
 50
90
100
AcDbRotatedDimension
  0
DIMENSION
  5
126
100
AcDbEntity
  8
BananaPro_dimension
  6
ByLayer
 62
  256
370
   -1
100
AcDbDimension
  2
*D6
 10
-60
 20
-57
 30
0
 11
-61.875
 21
-55.5
 31
0
 70
   32
 71
    5
 72
    0
  3
Standard
 53
0
210
0
220
0
230
1
100
AcDbAlignedDimension
 13
-57
 23
-53.99999999999999
 33
0
 14
-57
 24
-57
 34
0
 50
90
100
AcDbRotatedDimension
  0
DIMENSION
  5
127
100
AcDbEntity
  8
BananaPro_dimension
  6
ByLayer
 62
  256
370
   -1
100
AcDbDimension
  2
*D7
 10
-70
 20
-57
 30
0
 11
-71.875
 21
-27
 31
0
 70
   32
 71
    5
 72
    0
  3
Standard
 53
0
210
0
220
0
230
1
100
AcDbAlignedDimension
 13
-57
 23
3
 33
0
 14
-57
 24
-57
 34
0
 50
90
100
AcDbRotatedDimension
  0
DIMENSION
  5
128
100
AcDbEntity
  8
BananaPro_dimension
  6
ByLayer
 62
  256
370
   -1
100
AcDbDimension
  2
*D8
 10
-54.00000000000001
 20
10
 30
0
 11
-55.5
 21
11.875
 31
0
 70
   32
 71
    5
 72
    0
  3
Standard
 53
0
210
0
220
0
230
1
100
AcDbAlignedDimension
 13
-57
 23
3
 33
0
 14
-54.00000000000001
 24
3
 34
0
100
AcDbRotatedDimension
  0
DIMENSION
  5
129
100
AcDbEntity
  8
BananaPro_dimension
  6
ByLayer
 62
  256
370
   -1
100
AcDbDimension
  2
*D9
 10
1.04094977927525e-15
 20
20
 30
0
 11
-28.5
 21
21.875
 31
0
 70
   32
 71
    5
 72
    0
  3
Standard
 53
0
210
0
220
0
230
1
100
AcDbAlignedDimension
 13
-57
 23
3
 33
0
 14
0
 24
3
 34
0
100
AcDbRotatedDimension
  0
DIMENSION
  5
12A
100
AcDbEntity
  8
BananaPro_dimension
  6
ByLayer
 62
  256
370
   -1
100
AcDbDimension
  2
*D10
 10
25.40000000000001
 20
-20
 30
0
 11
1.148106374200644e-16
 21
-18.125
 31
0
 70
   32
 71
    5
 72
    0
  3
Standard
 53
0
210
0
220
0
230
1
100
AcDbAlignedDimension
 13
-25.40000000000001
 23
-2.5
 33
0
 14
25.40000000000001
 24
-2.5
 34
0
100
AcDbRotatedDimension
  0
DIMENSION
  5
12B
100
AcDbEntity
  8
BananaPro_dimension
  6
ByLayer
 62
  256
370
   -1
100
AcDbDimension
  2
*D11
 10
34.5
 20
-70
 30
0
 11
-11.25
 21
-68.125
 31
0
 70
   32
 71
    5
 72
    0
  3
Standard
 53
0
210
0
220
0
230
1
100
AcDbAlignedDimension
 13
-57
 23
-57
 33
0
 14
34.5
 24
-57
 34
0
100
AcDbRotatedDimension
  0
DIMENSION
  5
12C
100
AcDbEntity
  8
BananaPro_dimension
  6
ByLayer
 62
  256
370
   -1
100
AcDbDimension
  2
*D12
 10
-30
 20
-2.499999999999995
 30
0
 11
-31.875
 21
3.338245743790567e-15
 31
0
 70
   32
 71
    5
 72
    0
  3
Standard
 53
0
210
0
220
0
230
1
100
AcDbAlignedDimension
 13
9.971808455640751
 23
2.5
 33
0
 14
10.01516414457832
 24
-2.5
 34
0
 50
90
100
AcDbRotatedDimension
  0
DIMENSION
  5
12D
100
AcDbEntity
  8
BananaPro_dimension
  6
ByLayer
 62
  256
370
   -1
100
AcDbDimension
  2
*D13
 10
27
 20
2.5
 30
0
 11
25.125
 21
2.75
 31
0
 70
   32
 71
    5
 72
    0
  3
Standard
 53
0
210
0
220
0
230
1
100
AcDbAlignedDimension
 13
25
 23
3
 33
0
 14
25
 24
2.5
 34
0
 50
90
100
AcDbRotatedDimension
  0
LINE
  5
12E
100
AcDbEntity
  8
BananaPro_ETHERNET
  6
ByLayer
 62
  256
370
   -1
100
AcDbLine
 10
-60.47
 20
-31.03
 11
-57
 21
-31.03
  0
LINE
  5
12F
100
AcDbEntity
  8
BananaPro_ETHERNET
  6
ByLayer
 62
  256
370
   -1
100
AcDbLine
 10
-60.47
 20
-46.97
 11
-57
 21
-46.97
  0
LINE
  5
130
100
AcDbEntity
  8
BananaPro_ETHERNET
  6
DASHEDTINY
 62
  256
370
   13
100
AcDbLine
 10
-39.37
 20
-31.03
 11
-39.36999999999999
 21
-46.97
  0
LINE
  5
131
100
AcDbEntity
  8
BananaPro_ETHERNET
  6
DASHEDTINY
 62
  256
370
   13
100
AcDbLine
 10
-57
 20
-31.03
 11
-39.37
 21
-31.03
  0
LINE
  5
132
100
AcDbEntity
  8
BananaPro_ETHERNET
  6
DASHEDTINY
 62
  256
370
   13
100
AcDbLine
 10
-57
 20
-46.97
 11
-39.36999999999999
 21
-46.97
  0
MTEXT
  5
133
100
AcDbEntity
  8
BananaPro_anotation
  6
ByLayer
 62
  256
370
   -1
100
AcDbMText
 10
-11.77777777777778
 20
-16.00000000000012
 30
0
 40
2
 41
5.333333333333457
 71
    7
 72
    1
  1
GPIO
  7
standard
210
0
220
0
230
1
 50
0
 73
    2
 44
1
  0
LEADER
  5
134
100
AcDbEntity
  8
BananaPro_anotation
  6
ByLayer
 62
  256
370
   -1
100
AcDbLeader
  3
Standard
 71
    1
 72
    0
 73
    3
 74
    0
 75
    0
 40
1
 41
10
 76
3
 76
3
 10
0
 20
-2.5
 30
0
 10
-5
 20
-13
 30
0
 10
-12
 20
-13
 30
0
  0
LINE
  5
135
100
AcDbEntity
  8
BananaPro_USB
  6
ByLayer
 62
  256
370
   -1
100
AcDbLine
 10
-60.97999999999999
 20
-12.41499999999999
 11
-60.98
 21
-25.58499999999998
  0
LINE
  5
136
100
AcDbEntity
  8
BananaPro_USB
  6
ByLayer
 62
  256
370
   -1
100
AcDbLine
 10
-60.98
 20
-12.41499999999999
 11
-57
 21
-12.41499999999999
  0
LINE
  5
137
100
AcDbEntity
  8
BananaPro_USB
  6
ByLayer
 62
  256
370
   -1
100
AcDbLine
 10
-60.98
 20
-25.58499999999998
 11
-57
 21
-25.58499999999998
  0
LINE
  5
138
100
AcDbEntity
  8
BananaPro_USB
  6
DASHEDTINY
 62
  256
370
   13
100
AcDbLine
 10
-43.57999999999999
 20
-12.41500000000002
 11
-43.58
 21
-25.58500000000001
  0
LINE
  5
139
100
AcDbEntity
  8
BananaPro_USB
  6
DASHEDTINY
 62
  256
370
   13
100
AcDbLine
 10
-57
 20
-12.41499999999999
 11
-43.57999999999999
 21
-12.41499999999999
  0
LINE
  5
13A
100
AcDbEntity
  8
BananaPro_USB
  6
DASHEDTINY
 62
  256
370
   13
100
AcDbLine
 10
-57
 20
-25.58499999999998
 11
-43.58
 21
-25.58499999999998
  0
INSERT
  5
13B
100
AcDbEntity
  8
BananaPro_ETHERNET
  6
ByLayer
 62
  256
370
   -1
100
AcDbBlockReference
  2
Infobox
 10
-220
 20
-170
 30
0
 41
1
 42
1
 43
0
 50
0
 70
    1
 71
    1
 44
0
 45
0
  0
MTEXT
  5
13C
100
AcDbEntity
  8
Infobox A3 landscape
  6
ByLayer
 62
  256
370
   -1
100
AcDbMText
 10
112
 20
-156
 30
0
 40
2
 41
18.16666624266255
 71
    1
 72
    1
  1
Stefan Mller
  7
standard
210
0
220
0
230
1
 50
0
 73
    2
 44
1
  0
MTEXT
  5
13D
100
AcDbEntity
  8
Infobox A3 landscape
  6
ByLayer
 62
  256
370
   -1
100
AcDbMText
 10
112
 20
-146
 30
0
 40
2
 41
38.055556584131
 71
    1
 72
    1
  1
Banana Pro mit Dimensionen
  7
standard
210
0
220
0
230
1
 50
0
 73
    2
 44
1
  0
MTEXT
  5
13E
100
AcDbEntity
  8
Infobox A3 landscape
  6
ByLayer
 62
  256
370
   -1
100
AcDbMText
 10
112
 20
-136
 30
0
 40
2
 41
34.66666769524193
 71
    1
 72
    1
  1
BananaPro_Dimension.dxf
  7
standard
210
0
220
0
230
1
 50
0
 73
    2
 44
1
  0
MTEXT
  5
13F
100
AcDbEntity
  8
Infobox A3 landscape
  6
ByLayer
 62
  256
370
   -1
100
AcDbMText
 10
168
 20
-146
 30
0
 40
2
 41
4.888888888888889
 71
    1
 72
    1
  1
0.1.0
  7
standard
210
0
220
0
230
1
 50
0
 73
    2
 44
1
  0
MTEXT
  5
140
100
AcDbEntity
  8
Infobox A3 landscape
  6
ByLayer
 62
  256
370
   -1
100
AcDbMText
 10
168
 20
-156
 30
0
 40
2
 41
14.00000000000037
 71
    1
 72
    1
  1
2016-03-31
  7
standard
210
0
220
0
230
1
 50
0
 73
    2
 44
1
  0
LEADER
  5
141
100
AcDbEntity
  8
annotation
  6
ByLayer
 62
  256
370
   -1
100
AcDbLeader
  3
Standard
 71
    1
 72
    0
 73
    3
 74
    0
 75
    0
 40
1
 41
10
 76
3
 76
3
 10
34.5
 20
-32.16173469387768
 30
0
 10
40
 20
-28
 30
0
 10
63
 20
-28
 30
0
  0
MTEXT
  5
142
100
AcDbEntity
  8
annotation
  6
ByLayer
 62
  256
370
   -1
100
AcDbMText
 10
46
 20
-24
 30
0
 40
2
 41
17.5
 71
    1
 72
    1
  1
BOTTOM view
  7
standard
210
0
220
0
230
1
 50
0
 73
    2
 44
1
  0
ENDSEC
  0
SECTION
  2
OBJECTS
  0
DICTIONARY
  5
C
330
0
100
AcDbDictionary
281
    1
  3
ACAD_GROUP
350
D
  0
DICTIONARY
  5
D
330
C
100
AcDbDictionary
281
    1
  0
ENDSEC
  0
EOF
