999
dxfrw 0.6.3
  0
SECTION
  2
HEADER
  9
$ACADVER
  1
AC1021
  9
$DWGCODEPAGE
  3
ANSI_1252
  9
$INSBASE
 10
0
 20
0
 30
0
  9
$EXTMIN
 10
50.72499464814837
 20
9.999999999999972
 30
0
  9
$EXTMAX
 10
410
 20
212.97500536574
 30
0
  9
$LIMMIN
 10
0
 20
0
  9
$LIMMAX
 10
420
 20
297
  9
$ORTHOMODE
 70
    0
  9
$REGENMODE
 70
    1
  9
$FILLMODE
 70
    1
  9
$QTEXTMODE
 70
    0
  9
$MIRRTEXT
 70
    0
  9
$LTSCALE
 40
1
  9
$ATTMODE
 70
    0
  9
$TEXTSIZE
 40
2.5
  9
$TRACEWID
 40
15.68
  9
$TEXTSTYLE
  7
STANDARD
  9
$CLAYER
  8
anotation
  9
$CELTYPE
  6
BYLAYER
  9
$CECOLOR
 62
  256
  9
$CELTSCALE
 40
1
  9
$DISPSILH
 70
    0
  9
$DIMSCALE
 40
1
  9
$DIMASZ
 40
2.5
  9
$DIMEXO
 40
0.625
  9
$DIMDLI
 40
3.75
  9
$DIMRND
 40
0
  9
$DIMDLE
 40
0
  9
$DIMEXE
 40
1.25
  9
$DIMTP
 40
0
  9
$DIMTM
 40
0
  9
$DIMTXT
 40
2.5
  9
$DIMCEN
 40
2.5
  9
$DIMTSZ
 40
0
  9
$DIMTOL
 70
    0
  9
$DIMLIM
 70
    0
  9
$DIMTIH
 70
    0
  9
$DIMTOH
 70
    0
  9
$DIMSE1
 70
    0
  9
$DIMSE2
 70
    0
  9
$DIMTAD
 70
    1
  9
$DIMZIN
 70
    8
  9
$DIMBLK
  1

  9
$DIMASO
 70
    1
  9
$DIMSHO
 70
    1
  9
$DIMPOST
  1

  9
$DIMAPOST
  1

  9
$DIMALT
 70
    0
  9
$DIMALTD
 70
    3
  9
$DIMALTF
 40
0.03937
  9
$DIMLFAC
 40
1
  9
$DIMTOFL
 70
    1
  9
$DIMTVP
 40
0
  9
$DIMTIX
 70
    0
  9
$DIMSOXD
 70
    0
  9
$DIMSAH
 70
    0
  9
$DIMBLK1
  1

  9
$DIMBLK2
  1

  9
$DIMSTYLE
  2
STANDARD
  9
$DIMCLRD
 70
    0
  9
$DIMCLRE
 70
    0
  9
$DIMCLRT
 70
    0
  9
$DIMTFAC
 40
1
  9
$DIMGAP
 40
0.625
  9
$DIMJUST
 70
    0
  9
$DIMSD1
 70
    0
  9
$DIMSD2
 70
    0
  9
$DIMTOLJ
 70
    0
  9
$DIMTZIN
 70
    8
  9
$DIMALTZ
 70
    0
  9
$DIMALTTZ
 70
    0
  9
$DIMUPT
 70
    0
  9
$DIMDEC
 70
    2
  9
$DIMTDEC
 70
    2
  9
$DIMALTU
 70
    2
  9
$DIMALTTD
 70
    3
  9
$DIMTXSTY
  7
STANDARD
  9
$DIMAUNIT
 70
    0
  9
$DIMADEC
 70
    0
  9
$DIMALTRND
 40
0
  9
$DIMAZIN
 70
    0
  9
$DIMDSEP
 70
   44
  9
$DIMATFIT
 70
    3
  9
$DIMFRAC
 70
    0
  9
$DIMLDRBLK
  1
STANDARD
  9
$DIMLUNIT
 70
    2
  9
$DIMLWD
 70
   -2
  9
$DIMLWE
 70
   -2
  9
$DIMTMOVE
 70
    0
  9
$DIMFXL
 40
1
  9
$DIMFXLON
 70
    0
  9
$DIMJOGANG
 40
0.7854
  9
$DIMTFILL
 70
    0
  9
$DIMTFILLCLR
 70
    0
  9
$DIMARCSYM
 70
    0
  9
$DIMLTYPE
  6

  9
$DIMLTEX1
  6

  9
$DIMLTEX2
  6

  9
$LUNITS
 70
    2
  9
$LUPREC
 70
    4
  9
$SKETCHINC
 40
1
  9
$FILLETRAD
 40
0
  9
$AUNITS
 70
    0
  9
$AUPREC
 70
    2
  9
$MENU
  1
.
  9
$ELEVATION
 40
0
  9
$PELEVATION
 40
0
  9
$THICKNESS
 40
0
  9
$LIMCHECK
 70
    0
  9
$CHAMFERA
 40
0
  9
$CHAMFERB
 40
0
  9
$CHAMFERC
 40
0
  9
$CHAMFERD
 40
0
  9
$SKPOLY
 70
    0
  9
$USRTIMER
 70
    1
  9
$ANGBASE
 50
0
  9
$ANGDIR
 70
    0
  9
$PDMODE
 70
   34
  9
$PDSIZE
 40
0
  9
$PLINEWID
 40
0
  9
$SPLFRAME
 70
    0
  9
$SPLINETYPE
 70
    2
  9
$SPLINESEGS
 70
    8
  9
$HANDSEED
  5
20000
  9
$SURFTAB1
 70
    6
  9
$SURFTAB2
 70
    6
  9
$SURFTYPE
 70
    6
  9
$SURFU
 70
    6
  9
$SURFV
 70
    6
  9
$UCSBASE
  2

  9
$UCSNAME
  2

  9
$UCSORG
 10
0
 20
0
 30
0
  9
$UCSXDIR
 10
1
 20
0
 30
0
  9
$UCSYDIR
 10
0
 20
1
 30
0
  9
$UCSORTHOREF
  2

  9
$UCSORTHOVIEW
 70
    0
  9
$UCSORGTOP
 10
0
 20
0
 30
0
  9
$UCSORGBOTTOM
 10
0
 20
0
 30
0
  9
$UCSORGLEFT
 10
0
 20
0
 30
0
  9
$UCSORGRIGHT
 10
0
 20
0
 30
0
  9
$UCSORGFRONT
 10
0
 20
0
 30
0
  9
$UCSORGBACK
 10
0
 20
0
 30
0
  9
$PUCSBASE
  2

  9
$PUCSNAME
  2

  9
$PUCSORG
 10
0
 20
0
 30
0
  9
$PUCSXDIR
 10
1
 20
0
 30
0
  9
$PUCSYDIR
 10
0
 20
1
 30
0
  9
$PUCSORTHOREF
  2

  9
$PUCSORTHOVIEW
 70
    0
  9
$PUCSORGTOP
 10
0
 20
0
 30
0
  9
$PUCSORGBOTTOM
 10
0
 20
0
 30
0
  9
$PUCSORGLEFT
 10
0
 20
0
 30
0
  9
$PUCSORGRIGHT
 10
0
 20
0
 30
0
  9
$PUCSORGFRONT
 10
0
 20
0
 30
0
  9
$PUCSORGBACK
 10
0
 20
0
 30
0
  9
$USERI1
 70
    0
  9
$USERI2
 70
    0
  9
$USERI3
 70
    0
  9
$USERI4
 70
    0
  9
$USERI5
 70
    0
  9
$USERR1
 40
0
  9
$USERR2
 40
0
  9
$USERR3
 40
0
  9
$USERR4
 40
0
  9
$USERR5
 40
0
  9
$WORLDVIEW
 70
    1
  9
$SHADEDGE
 70
    3
  9
$SHADEDIF
 70
   70
  9
$TILEMODE
 70
    1
  9
$MAXACTVP
 70
   64
  9
$PINSBASE
 10
-20.36249732407418
 20
37.01249731713
 30
0
  9
$PLIMCHECK
 70
    0
  9
$PEXTMIN
 10
0
 20
0
 30
0
  9
$PEXTMAX
 10
0
 20
0
 30
0
  9
$SNAPSTYLE
 70
    0
  9
$PLIMMIN
 10
0
 20
0
  9
$PLIMMAX
 10
420
 20
297
  9
$UNITMODE
 70
    0
  9
$VISRETAIN
 70
    1
  9
$PLINEGEN
 70
    0
  9
$PSLTSCALE
 70
    1
  9
$TREEDEPTH
 70
 3020
  9
$CMLSTYLE
  2
Standard
  9
$CMLJUST
 70
    0
  9
$CMLSCALE
 40
20
  9
$PROXYGRAPHICS
 70
    1
  9
$MEASUREMENT
 70
    1
  9
$CELWEIGHT
370
   -1
  9
$ENDCAPS
280
    0
  9
$JOINSTYLE
280
    0
  9
$LWDISPLAY
290
    0
  9
$INSUNITS
 70
    4
  9
$HYPERLINKBASE
  1

  9
$STYLESHEET
  1

  9
$XEDIT
290
    1
  9
$CEPSNTYPE
380
    0
  9
$PSTYLEMODE
290
    1
  9
$EXTNAMES
290
    1
  9
$PSVPSCALE
 40
1
  9
$OLESTARTUP
290
    0
  9
$SORTENTS
280
  127
  9
$INDEXCTL
280
    0
  9
$HIDETEXT
280
    1
  9
$XCLIPFRAME
290
    0
  9
$HALOGAP
280
    0
  9
$OBSCOLOR
 70
  257
  9
$OBSLTYPE
280
    0
  9
$INTERSECTIONDISPLAY
280
    0
  9
$INTERSECTIONCOLOR
 70
  257
  9
$DIMASSOC
280
    1
  9
$PROJECTNAME
  1

  9
$CAMERADISPLAY
290
    0
  9
$LENSLENGTH
 40
50
  9
$CAMERAHEIGHT
 40
0
  9
$STEPSPERSEC
 40
2
  9
$STEPSIZE
 40
50
  9
$3DDWFPREC
 40
2
  9
$PSOLWIDTH
 40
5
  9
$PSOLHEIGHT
 40
80
  9
$LOFTANG1
 40
1.570796326794897
  9
$LOFTANG2
 40
1.570796326794897
  9
$LOFTMAG1
 40
0
  9
$LOFTMAG2
 40
0
  9
$LOFTPARAM
 70
    7
  9
$LOFTNORMALS
280
    1
  9
$LATITUDE
 40
1
  9
$LONGITUDE
 40
1
  9
$NORTHDIRECTION
 40
0
  9
$TIMEZONE
 70
-8000
  9
$LIGHTGLYPHDISPLAY
280
    1
  9
$TILEMODELIGHTSYNCH
280
    1
  9
$SOLIDHIST
280
    1
  9
$SHOWHIST
280
    1
  9
$DWFFRAME
280
    2
  9
$DGNFRAME
280
    0
  9
$REALWORLDSCALE
290
    1
  9
$INTERFERECOLOR
 62
    1
  9
$CSHADOW
280
    0
  9
$SHADOWPLANELOCATION
 40
0
  0
ENDSEC
  0
SECTION
  2
CLASSES
  0
ENDSEC
  0
SECTION
  2
TABLES
  0
TABLE
  2
VPORT
  5
8
330
0
100
AcDbSymbolTable
 70
    1
  0
VPORT
  5
31
330
2
100
AcDbSymbolTableRecord
100
AcDbViewportTableRecord
  2
*ACTIVE
 70
    0
 10
0
 20
0
 11
1
 21
1
 12
189.2187500000099
 22
116.5625000000061
 13
0
 23
0
 14
10
 24
10
 15
10
 25
10
 16
0
 26
0
 36
1
 17
0
 27
0
 37
0
 40
291.5625000000152
 41
1.334405144694534
 42
50
 43
0
 44
0
 50
0
 51
0
 71
    0
 72
  100
 73
    1
 74
    3
 75
    0
 76
    1
 77
    0
 78
    0
281
    0
 65
    1
110
0
120
0
130
0
111
1
121
0
131
0
112
0
122
1
132
0
 79
    0
146
0
348
10020
 60
    7
 61
    5
292
1
282
    1
141
0
142
0
 63
  250
421
3358443
  0
ENDTAB
  0
TABLE
  2
LTYPE
  5
5
330
0
100
AcDbSymbolTable
 70
    4
  0
LTYPE
  5
14
330
5
100
AcDbSymbolTableRecord
100
AcDbLinetypeTableRecord
  2
ByBlock
 70
    0
  3

 72
   65
 73
    0
 40
0
  0
LTYPE
  5
15
330
5
100
AcDbSymbolTableRecord
100
AcDbLinetypeTableRecord
  2
ByLayer
 70
    0
  3

 72
   65
 73
    0
 40
0
  0
LTYPE
  5
16
330
5
100
AcDbSymbolTableRecord
100
AcDbLinetypeTableRecord
  2
Continuous
 70
    0
  3
Solid line
 72
   65
 73
    0
 40
0
  0
LTYPE
  5
32
330
5
100
AcDbSymbolTableRecord
100
AcDbLinetypeTableRecord
  2
DOT
 70
    0
  3
Dot . . . . . . . . . . . . . . . . . . . . . .
 72
   65
 73
    2
 40
6.35
 49
0
 74
    0
 49
-6.35
 74
    0
  0
LTYPE
  5
33
330
5
100
AcDbSymbolTableRecord
100
AcDbLinetypeTableRecord
  2
DOTTINY
 70
    0
  3
Dot (.15x) .....................................
 72
   65
 73
    2
 40
0.9525
 49
0
 74
    0
 49
-0.9525
 74
    0
  0
LTYPE
  5
34
330
5
100
AcDbSymbolTableRecord
100
AcDbLinetypeTableRecord
  2
DOT2
 70
    0
  3
Dot (.5x) .....................................
 72
   65
 73
    2
 40
3.175
 49
0
 74
    0
 49
-3.175
 74
    0
  0
LTYPE
  5
35
330
5
100
AcDbSymbolTableRecord
100
AcDbLinetypeTableRecord
  2
DOTX2
 70
    0
  3
Dot (2x) .  .  .  .  .  .  .  .  .  .  .  .  .
 72
   65
 73
    2
 40
12.7
 49
0
 74
    0
 49
-12.7
 74
    0
  0
LTYPE
  5
36
330
5
100
AcDbSymbolTableRecord
100
AcDbLinetypeTableRecord
  2
DASHED
 70
    0
  3
Dashed _ _ _ _ _ _ _ _ _ _ _ _ _ _ _ _ _
 72
   65
 73
    2
 40
19.05
 49
12.7
 74
    0
 49
-6.35
 74
    0
  0
LTYPE
  5
37
330
5
100
AcDbSymbolTableRecord
100
AcDbLinetypeTableRecord
  2
DASHEDTINY
 70
    0
  3
Dashed (.15x) _ _ _ _ _ _ _ _ _ _ _ _ _ _ _ _ _
 72
   65
 73
    2
 40
2.8575
 49
1.905
 74
    0
 49
-0.9525
 74
    0
  0
LTYPE
  5
38
330
5
100
AcDbSymbolTableRecord
100
AcDbLinetypeTableRecord
  2
DASHED2
 70
    0
  3
Dashed (.5x) _ _ _ _ _ _ _ _ _ _ _ _ _ _ _ _ _
 72
   65
 73
    2
 40
9.524999999999999
 49
6.35
 74
    0
 49
-3.175
 74
    0
  0
LTYPE
  5
39
330
5
100
AcDbSymbolTableRecord
100
AcDbLinetypeTableRecord
  2
DASHEDX2
 70
    0
  3
Dashed (2x) ____  ____  ____  ____  ____  ___
 72
   65
 73
    2
 40
38.09999999999999
 49
25.4
 74
    0
 49
-12.7
 74
    0
  0
LTYPE
  5
3A
330
5
100
AcDbSymbolTableRecord
100
AcDbLinetypeTableRecord
  2
DASHDOT
 70
    0
  3
Dash dot __ . __ . __ . __ . __ . __ . __ . __
 72
   65
 73
    4
 40
25.4
 49
12.7
 74
    0
 49
-6.35
 74
    0
 49
0
 74
    0
 49
-6.35
 74
    0
  0
LTYPE
  5
3B
330
5
100
AcDbSymbolTableRecord
100
AcDbLinetypeTableRecord
  2
DASHDOTTINY
 70
    0
  3
Dash dot (.15x) _._._._._._._._._._._._._._._.
 72
   65
 73
    4
 40
3.81
 49
1.905
 74
    0
 49
-0.9525
 74
    0
 49
0
 74
    0
 49
-0.9525
 74
    0
  0
LTYPE
  5
3C
330
5
100
AcDbSymbolTableRecord
100
AcDbLinetypeTableRecord
  2
DASHDOT2
 70
    0
  3
Dash dot (.5x) _._._._._._._._._._._._._._._.
 72
   65
 73
    4
 40
12.7
 49
6.35
 74
    0
 49
-3.175
 74
    0
 49
0
 74
    0
 49
-3.175
 74
    0
  0
LTYPE
  5
3D
330
5
100
AcDbSymbolTableRecord
100
AcDbLinetypeTableRecord
  2
DASHDOTX2
 70
    0
  3
Dash dot (2x) ____  .  ____  .  ____  .  ___
 72
   65
 73
    4
 40
50.8
 49
25.4
 74
    0
 49
-12.7
 74
    0
 49
0
 74
    0
 49
-12.7
 74
    0
  0
LTYPE
  5
3E
330
5
100
AcDbSymbolTableRecord
100
AcDbLinetypeTableRecord
  2
DIVIDE
 70
    0
  3
Divide ____ . . ____ . . ____ . . ____ . . ____
 72
   65
 73
    6
 40
31.75
 49
12.7
 74
    0
 49
-6.35
 74
    0
 49
0
 74
    0
 49
-6.35
 74
    0
 49
0
 74
    0
 49
-6.35
 74
    0
  0
LTYPE
  5
3F
330
5
100
AcDbSymbolTableRecord
100
AcDbLinetypeTableRecord
  2
DIVIDETINY
 70
    0
  3
Divide (.15x) __..__..__..__..__..__..__..__.._
 72
   65
 73
    6
 40
4.7625
 49
1.905
 74
    0
 49
-0.9525
 74
    0
 49
0
 74
    0
 49
-0.9525
 74
    0
 49
0
 74
    0
 49
-0.9525
 74
    0
  0
LTYPE
  5
40
330
5
100
AcDbSymbolTableRecord
100
AcDbLinetypeTableRecord
  2
DIVIDE2
 70
    0
  3
Divide (.5x) __..__..__..__..__..__..__..__.._
 72
   65
 73
    6
 40
15.875
 49
6.35
 74
    0
 49
-3.175
 74
    0
 49
0
 74
    0
 49
-3.175
 74
    0
 49
0
 74
    0
 49
-3.175
 74
    0
  0
LTYPE
  5
41
330
5
100
AcDbSymbolTableRecord
100
AcDbLinetypeTableRecord
  2
DIVIDEX2
 70
    0
  3
Divide (2x) ________  .  .  ________  .  .  _
 72
   65
 73
    6
 40
63.5
 49
25.4
 74
    0
 49
-12.7
 74
    0
 49
0
 74
    0
 49
-12.7
 74
    0
 49
0
 74
    0
 49
-12.7
 74
    0
  0
LTYPE
  5
42
330
5
100
AcDbSymbolTableRecord
100
AcDbLinetypeTableRecord
  2
BORDER
 70
    0
  3
Border __ __ . __ __ . __ __ . __ __ . __ __ .
 72
   65
 73
    6
 40
44.45
 49
12.7
 74
    0
 49
-6.35
 74
    0
 49
12.7
 74
    0
 49
-6.35
 74
    0
 49
0
 74
    0
 49
-6.35
 74
    0
  0
LTYPE
  5
43
330
5
100
AcDbSymbolTableRecord
100
AcDbLinetypeTableRecord
  2
BORDERTINY
 70
    0
  3
Border (.15x) __.__.__.__.__.__.__.__.__.__.__.
 72
   65
 73
    6
 40
6.6675
 49
1.905
 74
    0
 49
-0.9525
 74
    0
 49
1.905
 74
    0
 49
-0.9525
 74
    0
 49
0
 74
    0
 49
-0.9525
 74
    0
  0
LTYPE
  5
44
330
5
100
AcDbSymbolTableRecord
100
AcDbLinetypeTableRecord
  2
BORDER2
 70
    0
  3
Border (.5x) __.__.__.__.__.__.__.__.__.__.__.
 72
   65
 73
    6
 40
22.225
 49
6.35
 74
    0
 49
-3.175
 74
    0
 49
6.35
 74
    0
 49
-3.175
 74
    0
 49
0
 74
    0
 49
-3.175
 74
    0
  0
LTYPE
  5
45
330
5
100
AcDbSymbolTableRecord
100
AcDbLinetypeTableRecord
  2
BORDERX2
 70
    0
  3
Border (2x) ____  ____  .  ____  ____  .  ___
 72
   65
 73
    6
 40
88.89999999999999
 49
25.4
 74
    0
 49
-12.7
 74
    0
 49
25.4
 74
    0
 49
-12.7
 74
    0
 49
0
 74
    0
 49
-12.7
 74
    0
  0
LTYPE
  5
46
330
5
100
AcDbSymbolTableRecord
100
AcDbLinetypeTableRecord
  2
CENTER
 70
    0
  3
Center ____ _ ____ _ ____ _ ____ _ ____ _ ____
 72
   65
 73
    4
 40
50.8
 49
31.75
 74
    0
 49
-6.35
 74
    0
 49
6.35
 74
    0
 49
-6.35
 74
    0
  0
LTYPE
  5
47
330
5
100
AcDbSymbolTableRecord
100
AcDbLinetypeTableRecord
  2
CENTERTINY
 70
    0
  3
Center (.15x) ___ _ ___ _ ___ _ ___ _ ___ _ ___
 72
   65
 73
    4
 40
7.619999999999999
 49
4.7625
 74
    0
 49
-0.9525
 74
    0
 49
0.9525
 74
    0
 49
-0.9525
 74
    0
  0
LTYPE
  5
48
330
5
100
AcDbSymbolTableRecord
100
AcDbLinetypeTableRecord
  2
CENTER2
 70
    0
  3
Center (.5x) ___ _ ___ _ ___ _ ___ _ ___ _ ___
 72
   65
 73
    4
 40
28.575
 49
19.05
 74
    0
 49
-3.175
 74
    0
 49
3.175
 74
    0
 49
-3.175
 74
    0
  0
LTYPE
  5
49
330
5
100
AcDbSymbolTableRecord
100
AcDbLinetypeTableRecord
  2
CENTERX2
 70
    0
  3
Center (2x) ________  __  ________  __  _____
 72
   65
 73
    4
 40
101.6
 49
63.5
 74
    0
 49
-12.7
 74
    0
 49
12.7
 74
    0
 49
-12.7
 74
    0
  0
ENDTAB
  0
TABLE
  2
LAYER
  5
2
330
0
100
AcDbSymbolTable
 70
    1
  0
LAYER
  5
10
330
2
100
AcDbSymbolTableRecord
100
AcDbLayerTableRecord
  2
0
 70
    0
 62
    7
  6
CONTINUOUS
370
    0
390
F
  0
LAYER
  5
4A
330
2
100
AcDbSymbolTableRecord
100
AcDbLayerTableRecord
  2
Infobox A3
 70
    1
 62
    7
  6
CONTINUOUS
370
    0
390
F
  0
LAYER
  5
4B
330
2
100
AcDbSymbolTableRecord
100
AcDbLayerTableRecord
  2
Infobox A3 landscape
 70
    0
 62
    7
  6
CONTINUOUS
370
    0
390
F
  0
LAYER
  5
4C
330
2
100
AcDbSymbolTableRecord
100
AcDbLayerTableRecord
  2
Infobox construction
 70
    1
 62
    5
  6
CONTINUOUS
370
    0
390
F
  0
LAYER
  5
4D
330
2
100
AcDbSymbolTableRecord
100
AcDbLayerTableRecord
  2
anotation
 70
    0
 62
    7
  6
CONTINUOUS
370
    0
390
F
  0
LAYER
  5
4E
330
2
100
AcDbSymbolTableRecord
100
AcDbLayerTableRecord
  2
construction
 70
    1
 62
    5
  6
CONTINUOUS
370
    0
390
F
1001
LibreCad
1070
    1
  0
LAYER
  5
4F
330
2
100
AcDbSymbolTableRecord
100
AcDbLayerTableRecord
  2
cut_M16
 70
    0
 62
  140
420
43775
  6
CONTINUOUS
370
   50
390
F
  0
LAYER
  5
50
330
2
100
AcDbSymbolTableRecord
100
AcDbLayerTableRecord
  2
cut_M20
 70
    0
 62
   20
420
16733440
  6
CONTINUOUS
370
   50
390
F
  0
LAYER
  5
51
330
2
100
AcDbSymbolTableRecord
100
AcDbLayerTableRecord
  2
dimension
 70
    0
 62
    7
  6
CONTINUOUS
370
   13
390
F
  0
LAYER
  5
52
330
2
100
AcDbSymbolTableRecord
100
AcDbLayerTableRecord
  2
hatch
 70
    1
 62
    7
  6
CONTINUOUS
370
    0
390
F
  0
LAYER
  5
53
330
2
100
AcDbSymbolTableRecord
100
AcDbLayerTableRecord
  2
hatch_verschraubungen
 70
    0
 62
    7
  6
CONTINUOUS
370
    0
390
F
  0
LAYER
  5
54
330
2
100
AcDbSymbolTableRecord
100
AcDbLayerTableRecord
  2
middle
 70
    0
 62
    7
  6
DASHDOT2
370
   13
390
F
  0
LAYER
  5
55
330
2
100
AcDbSymbolTableRecord
100
AcDbLayerTableRecord
  2
outlines
 70
    0
 62
    7
  6
CONTINUOUS
370
   50
390
F
  0
ENDTAB
  0
TABLE
  2
STYLE
  5
3
330
0
100
AcDbSymbolTable
 70
    3
  0
STYLE
  5
56
330
2
100
AcDbSymbolTableRecord
100
AcDbTextStyleTableRecord
  2
standard
 70
    0
 40
0
 41
1
 50
0
 71
    0
 42
1
  3
standard
  4

  0
ENDTAB
  0
TABLE
  2
VIEW
  5
6
330
0
100
AcDbSymbolTable
 70
    0
  0
ENDTAB
  0
TABLE
  2
UCS
  5
7
330
0
100
AcDbSymbolTable
 70
    0
  0
ENDTAB
  0
TABLE
  2
APPID
  5
9
330
0
100
AcDbSymbolTable
 70
    1
  0
APPID
  5
12
330
9
100
AcDbSymbolTableRecord
100
AcDbRegAppTableRecord
  2
ACAD
 70
    0
  0
APPID
  5
57
330
9
100
AcDbSymbolTableRecord
100
AcDbRegAppTableRecord
  2
LibreCad
 70
    0
  0
ENDTAB
  0
TABLE
  2
DIMSTYLE
  5
A
330
0
100
AcDbSymbolTable
 70
    1
100
AcDbDimStyleTable
 71
    1
  0
DIMSTYLE
105
58
330
A
100
AcDbSymbolTableRecord
100
AcDbDimStyleTableRecord
  2
Standard
 70
    0
 40
1
 41
2.5
 42
0.625
 43
0.38
 44
1.25
 45
0
 46
0
 47
0
 48
0
 49
1
140
2.5
141
0.09
142
0
143
25.4
144
1
145
0
146
1
147
0.625
148
0
 71
    0
 72
    0
 73
    0
 74
    1
 75
    0
 76
    0
 77
    0
 78
    1
 79
    0
170
    0
171
    2
172
    0
173
    0
174
    0
175
    0
176
    0
177
    0
178
    0
179
    0
271
    2
272
    4
273
    2
274
    2
275
    0
276
    0
277
    2
278
    0
279
    0
280
    0
281
    0
282
    0
283
    1
284
    0
285
    0
286
    0
288
    0
289
    3
340
standard
341

371
   -2
372
   -2
  0
ENDTAB
  0
TABLE
  2
BLOCK_RECORD
  5
1
330
0
100
AcDbSymbolTable
 70
    2
  0
BLOCK_RECORD
  5
1F
330
1
100
AcDbSymbolTableRecord
100
AcDbBlockTableRecord
  2
*Model_Space
 70
    0
280
    1
281
    0
  0
BLOCK_RECORD
  5
1E
330
1
100
AcDbSymbolTableRecord
100
AcDbBlockTableRecord
  2
*Paper_Space
 70
    0
280
    1
281
    0
  0
BLOCK_RECORD
  5
59
330
1
100
AcDbSymbolTableRecord
100
AcDbBlockTableRecord
  2
*D28
 70
    0
280
    1
281
    0
  0
BLOCK_RECORD
  5
5C
330
1
100
AcDbSymbolTableRecord
100
AcDbBlockTableRecord
  2
*D4
 70
    0
280
    1
281
    0
  0
BLOCK_RECORD
  5
5F
330
1
100
AcDbSymbolTableRecord
100
AcDbBlockTableRecord
  2
*D7
 70
    0
280
    1
281
    0
  0
BLOCK_RECORD
  5
62
330
1
100
AcDbSymbolTableRecord
100
AcDbBlockTableRecord
  2
*D22
 70
    0
280
    1
281
    0
  0
BLOCK_RECORD
  5
65
330
1
100
AcDbSymbolTableRecord
100
AcDbBlockTableRecord
  2
*D1
 70
    0
280
    1
281
    0
  0
BLOCK_RECORD
  5
68
330
1
100
AcDbSymbolTableRecord
100
AcDbBlockTableRecord
  2
*D15
 70
    0
280
    1
281
    0
  0
BLOCK_RECORD
  5
6B
330
1
100
AcDbSymbolTableRecord
100
AcDbBlockTableRecord
  2
*D17
 70
    0
280
    1
281
    0
  0
BLOCK_RECORD
  5
6E
330
1
100
AcDbSymbolTableRecord
100
AcDbBlockTableRecord
  2
*D10
 70
    0
280
    1
281
    0
  0
BLOCK_RECORD
  5
71
330
1
100
AcDbSymbolTableRecord
100
AcDbBlockTableRecord
  2
*D14
 70
    0
280
    1
281
    0
  0
BLOCK_RECORD
  5
74
330
1
100
AcDbSymbolTableRecord
100
AcDbBlockTableRecord
  2
*D11
 70
    0
280
    1
281
    0
  0
BLOCK_RECORD
  5
77
330
1
100
AcDbSymbolTableRecord
100
AcDbBlockTableRecord
  2
*D27
 70
    0
280
    1
281
    0
  0
BLOCK_RECORD
  5
7A
330
1
100
AcDbSymbolTableRecord
100
AcDbBlockTableRecord
  2
*D5
 70
    0
280
    1
281
    0
  0
BLOCK_RECORD
  5
7D
330
1
100
AcDbSymbolTableRecord
100
AcDbBlockTableRecord
  2
*D24
 70
    0
280
    1
281
    0
  0
BLOCK_RECORD
  5
80
330
1
100
AcDbSymbolTableRecord
100
AcDbBlockTableRecord
  2
*D29
 70
    0
280
    1
281
    0
  0
BLOCK_RECORD
  5
83
330
1
100
AcDbSymbolTableRecord
100
AcDbBlockTableRecord
  2
*D21
 70
    0
280
    1
281
    0
  0
BLOCK_RECORD
  5
86
330
1
100
AcDbSymbolTableRecord
100
AcDbBlockTableRecord
  2
*D31
 70
    0
280
    1
281
    0
  0
BLOCK_RECORD
  5
89
330
1
100
AcDbSymbolTableRecord
100
AcDbBlockTableRecord
  2
*D6
 70
    0
280
    1
281
    0
  0
BLOCK_RECORD
  5
8C
330
1
100
AcDbSymbolTableRecord
100
AcDbBlockTableRecord
  2
*D3
 70
    0
280
    1
281
    0
  0
BLOCK_RECORD
  5
8F
330
1
100
AcDbSymbolTableRecord
100
AcDbBlockTableRecord
  2
*D18
 70
    0
280
    1
281
    0
  0
BLOCK_RECORD
  5
92
330
1
100
AcDbSymbolTableRecord
100
AcDbBlockTableRecord
  2
*D2
 70
    0
280
    1
281
    0
  0
BLOCK_RECORD
  5
95
330
1
100
AcDbSymbolTableRecord
100
AcDbBlockTableRecord
  2
*D26
 70
    0
280
    1
281
    0
  0
BLOCK_RECORD
  5
98
330
1
100
AcDbSymbolTableRecord
100
AcDbBlockTableRecord
  2
*D9
 70
    0
280
    1
281
    0
  0
BLOCK_RECORD
  5
9B
330
1
100
AcDbSymbolTableRecord
100
AcDbBlockTableRecord
  2
*D13
 70
    0
280
    1
281
    0
  0
BLOCK_RECORD
  5
9E
330
1
100
AcDbSymbolTableRecord
100
AcDbBlockTableRecord
  2
*D20
 70
    0
280
    1
281
    0
  0
BLOCK_RECORD
  5
A1
330
1
100
AcDbSymbolTableRecord
100
AcDbBlockTableRecord
  2
*D8
 70
    0
280
    1
281
    0
  0
BLOCK_RECORD
  5
A4
330
1
100
AcDbSymbolTableRecord
100
AcDbBlockTableRecord
  2
*D16
 70
    0
280
    1
281
    0
  0
BLOCK_RECORD
  5
A7
330
1
100
AcDbSymbolTableRecord
100
AcDbBlockTableRecord
  2
*D25
 70
    0
280
    1
281
    0
  0
BLOCK_RECORD
  5
AA
330
1
100
AcDbSymbolTableRecord
100
AcDbBlockTableRecord
  2
*D23
 70
    0
280
    1
281
    0
  0
BLOCK_RECORD
  5
AD
330
1
100
AcDbSymbolTableRecord
100
AcDbBlockTableRecord
  2
*D12
 70
    0
280
    1
281
    0
  0
BLOCK_RECORD
  5
B0
330
1
100
AcDbSymbolTableRecord
100
AcDbBlockTableRecord
  2
*D19
 70
    0
280
    1
281
    0
  0
BLOCK_RECORD
  5
B3
330
1
100
AcDbSymbolTableRecord
100
AcDbBlockTableRecord
  2
*D30
 70
    0
280
    1
281
    0
  0
BLOCK_RECORD
  5
B6
330
1
100
AcDbSymbolTableRecord
100
AcDbBlockTableRecord
  2
Infobox
 70
    0
280
    1
281
    0
  0
ENDTAB
  0
ENDSEC
  0
SECTION
  2
BLOCKS
  0
BLOCK
  5
20
330
1F
100
AcDbEntity
  8
0
100
AcDbBlockBegin
  2
*Model_Space
 70
    0
 10
0
 20
0
 30
0
  3
*Model_Space
  1

  0
ENDBLK
  5
21
330
1F
100
AcDbEntity
  8
0
100
AcDbBlockEnd
  0
BLOCK
  5
1C
330
1B
100
AcDbEntity
  8
0
100
AcDbBlockBegin
  2
*Paper_Space
 70
    0
 10
0
 20
0
 30
0
  3
*Paper_Space
  1

  0
ENDBLK
  5
1D
330
1F
100
AcDbEntity
  8
0
100
AcDbBlockEnd
  0
BLOCK
  5
5A
330
59
100
AcDbEntity
  8
0
100
AcDbBlockBegin
  2
*D28
 70
    1
 10
0
 20
0
  3
*D28
  1

  0
LINE
  5
B9
100
AcDbEntity
  8
anotation
  6
CONTINUOUS
 62
    7
370
    0
100
AcDbLine
 10
167.1474946481484
 20
123.8500053657412
 11
170
 21
118
  0
SOLID
  5
BA
100
AcDbEntity
  8
anotation
  6
CONTINUOUS
 62
    7
370
    0
100
AcDbTrace
 10
167.1474946481484
 20
123.8500053657412
 30
0
 11
168.6173677260675
 21
121.7853586523527
 31
0
 12
167.8690224459003
 22
121.420460026924
 32
0
 13
167.8690224459003
 23
121.420460026924
 33
0
  0
LINE
  5
BB
100
AcDbEntity
  8
anotation
  6
CONTINUOUS
 62
    7
370
    0
100
AcDbLine
 10
170
 20
118
 11
181
 21
118
  0
ENDBLK
  5
5B
330
59
100
AcDbEntity
  8
0
100
AcDbBlockEnd
  0
BLOCK
  5
5D
330
5C
100
AcDbEntity
  8
0
100
AcDbBlockBegin
  2
*D4
 70
    1
 10
0
 20
0
  3
*D4
  1

  0
LINE
  5
BC
100
AcDbEntity
  8
dimension
  6
ByBlock
 62
    0
370
   -2
100
AcDbLine
 10
186.3699946481484
 20
209.85000536574
 11
167.1474946481484
 21
209.85000536574
  0
SOLID
  5
BD
100
AcDbEntity
  8
dimension
  6
ByBlock
 62
    0
370
   -2
100
AcDbTrace
 10
186.3699946481484
 20
209.85000536574
 30
0
 11
183.8699946481484
 21
209.4337207079672
 31
0
 12
183.8699946481484
 22
210.2662900235129
 32
0
 13
183.8699946481484
 23
210.2662900235129
 33
0
  0
SOLID
  5
BE
100
AcDbEntity
  8
dimension
  6
ByBlock
 62
    0
370
   -2
100
AcDbTrace
 10
167.1474946481484
 20
209.85000536574
 30
0
 11
169.6474946481484
 21
210.2662900235129
 31
0
 12
169.6474946481484
 22
209.4337207079672
 32
0
 13
169.6474946481484
 23
209.4337207079672
 33
0
  0
MTEXT
  5
BF
100
AcDbEntity
  8
dimension
  6
CONTINUOUS
 62
    0
370
   -2
100
AcDbMText
 10
176.7587446481484
 20
211.72500536574
 30
0
 40
2.5
 41
11.11111111111127
 71
    5
 72
    1
  1
19.2225
  7
standard
210
0
220
0
230
1
 50
360
 73
    2
 44
1
  0
LINE
  5
C0
100
AcDbEntity
  8
dimension
  6
ByBlock
 62
    0
370
   -2
100
AcDbLine
 10
186.3699946481484
 20
160.47500536574
 11
186.3699946481484
 21
211.10000536574
  0
LINE
  5
C1
100
AcDbEntity
  8
dimension
  6
ByBlock
 62
    0
370
   -2
100
AcDbLine
 10
167.1474946481484
 20
130.47500536574
 11
167.1474946481484
 21
211.10000536574
  0
ENDBLK
  5
5E
330
5C
100
AcDbEntity
  8
0
100
AcDbBlockEnd
  0
BLOCK
  5
60
330
5F
100
AcDbEntity
  8
0
100
AcDbBlockBegin
  2
*D7
 70
    1
 10
0
 20
0
  3
*D7
  1

  0
LINE
  5
C2
100
AcDbEntity
  8
dimension
  6
ByBlock
 62
    0
370
   -2
100
AcDbLine
 10
128.7024946481484
 20
209.85000536574
 11
109.4799946481484
 21
209.85000536574
  0
SOLID
  5
C3
100
AcDbEntity
  8
dimension
  6
ByBlock
 62
    0
370
   -2
100
AcDbTrace
 10
128.7024946481484
 20
209.85000536574
 30
0
 11
126.2024946481484
 21
209.4337207079672
 31
0
 12
126.2024946481484
 22
210.2662900235129
 32
0
 13
126.2024946481484
 23
210.2662900235129
 33
0
  0
SOLID
  5
C4
100
AcDbEntity
  8
dimension
  6
ByBlock
 62
    0
370
   -2
100
AcDbTrace
 10
109.4799946481484
 20
209.85000536574
 30
0
 11
111.9799946481484
 21
210.2662900235129
 31
0
 12
111.9799946481484
 22
209.4337207079672
 32
0
 13
111.9799946481484
 23
209.4337207079672
 33
0
  0
MTEXT
  5
C5
100
AcDbEntity
  8
dimension
  6
CONTINUOUS
 62
    0
370
   -2
100
AcDbMText
 10
119.0912446481484
 20
211.72500536574
 30
0
 40
2.5
 41
11.11111111111127
 71
    5
 72
    1
  1
19.2225
  7
standard
210
0
220
0
230
1
 50
360
 73
    2
 44
1
  0
LINE
  5
C6
100
AcDbEntity
  8
dimension
  6
ByBlock
 62
    0
370
   -2
100
AcDbLine
 10
128.7024946481484
 20
191.47500536574
 11
128.7024946481484
 21
211.10000536574
  0
LINE
  5
C7
100
AcDbEntity
  8
dimension
  6
ByBlock
 62
    0
370
   -2
100
AcDbLine
 10
109.4799946481484
 20
160.47500536574
 11
109.4799946481484
 21
211.10000536574
  0
ENDBLK
  5
61
330
5F
100
AcDbEntity
  8
0
100
AcDbBlockEnd
  0
BLOCK
  5
63
330
62
100
AcDbEntity
  8
0
100
AcDbBlockBegin
  2
*D22
 70
    1
 10
0
 20
0
  3
*D22
  1

  0
LINE
  5
C8
100
AcDbEntity
  8
dimension
  6
CONTINUOUS
 62
    7
370
    0
100
AcDbLine
 10
295.4475
 20
136
 11
292
 21
140
  0
LINE
  5
C9
100
AcDbEntity
  8
dimension
  6
CONTINUOUS
 62
    7
370
    0
100
AcDbLine
 10
292
 20
140
 11
288
 21
140
  0
SOLID
  5
CA
100
AcDbEntity
  8
dimension
  6
CONTINUOUS
 62
    7
370
    0
100
AcDbTrace
 10
295.4475
 20
136
 30
0
 11
293.5000332794123
 21
137.6219328865585
 31
0
 12
294.1306900641253
 22
138.1654802028831
 32
0
 13
294.1306900641253
 23
138.1654802028831
 33
0
  0
ENDBLK
  5
64
330
62
100
AcDbEntity
  8
0
100
AcDbBlockEnd
  0
BLOCK
  5
66
330
65
100
AcDbEntity
  8
0
100
AcDbBlockBegin
  2
*D1
 70
    1
 10
0
 20
0
  3
*D1
  1

  0
LINE
  5
CB
100
AcDbEntity
  8
dimension
  6
ByBlock
 62
    0
370
   -2
100
AcDbLine
 10
83.84999464814837
 20
69.85000536574002
 11
340.1499946481484
 21
69.85000536574002
  0
SOLID
  5
CC
100
AcDbEntity
  8
dimension
  6
ByBlock
 62
    0
370
   -2
100
AcDbTrace
 10
83.84999464814837
 20
69.85000536574002
 30
0
 11
86.34999464814837
 21
70.26629002351285
 31
0
 12
86.34999464814837
 22
69.43372070796718
 32
0
 13
86.34999464814837
 23
69.43372070796718
 33
0
  0
SOLID
  5
CD
100
AcDbEntity
  8
dimension
  6
ByBlock
 62
    0
370
   -2
100
AcDbTrace
 10
340.1499946481484
 20
69.85000536574002
 30
0
 11
337.6499946481484
 21
69.43372070796718
 31
0
 12
337.6499946481484
 22
70.26629002351285
 32
0
 13
337.6499946481484
 23
70.26629002351285
 33
0
  0
MTEXT
  5
CE
100
AcDbEntity
  8
dimension
  6
CONTINUOUS
 62
    0
370
   -2
100
AcDbMText
 10
211.9999946481484
 20
71.72500536574002
 30
0
 40
2.5
 41
13.61111111111158
 71
    5
 72
    1
  1
256.3000
  7
standard
210
0
220
0
230
1
 50
0
 73
    2
 44
1
  0
LINE
  5
CF
100
AcDbEntity
  8
dimension
  6
ByBlock
 62
    0
370
   -2
100
AcDbLine
 10
83.84999464814837
 20
89.22500536574002
 11
83.84999464814837
 21
68.60000536574002
  0
LINE
  5
D0
100
AcDbEntity
  8
dimension
  6
ByBlock
 62
    0
370
   -2
100
AcDbLine
 10
340.1499946481484
 20
89.22500536574002
 11
340.1499946481484
 21
68.60000536574002
  0
ENDBLK
  5
67
330
65
100
AcDbEntity
  8
0
100
AcDbBlockEnd
  0
BLOCK
  5
69
330
68
100
AcDbEntity
  8
0
100
AcDbBlockBegin
  2
*D15
 70
    1
 10
0
 20
0
  3
*D15
  1

  0
LINE
  5
D1
100
AcDbEntity
  8
dimension
  6
ByBlock
 62
    0
370
   -2
100
AcDbLine
 10
60.00000000000001
 20
159.85000536574
 11
60
 21
89.85000536574002
  0
SOLID
  5
D2
100
AcDbEntity
  8
dimension
  6
ByBlock
 62
    0
370
   -2
100
AcDbTrace
 10
60.00000000000001
 20
159.85000536574
 30
0
 11
60.41628465777285
 21
157.35000536574
 31
0
 12
59.58371534222717
 22
157.35000536574
 32
0
 13
59.58371534222717
 23
157.35000536574
 33
0
  0
SOLID
  5
D3
100
AcDbEntity
  8
dimension
  6
ByBlock
 62
    0
370
   -2
100
AcDbTrace
 10
60
 20
89.85000536574002
 30
0
 11
59.58371534222716
 21
92.35000536574002
 31
0
 12
60.41628465777284
 22
92.35000536574002
 32
0
 13
60.41628465777284
 23
92.35000536574002
 33
0
  0
MTEXT
  5
D4
100
AcDbEntity
  8
dimension
  6
CONTINUOUS
 62
    0
370
   -2
100
AcDbMText
 10
58.125
 20
124.85000536574
 30
0
 40
2.5
 41
11.66666666666667
 71
    5
 72
    1
  1
70.0000
  7
standard
210
0
220
0
230
1
 50
90
 73
    2
 44
1
  0
LINE
  5
D5
100
AcDbEntity
  8
dimension
  6
ByBlock
 62
    0
370
   -2
100
AcDbLine
 10
313.8949946481484
 20
159.85000536574
 11
58.75000000000001
 21
159.85000536574
  0
LINE
  5
D6
100
AcDbEntity
  8
dimension
  6
ByBlock
 62
    0
370
   -2
100
AcDbLine
 10
83.22499464814837
 20
89.85000536574002
 11
58.75
 21
89.85000536574002
  0
ENDBLK
  5
6A
330
68
100
AcDbEntity
  8
0
100
AcDbBlockEnd
  0
BLOCK
  5
6C
330
6B
100
AcDbEntity
  8
0
100
AcDbBlockBegin
  2
*D17
 70
    1
 10
0
 20
0
  3
*D17
  1

  0
LINE
  5
D7
100
AcDbEntity
  8
dimension
  6
CONTINUOUS
 62
    7
370
    0
100
AcDbLine
 10
148
 20
166
 11
146
 21
168
  0
LINE
  5
D8
100
AcDbEntity
  8
dimension
  6
CONTINUOUS
 62
    7
370
    0
100
AcDbLine
 10
146
 20
168
 11
140
 21
168
  0
SOLID
  5
D9
100
AcDbEntity
  8
dimension
  6
CONTINUOUS
 62
    7
370
    0
100
AcDbTrace
 10
148
 20
166
 30
0
 11
145.9378753426185
 21
167.4734092485513
 31
0
 12
146.5265907514487
 22
168.0621246573815
 32
0
 13
146.5265907514487
 23
168.0621246573815
 33
0
  0
ENDBLK
  5
6D
330
6B
100
AcDbEntity
  8
0
100
AcDbBlockEnd
  0
BLOCK
  5
6F
330
6E
100
AcDbEntity
  8
0
100
AcDbBlockBegin
  2
*D10
 70
    1
 10
0
 20
0
  3
*D10
  1

  0
LINE
  5
DA
100
AcDbEntity
  8
dimension
  6
ByBlock
 62
    0
370
   -2
100
AcDbLine
 10
256.8524946481484
 20
209.85000536574
 11
276.0749946481484
 21
209.85000536574
  0
SOLID
  5
DB
100
AcDbEntity
  8
dimension
  6
ByBlock
 62
    0
370
   -2
100
AcDbTrace
 10
256.8524946481484
 20
209.85000536574
 30
0
 11
259.3524946481484
 21
210.2662900235129
 31
0
 12
259.3524946481484
 22
209.4337207079672
 32
0
 13
259.3524946481484
 23
209.4337207079672
 33
0
  0
SOLID
  5
DC
100
AcDbEntity
  8
dimension
  6
ByBlock
 62
    0
370
   -2
100
AcDbTrace
 10
276.0749946481484
 20
209.85000536574
 30
0
 11
273.5749946481484
 21
209.4337207079672
 31
0
 12
273.5749946481484
 22
210.2662900235129
 32
0
 13
273.5749946481484
 23
210.2662900235129
 33
0
  0
MTEXT
  5
DD
100
AcDbEntity
  8
dimension
  6
CONTINUOUS
 62
    0
370
   -2
100
AcDbMText
 10
266.4637446481484
 20
211.72500536574
 30
0
 40
2.5
 41
11.11111111111127
 71
    5
 72
    1
  1
19.2225
  7
standard
210
0
220
0
230
1
 50
0
 73
    2
 44
1
  0
LINE
  5
DE
100
AcDbEntity
  8
dimension
  6
ByBlock
 62
    0
370
   -2
100
AcDbLine
 10
256.8524946481484
 20
191.47500536574
 11
256.8524946481484
 21
211.10000536574
  0
LINE
  5
DF
100
AcDbEntity
  8
dimension
  6
ByBlock
 62
    0
370
   -2
100
AcDbLine
 10
276.0749946481484
 20
160.47500536574
 11
276.0749946481484
 21
211.10000536574
  0
ENDBLK
  5
70
330
6E
100
AcDbEntity
  8
0
100
AcDbBlockEnd
  0
BLOCK
  5
72
330
71
100
AcDbEntity
  8
0
100
AcDbBlockBegin
  2
*D14
 70
    1
 10
0
 20
0
  3
*D14
  1

  0
LINE
  5
E0
100
AcDbEntity
  8
dimension
  6
CONTINUOUS
 62
    7
370
    0
100
AcDbLine
 10
128.7024946481484
 20
137.85000536574
 11
125.8499946481484
 21
140.8500053657404
  0
LINE
  5
E1
100
AcDbEntity
  8
dimension
  6
CONTINUOUS
 62
    7
370
    0
100
AcDbLine
 10
125.8499946481484
 20
140.8500053657404
 11
120.8499946481484
 21
140.8500053657404
  0
SOLID
  5
E2
100
AcDbEntity
  8
dimension
  6
CONTINUOUS
 62
    7
370
    0
100
AcDbTrace
 10
128.7024946481484
 20
137.85000536574
 30
0
 11
126.6781470006974
 21
139.3749019256931
 31
0
 12
127.2815081549138
 22
139.9485978231604
 32
0
 13
127.2815081549138
 23
139.9485978231604
 33
0
  0
ENDBLK
  5
73
330
71
100
AcDbEntity
  8
0
100
AcDbBlockEnd
  0
BLOCK
  5
75
330
74
100
AcDbEntity
  8
0
100
AcDbBlockBegin
  2
*D11
 70
    1
 10
0
 20
0
  3
*D11
  1

  0
LINE
  5
E3
100
AcDbEntity
  8
dimension
  6
ByBlock
 62
    0
370
   -2
100
AcDbLine
 10
276.0749946481484
 20
209.85000536574
 11
295.2974946481484
 21
209.85000536574
  0
SOLID
  5
E4
100
AcDbEntity
  8
dimension
  6
ByBlock
 62
    0
370
   -2
100
AcDbTrace
 10
276.0749946481484
 20
209.85000536574
 30
0
 11
278.5749946481484
 21
210.2662900235129
 31
0
 12
278.5749946481484
 22
209.4337207079672
 32
0
 13
278.5749946481484
 23
209.4337207079672
 33
0
  0
SOLID
  5
E5
100
AcDbEntity
  8
dimension
  6
ByBlock
 62
    0
370
   -2
100
AcDbTrace
 10
295.2974946481484
 20
209.85000536574
 30
0
 11
292.7974946481484
 21
209.4337207079672
 31
0
 12
292.7974946481484
 22
210.2662900235129
 32
0
 13
292.7974946481484
 23
210.2662900235129
 33
0
  0
MTEXT
  5
E6
100
AcDbEntity
  8
dimension
  6
CONTINUOUS
 62
    0
370
   -2
100
AcDbMText
 10
285.6862446481484
 20
211.72500536574
 30
0
 40
2.5
 41
11.11111111111127
 71
    5
 72
    1
  1
19.2225
  7
standard
210
0
220
0
230
1
 50
0
 73
    2
 44
1
  0
LINE
  5
E7
100
AcDbEntity
  8
dimension
  6
ByBlock
 62
    0
370
   -2
100
AcDbLine
 10
276.0749946481484
 20
191.47500536574
 11
276.0749946481484
 21
211.10000536574
  0
LINE
  5
E8
100
AcDbEntity
  8
dimension
  6
ByBlock
 62
    0
370
   -2
100
AcDbLine
 10
295.2974946481484
 20
130.47500536574
 11
295.2974946481484
 21
211.10000536574
  0
ENDBLK
  5
76
330
74
100
AcDbEntity
  8
0
100
AcDbBlockEnd
  0
BLOCK
  5
78
330
77
100
AcDbEntity
  8
0
100
AcDbBlockBegin
  2
*D27
 70
    1
 10
0
 20
0
  3
*D27
  1

  0
LINE
  5
E9
100
AcDbEntity
  8
anotation
  6
CONTINUOUS
 62
    7
370
    0
100
AcDbLine
 10
128.7024946481484
 20
121.85000536574
 11
130
 21
118
  0
SOLID
  5
EA
100
AcDbEntity
  8
anotation
  6
CONTINUOUS
 62
    7
370
    0
100
AcDbTrace
 10
128.7024946481484
 20
121.85000536574
 30
0
 11
129.8953919116571
 21
119.613872758981
 31
0
 12
129.10642278912
 22
119.3479791921702
 32
0
 13
129.10642278912
 23
119.3479791921702
 33
0
  0
LINE
  5
EB
100
AcDbEntity
  8
anotation
  6
CONTINUOUS
 62
    7
370
    0
100
AcDbLine
 10
130
 20
118
 11
140
 21
118
  0
ENDBLK
  5
79
330
77
100
AcDbEntity
  8
0
100
AcDbBlockEnd
  0
BLOCK
  5
7B
330
7A
100
AcDbEntity
  8
0
100
AcDbBlockBegin
  2
*D5
 70
    1
 10
0
 20
0
  3
*D5
  1

  0
LINE
  5
EC
100
AcDbEntity
  8
dimension
  6
ByBlock
 62
    0
370
   -2
100
AcDbLine
 10
167.1474946481484
 20
209.85000536574
 11
147.9249946481484
 21
209.85000536574
  0
SOLID
  5
ED
100
AcDbEntity
  8
dimension
  6
ByBlock
 62
    0
370
   -2
100
AcDbTrace
 10
167.1474946481484
 20
209.85000536574
 30
0
 11
164.6474946481484
 21
209.4337207079672
 31
0
 12
164.6474946481484
 22
210.2662900235129
 32
0
 13
164.6474946481484
 23
210.2662900235129
 33
0
  0
SOLID
  5
EE
100
AcDbEntity
  8
dimension
  6
ByBlock
 62
    0
370
   -2
100
AcDbTrace
 10
147.9249946481484
 20
209.85000536574
 30
0
 11
150.4249946481484
 21
210.2662900235129
 31
0
 12
150.4249946481484
 22
209.4337207079672
 32
0
 13
150.4249946481484
 23
209.4337207079672
 33
0
  0
MTEXT
  5
EF
100
AcDbEntity
  8
dimension
  6
CONTINUOUS
 62
    0
370
   -2
100
AcDbMText
 10
157.5362446481484
 20
211.72500536574
 30
0
 40
2.5
 41
11.11111111111127
 71
    5
 72
    1
  1
19.2225
  7
standard
210
0
220
0
230
1
 50
360
 73
    2
 44
1
  0
LINE
  5
F0
100
AcDbEntity
  8
dimension
  6
ByBlock
 62
    0
370
   -2
100
AcDbLine
 10
167.1474946481484
 20
191.47500536574
 11
167.1474946481484
 21
211.10000536574
  0
LINE
  5
F1
100
AcDbEntity
  8
dimension
  6
ByBlock
 62
    0
370
   -2
100
AcDbLine
 10
147.9249946481484
 20
160.47500536574
 11
147.9249946481484
 21
211.10000536574
  0
ENDBLK
  5
7C
330
7A
100
AcDbEntity
  8
0
100
AcDbBlockEnd
  0
BLOCK
  5
7E
330
7D
100
AcDbEntity
  8
0
100
AcDbBlockBegin
  2
*D24
 70
    1
 10
0
 20
0
  3
*D24
  1

  0
LINE
  5
F2
100
AcDbEntity
  8
dimension
  6
CONTINUOUS
 62
    7
370
    0
100
AcDbLine
 10
109.4799946481484
 20
165.9774237288354
 11
105.8499946481484
 21
169.9774237288358
  0
LINE
  5
F3
100
AcDbEntity
  8
dimension
  6
CONTINUOUS
 62
    7
370
    0
100
AcDbLine
 10
105.8499946481484
 20
169.9774237288358
 11
100.8499946481484
 21
169.9774237288358
  0
SOLID
  5
F4
100
AcDbEntity
  8
dimension
  6
CONTINUOUS
 62
    7
370
    0
100
AcDbTrace
 10
109.4799946481484
 20
165.9774237288354
 30
0
 11
107.4916561851325
 21
167.5489844412448
 31
0
 12
108.1081955614248
 22
168.10849392523
 32
0
 13
108.1081955614248
 23
168.10849392523
 33
0
  0
ENDBLK
  5
7F
330
7D
100
AcDbEntity
  8
0
100
AcDbBlockEnd
  0
BLOCK
  5
81
330
80
100
AcDbEntity
  8
0
100
AcDbBlockBegin
  2
*D29
 70
    1
 10
0
 20
0
  3
*D29
  1

  0
LINE
  5
F5
100
AcDbEntity
  8
anotation
  6
CONTINUOUS
 62
    7
370
    0
100
AcDbLine
 10
212
 20
121
 11
216
 21
118
  0
SOLID
  5
F6
100
AcDbEntity
  8
anotation
  6
CONTINUOUS
 62
    7
370
    0
100
AcDbTrace
 10
212
 20
121
 30
0
 11
214.2497707946637
 21
119.8330277262183
 31
0
 12
213.7502292053363
 22
119.1669722737817
 32
0
 13
213.7502292053363
 23
119.1669722737817
 33
0
  0
LINE
  5
F7
100
AcDbEntity
  8
anotation
  6
CONTINUOUS
 62
    7
370
    0
100
AcDbLine
 10
216
 20
118
 11
228
 21
118
  0
ENDBLK
  5
82
330
80
100
AcDbEntity
  8
0
100
AcDbBlockEnd
  0
BLOCK
  5
84
330
83
100
AcDbEntity
  8
0
100
AcDbBlockBegin
  2
*D21
 70
    1
 10
0
 20
0
  3
*D21
  1

  0
LINE
  5
F8
100
AcDbEntity
  8
dimension
  6
CONTINUOUS
 62
    7
370
    0
100
AcDbLine
 10
276
 20
166
 11
274
 21
168
  0
LINE
  5
F9
100
AcDbEntity
  8
dimension
  6
CONTINUOUS
 62
    7
370
    0
100
AcDbLine
 10
274
 20
168
 11
269
 21
168
  0
SOLID
  5
FA
100
AcDbEntity
  8
dimension
  6
CONTINUOUS
 62
    7
370
    0
100
AcDbTrace
 10
276
 20
166
 30
0
 11
273.9378753426186
 21
167.4734092485513
 31
0
 12
274.5265907514487
 22
168.0621246573815
 32
0
 13
274.5265907514487
 23
168.0621246573815
 33
0
  0
ENDBLK
  5
85
330
83
100
AcDbEntity
  8
0
100
AcDbBlockEnd
  0
BLOCK
  5
87
330
86
100
AcDbEntity
  8
0
100
AcDbBlockBegin
  2
*D31
 70
    1
 10
0
 20
0
  3
*D31
  1

  0
LINE
  5
FB
100
AcDbEntity
  8
anotation
  6
CONTINUOUS
 62
    7
370
    0
100
AcDbLine
 10
295.2974946481484
 20
123.8500053657424
 11
299
 21
118
  0
SOLID
  5
FC
100
AcDbEntity
  8
anotation
  6
CONTINUOUS
 62
    7
370
    0
100
AcDbTrace
 10
295.2974946481484
 20
123.8500053657424
 30
0
 11
296.9862340758167
 21
121.9601767857554
 31
0
 12
296.2827278777024
 22
121.5149232687531
 32
0
 13
296.2827278777024
 23
121.5149232687531
 33
0
  0
LINE
  5
FD
100
AcDbEntity
  8
anotation
  6
CONTINUOUS
 62
    7
370
    0
100
AcDbLine
 10
299
 20
118
 11
313
 21
118
  0
ENDBLK
  5
88
330
86
100
AcDbEntity
  8
0
100
AcDbBlockEnd
  0
BLOCK
  5
8A
330
89
100
AcDbEntity
  8
0
100
AcDbBlockBegin
  2
*D6
 70
    1
 10
0
 20
0
  3
*D6
  1

  0
LINE
  5
FE
100
AcDbEntity
  8
dimension
  6
ByBlock
 62
    0
370
   -2
100
AcDbLine
 10
147.9249946481484
 20
209.85000536574
 11
128.7024946481484
 21
209.85000536574
  0
SOLID
  5
FF
100
AcDbEntity
  8
dimension
  6
ByBlock
 62
    0
370
   -2
100
AcDbTrace
 10
147.9249946481484
 20
209.85000536574
 30
0
 11
145.4249946481484
 21
209.4337207079672
 31
0
 12
145.4249946481484
 22
210.2662900235129
 32
0
 13
145.4249946481484
 23
210.2662900235129
 33
0
  0
SOLID
  5
100
100
AcDbEntity
  8
dimension
  6
ByBlock
 62
    0
370
   -2
100
AcDbTrace
 10
128.7024946481484
 20
209.85000536574
 30
0
 11
131.2024946481484
 21
210.2662900235129
 31
0
 12
131.2024946481484
 22
209.4337207079672
 32
0
 13
131.2024946481484
 23
209.4337207079672
 33
0
  0
MTEXT
  5
101
100
AcDbEntity
  8
dimension
  6
CONTINUOUS
 62
    0
370
   -2
100
AcDbMText
 10
138.3137446481484
 20
211.72500536574
 30
0
 40
2.5
 41
11.11111111111127
 71
    5
 72
    1
  1
19.2225
  7
standard
210
0
220
0
230
1
 50
360
 73
    2
 44
1
  0
LINE
  5
102
100
AcDbEntity
  8
dimension
  6
ByBlock
 62
    0
370
   -2
100
AcDbLine
 10
147.9249946481484
 20
191.47500536574
 11
147.9249946481484
 21
211.10000536574
  0
LINE
  5
103
100
AcDbEntity
  8
dimension
  6
ByBlock
 62
    0
370
   -2
100
AcDbLine
 10
128.7024946481484
 20
130.47500536574
 11
128.7024946481484
 21
211.10000536574
  0
ENDBLK
  5
8B
330
89
100
AcDbEntity
  8
0
100
AcDbBlockEnd
  0
BLOCK
  5
8D
330
8C
100
AcDbEntity
  8
0
100
AcDbBlockBegin
  2
*D3
 70
    1
 10
0
 20
0
  3
*D3
  1

  0
LINE
  5
104
100
AcDbEntity
  8
dimension
  6
ByBlock
 62
    0
370
   -2
100
AcDbLine
 10
211.9999946481484
 20
209.85000536574
 11
186.3699946481484
 21
209.85000536574
  0
SOLID
  5
105
100
AcDbEntity
  8
dimension
  6
ByBlock
 62
    0
370
   -2
100
AcDbTrace
 10
211.9999946481484
 20
209.85000536574
 30
0
 11
209.4999946481484
 21
209.4337207079672
 31
0
 12
209.4999946481484
 22
210.2662900235129
 32
0
 13
209.4999946481484
 23
210.2662900235129
 33
0
  0
SOLID
  5
106
100
AcDbEntity
  8
dimension
  6
ByBlock
 62
    0
370
   -2
100
AcDbTrace
 10
186.3699946481484
 20
209.85000536574
 30
0
 11
188.8699946481484
 21
210.2662900235129
 31
0
 12
188.8699946481484
 22
209.4337207079672
 32
0
 13
188.8699946481484
 23
209.4337207079672
 33
0
  0
MTEXT
  5
107
100
AcDbEntity
  8
dimension
  6
CONTINUOUS
 62
    0
370
   -2
100
AcDbMText
 10
199.1849946481484
 20
211.72500536574
 30
0
 40
2.5
 41
11.66666666666713
 71
    5
 72
    1
  1
25.6300
  7
standard
210
0
220
0
230
1
 50
360
 73
    2
 44
1
  0
LINE
  5
108
100
AcDbEntity
  8
dimension
  6
ByBlock
 62
    0
370
   -2
100
AcDbLine
 10
211.9999946481484
 20
191.47500536574
 11
211.9999946481484
 21
211.10000536574
  0
LINE
  5
109
100
AcDbEntity
  8
dimension
  6
ByBlock
 62
    0
370
   -2
100
AcDbLine
 10
186.3699946481484
 20
160.47500536574
 11
186.3699946481484
 21
211.10000536574
  0
ENDBLK
  5
8E
330
8C
100
AcDbEntity
  8
0
100
AcDbBlockEnd
  0
BLOCK
  5
90
330
8F
100
AcDbEntity
  8
0
100
AcDbBlockBegin
  2
*D18
 70
    1
 10
0
 20
0
  3
*D18
  1

  0
LINE
  5
10A
100
AcDbEntity
  8
dimension
  6
CONTINUOUS
 62
    7
370
    0
100
AcDbLine
 10
167.2975
 20
136
 11
164
 21
141
  0
LINE
  5
10B
100
AcDbEntity
  8
dimension
  6
CONTINUOUS
 62
    7
370
    0
100
AcDbLine
 10
164
 20
141
 11
160
 21
141
  0
SOLID
  5
10C
100
AcDbEntity
  8
dimension
  6
CONTINUOUS
 62
    7
370
    0
100
AcDbTrace
 10
167.2975
 20
136
 30
0
 11
165.5736064845731
 21
137.8578170156843
 31
0
 12
166.268636390638
 22
138.3161892387341
 32
0
 13
166.268636390638
 23
138.3161892387341
 33
0
  0
ENDBLK
  5
91
330
8F
100
AcDbEntity
  8
0
100
AcDbBlockEnd
  0
BLOCK
  5
93
330
92
100
AcDbEntity
  8
0
100
AcDbBlockBegin
  2
*D2
 70
    1
 10
0
 20
0
  3
*D2
  1

  0
LINE
  5
10D
100
AcDbEntity
  8
dimension
  6
ByBlock
 62
    0
370
   -2
100
AcDbLine
 10
53.84999464814837
 20
190.85000536574
 11
53.84999464814837
 21
89.85000536574002
  0
SOLID
  5
10E
100
AcDbEntity
  8
dimension
  6
ByBlock
 62
    0
370
   -2
100
AcDbTrace
 10
53.84999464814837
 20
190.85000536574
 30
0
 11
54.26627930592122
 21
188.35000536574
 31
0
 12
53.43370999037553
 22
188.35000536574
 32
0
 13
53.43370999037553
 23
188.35000536574
 33
0
  0
SOLID
  5
10F
100
AcDbEntity
  8
dimension
  6
ByBlock
 62
    0
370
   -2
100
AcDbTrace
 10
53.84999464814837
 20
89.85000536574002
 30
0
 11
53.43370999037553
 21
92.35000536574002
 31
0
 12
54.26627930592121
 22
92.35000536574002
 32
0
 13
54.26627930592121
 23
92.35000536574002
 33
0
  0
MTEXT
  5
110
100
AcDbEntity
  8
dimension
  6
CONTINUOUS
 62
    0
370
   -2
100
AcDbMText
 10
51.97499464814837
 20
140.35000536574
 30
0
 40
2.5
 41
12.5
 71
    5
 72
    1
  1
101.0000
  7
standard
210
0
220
0
230
1
 50
90
 73
    2
 44
1
  0
LINE
  5
111
100
AcDbEntity
  8
dimension
  6
ByBlock
 62
    0
370
   -2
100
AcDbLine
 10
83.22499464814837
 20
190.85000536574
 11
52.59999464814837
 21
190.85000536574
  0
LINE
  5
112
100
AcDbEntity
  8
dimension
  6
ByBlock
 62
    0
370
   -2
100
AcDbLine
 10
83.22499464814837
 20
89.85000536574002
 11
52.59999464814837
 21
89.85000536574002
  0
ENDBLK
  5
94
330
92
100
AcDbEntity
  8
0
100
AcDbBlockEnd
  0
BLOCK
  5
96
330
95
100
AcDbEntity
  8
0
100
AcDbBlockBegin
  2
*D26
 70
    1
 10
0
 20
0
  3
*D26
  1

  0
LINE
  5
113
100
AcDbEntity
  8
anotation
  6
CONTINUOUS
 62
    7
370
    0
100
AcDbLine
 10
212
 20
138
 11
208
 21
143
  0
SOLID
  5
114
100
AcDbEntity
  8
anotation
  6
CONTINUOUS
 62
    7
370
    0
100
AcDbTrace
 10
212
 20
138
 30
0
 11
210.1131986760095
 21
139.692121059524
 31
0
 12
210.7633260862184
 22
140.2122229876911
 32
0
 13
210.7633260862184
 23
140.2122229876911
 33
0
  0
LINE
  5
115
100
AcDbEntity
  8
anotation
  6
CONTINUOUS
 62
    7
370
    0
100
AcDbLine
 10
208
 20
143
 11
202
 21
143
  0
ENDBLK
  5
97
330
95
100
AcDbEntity
  8
0
100
AcDbBlockEnd
  0
BLOCK
  5
99
330
98
100
AcDbEntity
  8
0
100
AcDbBlockBegin
  2
*D9
 70
    1
 10
0
 20
0
  3
*D9
  1

  0
LINE
  5
116
100
AcDbEntity
  8
dimension
  6
ByBlock
 62
    0
370
   -2
100
AcDbLine
 10
237.6299946481484
 20
209.85000536574
 11
256.8524946481484
 21
209.85000536574
  0
SOLID
  5
117
100
AcDbEntity
  8
dimension
  6
ByBlock
 62
    0
370
   -2
100
AcDbTrace
 10
237.6299946481484
 20
209.85000536574
 30
0
 11
240.1299946481484
 21
210.2662900235129
 31
0
 12
240.1299946481484
 22
209.4337207079672
 32
0
 13
240.1299946481484
 23
209.4337207079672
 33
0
  0
SOLID
  5
118
100
AcDbEntity
  8
dimension
  6
ByBlock
 62
    0
370
   -2
100
AcDbTrace
 10
256.8524946481484
 20
209.85000536574
 30
0
 11
254.3524946481484
 21
209.4337207079672
 31
0
 12
254.3524946481484
 22
210.2662900235129
 32
0
 13
254.3524946481484
 23
210.2662900235129
 33
0
  0
MTEXT
  5
119
100
AcDbEntity
  8
dimension
  6
CONTINUOUS
 62
    0
370
   -2
100
AcDbMText
 10
247.2412446481484
 20
211.72500536574
 30
0
 40
2.5
 41
11.11111111111127
 71
    5
 72
    1
  1
19.2225
  7
standard
210
0
220
0
230
1
 50
0
 73
    2
 44
1
  0
LINE
  5
11A
100
AcDbEntity
  8
dimension
  6
ByBlock
 62
    0
370
   -2
100
AcDbLine
 10
237.6299946481484
 20
191.47500536574
 11
237.6299946481484
 21
211.10000536574
  0
LINE
  5
11B
100
AcDbEntity
  8
dimension
  6
ByBlock
 62
    0
370
   -2
100
AcDbLine
 10
256.8524946481484
 20
130.47500536574
 11
256.8524946481484
 21
211.10000536574
  0
ENDBLK
  5
9A
330
98
100
AcDbEntity
  8
0
100
AcDbBlockEnd
  0
BLOCK
  5
9C
330
9B
100
AcDbEntity
  8
0
100
AcDbBlockBegin
  2
*D13
 70
    1
 10
0
 20
0
  3
*D13
  1

  0
LINE
  5
11C
100
AcDbEntity
  8
anotation
  6
CONTINUOUS
 62
    7
370
    0
100
AcDbLine
 10
340.1499946481484
 20
110.1499928103341
 11
347.8499946481484
 21
119.85000536574
  0
LINE
  5
11D
100
AcDbEntity
  8
anotation
  6
CONTINUOUS
 62
    7
370
    0
100
AcDbLine
 10
347.8499946481484
 20
119.85000536574
 11
374.8499946481484
 21
119.85000536574
  0
SOLID
  5
11E
100
AcDbEntity
  8
anotation
  6
CONTINUOUS
 62
    7
370
    0
100
AcDbTrace
 10
340.1499946481484
 20
110.1499928103341
 30
0
 11
341.3782893095128
 21
112.3668791721399
 31
0
 12
342.0303799784159
 22
111.8492408575632
 32
0
 13
342.0303799784159
 23
111.8492408575632
 33
0
  0
ENDBLK
  5
9D
330
9B
100
AcDbEntity
  8
0
100
AcDbBlockEnd
  0
BLOCK
  5
9F
330
9E
100
AcDbEntity
  8
0
100
AcDbBlockBegin
  2
*D20
 70
    1
 10
0
 20
0
  3
*D20
  1

  0
LINE
  5
11F
100
AcDbEntity
  8
dimension
  6
CONTINUOUS
 62
    7
370
    0
100
AcDbLine
 10
257.0025000000001
 20
136
 11
254
 21
140
  0
LINE
  5
120
100
AcDbEntity
  8
dimension
  6
CONTINUOUS
 62
    7
370
    0
100
AcDbLine
 10
254
 20
140
 11
250
 21
140
  0
SOLID
  5
121
100
AcDbEntity
  8
dimension
  6
CONTINUOUS
 62
    7
370
    0
100
AcDbTrace
 10
257.0025000000001
 20
136
 30
0
 11
255.1687725386743
 21
137.7494960742674
 31
0
 12
255.8346281811657
 22
138.2493039659125
 32
0
 13
255.8346281811657
 23
138.2493039659125
 33
0
  0
ENDBLK
  5
A0
330
9E
100
AcDbEntity
  8
0
100
AcDbBlockEnd
  0
BLOCK
  5
A2
330
A1
100
AcDbEntity
  8
0
100
AcDbBlockBegin
  2
*D8
 70
    1
 10
0
 20
0
  3
*D8
  1

  0
LINE
  5
122
100
AcDbEntity
  8
dimension
  6
ByBlock
 62
    0
370
   -2
100
AcDbLine
 10
211.9999946481484
 20
209.85000536574
 11
237.6299946481484
 21
209.85000536574
  0
SOLID
  5
123
100
AcDbEntity
  8
dimension
  6
ByBlock
 62
    0
370
   -2
100
AcDbTrace
 10
211.9999946481484
 20
209.85000536574
 30
0
 11
214.4999946481484
 21
210.2662900235129
 31
0
 12
214.4999946481484
 22
209.4337207079672
 32
0
 13
214.4999946481484
 23
209.4337207079672
 33
0
  0
SOLID
  5
124
100
AcDbEntity
  8
dimension
  6
ByBlock
 62
    0
370
   -2
100
AcDbTrace
 10
237.6299946481484
 20
209.85000536574
 30
0
 11
235.1299946481484
 21
209.4337207079672
 31
0
 12
235.1299946481484
 22
210.2662900235129
 32
0
 13
235.1299946481484
 23
210.2662900235129
 33
0
  0
MTEXT
  5
125
100
AcDbEntity
  8
dimension
  6
CONTINUOUS
 62
    0
370
   -2
100
AcDbMText
 10
224.8149946481484
 20
211.72500536574
 30
0
 40
2.5
 41
11.66666666666713
 71
    5
 72
    1
  1
25.6300
  7
standard
210
0
220
0
230
1
 50
0
 73
    2
 44
1
  0
LINE
  5
126
100
AcDbEntity
  8
dimension
  6
ByBlock
 62
    0
370
   -2
100
AcDbLine
 10
211.9999946481484
 20
191.47500536574
 11
211.9999946481484
 21
211.10000536574
  0
LINE
  5
127
100
AcDbEntity
  8
dimension
  6
ByBlock
 62
    0
370
   -2
100
AcDbLine
 10
237.6299946481484
 20
160.47500536574
 11
237.6299946481484
 21
211.10000536574
  0
ENDBLK
  5
A3
330
A1
100
AcDbEntity
  8
0
100
AcDbBlockEnd
  0
BLOCK
  5
A5
330
A4
100
AcDbEntity
  8
0
100
AcDbBlockBegin
  2
*D16
 70
    1
 10
0
 20
0
  3
*D16
  1

  0
LINE
  5
128
100
AcDbEntity
  8
dimension
  6
ByBlock
 62
    0
370
   -2
100
AcDbLine
 10
70
 20
129.85000536574
 11
70
 21
89.85000536574002
  0
SOLID
  5
129
100
AcDbEntity
  8
dimension
  6
ByBlock
 62
    0
370
   -2
100
AcDbTrace
 10
70
 20
129.85000536574
 30
0
 11
70.41628465777283
 21
127.35000536574
 31
0
 12
69.58371534222717
 22
127.35000536574
 32
0
 13
69.58371534222717
 23
127.35000536574
 33
0
  0
SOLID
  5
12A
100
AcDbEntity
  8
dimension
  6
ByBlock
 62
    0
370
   -2
100
AcDbTrace
 10
70
 20
89.85000536574002
 30
0
 11
69.58371534222717
 21
92.35000536574002
 31
0
 12
70.41628465777283
 22
92.35000536574002
 32
0
 13
70.41628465777283
 23
92.35000536574002
 33
0
  0
MTEXT
  5
12B
100
AcDbEntity
  8
dimension
  6
CONTINUOUS
 62
    0
370
   -2
100
AcDbMText
 10
68.125
 20
109.85000536574
 30
0
 40
2.5
 41
11.94444444444445
 71
    5
 72
    1
  1
40.0000
  7
standard
210
0
220
0
230
1
 50
90
 73
    2
 44
1
  0
LINE
  5
12C
100
AcDbEntity
  8
dimension
  6
ByBlock
 62
    0
370
   -2
100
AcDbLine
 10
294.6724946481484
 20
129.85000536574
 11
68.75
 21
129.85000536574
  0
LINE
  5
12D
100
AcDbEntity
  8
dimension
  6
ByBlock
 62
    0
370
   -2
100
AcDbLine
 10
83.22499464814837
 20
89.85000536574002
 11
68.75
 21
89.85000536574002
  0
ENDBLK
  5
A6
330
A4
100
AcDbEntity
  8
0
100
AcDbBlockEnd
  0
BLOCK
  5
A8
330
A7
100
AcDbEntity
  8
0
100
AcDbBlockBegin
  2
*D25
 70
    1
 10
0
 20
0
  3
*D25
  1

  0
LINE
  5
12E
100
AcDbEntity
  8
dimension
  6
CONTINUOUS
 62
    7
370
    0
100
AcDbLine
 10
186.3699946481484
 20
167.85000536574
 11
183.8499946481484
 21
169.8500053657405
  0
LINE
  5
12F
100
AcDbEntity
  8
dimension
  6
CONTINUOUS
 62
    7
370
    0
100
AcDbLine
 10
183.8499946481484
 20
169.8500053657405
 11
178.8499946481484
 21
169.8500053657405
  0
SOLID
  5
130
100
AcDbEntity
  8
dimension
  6
CONTINUOUS
 62
    7
370
    0
100
AcDbTrace
 10
186.3699946481484
 20
167.85000536574
 30
0
 11
184.1529857612015
 21
169.0780788617066
 31
0
 12
184.6705590198424
 22
169.7302211675939
 32
0
 13
184.6705590198424
 23
169.7302211675939
 33
0
  0
ENDBLK
  5
A9
330
A7
100
AcDbEntity
  8
0
100
AcDbBlockEnd
  0
BLOCK
  5
AB
330
AA
100
AcDbEntity
  8
0
100
AcDbBlockBegin
  2
*D23
 70
    1
 10
0
 20
0
  3
*D23
  1

  0
LINE
  5
131
100
AcDbEntity
  8
dimension
  6
CONTINUOUS
 62
    7
370
    0
100
AcDbLine
 10
314.67
 20
166.0000000000018
 11
313
 21
168
  0
LINE
  5
132
100
AcDbEntity
  8
dimension
  6
CONTINUOUS
 62
    7
370
    0
100
AcDbLine
 10
313
 20
168
 11
309
 21
168
  0
SOLID
  5
133
100
AcDbEntity
  8
dimension
  6
CONTINUOUS
 62
    7
370
    0
100
AcDbTrace
 10
314.67
 20
166.0000000000018
 30
0
 11
312.7481155903911
 21
167.6521662242054
 31
0
 12
313.3871889158456
 22
168.1857924509604
 32
0
 13
313.3871889158456
 23
168.1857924509604
 33
0
  0
ENDBLK
  5
AC
330
AA
100
AcDbEntity
  8
0
100
AcDbBlockEnd
  0
BLOCK
  5
AE
330
AD
100
AcDbEntity
  8
0
100
AcDbBlockBegin
  2
*D12
 70
    1
 10
0
 20
0
  3
*D12
  1

  0
LINE
  5
134
100
AcDbEntity
  8
dimension
  6
ByBlock
 62
    0
370
   -2
100
AcDbLine
 10
295.2974946481484
 20
209.85000536574
 11
314.5199946481484
 21
209.85000536574
  0
SOLID
  5
135
100
AcDbEntity
  8
dimension
  6
ByBlock
 62
    0
370
   -2
100
AcDbTrace
 10
295.2974946481484
 20
209.85000536574
 30
0
 11
297.7974946481484
 21
210.2662900235129
 31
0
 12
297.7974946481484
 22
209.4337207079672
 32
0
 13
297.7974946481484
 23
209.4337207079672
 33
0
  0
SOLID
  5
136
100
AcDbEntity
  8
dimension
  6
ByBlock
 62
    0
370
   -2
100
AcDbTrace
 10
314.5199946481484
 20
209.85000536574
 30
0
 11
312.0199946481484
 21
209.4337207079672
 31
0
 12
312.0199946481484
 22
210.2662900235129
 32
0
 13
312.0199946481484
 23
210.2662900235129
 33
0
  0
MTEXT
  5
137
100
AcDbEntity
  8
dimension
  6
CONTINUOUS
 62
    0
370
   -2
100
AcDbMText
 10
304.9087446481484
 20
211.72500536574
 30
0
 40
2.5
 41
11.11111111111127
 71
    5
 72
    1
  1
19.2225
  7
standard
210
0
220
0
230
1
 50
0
 73
    2
 44
1
  0
LINE
  5
138
100
AcDbEntity
  8
dimension
  6
ByBlock
 62
    0
370
   -2
100
AcDbLine
 10
295.2974946481484
 20
191.47500536574
 11
295.2974946481484
 21
211.10000536574
  0
LINE
  5
139
100
AcDbEntity
  8
dimension
  6
ByBlock
 62
    0
370
   -2
100
AcDbLine
 10
314.5199946481484
 20
160.47500536574
 11
314.5199946481484
 21
211.10000536574
  0
ENDBLK
  5
AF
330
AD
100
AcDbEntity
  8
0
100
AcDbBlockEnd
  0
BLOCK
  5
B1
330
B0
100
AcDbEntity
  8
0
100
AcDbBlockBegin
  2
*D19
 70
    1
 10
0
 20
0
  3
*D19
  1

  0
LINE
  5
13A
100
AcDbEntity
  8
dimension
  6
CONTINUOUS
 62
    7
370
    0
100
AcDbLine
 10
237.78
 20
166.0000000000009
 11
236
 21
168
  0
LINE
  5
13B
100
AcDbEntity
  8
dimension
  6
CONTINUOUS
 62
    7
370
    0
100
AcDbLine
 10
236
 20
168
 11
231
 21
168
  0
SOLID
  5
13C
100
AcDbEntity
  8
dimension
  6
CONTINUOUS
 62
    7
370
    0
100
AcDbTrace
 10
237.78
 20
166.0000000000009
 30
0
 11
235.8069681826138
 21
167.5907351645958
 31
0
 12
236.4288949957335
 22
168.1442500282725
 32
0
 13
236.4288949957335
 23
168.1442500282725
 33
0
  0
ENDBLK
  5
B2
330
B0
100
AcDbEntity
  8
0
100
AcDbBlockEnd
  0
BLOCK
  5
B4
330
B3
100
AcDbEntity
  8
0
100
AcDbBlockBegin
  2
*D30
 70
    1
 10
0
 20
0
  3
*D30
  1

  0
ENDBLK
  5
B5
330
B3
100
AcDbEntity
  8
0
100
AcDbBlockEnd
  0
BLOCK
  5
B7
330
B6
100
AcDbEntity
  8
0
100
AcDbBlockBegin
  2
Infobox
 70
    0
 10
0
 20
0
  3
Infobox
  1

  0
LINE
  5
13D
100
AcDbEntity
  8
Infobox construction
  6
ByLayer
 62
  256
370
   -1
100
AcDbLine
 10
380
 20
255.1884833388197
 11
380
 21
265.1884833388197
  0
LINE
  5
13E
100
AcDbEntity
  8
Infobox construction
  6
ByLayer
 62
  256
370
   -1
100
AcDbLine
 10
390
 20
255
 11
390
 21
265
  0
LINE
  5
13F
100
AcDbEntity
  8
Infobox construction
  6
ByLayer
 62
  256
370
   -1
100
AcDbLine
 10
400
 20
255
 11
400
 21
265
  0
LINE
  5
140
100
AcDbEntity
  8
Infobox construction
  6
ByLayer
 62
  256
370
   -1
100
AcDbLine
 10
410
 20
256.8711897791678
 11
410
 21
266.8711897791678
  0
LINE
  5
141
100
AcDbEntity
  8
Infobox construction
  6
ByLayer
 62
  256
370
   -1
100
AcDbLine
 10
399.5
 20
281.416015625
 11
400.5
 21
281.416015625
  0
LINE
  5
142
100
AcDbEntity
  8
Infobox construction
  6
ByLayer
 62
  256
370
   -1
100
AcDbLine
 10
399.5
 20
256.416015625
 11
400.5
 21
256.416015625
  0
LINE
  5
143
100
AcDbEntity
  8
Infobox construction
  6
ByLayer
 62
  256
370
   -1
100
AcDbLine
 10
394.5
 20
201.416015625
 11
395.5
 21
201.416015625
  0
LINE
  5
144
100
AcDbEntity
  8
Infobox A3
  6
ByLayer
 62
  256
370
   -1
100
AcDbLine
 10
380
 20
281.416015625
 11
410
 21
281.416015625
  0
LINE
  5
145
100
AcDbEntity
  8
Infobox A3
  6
ByLayer
 62
  256
370
   -1
100
AcDbLine
 10
410
 20
281.416015625
 11
410
 21
201.416015625
  0
LINE
  5
146
100
AcDbEntity
  8
Infobox A3
  6
ByLayer
 62
  256
370
   -1
100
AcDbLine
 10
410
 20
201.416015625
 11
380
 21
201.416015625
  0
LINE
  5
147
100
AcDbEntity
  8
Infobox A3
  6
ByLayer
 62
  256
370
   -1
100
AcDbLine
 10
380
 20
201.416015625
 11
380
 21
281.416015625
  0
LINE
  5
148
100
AcDbEntity
  8
Infobox A3
  6
ByLayer
 62
  256
370
   -1
100
AcDbLine
 10
390
 20
281.416015625
 11
390
 21
201.416015625
  0
LINE
  5
149
100
AcDbEntity
  8
Infobox A3
  6
ByLayer
 62
  256
370
   -1
100
AcDbLine
 10
400
 20
201.416015625
 11
400
 21
281.416015625
  0
LINE
  5
14A
100
AcDbEntity
  8
Infobox A3
  6
ByLayer
 62
  256
370
   -1
100
AcDbLine
 10
390
 20
256.416015625
 11
410
 21
256.416015625
  0
LINE
  5
14B
100
AcDbEntity
  8
Infobox construction
  6
ByLayer
 62
  256
370
   -1
100
AcDbLine
 10
394.5
 20
202.416015625
 11
395.5
 21
202.416015625
  0
LINE
  5
14C
100
AcDbEntity
  8
Infobox construction
  6
ByLayer
 62
  256
370
   -1
100
AcDbLine
 10
399.5
 20
258.416015625
 11
400.5
 21
258.416015625
  0
LINE
  5
14D
100
AcDbEntity
  8
Infobox construction
  6
ByLayer
 62
  256
370
   -1
100
AcDbLine
 10
382
 20
255.1884833388197
 11
382
 21
265.1884833388197
  0
LINE
  5
14E
100
AcDbEntity
  8
Infobox construction
  6
ByLayer
 62
  256
370
   -1
100
AcDbLine
 10
392
 20
255
 11
392
 21
265
  0
LINE
  5
14F
100
AcDbEntity
  8
Infobox construction
  6
ByLayer
 62
  256
370
   -1
100
AcDbLine
 10
402
 20
255
 11
402
 21
265
  0
MTEXT
  5
150
100
AcDbEntity
  8
Infobox A3
  6
ByLayer
 62
  256
370
   -1
100
AcDbMText
 10
391
 20
258.416015625
 30
0
 40
1
 41
4.777778292065022
 71
    1
 72
    1
  1
Version
  7
standard
210
0
220
0
230
1
 50
90
 73
    2
 44
1
  0
MTEXT
  5
151
100
AcDbEntity
  8
Infobox A3
  6
ByLayer
 62
  256
370
   -1
100
AcDbMText
 10
401
 20
258.416015625
 30
0
 40
1
 41
2.777777777777886
 71
    1
 72
    1
  1
Date
  7
standard
210
0
220
0
230
1
 50
90
 73
    2
 44
1
  0
MTEXT
  5
152
100
AcDbEntity
  8
Infobox A3
  6
ByLayer
 62
  256
370
   -1
100
AcDbMText
 10
401
 20
202.416015625
 30
0
 40
1
 41
4.333333333333379
 71
    1
 72
    1
  1
Author
  7
standard
210
0
220
0
230
1
 50
90
 73
    2
 44
1
  0
MTEXT
  5
153
100
AcDbEntity
  8
Infobox A3
  6
ByLayer
 62
  256
370
   -1
100
AcDbMText
 10
391
 20
202.416015625
 30
0
 40
1
 41
6.861111111111249
 71
    1
 72
    1
  1
Part Name
  7
standard
210
0
220
0
230
1
 50
90
 73
    2
 44
1
  0
MTEXT
  5
154
100
AcDbEntity
  8
Infobox A3
  6
ByLayer
 62
  256
370
   -1
100
AcDbMText
 10
381
 20
202.416015625
 30
0
 40
1
 41
7.305555555555756
 71
    1
 72
    1
  1
Drawing No
  7
standard
210
0
220
0
230
1
 50
90
 73
    2
 44
1
  0
LINE
  5
155
100
AcDbEntity
  8
Infobox construction
  6
ByLayer
 62
  256
370
   -1
100
AcDbLine
 10
378
 20
255.1884833388197
 11
378
 21
265.1884833388197
  0
MTEXT
  5
156
100
AcDbEntity
  8
Infobox A3
  6
ByLayer
 62
  256
370
   -1
100
AcDbMText
 10
376
 20
202.416015625
 30
0
 40
2
 41
28.27777983492726
 71
    1
 72
    1
  1
All Dimensions in mm
  7
standard
210
0
220
0
230
1
 50
90
 73
    2
 44
1
  0
LINE
  5
157
100
AcDbEntity
  8
Infobox construction
  6
ByLayer
 62
  256
370
   -1
100
AcDbLine
 10
-5
 20
0
 11
5
 21
0
  0
LINE
  5
158
100
AcDbEntity
  8
Infobox construction
  6
ByLayer
 62
  256
370
   -1
100
AcDbLine
 10
-3.061616997868383e-17
 20
-0.5
 11
3.061616997868383e-17
 21
0.5
  0
LINE
  5
159
100
AcDbEntity
  8
Infobox A3 landscape
  6
ByLayer
 62
  256
370
   -1
100
AcDbLine
 10
410
 20
40
 11
410
 21
9.999999999999972
  0
LINE
  5
15A
100
AcDbEntity
  8
Infobox A3 landscape
  6
ByLayer
 62
  256
370
   -1
100
AcDbLine
 10
410
 20
9.999999999999972
 11
330
 21
10
  0
LINE
  5
15B
100
AcDbEntity
  8
Infobox A3 landscape
  6
ByLayer
 62
  256
370
   -1
100
AcDbLine
 10
330
 20
10
 11
330
 21
40
  0
LINE
  5
15C
100
AcDbEntity
  8
Infobox A3 landscape
  6
ByLayer
 62
  256
370
   -1
100
AcDbLine
 10
330
 20
40
 11
410
 21
40
  0
LINE
  5
15D
100
AcDbEntity
  8
Infobox A3 landscape
  6
ByLayer
 62
  256
370
   -1
100
AcDbLine
 10
410
 20
30
 11
330
 21
30
  0
LINE
  5
15E
100
AcDbEntity
  8
Infobox A3 landscape
  6
ByLayer
 62
  256
370
   -1
100
AcDbLine
 10
330
 20
20
 11
410
 21
20
  0
LINE
  5
15F
100
AcDbEntity
  8
Infobox A3 landscape
  6
ByLayer
 62
  256
370
   -1
100
AcDbLine
 10
385
 20
30
 11
385
 21
10
  0
MTEXT
  5
160
100
AcDbEntity
  8
Infobox A3 landscape
  6
ByLayer
 62
  256
370
   -1
100
AcDbMText
 10
387
 20
29
 30
0
 40
1
 41
4.777778292065022
 71
    1
 72
    1
  1
Version
  7
standard
210
0
220
0
230
1
 50
360
 73
    2
 44
1
  0
MTEXT
  5
161
100
AcDbEntity
  8
Infobox A3 landscape
  6
ByLayer
 62
  256
370
   -1
100
AcDbMText
 10
387
 20
19
 30
0
 40
1
 41
2.777777777777886
 71
    1
 72
    1
  1
Date
  7
standard
210
0
220
0
230
1
 50
360
 73
    2
 44
1
  0
MTEXT
  5
162
100
AcDbEntity
  8
Infobox A3 landscape
  6
ByLayer
 62
  256
370
   -1
100
AcDbMText
 10
331
 20
19
 30
0
 40
1
 41
4.333333333333379
 71
    1
 72
    1
  1
Author
  7
standard
210
0
220
0
230
1
 50
360
 73
    2
 44
1
  0
MTEXT
  5
163
100
AcDbEntity
  8
Infobox A3 landscape
  6
ByLayer
 62
  256
370
   -1
100
AcDbMText
 10
331
 20
29
 30
0
 40
1
 41
6.861111111111249
 71
    1
 72
    1
  1
Part Name
  7
standard
210
0
220
0
230
1
 50
360
 73
    2
 44
1
  0
MTEXT
  5
164
100
AcDbEntity
  8
Infobox A3 landscape
  6
ByLayer
 62
  256
370
   -1
100
AcDbMText
 10
331
 20
39
 30
0
 40
1
 41
7.305555555555756
 71
    1
 72
    1
  1
Drawing No
  7
standard
210
0
220
0
230
1
 50
360
 73
    2
 44
1
  0
MTEXT
  5
165
100
AcDbEntity
  8
Infobox A3 landscape
  6
ByLayer
 62
  256
370
   -1
100
AcDbMText
 10
331
 20
44
 30
0
 40
2
 41
28.27777983492726
 71
    1
 72
    1
  1
All Dimensions in mm
  7
standard
210
0
220
0
230
1
 50
360
 73
    2
 44
1
  0
ENDBLK
  5
B8
330
B6
100
AcDbEntity
  8
0
100
AcDbBlockEnd
  0
ENDSEC
  0
SECTION
  2
ENTITIES
  0
HATCH
  5
166
100
AcDbEntity
  8
hatch
  6
ByLayer
 62
  256
370
   -1
100
AcDbHatch
 10
0
 20
0
 30
0
210
0
220
0
230
1
  2
ansi31
 70
    0
 71
    0
 91
    1
 92
    0
 93
   15
 72
    2
 10
128.7024946481484
 20
129.85000536574
 40
8
 50
0
 51
360
 73
    1
 72
    2
 10
147.9249946481484
 20
159.85000536574
 40
6
 50
0
 51
360
 73
    1
 72
    2
 10
167.1474946481484
 20
129.85000536574
 40
6
 50
0
 51
360
 73
    1
 72
    2
 10
237.6299946481484
 20
159.85000536574
 40
6
 50
0
 51
360
 73
    1
 72
    2
 10
256.8524946481484
 20
129.85000536574
 40
6
 50
0
 51
360
 73
    1
 72
    2
 10
276.0749946481484
 20
159.85000536574
 40
6
 50
0
 51
360
 73
    1
 72
    2
 10
295.2974946481484
 20
129.85000536574
 40
6
 50
0
 51
360
 73
    1
 72
    2
 10
314.5199946481484
 20
159.85000536574
 40
6
 50
0
 51
360
 73
    1
 72
    2
 10
110
 20
160
 40
6
 50
0
 51
360
 73
    1
 72
    2
 10
186.3699946481484
 20
159.85000536574
 40
8
 50
0
 51
360
 73
    1
 72
    2
 10
211.9999946481484
 20
129.85000536574
 40
8
 50
0
 51
360
 73
    1
 72
    1
 10
83.84999464814837
 20
89.85000536574002
 11
340.1499946481484
 21
89.85000536574002
 72
    1
 10
340.1499946481484
 20
89.85000536573995
 11
340.1499946481484
 21
190.85000536574
 72
    1
 10
340.1499946481484
 20
190.85000536574
 11
83.84999464814837
 21
190.85000536574
 72
    1
 10
83.84999464814837
 20
190.85000536574
 11
83.84999464814837
 21
89.85000536574002
 97
    0
 75
    0
 76
    1
 52
0
 41
1
 77
    0
 78
    0
 98
    0
  0
HATCH
  5
167
100
AcDbEntity
  8
hatch_verschraubungen
  6
ByLayer
 62
  256
370
   -1
100
AcDbHatch
 10
0
 20
0
 30
0
210
0
220
0
230
1
  2
ansi31
 70
    0
 71
    0
 91
    1
 92
    0
 93
    6
 72
    2
 10
147.9249946481484
 20
159.85000536574
 40
6
 50
0
 51
360
 73
    1
 72
    2
 10
237.6299946481484
 20
159.85000536574
 40
6
 50
0
 51
360
 73
    1
 72
    2
 10
276.0749946481484
 20
159.85000536574
 40
6
 50
0
 51
360
 73
    1
 72
    2
 10
314.5199946481484
 20
159.85000536574
 40
6
 50
0
 51
360
 73
    1
 72
    2
 10
110
 20
160
 40
6
 50
0
 51
360
 73
    1
 72
    2
 10
186.3699946481484
 20
159.85000536574
 40
8
 50
0
 51
360
 73
    1
 97
    0
 75
    0
 76
    1
 52
0
 41
0.5
 77
    0
 78
    0
 98
    0
  0
HATCH
  5
168
100
AcDbEntity
  8
hatch_verschraubungen
  6
ByLayer
 62
  256
370
   -1
100
AcDbHatch
 10
0
 20
0
 30
0
210
0
220
0
230
1
  2
ansi31
 70
    0
 71
    0
 91
    1
 92
    0
 93
    1
 72
    2
 10
256.8524946481484
 20
129.85000536574
 40
6
 50
0
 51
360
 73
    1
 97
    0
 75
    0
 76
    1
 52
0
 41
0.5
 77
    0
 78
    0
 98
    0
  0
INSERT
  5
169
100
AcDbEntity
  8
anotation
  6
ByLayer
 62
  256
370
   -1
100
AcDbBlockReference
  2
Infobox
 10
0
 20
0
 30
0
 41
1
 42
1
 43
0
 50
0
 70
    1
 71
    1
 44
0
 45
0
  0
MTEXT
  5
16A
100
AcDbEntity
  8
anotation
  6
ByLayer
 62
  256
370
   -1
100
AcDbMText
 10
332
 20
35
 30
0
 40
2
 41
65.33333436190837
 71
    1
 72
    1
  1
Deckel_Bopla_BDC_310_Loescher_Boden.dxf
  7
standard
210
0
220
0
230
1
 50
0
 73
    2
 44
1
  0
MTEXT
  5
16B
100
AcDbEntity
  8
anotation
  6
ByLayer
 62
  256
370
   -1
100
AcDbMText
 10
332
 20
14
 30
0
 40
2
 41
18.16666624266255
 71
    1
 72
    1
  1
Stefan Mller
  7
standard
210
0
220
0
230
1
 50
0
 73
    2
 44
1
  0
MTEXT
  5
16C
100
AcDbEntity
  8
anotation
  6
ByLayer
 62
  256
370
   -1
100
AcDbMText
 10
388
 20
24
 30
0
 40
2
 41
4.888888888888889
 71
    1
 72
    1
  1
0.1.0
  7
standard
210
0
220
0
230
1
 50
0
 73
    2
 44
1
  0
MTEXT
  5
16D
100
AcDbEntity
  8
anotation
  6
ByLayer
 62
  256
370
   -1
100
AcDbMText
 10
388
 20
14
 30
0
 40
2
 41
14.66666666666679
 71
    1
 72
    1
  1
2016-04-07
  7
standard
210
0
220
0
230
1
 50
0
 73
    2
 44
1
  0
LINE
  5
16E
100
AcDbEntity
  8
outlines
  6
ByLayer
 62
  256
370
   -1
100
AcDbLine
 10
83.84999464814837
 20
89.85000536574002
 11
340.1499946481484
 21
89.85000536574002
  0
LINE
  5
16F
100
AcDbEntity
  8
outlines
  6
ByLayer
 62
  256
370
   -1
100
AcDbLine
 10
83.84999464814837
 20
190.85000536574
 11
340.1499946481484
 21
190.85000536574
  0
LINE
  5
170
100
AcDbEntity
  8
outlines
  6
ByLayer
 62
  256
370
   -1
100
AcDbLine
 10
83.84999464814837
 20
89.85000536574002
 11
83.84999464814837
 21
190.85000536574
  0
LINE
  5
171
100
AcDbEntity
  8
outlines
  6
ByLayer
 62
  256
370
   -1
100
AcDbLine
 10
340.1499946481484
 20
89.85000536573995
 11
340.1499946481484
 21
190.85000536574
  0
LINE
  5
172
100
AcDbEntity
  8
middle
  6
ByLayer
 62
  256
370
   -1
100
AcDbLine
 10
211.9999946481484
 20
79.85000536574002
 11
211.9999946481484
 21
200.85000536574
  0
LINE
  5
173
100
AcDbEntity
  8
middle
  6
ByLayer
 62
  256
370
   -1
100
AcDbLine
 10
73.84999464814837
 20
140.35000536574
 11
350.1499946481484
 21
140.35000536574
  0
DIMENSION
  5
174
100
AcDbEntity
  8
dimension
  6
ByLayer
 62
  256
370
   -1
100
AcDbDimension
  2
*D1
 10
340.1499946481484
 20
69.85000536574002
 30
0
 11
211.9999946481484
 21
71.72500536574002
 31
0
 70
   32
 71
    5
  3
Standard
 53
0
210
0
220
0
230
1
100
AcDbAlignedDimension
 13
83.84999464814837
 23
89.85000536574002
 33
0
 14
340.1499946481484
 24
89.85000536574002
 34
0
100
AcDbRotatedDimension
  0
DIMENSION
  5
175
100
AcDbEntity
  8
dimension
  6
ByLayer
 62
  256
370
   -1
100
AcDbDimension
  2
*D2
 10
53.84999464814837
 20
89.85000536574003
 30
0
 11
51.97499464814837
 21
140.35000536574
 31
0
 70
   32
 71
    5
  3
Standard
 53
0
210
0
220
0
230
1
100
AcDbAlignedDimension
 13
83.84999464814837
 23
190.85000536574
 33
0
 14
83.84999464814837
 24
89.85000536574002
 34
0
 50
90
100
AcDbRotatedDimension
  0
DIMENSION
  5
176
100
AcDbEntity
  8
dimension
  6
ByLayer
 62
  256
370
   -1
100
AcDbDimension
  2
*D3
 10
186.3699946481484
 20
209.85000536574
 30
0
 11
199.1849946481484
 21
211.72500536574
 31
0
 70
   32
 71
    5
  3
Standard
 53
0
210
0
220
0
230
1
100
AcDbAlignedDimension
 13
211.9999946481484
 23
190.85000536574
 33
0
 14
186.3699946481484
 24
159.85000536574
 34
0
100
AcDbRotatedDimension
  0
DIMENSION
  5
177
100
AcDbEntity
  8
dimension
  6
ByLayer
 62
  256
370
   -1
100
AcDbDimension
  2
*D4
 10
167.1474946481484
 20
209.85000536574
 30
0
 11
176.7587446481484
 21
211.72500536574
 31
0
 70
   32
 71
    5
  3
Standard
 53
0
210
0
220
0
230
1
100
AcDbAlignedDimension
 13
186.3699946481484
 23
159.85000536574
 33
0
 14
167.1474946481484
 24
129.85000536574
 34
0
100
AcDbRotatedDimension
  0
DIMENSION
  5
178
100
AcDbEntity
  8
dimension
  6
ByLayer
 62
  256
370
   -1
100
AcDbDimension
  2
*D5
 10
147.9249946481484
 20
209.85000536574
 30
0
 11
157.5362446481484
 21
211.72500536574
 31
0
 70
   32
 71
    5
  3
Standard
 53
0
210
0
220
0
230
1
100
AcDbAlignedDimension
 13
167.1474946481484
 23
190.85000536574
 33
0
 14
147.9249946481484
 24
159.85000536574
 34
0
100
AcDbRotatedDimension
  0
DIMENSION
  5
179
100
AcDbEntity
  8
dimension
  6
ByLayer
 62
  256
370
   -1
100
AcDbDimension
  2
*D6
 10
128.7024946481484
 20
209.85000536574
 30
0
 11
138.3137446481484
 21
211.72500536574
 31
0
 70
   32
 71
    5
  3
Standard
 53
0
210
0
220
0
230
1
100
AcDbAlignedDimension
 13
147.9249946481484
 23
190.85000536574
 33
0
 14
128.7024946481484
 24
129.85000536574
 34
0
100
AcDbRotatedDimension
  0
DIMENSION
  5
17A
100
AcDbEntity
  8
dimension
  6
ByLayer
 62
  256
370
   -1
100
AcDbDimension
  2
*D7
 10
109.4799946481484
 20
209.85000536574
 30
0
 11
119.0912446481484
 21
211.72500536574
 31
0
 70
   32
 71
    5
  3
Standard
 53
0
210
0
220
0
230
1
100
AcDbAlignedDimension
 13
128.7024946481484
 23
190.85000536574
 33
0
 14
109.4799946481484
 24
159.85000536574
 34
0
100
AcDbRotatedDimension
  0
DIMENSION
  5
17B
100
AcDbEntity
  8
dimension
  6
ByLayer
 62
  256
370
   -1
100
AcDbDimension
  2
*D8
 10
237.6299946481484
 20
209.85000536574
 30
0
 11
224.8149946481484
 21
211.72500536574
 31
0
 70
   32
 71
    5
  3
Standard
 53
0
210
0
220
0
230
1
100
AcDbAlignedDimension
 13
211.9999946481484
 23
190.85000536574
 33
0
 14
237.6299946481484
 24
159.85000536574
 34
0
100
AcDbRotatedDimension
  0
DIMENSION
  5
17C
100
AcDbEntity
  8
dimension
  6
ByLayer
 62
  256
370
   -1
100
AcDbDimension
  2
*D9
 10
256.8524946481484
 20
209.85000536574
 30
0
 11
247.2412446481484
 21
211.72500536574
 31
0
 70
   32
 71
    5
  3
Standard
 53
0
210
0
220
0
230
1
100
AcDbAlignedDimension
 13
237.6299946481484
 23
190.85000536574
 33
0
 14
256.8524946481484
 24
129.85000536574
 34
0
100
AcDbRotatedDimension
  0
DIMENSION
  5
17D
100
AcDbEntity
  8
dimension
  6
ByLayer
 62
  256
370
   -1
100
AcDbDimension
  2
*D10
 10
276.0749946481484
 20
209.85000536574
 30
0
 11
266.4637446481484
 21
211.72500536574
 31
0
 70
   32
 71
    5
  3
Standard
 53
0
210
0
220
0
230
1
100
AcDbAlignedDimension
 13
256.8524946481484
 23
190.85000536574
 33
0
 14
276.0749946481484
 24
159.85000536574
 34
0
100
AcDbRotatedDimension
  0
DIMENSION
  5
17E
100
AcDbEntity
  8
dimension
  6
ByLayer
 62
  256
370
   -1
100
AcDbDimension
  2
*D11
 10
295.2974946481484
 20
209.85000536574
 30
0
 11
285.6862446481484
 21
211.72500536574
 31
0
 70
   32
 71
    5
  3
Standard
 53
0
210
0
220
0
230
1
100
AcDbAlignedDimension
 13
276.0749946481484
 23
190.85000536574
 33
0
 14
295.2974946481484
 24
129.85000536574
 34
0
100
AcDbRotatedDimension
  0
DIMENSION
  5
17F
100
AcDbEntity
  8
dimension
  6
ByLayer
 62
  256
370
   -1
100
AcDbDimension
  2
*D12
 10
314.5199946481484
 20
209.85000536574
 30
0
 11
304.9087446481484
 21
211.72500536574
 31
0
 70
   32
 71
    5
  3
Standard
 53
0
210
0
220
0
230
1
100
AcDbAlignedDimension
 13
295.2974946481484
 23
190.85000536574
 33
0
 14
314.5199946481484
 24
159.85000536574
 34
0
100
AcDbRotatedDimension
  0
LEADER
  5
180
100
AcDbEntity
  8
anotation
  6
ByLayer
 62
  256
370
   -1
100
AcDbLeader
  3
Standard
 71
    1
 72
    0
 73
    3
 74
    0
 75
    0
 40
1
 41
10
 76
3
 76
3
 10
340.1499946481484
 20
110.1499928103341
 30
0
 10
347.8499946481484
 20
119.85000536574
 30
0
 10
374.8499946481484
 20
119.85000536574
 30
0
  0
MTEXT
  5
181
100
AcDbEntity
  8
anotation
  6
ByLayer
 62
  256
370
   -1
100
AcDbMText
 10
347.8499946481484
 20
129.85000536574
 30
0
 40
2
 41
45.77777777777887
 71
    1
 72
    1
  1
Mae aus \PCatalogue drawing in PDF format:\P20310135_BCD-310-UT-7035.pdf
  7
standard
210
0
220
0
230
1
 50
0
 73
    2
 44
1
  0
CIRCLE
  5
182
100
AcDbEntity
  8
cut_M20
  6
ByLayer
 62
  256
370
   -1
100
AcDbCircle
 10
128.7024946481484
 20
129.85000536574
 40
8
  0
LEADER
  5
183
100
AcDbEntity
  8
dimension
  6
ByLayer
 62
  256
370
   -1
100
AcDbLeader
  3
Standard
 71
    1
 72
    0
 73
    3
 74
    0
 75
    0
 40
1
 41
10
 76
3
 76
3
 10
128.7024946481484
 20
137.85000536574
 30
0
 10
125.8499946481484
 20
140.8500053657404
 30
0
 10
120.8499946481484
 20
140.8500053657404
 30
0
  0
MTEXT
  5
184
100
AcDbEntity
  8
anotation
  6
ByLayer
 62
  256
370
   -1
100
AcDbMText
 10
120.8499946481484
 20
143.8500053657404
 30
0
 40
2
 41
4.444444444444445
 71
    1
 72
    1
  1
M20
  7
standard
210
0
220
0
230
1
 50
0
 73
    2
 44
1
  0
CIRCLE
  5
185
100
AcDbEntity
  8
cut_M16
  6
ByLayer
 62
  256
370
   -1
100
AcDbCircle
 10
147.9249946481484
 20
159.85000536574
 40
6
  0
CIRCLE
  5
186
100
AcDbEntity
  8
cut_M16
  6
ByLayer
 62
  256
370
   -1
100
AcDbCircle
 10
167.1474946481484
 20
129.85000536574
 40
6
  0
CIRCLE
  5
187
100
AcDbEntity
  8
cut_M16
  6
ByLayer
 62
  256
370
   -1
100
AcDbCircle
 10
237.6299946481484
 20
159.85000536574
 40
6
  0
CIRCLE
  5
188
100
AcDbEntity
  8
cut_M16
  6
ByLayer
 62
  256
370
   -1
100
AcDbCircle
 10
256.8524946481484
 20
129.85000536574
 40
6
  0
CIRCLE
  5
189
100
AcDbEntity
  8
cut_M16
  6
ByLayer
 62
  256
370
   -1
100
AcDbCircle
 10
276.0749946481484
 20
159.85000536574
 40
6
  0
CIRCLE
  5
18A
100
AcDbEntity
  8
cut_M16
  6
ByLayer
 62
  256
370
   -1
100
AcDbCircle
 10
295.2974946481484
 20
129.85000536574
 40
6
  0
CIRCLE
  5
18B
100
AcDbEntity
  8
cut_M16
  6
ByLayer
 62
  256
370
   -1
100
AcDbCircle
 10
314.5199946481484
 20
159.85000536574
 40
6
  0
DIMENSION
  5
18C
100
AcDbEntity
  8
dimension
  6
ByLayer
 62
  256
370
   -1
100
AcDbDimension
  2
*D15
 10
60
 20
89.85000536574002
 30
0
 11
58.125
 21
124.85000536574
 31
0
 70
   32
 71
    5
  3
Standard
 53
0
210
0
220
0
230
1
100
AcDbAlignedDimension
 13
314.5199946481484
 23
159.85000536574
 33
0
 14
83.84999464814837
 24
89.85000536574002
 34
0
 50
90
100
AcDbRotatedDimension
  0
DIMENSION
  5
18D
100
AcDbEntity
  8
dimension
  6
ByLayer
 62
  256
370
   -1
100
AcDbDimension
  2
*D16
 10
70
 20
89.85000536574002
 30
0
 11
68.125
 21
109.85000536574
 31
0
 70
   32
 71
    5
  3
Standard
 53
0
210
0
220
0
230
1
100
AcDbAlignedDimension
 13
295.2974946481484
 23
129.85000536574
 33
0
 14
83.84999464814837
 24
89.85000536574002
 34
0
 50
90
100
AcDbRotatedDimension
  0
LEADER
  5
18E
100
AcDbEntity
  8
dimension
  6
ByLayer
 62
  256
370
   -1
100
AcDbLeader
  3
Standard
 71
    1
 72
    0
 73
    3
 74
    0
 75
    0
 40
1
 41
10
 76
3
 76
3
 10
148
 20
166
 30
0
 10
146
 20
168
 30
0
 10
140
 20
168
 30
0
  0
LEADER
  5
18F
100
AcDbEntity
  8
dimension
  6
ByLayer
 62
  256
370
   -1
100
AcDbLeader
  3
Standard
 71
    1
 72
    0
 73
    3
 74
    0
 75
    0
 40
1
 41
10
 76
3
 76
3
 10
167.2975
 20
136
 30
0
 10
164
 20
141
 30
0
 10
160
 20
141
 30
0
  0
LEADER
  5
190
100
AcDbEntity
  8
dimension
  6
ByLayer
 62
  256
370
   -1
100
AcDbLeader
  3
Standard
 71
    1
 72
    0
 73
    3
 74
    0
 75
    0
 40
1
 41
10
 76
3
 76
3
 10
237.78
 20
166.0000000000009
 30
0
 10
236
 20
168
 30
0
 10
231
 20
168
 30
0
  0
LEADER
  5
191
100
AcDbEntity
  8
dimension
  6
ByLayer
 62
  256
370
   -1
100
AcDbLeader
  3
Standard
 71
    1
 72
    0
 73
    3
 74
    0
 75
    0
 40
1
 41
10
 76
3
 76
3
 10
257.0025000000001
 20
136
 30
0
 10
254
 20
140
 30
0
 10
250
 20
140
 30
0
  0
LEADER
  5
192
100
AcDbEntity
  8
dimension
  6
ByLayer
 62
  256
370
   -1
100
AcDbLeader
  3
Standard
 71
    1
 72
    0
 73
    3
 74
    0
 75
    0
 40
1
 41
10
 76
3
 76
3
 10
276
 20
166
 30
0
 10
274
 20
168
 30
0
 10
269
 20
168
 30
0
  0
LEADER
  5
193
100
AcDbEntity
  8
dimension
  6
ByLayer
 62
  256
370
   -1
100
AcDbLeader
  3
Standard
 71
    1
 72
    0
 73
    3
 74
    0
 75
    0
 40
1
 41
10
 76
3
 76
3
 10
295.4475
 20
136
 30
0
 10
292
 20
140
 30
0
 10
288
 20
140
 30
0
  0
LEADER
  5
194
100
AcDbEntity
  8
dimension
  6
ByLayer
 62
  256
370
   -1
100
AcDbLeader
  3
Standard
 71
    1
 72
    0
 73
    3
 74
    0
 75
    0
 40
1
 41
10
 76
3
 76
3
 10
314.67
 20
166.0000000000018
 30
0
 10
313
 20
168
 30
0
 10
309
 20
168
 30
0
  0
MTEXT
  5
195
100
AcDbEntity
  8
anotation
  6
ByLayer
 62
  256
370
   -1
100
AcDbMText
 10
140
 20
171
 30
0
 40
2
 41
4.000000000000123
 71
    1
 72
    1
  1
M16
  7
standard
210
0
220
0
230
1
 50
0
 73
    2
 44
1
  0
MTEXT
  5
196
100
AcDbEntity
  8
anotation
  6
ByLayer
 62
  256
370
   -1
100
AcDbMText
 10
231
 20
171
 30
0
 40
2
 41
4.000000000000123
 71
    1
 72
    1
  1
M16
  7
standard
210
0
220
0
230
1
 50
0
 73
    2
 44
1
  0
MTEXT
  5
197
100
AcDbEntity
  8
anotation
  6
ByLayer
 62
  256
370
   -1
100
AcDbMText
 10
269
 20
171
 30
0
 40
2
 41
4.000000000000123
 71
    1
 72
    1
  1
M16
  7
standard
210
0
220
0
230
1
 50
0
 73
    2
 44
1
  0
MTEXT
  5
198
100
AcDbEntity
  8
anotation
  6
ByLayer
 62
  256
370
   -1
100
AcDbMText
 10
309
 20
171
 30
0
 40
2
 41
4.000000000000123
 71
    1
 72
    1
  1
M16
  7
standard
210
0
220
0
230
1
 50
0
 73
    2
 44
1
  0
MTEXT
  5
199
100
AcDbEntity
  8
anotation
  6
ByLayer
 62
  256
370
   -1
100
AcDbMText
 10
288
 20
143
 30
0
 40
2
 41
4.000000000000123
 71
    1
 72
    1
  1
M16
  7
standard
210
0
220
0
230
1
 50
0
 73
    2
 44
1
  0
MTEXT
  5
19A
100
AcDbEntity
  8
anotation
  6
ByLayer
 62
  256
370
   -1
100
AcDbMText
 10
250
 20
143
 30
0
 40
2
 41
4.000000000000123
 71
    1
 72
    1
  1
M16
  7
standard
210
0
220
0
230
1
 50
0
 73
    2
 44
1
  0
MTEXT
  5
19B
100
AcDbEntity
  8
anotation
  6
ByLayer
 62
  256
370
   -1
100
AcDbMText
 10
160
 20
144
 30
0
 40
2
 41
4.000000000000123
 71
    1
 72
    1
  1
M16
  7
standard
210
0
220
0
230
1
 50
0
 73
    2
 44
1
  0
MTEXT
  5
19C
100
AcDbEntity
  8
anotation
  6
ByLayer
 62
  256
370
   -1
100
AcDbMText
 10
332
 20
27
 30
0
 40
2
 41
37.4444465015938
 71
    1
 72
    1
  1
Bopla BDC310\PLcherausschnitte im Boden
  7
standard
210
0
220
0
230
1
 50
0
 73
    2
 44
1
  0
CIRCLE
  5
19D
100
AcDbEntity
  8
cut_M16
  6
ByLayer
 62
  256
370
   -1
100
AcDbCircle
 10
110
 20
160
 40
6
  0
LINE
  5
19E
100
AcDbEntity
  8
construction
  6
ByLayer
 62
  256
370
   -1
100
AcDbLine
 10
83.84999464814837
 20
185.3125000000073
 11
83.84999464814838
 21
441.6125000000073
  0
LINE
  5
19F
100
AcDbEntity
  8
construction
  6
ByLayer
 62
  256
370
   -1
100
AcDbLine
 10
211.9999946481484
 20
170.3125000000067
 11
211.9999946481484
 21
426.6125000000067
  0
LINE
  5
1A0
100
AcDbEntity
  8
construction
  6
ByLayer
 62
  256
370
   -1
100
AcDbLine
 10
340.1499946481484
 20
190.85000536574
 11
340.1499946481484
 21
447.15000536574
  0
LINE
  5
1A1
100
AcDbEntity
  8
construction
  6
ByLayer
 62
  256
370
   -1
100
AcDbLine
 10
340.1499946481484
 20
190.85000536574
 11
596.4499946481484
 21
190.85000536574
  0
LINE
  5
1A2
100
AcDbEntity
  8
construction
  6
ByLayer
 62
  256
370
   -1
100
AcDbLine
 10
340.1499946481484
 20
89.85000536574002
 11
596.4499946481484
 21
89.85000536574002
  0
LINE
  5
1A3
100
AcDbEntity
  8
construction
  6
ByLayer
 62
  256
370
   -1
100
AcDbLine
 10
237.6299946481484
 20
190.85000536574
 11
237.6299946481485
 21
447.15000536574
  0
LINE
  5
1A4
100
AcDbEntity
  8
construction
  6
ByLayer
 62
  256
370
   -1
100
AcDbLine
 10
256.8524946481484
 20
190.85000536574
 11
256.8524946481484
 21
447.15000536574
  0
LINE
  5
1A5
100
AcDbEntity
  8
construction
  6
ByLayer
 62
  256
370
   -1
100
AcDbLine
 10
276.0749946481484
 20
190.85000536574
 11
276.0749946481484
 21
447.15000536574
  0
LINE
  5
1A6
100
AcDbEntity
  8
construction
  6
ByLayer
 62
  256
370
   -1
100
AcDbLine
 10
295.2974946481484
 20
190.85000536574
 11
295.2974946481484
 21
447.15000536574
  0
LINE
  5
1A7
100
AcDbEntity
  8
construction
  6
ByLayer
 62
  256
370
   -1
100
AcDbLine
 10
314.5199946481484
 20
190.85000536574
 11
314.5199946481484
 21
447.15000536574
  0
LINE
  5
1A8
100
AcDbEntity
  8
construction
  6
ByLayer
 62
  256
370
   -1
100
AcDbLine
 10
109.4799946481484
 20
190.85000536574
 11
109.4799946481484
 21
447.15000536574
  0
LINE
  5
1A9
100
AcDbEntity
  8
construction
  6
ByLayer
 62
  256
370
   -1
100
AcDbLine
 10
128.7024946481484
 20
190.85000536574
 11
128.7024946481484
 21
447.15000536574
  0
LINE
  5
1AA
100
AcDbEntity
  8
construction
  6
ByLayer
 62
  256
370
   -1
100
AcDbLine
 10
147.9249946481484
 20
190.85000536574
 11
147.9249946481484
 21
447.15000536574
  0
LINE
  5
1AB
100
AcDbEntity
  8
construction
  6
ByLayer
 62
  256
370
   -1
100
AcDbLine
 10
167.1474946481484
 20
190.85000536574
 11
167.1474946481484
 21
447.15000536574
  0
LINE
  5
1AC
100
AcDbEntity
  8
construction
  6
ByLayer
 62
  256
370
   -1
100
AcDbLine
 10
186.3699946481484
 20
190.85000536574
 11
186.3699946481484
 21
447.15000536574
  0
LINE
  5
1AD
100
AcDbEntity
  8
construction
  6
ByLayer
 62
  256
370
   -1
100
AcDbLine
 10
89.37500000000351
 20
140.35000536574
 11
345.6750000000035
 21
140.35000536574
  0
LINE
  5
1AE
100
AcDbEntity
  8
construction
  6
ByLayer
 62
  256
370
   -1
100
AcDbLine
 10
83.84999464814838
 20
159.85000536574
 11
340.1499946481484
 21
159.85000536574
  0
LINE
  5
1AF
100
AcDbEntity
  8
construction
  6
ByLayer
 62
  256
370
   -1
100
AcDbLine
 10
83.84999464814838
 20
129.85000536574
 11
340.1499946481484
 21
129.85000536574
  0
CIRCLE
  5
1B0
100
AcDbEntity
  8
cut_M20
  6
ByLayer
 62
  256
370
   -1
100
AcDbCircle
 10
186.3699946481484
 20
159.85000536574
 40
8
  0
CIRCLE
  5
1B1
100
AcDbEntity
  8
cut_M20
  6
ByLayer
 62
  256
370
   -1
100
AcDbCircle
 10
211.9999946481484
 20
129.85000536574
 40
8
  0
LEADER
  5
1B2
100
AcDbEntity
  8
dimension
  6
ByLayer
 62
  256
370
   -1
100
AcDbLeader
  3
Standard
 71
    1
 72
    0
 73
    3
 74
    0
 75
    0
 40
1
 41
10
 76
3
 76
3
 10
109.4799946481484
 20
165.9774237288354
 30
0
 10
105.8499946481484
 20
169.9774237288358
 30
0
 10
100.8499946481484
 20
169.9774237288358
 30
0
  0
LEADER
  5
1B3
100
AcDbEntity
  8
dimension
  6
ByLayer
 62
  256
370
   -1
100
AcDbLeader
  3
Standard
 71
    1
 72
    0
 73
    3
 74
    0
 75
    0
 40
1
 41
10
 76
3
 76
3
 10
186.3699946481484
 20
167.85000536574
 30
0
 10
183.8499946481484
 20
169.8500053657405
 30
0
 10
178.8499946481484
 20
169.8500053657405
 30
0
  0
MTEXT
  5
1B4
100
AcDbEntity
  8
anotation
  6
ByLayer
 62
  256
370
   -1
100
AcDbMText
 10
100.8499946481484
 20
172.9774237288358
 30
0
 40
2
 41
4.000000000000123
 71
    1
 72
    1
  1
M16
  7
standard
210
0
220
0
230
1
 50
0
 73
    2
 44
1
  0
MTEXT
  5
1B5
100
AcDbEntity
  8
anotation
  6
ByLayer
 62
  256
370
   -1
100
AcDbMText
 10
178.8499946481484
 20
172.8500053657405
 30
0
 40
2
 41
4.444444444444445
 71
    1
 72
    1
  1
M20
  7
standard
210
0
220
0
230
1
 50
0
 73
    2
 44
1
  0
LEADER
  5
1B6
100
AcDbEntity
  8
anotation
  6
ByLayer
 62
  256
370
   -1
100
AcDbLeader
  3
Standard
 71
    1
 72
    0
 73
    3
 74
    0
 75
    0
 40
1
 41
10
 76
3
 76
3
 10
212
 20
138
 30
0
 10
208
 20
143
 30
0
 10
202
 20
143
 30
0
  0
MTEXT
  5
1B7
100
AcDbEntity
  8
anotation
  6
ByLayer
 62
  256
370
   -1
100
AcDbMText
 10
202
 20
146
 30
0
 40
2
 41
4.444444444444445
 71
    1
 72
    1
  1
M20
  7
standard
210
0
220
0
230
1
 50
0
 73
    2
 44
1
  0
MTEXT
  5
1B8
100
AcDbEntity
  8
anotation
  6
ByLayer
 62
  256
370
   -1
100
AcDbMText
 10
90
 20
50
 30
0
 40
2
 41
142.2777796127062
 71
    1
 72
    1
  3
Die Angaben M16 und M20 bezeichnen Ausschnitte bzw. Frsungen fr Kabelverschraubungen.\P\PDie schraffierten Markierungen (alle oberen, eine in der unteren Reihe) sollen nur vorgefrt werden.\P\PDie Markierungen ohne Schraffur sollen mit Gewinde
  1
 versehen werden.
  7
standard
210
0
220
0
230
1
 50
0
 73
    2
 44
1
  0
LEADER
  5
1B9
100
AcDbEntity
  8
anotation
  6
ByLayer
 62
  256
370
   -1
100
AcDbLeader
  3
Standard
 71
    1
 72
    0
 73
    3
 74
    0
 75
    0
 40
1
 41
10
 76
3
 76
3
 10
128.7024946481484
 20
121.85000536574
 30
0
 10
130
 20
118
 30
0
 10
140
 20
118
 30
0
  0
LEADER
  5
1BA
100
AcDbEntity
  8
anotation
  6
ByLayer
 62
  256
370
   -1
100
AcDbLeader
  3
Standard
 71
    1
 72
    0
 73
    3
 74
    0
 75
    0
 40
1
 41
10
 76
3
 76
3
 10
167.1474946481484
 20
123.8500053657412
 30
0
 10
170
 20
118
 30
0
 10
181
 20
118
 30
0
  0
LEADER
  5
1BB
100
AcDbEntity
  8
anotation
  6
ByLayer
 62
  256
370
   -1
100
AcDbLeader
  3
Standard
 71
    1
 72
    0
 73
    3
 74
    0
 75
    0
 40
1
 41
10
 76
3
 76
3
 10
212
 20
121
 30
0
 10
216
 20
118
 30
0
 10
228
 20
118
 30
0
  0
LEADER
  5
1BC
100
AcDbEntity
  8
anotation
  6
ByLayer
 62
  256
370
   -1
100
AcDbLeader
  3
Standard
 71
    1
 72
    0
 73
    3
 74
    0
 75
    0
 40
1
 41
10
 76
0
 76
0
  0
LEADER
  5
1BD
100
AcDbEntity
  8
anotation
  6
ByLayer
 62
  256
370
   -1
100
AcDbLeader
  3
Standard
 71
    1
 72
    0
 73
    3
 74
    0
 75
    0
 40
1
 41
10
 76
3
 76
3
 10
295.2974946481484
 20
123.8500053657424
 30
0
 10
299
 20
118
 30
0
 10
313
 20
118
 30
0
  0
MTEXT
  5
1BE
100
AcDbEntity
  8
anotation
  6
ByLayer
 62
  256
370
   -1
100
AcDbMText
 10
132
 20
121
 30
0
 40
2
 41
10.00000000000022
 71
    1
 72
    1
  1
Gewinde
  7
standard
210
0
220
0
230
1
 50
0
 73
    2
 44
1
  0
MTEXT
  5
1BF
100
AcDbEntity
  8
anotation
  6
ByLayer
 62
  256
370
   -1
100
AcDbMText
 10
172
 20
121
 30
0
 40
2
 41
10.00000000000022
 71
    1
 72
    1
  1
Gewinde
  7
standard
210
0
220
0
230
1
 50
0
 73
    2
 44
1
  0
MTEXT
  5
1C0
100
AcDbEntity
  8
anotation
  6
ByLayer
 62
  256
370
   -1
100
AcDbMText
 10
219
 20
121
 30
0
 40
2
 41
10.00000000000022
 71
    1
 72
    1
  1
Gewinde
  7
standard
210
0
220
0
230
1
 50
0
 73
    2
 44
1
  0
MTEXT
  5
1C1
100
AcDbEntity
  8
anotation
  6
ByLayer
 62
  256
370
   -1
100
AcDbMText
 10
302
 20
121
 30
0
 40
2
 41
10.00000000000022
 71
    1
 72
    1
  1
Gewinde
  7
standard
210
0
220
0
230
1
 50
0
 73
    2
 44
1
  0
ENDSEC
  0
SECTION
  2
OBJECTS
  0
DICTIONARY
  5
C
330
0
100
AcDbDictionary
281
    1
  3
ACAD_GROUP
350
D
  0
DICTIONARY
  5
D
330
C
100
AcDbDictionary
281
    1
  0
ENDSEC
  0
EOF
