999
dxfrw 0.6.3
  0
SECTION
  2
HEADER
  9
$ACADVER
  1
AC1021
  9
$DWGCODEPAGE
  3
ANSI_1252
  9
$INSBASE
 10
0
 20
0
 30
0
  9
$EXTMIN
 10
0
 20
0
 30
0
  9
$EXTMAX
 10
410
 20
283.125
 30
0
  9
$LIMMIN
 10
0
 20
0
  9
$LIMMAX
 10
420
 20
297
  9
$ORTHOMODE
 70
    0
  9
$REGENMODE
 70
    1
  9
$FILLMODE
 70
    1
  9
$QTEXTMODE
 70
    0
  9
$MIRRTEXT
 70
    0
  9
$LTSCALE
 40
1
  9
$ATTMODE
 70
    0
  9
$TEXTSIZE
 40
2.5
  9
$TRACEWID
 40
15.68
  9
$TEXTSTYLE
  7
STANDARD
  9
$CLAYER
  8
dimension
  9
$CELTYPE
  6
BYLAYER
  9
$CECOLOR
 62
  256
  9
$CELTSCALE
 40
1
  9
$DISPSILH
 70
    0
  9
$DIMSCALE
 40
1
  9
$DIMASZ
 40
2.5
  9
$DIMEXO
 40
0.625
  9
$DIMDLI
 40
3.75
  9
$DIMRND
 40
0
  9
$DIMDLE
 40
0
  9
$DIMEXE
 40
1.25
  9
$DIMTP
 40
0
  9
$DIMTM
 40
0
  9
$DIMTXT
 40
2.5
  9
$DIMCEN
 40
2.5
  9
$DIMTSZ
 40
0
  9
$DIMTOL
 70
    0
  9
$DIMLIM
 70
    0
  9
$DIMTIH
 70
    0
  9
$DIMTOH
 70
    0
  9
$DIMSE1
 70
    0
  9
$DIMSE2
 70
    0
  9
$DIMTAD
 70
    1
  9
$DIMZIN
 70
    8
  9
$DIMBLK
  1

  9
$DIMASO
 70
    1
  9
$DIMSHO
 70
    1
  9
$DIMPOST
  1

  9
$DIMAPOST
  1

  9
$DIMALT
 70
    0
  9
$DIMALTD
 70
    3
  9
$DIMALTF
 40
0.03937
  9
$DIMLFAC
 40
1
  9
$DIMTOFL
 70
    1
  9
$DIMTVP
 40
0
  9
$DIMTIX
 70
    0
  9
$DIMSOXD
 70
    0
  9
$DIMSAH
 70
    0
  9
$DIMBLK1
  1

  9
$DIMBLK2
  1

  9
$DIMSTYLE
  2
STANDARD
  9
$DIMCLRD
 70
    0
  9
$DIMCLRE
 70
    0
  9
$DIMCLRT
 70
    0
  9
$DIMTFAC
 40
1
  9
$DIMGAP
 40
0.625
  9
$DIMJUST
 70
    0
  9
$DIMSD1
 70
    0
  9
$DIMSD2
 70
    0
  9
$DIMTOLJ
 70
    0
  9
$DIMTZIN
 70
    8
  9
$DIMALTZ
 70
    0
  9
$DIMALTTZ
 70
    0
  9
$DIMUPT
 70
    0
  9
$DIMDEC
 70
    2
  9
$DIMTDEC
 70
    2
  9
$DIMALTU
 70
    2
  9
$DIMALTTD
 70
    3
  9
$DIMTXSTY
  7
standard
  9
$DIMAUNIT
 70
    0
  9
$DIMADEC
 70
    0
  9
$DIMALTRND
 40
0
  9
$DIMAZIN
 70
    0
  9
$DIMDSEP
 70
   44
  9
$DIMATFIT
 70
    3
  9
$DIMFRAC
 70
    0
  9
$DIMLDRBLK
  1
STANDARD
  9
$DIMLUNIT
 70
    2
  9
$DIMLWD
 70
   -2
  9
$DIMLWE
 70
   -2
  9
$DIMTMOVE
 70
    0
  9
$DIMFXL
 40
1
  9
$DIMFXLON
 70
    0
  9
$DIMJOGANG
 40
0.7854
  9
$DIMTFILL
 70
    0
  9
$DIMTFILLCLR
 70
    0
  9
$DIMARCSYM
 70
    0
  9
$DIMLTYPE
  6

  9
$DIMLTEX1
  6

  9
$DIMLTEX2
  6

  9
$LUNITS
 70
    2
  9
$LUPREC
 70
    4
  9
$SKETCHINC
 40
1
  9
$FILLETRAD
 40
0
  9
$AUNITS
 70
    0
  9
$AUPREC
 70
    2
  9
$MENU
  1
.
  9
$ELEVATION
 40
0
  9
$PELEVATION
 40
0
  9
$THICKNESS
 40
0
  9
$LIMCHECK
 70
    0
  9
$CHAMFERA
 40
0
  9
$CHAMFERB
 40
0
  9
$CHAMFERC
 40
0
  9
$CHAMFERD
 40
0
  9
$SKPOLY
 70
    0
  9
$USRTIMER
 70
    1
  9
$ANGBASE
 50
0
  9
$ANGDIR
 70
    0
  9
$PDMODE
 70
   34
  9
$PDSIZE
 40
0
  9
$PLINEWID
 40
0
  9
$SPLFRAME
 70
    0
  9
$SPLINETYPE
 70
    2
  9
$SPLINESEGS
 70
    8
  9
$HANDSEED
  5
20000
  9
$SURFTAB1
 70
    6
  9
$SURFTAB2
 70
    6
  9
$SURFTYPE
 70
    6
  9
$SURFU
 70
    6
  9
$SURFV
 70
    6
  9
$UCSBASE
  2

  9
$UCSNAME
  2

  9
$UCSORG
 10
0
 20
0
 30
0
  9
$UCSXDIR
 10
1
 20
0
 30
0
  9
$UCSYDIR
 10
0
 20
1
 30
0
  9
$UCSORTHOREF
  2

  9
$UCSORTHOVIEW
 70
    0
  9
$UCSORGTOP
 10
0
 20
0
 30
0
  9
$UCSORGBOTTOM
 10
0
 20
0
 30
0
  9
$UCSORGLEFT
 10
0
 20
0
 30
0
  9
$UCSORGRIGHT
 10
0
 20
0
 30
0
  9
$UCSORGFRONT
 10
0
 20
0
 30
0
  9
$UCSORGBACK
 10
0
 20
0
 30
0
  9
$PUCSBASE
  2

  9
$PUCSNAME
  2

  9
$PUCSORG
 10
0
 20
0
 30
0
  9
$PUCSXDIR
 10
1
 20
0
 30
0
  9
$PUCSYDIR
 10
0
 20
1
 30
0
  9
$PUCSORTHOREF
  2

  9
$PUCSORTHOVIEW
 70
    0
  9
$PUCSORGTOP
 10
0
 20
0
 30
0
  9
$PUCSORGBOTTOM
 10
0
 20
0
 30
0
  9
$PUCSORGLEFT
 10
0
 20
0
 30
0
  9
$PUCSORGRIGHT
 10
0
 20
0
 30
0
  9
$PUCSORGFRONT
 10
0
 20
0
 30
0
  9
$PUCSORGBACK
 10
0
 20
0
 30
0
  9
$USERI1
 70
    0
  9
$USERI2
 70
    0
  9
$USERI3
 70
    0
  9
$USERI4
 70
    0
  9
$USERI5
 70
    0
  9
$USERR1
 40
0
  9
$USERR2
 40
0
  9
$USERR3
 40
0
  9
$USERR4
 40
0
  9
$USERR5
 40
0
  9
$WORLDVIEW
 70
    1
  9
$SHADEDGE
 70
    3
  9
$SHADEDIF
 70
   70
  9
$TILEMODE
 70
    1
  9
$MAXACTVP
 70
   64
  9
$PINSBASE
 10
5
 20
6.9375
 30
0
  9
$PLIMCHECK
 70
    0
  9
$PEXTMIN
 10
0
 20
0
 30
0
  9
$PEXTMAX
 10
0
 20
0
 30
0
  9
$GRIDMODE
 70
    1
  9
$SNAPSTYLE
 70
    0
  9
$GRIDUNIT
 10
0
 20
0
  9
$PLIMMIN
 10
0
 20
0
  9
$PLIMMAX
 10
420
 20
297
  9
$UNITMODE
 70
    0
  9
$VISRETAIN
 70
    1
  9
$PLINEGEN
 70
    0
  9
$PSLTSCALE
 70
    1
  9
$TREEDEPTH
 70
 3020
  9
$CMLSTYLE
  2
Standard
  9
$CMLJUST
 70
    0
  9
$CMLSCALE
 40
20
  9
$PROXYGRAPHICS
 70
    1
  9
$MEASUREMENT
 70
    1
  9
$CELWEIGHT
370
   -1
  9
$ENDCAPS
280
    0
  9
$JOINSTYLE
280
    0
  9
$LWDISPLAY
290
    0
  9
$INSUNITS
 70
    4
  9
$HYPERLINKBASE
  1

  9
$STYLESHEET
  1

  9
$XEDIT
290
    1
  9
$CEPSNTYPE
380
    0
  9
$PSTYLEMODE
290
    1
  9
$EXTNAMES
290
    1
  9
$PSVPSCALE
 40
1
  9
$OLESTARTUP
290
    0
  9
$SORTENTS
280
  127
  9
$INDEXCTL
280
    0
  9
$HIDETEXT
280
    1
  9
$XCLIPFRAME
290
    0
  9
$HALOGAP
280
    0
  9
$OBSCOLOR
 70
  257
  9
$OBSLTYPE
280
    0
  9
$INTERSECTIONDISPLAY
280
    0
  9
$INTERSECTIONCOLOR
 70
  257
  9
$DIMASSOC
280
    1
  9
$PROJECTNAME
  1

  9
$CAMERADISPLAY
290
    0
  9
$LENSLENGTH
 40
50
  9
$CAMERAHEIGHT
 40
0
  9
$STEPSPERSEC
 40
2
  9
$STEPSIZE
 40
50
  9
$3DDWFPREC
 40
2
  9
$PSOLWIDTH
 40
5
  9
$PSOLHEIGHT
 40
80
  9
$LOFTANG1
 40
1.570796326794897
  9
$LOFTANG2
 40
1.570796326794897
  9
$LOFTMAG1
 40
0
  9
$LOFTMAG2
 40
0
  9
$LOFTPARAM
 70
    7
  9
$LOFTNORMALS
280
    1
  9
$LATITUDE
 40
1
  9
$LONGITUDE
 40
1
  9
$NORTHDIRECTION
 40
0
  9
$TIMEZONE
 70
-8000
  9
$LIGHTGLYPHDISPLAY
280
    1
  9
$TILEMODELIGHTSYNCH
280
    1
  9
$SOLIDHIST
280
    1
  9
$SHOWHIST
280
    1
  9
$DWFFRAME
280
    2
  9
$DGNFRAME
280
    0
  9
$REALWORLDSCALE
290
    1
  9
$INTERFERECOLOR
 62
    1
  9
$CSHADOW
280
    0
  9
$SHADOWPLANELOCATION
 40
0
  0
ENDSEC
  0
SECTION
  2
CLASSES
  0
ENDSEC
  0
SECTION
  2
TABLES
  0
TABLE
  2
VPORT
  5
8
330
0
100
AcDbSymbolTable
 70
    1
  0
VPORT
  5
31
330
2
100
AcDbSymbolTableRecord
100
AcDbViewportTableRecord
  2
*ACTIVE
 70
    0
 10
0
 20
0
 11
1
 21
1
 12
-8.958566954578947
 22
-170.212772137
 13
0
 23
0
 14
10
 24
10
 15
10
 25
10
 16
0
 26
0
 36
1
 17
0
 27
0
 37
0
 40
69.10894507818044
 41
2
 42
50
 43
0
 44
0
 50
0
 51
0
 71
    0
 72
  100
 73
    1
 74
    3
 75
    0
 76
    1
 77
    0
 78
    0
281
    0
 65
    1
110
0
120
0
130
0
111
1
121
0
131
0
112
0
122
1
132
0
 79
    0
146
0
348
10020
 60
    7
 61
    5
292
1
282
    1
141
0
142
0
 63
  250
421
3358443
  0
ENDTAB
  0
TABLE
  2
LTYPE
  5
5
330
0
100
AcDbSymbolTable
 70
    4
  0
LTYPE
  5
14
330
5
100
AcDbSymbolTableRecord
100
AcDbLinetypeTableRecord
  2
ByBlock
 70
    0
  3

 72
   65
 73
    0
 40
0
  0
LTYPE
  5
15
330
5
100
AcDbSymbolTableRecord
100
AcDbLinetypeTableRecord
  2
ByLayer
 70
    0
  3

 72
   65
 73
    0
 40
0
  0
LTYPE
  5
16
330
5
100
AcDbSymbolTableRecord
100
AcDbLinetypeTableRecord
  2
Continuous
 70
    0
  3
Solid line
 72
   65
 73
    0
 40
0
  0
LTYPE
  5
32
330
5
100
AcDbSymbolTableRecord
100
AcDbLinetypeTableRecord
  2
DOT
 70
    0
  3
Dot . . . . . . . . . . . . . . . . . . . . . .
 72
   65
 73
    2
 40
6.35
 49
0
 74
    0
 49
-6.35
 74
    0
  0
LTYPE
  5
33
330
5
100
AcDbSymbolTableRecord
100
AcDbLinetypeTableRecord
  2
DOTTINY
 70
    0
  3
Dot (.15x) .....................................
 72
   65
 73
    2
 40
0.9525
 49
0
 74
    0
 49
-0.9525
 74
    0
  0
LTYPE
  5
34
330
5
100
AcDbSymbolTableRecord
100
AcDbLinetypeTableRecord
  2
DOT2
 70
    0
  3
Dot (.5x) .....................................
 72
   65
 73
    2
 40
3.175
 49
0
 74
    0
 49
-3.175
 74
    0
  0
LTYPE
  5
35
330
5
100
AcDbSymbolTableRecord
100
AcDbLinetypeTableRecord
  2
DOTX2
 70
    0
  3
Dot (2x) .  .  .  .  .  .  .  .  .  .  .  .  .
 72
   65
 73
    2
 40
12.7
 49
0
 74
    0
 49
-12.7
 74
    0
  0
LTYPE
  5
36
330
5
100
AcDbSymbolTableRecord
100
AcDbLinetypeTableRecord
  2
DASHED
 70
    0
  3
Dashed _ _ _ _ _ _ _ _ _ _ _ _ _ _ _ _ _
 72
   65
 73
    2
 40
19.05
 49
12.7
 74
    0
 49
-6.35
 74
    0
  0
LTYPE
  5
37
330
5
100
AcDbSymbolTableRecord
100
AcDbLinetypeTableRecord
  2
DASHEDTINY
 70
    0
  3
Dashed (.15x) _ _ _ _ _ _ _ _ _ _ _ _ _ _ _ _ _
 72
   65
 73
    2
 40
2.8575
 49
1.905
 74
    0
 49
-0.9525
 74
    0
  0
LTYPE
  5
38
330
5
100
AcDbSymbolTableRecord
100
AcDbLinetypeTableRecord
  2
DASHED2
 70
    0
  3
Dashed (.5x) _ _ _ _ _ _ _ _ _ _ _ _ _ _ _ _ _
 72
   65
 73
    2
 40
9.524999999999999
 49
6.35
 74
    0
 49
-3.175
 74
    0
  0
LTYPE
  5
39
330
5
100
AcDbSymbolTableRecord
100
AcDbLinetypeTableRecord
  2
DASHEDX2
 70
    0
  3
Dashed (2x) ____  ____  ____  ____  ____  ___
 72
   65
 73
    2
 40
38.09999999999999
 49
25.4
 74
    0
 49
-12.7
 74
    0
  0
LTYPE
  5
3A
330
5
100
AcDbSymbolTableRecord
100
AcDbLinetypeTableRecord
  2
DASHDOT
 70
    0
  3
Dash dot __ . __ . __ . __ . __ . __ . __ . __
 72
   65
 73
    4
 40
25.4
 49
12.7
 74
    0
 49
-6.35
 74
    0
 49
0
 74
    0
 49
-6.35
 74
    0
  0
LTYPE
  5
3B
330
5
100
AcDbSymbolTableRecord
100
AcDbLinetypeTableRecord
  2
DASHDOTTINY
 70
    0
  3
Dash dot (.15x) _._._._._._._._._._._._._._._.
 72
   65
 73
    4
 40
3.81
 49
1.905
 74
    0
 49
-0.9525
 74
    0
 49
0
 74
    0
 49
-0.9525
 74
    0
  0
LTYPE
  5
3C
330
5
100
AcDbSymbolTableRecord
100
AcDbLinetypeTableRecord
  2
DASHDOT2
 70
    0
  3
Dash dot (.5x) _._._._._._._._._._._._._._._.
 72
   65
 73
    4
 40
12.7
 49
6.35
 74
    0
 49
-3.175
 74
    0
 49
0
 74
    0
 49
-3.175
 74
    0
  0
LTYPE
  5
3D
330
5
100
AcDbSymbolTableRecord
100
AcDbLinetypeTableRecord
  2
DASHDOTX2
 70
    0
  3
Dash dot (2x) ____  .  ____  .  ____  .  ___
 72
   65
 73
    4
 40
50.8
 49
25.4
 74
    0
 49
-12.7
 74
    0
 49
0
 74
    0
 49
-12.7
 74
    0
  0
LTYPE
  5
3E
330
5
100
AcDbSymbolTableRecord
100
AcDbLinetypeTableRecord
  2
DIVIDE
 70
    0
  3
Divide ____ . . ____ . . ____ . . ____ . . ____
 72
   65
 73
    6
 40
31.75
 49
12.7
 74
    0
 49
-6.35
 74
    0
 49
0
 74
    0
 49
-6.35
 74
    0
 49
0
 74
    0
 49
-6.35
 74
    0
  0
LTYPE
  5
3F
330
5
100
AcDbSymbolTableRecord
100
AcDbLinetypeTableRecord
  2
DIVIDETINY
 70
    0
  3
Divide (.15x) __..__..__..__..__..__..__..__.._
 72
   65
 73
    6
 40
4.7625
 49
1.905
 74
    0
 49
-0.9525
 74
    0
 49
0
 74
    0
 49
-0.9525
 74
    0
 49
0
 74
    0
 49
-0.9525
 74
    0
  0
LTYPE
  5
40
330
5
100
AcDbSymbolTableRecord
100
AcDbLinetypeTableRecord
  2
DIVIDE2
 70
    0
  3
Divide (.5x) __..__..__..__..__..__..__..__.._
 72
   65
 73
    6
 40
15.875
 49
6.35
 74
    0
 49
-3.175
 74
    0
 49
0
 74
    0
 49
-3.175
 74
    0
 49
0
 74
    0
 49
-3.175
 74
    0
  0
LTYPE
  5
41
330
5
100
AcDbSymbolTableRecord
100
AcDbLinetypeTableRecord
  2
DIVIDEX2
 70
    0
  3
Divide (2x) ________  .  .  ________  .  .  _
 72
   65
 73
    6
 40
63.5
 49
25.4
 74
    0
 49
-12.7
 74
    0
 49
0
 74
    0
 49
-12.7
 74
    0
 49
0
 74
    0
 49
-12.7
 74
    0
  0
LTYPE
  5
42
330
5
100
AcDbSymbolTableRecord
100
AcDbLinetypeTableRecord
  2
BORDER
 70
    0
  3
Border __ __ . __ __ . __ __ . __ __ . __ __ .
 72
   65
 73
    6
 40
44.45
 49
12.7
 74
    0
 49
-6.35
 74
    0
 49
12.7
 74
    0
 49
-6.35
 74
    0
 49
0
 74
    0
 49
-6.35
 74
    0
  0
LTYPE
  5
43
330
5
100
AcDbSymbolTableRecord
100
AcDbLinetypeTableRecord
  2
BORDERTINY
 70
    0
  3
Border (.15x) __.__.__.__.__.__.__.__.__.__.__.
 72
   65
 73
    6
 40
6.6675
 49
1.905
 74
    0
 49
-0.9525
 74
    0
 49
1.905
 74
    0
 49
-0.9525
 74
    0
 49
0
 74
    0
 49
-0.9525
 74
    0
  0
LTYPE
  5
44
330
5
100
AcDbSymbolTableRecord
100
AcDbLinetypeTableRecord
  2
BORDER2
 70
    0
  3
Border (.5x) __.__.__.__.__.__.__.__.__.__.__.
 72
   65
 73
    6
 40
22.225
 49
6.35
 74
    0
 49
-3.175
 74
    0
 49
6.35
 74
    0
 49
-3.175
 74
    0
 49
0
 74
    0
 49
-3.175
 74
    0
  0
LTYPE
  5
45
330
5
100
AcDbSymbolTableRecord
100
AcDbLinetypeTableRecord
  2
BORDERX2
 70
    0
  3
Border (2x) ____  ____  .  ____  ____  .  ___
 72
   65
 73
    6
 40
88.89999999999999
 49
25.4
 74
    0
 49
-12.7
 74
    0
 49
25.4
 74
    0
 49
-12.7
 74
    0
 49
0
 74
    0
 49
-12.7
 74
    0
  0
LTYPE
  5
46
330
5
100
AcDbSymbolTableRecord
100
AcDbLinetypeTableRecord
  2
CENTER
 70
    0
  3
Center ____ _ ____ _ ____ _ ____ _ ____ _ ____
 72
   65
 73
    4
 40
50.8
 49
31.75
 74
    0
 49
-6.35
 74
    0
 49
6.35
 74
    0
 49
-6.35
 74
    0
  0
LTYPE
  5
47
330
5
100
AcDbSymbolTableRecord
100
AcDbLinetypeTableRecord
  2
CENTERTINY
 70
    0
  3
Center (.15x) ___ _ ___ _ ___ _ ___ _ ___ _ ___
 72
   65
 73
    4
 40
7.619999999999999
 49
4.7625
 74
    0
 49
-0.9525
 74
    0
 49
0.9525
 74
    0
 49
-0.9525
 74
    0
  0
LTYPE
  5
48
330
5
100
AcDbSymbolTableRecord
100
AcDbLinetypeTableRecord
  2
CENTER2
 70
    0
  3
Center (.5x) ___ _ ___ _ ___ _ ___ _ ___ _ ___
 72
   65
 73
    4
 40
28.575
 49
19.05
 74
    0
 49
-3.175
 74
    0
 49
3.175
 74
    0
 49
-3.175
 74
    0
  0
LTYPE
  5
49
330
5
100
AcDbSymbolTableRecord
100
AcDbLinetypeTableRecord
  2
CENTERX2
 70
    0
  3
Center (2x) ________  __  ________  __  _____
 72
   65
 73
    4
 40
101.6
 49
63.5
 74
    0
 49
-12.7
 74
    0
 49
12.7
 74
    0
 49
-12.7
 74
    0
  0
ENDTAB
  0
TABLE
  2
LAYER
  5
2
330
0
100
AcDbSymbolTable
 70
    1
  0
LAYER
  5
10
330
2
100
AcDbSymbolTableRecord
100
AcDbLayerTableRecord
  2
0
 70
    0
 62
    7
  6
CONTINUOUS
370
    0
390
F
  0
LAYER
  5
4A
330
2
100
AcDbSymbolTableRecord
100
AcDbLayerTableRecord
  2
BananaPro_ETHERNET
 70
    1
 62
    7
  6
CONTINUOUS
370
   35
390
F
  0
LAYER
  5
4B
330
2
100
AcDbSymbolTableRecord
100
AcDbLayerTableRecord
  2
BananaPro_GPIO
 70
    1
 62
    7
  6
CONTINUOUS
370
   35
390
F
  0
LAYER
  5
4C
330
2
100
AcDbSymbolTableRecord
100
AcDbLayerTableRecord
  2
BananaPro_USB
 70
    1
 62
    7
  6
CONTINUOUS
370
   35
390
F
  0
LAYER
  5
4D
330
2
100
AcDbSymbolTableRecord
100
AcDbLayerTableRecord
  2
BananaPro_anotation
 70
    1
 62
    7
  6
CONTINUOUS
370
   13
390
F
  0
LAYER
  5
4E
330
2
100
AcDbSymbolTableRecord
100
AcDbLayerTableRecord
  2
BananaPro_construction
 70
    1
 62
    5
  6
CONTINUOUS
370
    0
390
F
  0
LAYER
  5
4F
330
2
100
AcDbSymbolTableRecord
100
AcDbLayerTableRecord
  2
BananaPro_dimension
 70
    1
 62
    7
  6
CONTINUOUS
370
   13
390
F
  0
LAYER
  5
50
330
2
100
AcDbSymbolTableRecord
100
AcDbLayerTableRecord
  2
BananaPro_outlines
 70
    1
 62
    7
  6
CONTINUOUS
370
   50
390
F
  0
LAYER
  5
51
330
2
100
AcDbSymbolTableRecord
100
AcDbLayerTableRecord
  2
Deckelplatine_annotation
 70
    1
 62
    7
  6
CONTINUOUS
370
   13
390
F
  0
LAYER
  5
52
330
2
100
AcDbSymbolTableRecord
100
AcDbLayerTableRecord
  2
Deckelplatine_conector BananaPro
 70
    1
 62
    7
  6
CONTINUOUS
370
   35
390
F
  0
LAYER
  5
53
330
2
100
AcDbSymbolTableRecord
100
AcDbLayerTableRecord
  2
Deckelplatine_connector Bodenplatine
 70
    1
 62
    7
  6
CONTINUOUS
370
   35
390
F
  0
LAYER
  5
54
330
2
100
AcDbSymbolTableRecord
100
AcDbLayerTableRecord
  2
Deckelplatine_dimension
 70
    1
 62
    7
  6
CONTINUOUS
370
   13
390
F
  0
LAYER
  5
55
330
2
100
AcDbSymbolTableRecord
100
AcDbLayerTableRecord
  2
Deckelplatine_outlines
 70
    1
 62
    7
  6
CONTINUOUS
370
   50
390
F
  0
LAYER
  5
56
330
2
100
AcDbSymbolTableRecord
100
AcDbLayerTableRecord
  2
Infobox A3
 70
    0
 62
    7
  6
CONTINUOUS
370
    0
390
F
  0
LAYER
  5
57
330
2
100
AcDbSymbolTableRecord
100
AcDbLayerTableRecord
  2
Infobox A3 landscape
 70
    1
 62
    7
  6
CONTINUOUS
370
    0
390
F
  0
LAYER
  5
58
330
2
100
AcDbSymbolTableRecord
100
AcDbLayerTableRecord
  2
Infobox construction
 70
    1
 62
    5
  6
CONTINUOUS
370
    0
390
F
  0
LAYER
  5
59
330
2
100
AcDbSymbolTableRecord
100
AcDbLayerTableRecord
  2
annotation
 70
    1
 62
    7
  6
CONTINUOUS
370
   13
390
F
  0
LAYER
  5
5A
330
2
100
AcDbSymbolTableRecord
100
AcDbLayerTableRecord
  2
construction
 70
    1
 62
    5
  6
CONTINUOUS
370
    0
390
F
  0
LAYER
  5
5B
330
2
100
AcDbSymbolTableRecord
100
AcDbLayerTableRecord
  2
cut TFT
 70
    0
 62
    7
  6
DASHEDTINY
370
   13
390
F
  0
LAYER
  5
5C
330
2
100
AcDbSymbolTableRecord
100
AcDbLayerTableRecord
  2
cut cable Frontfolie
 70
    1
 62
    7
  6
DASHEDTINY
370
   13
390
F
  0
LAYER
  5
5D
330
2
100
AcDbSymbolTableRecord
100
AcDbLayerTableRecord
  2
dimension
 70
    0
 62
    7
  6
CONTINUOUS
370
   13
390
F
  0
LAYER
  5
5E
330
2
100
AcDbSymbolTableRecord
100
AcDbLayerTableRecord
  2
outlines
 70
    0
 62
    7
  6
CONTINUOUS
370
   50
390
F
  0
LAYER
  5
5F
330
2
100
AcDbSymbolTableRecord
100
AcDbLayerTableRecord
  2
sockets
 70
    0
 62
    7
  6
CONTINUOUS
370
   50
390
F
  0
LAYER
  5
60
330
2
100
AcDbSymbolTableRecord
100
AcDbLayerTableRecord
  2
sockets detail
 70
    0
 62
    7
  6
CONTINUOUS
370
   50
390
F
  0
ENDTAB
  0
TABLE
  2
STYLE
  5
3
330
0
100
AcDbSymbolTable
 70
    3
  0
STYLE
  5
61
330
2
100
AcDbSymbolTableRecord
100
AcDbTextStyleTableRecord
  2
standard
 70
    0
 40
0
 41
1
 50
0
 71
    0
 42
1
  3
standard
  4

  0
ENDTAB
  0
TABLE
  2
VIEW
  5
6
330
0
100
AcDbSymbolTable
 70
    0
  0
ENDTAB
  0
TABLE
  2
UCS
  5
7
330
0
100
AcDbSymbolTable
 70
    0
  0
ENDTAB
  0
TABLE
  2
APPID
  5
9
330
0
100
AcDbSymbolTable
 70
    1
  0
APPID
  5
12
330
9
100
AcDbSymbolTableRecord
100
AcDbRegAppTableRecord
  2
ACAD
 70
    0
  0
APPID
  5
62
330
9
100
AcDbSymbolTableRecord
100
AcDbRegAppTableRecord
  2
LibreCad
 70
    0
  0
ENDTAB
  0
TABLE
  2
DIMSTYLE
  5
A
330
0
100
AcDbSymbolTable
 70
    1
100
AcDbDimStyleTable
 71
    1
  0
DIMSTYLE
105
63
330
A
100
AcDbSymbolTableRecord
100
AcDbDimStyleTableRecord
  2
Standard
 70
    0
 40
1
 41
2.5
 42
0.625
 43
0.38
 44
1.25
 45
0
 46
0
 47
0
 48
0
 49
1
140
2.5
141
0.09
142
0
143
25.4
144
1
145
0
146
1
147
0.625
148
0
 71
    0
 72
    0
 73
    0
 74
    1
 75
    0
 76
    0
 77
    0
 78
    8
 79
    0
170
    0
171
    2
172
    0
173
    0
174
    0
175
    0
176
    0
177
    0
178
    0
179
    0
271
    2
272
    4
273
    2
274
    2
275
    0
276
    0
277
    2
278
   44
279
    0
280
    0
281
    0
282
    0
283
    1
284
    0
285
    0
286
    0
288
    0
289
    3
340
standard
341

371
   -2
372
   -2
  0
ENDTAB
  0
TABLE
  2
BLOCK_RECORD
  5
1
330
0
100
AcDbSymbolTable
 70
    2
  0
BLOCK_RECORD
  5
1F
330
1
100
AcDbSymbolTableRecord
100
AcDbBlockTableRecord
  2
*Model_Space
 70
    0
280
    1
281
    0
  0
BLOCK_RECORD
  5
1E
330
1
100
AcDbSymbolTableRecord
100
AcDbBlockTableRecord
  2
*Paper_Space
 70
    0
280
    1
281
    0
  0
BLOCK_RECORD
  5
64
330
1
100
AcDbSymbolTableRecord
100
AcDbBlockTableRecord
  2
*D8
 70
    0
280
    1
281
    0
  0
BLOCK_RECORD
  5
67
330
1
100
AcDbSymbolTableRecord
100
AcDbBlockTableRecord
  2
*D18
 70
    0
280
    1
281
    0
  0
BLOCK_RECORD
  5
6A
330
1
100
AcDbSymbolTableRecord
100
AcDbBlockTableRecord
  2
*D20
 70
    0
280
    1
281
    0
  0
BLOCK_RECORD
  5
6D
330
1
100
AcDbSymbolTableRecord
100
AcDbBlockTableRecord
  2
*D11
 70
    0
280
    1
281
    0
  0
BLOCK_RECORD
  5
70
330
1
100
AcDbSymbolTableRecord
100
AcDbBlockTableRecord
  2
*D9
 70
    0
280
    1
281
    0
  0
BLOCK_RECORD
  5
73
330
1
100
AcDbSymbolTableRecord
100
AcDbBlockTableRecord
  2
*D1
 70
    0
280
    1
281
    0
  0
BLOCK_RECORD
  5
76
330
1
100
AcDbSymbolTableRecord
100
AcDbBlockTableRecord
  2
*D15
 70
    0
280
    1
281
    0
  0
BLOCK_RECORD
  5
79
330
1
100
AcDbSymbolTableRecord
100
AcDbBlockTableRecord
  2
*D4
 70
    0
280
    1
281
    0
  0
BLOCK_RECORD
  5
7C
330
1
100
AcDbSymbolTableRecord
100
AcDbBlockTableRecord
  2
*D12
 70
    0
280
    1
281
    0
  0
BLOCK_RECORD
  5
7F
330
1
100
AcDbSymbolTableRecord
100
AcDbBlockTableRecord
  2
*D16
 70
    0
280
    1
281
    0
  0
BLOCK_RECORD
  5
82
330
1
100
AcDbSymbolTableRecord
100
AcDbBlockTableRecord
  2
*D21
 70
    0
280
    1
281
    0
  0
BLOCK_RECORD
  5
85
330
1
100
AcDbSymbolTableRecord
100
AcDbBlockTableRecord
  2
*D7
 70
    0
280
    1
281
    0
  0
BLOCK_RECORD
  5
88
330
1
100
AcDbSymbolTableRecord
100
AcDbBlockTableRecord
  2
*D22
 70
    0
280
    1
281
    0
  0
BLOCK_RECORD
  5
8B
330
1
100
AcDbSymbolTableRecord
100
AcDbBlockTableRecord
  2
*D13
 70
    0
280
    1
281
    0
  0
BLOCK_RECORD
  5
8E
330
1
100
AcDbSymbolTableRecord
100
AcDbBlockTableRecord
  2
*D14
 70
    0
280
    1
281
    0
  0
BLOCK_RECORD
  5
91
330
1
100
AcDbSymbolTableRecord
100
AcDbBlockTableRecord
  2
*D19
 70
    0
280
    1
281
    0
  0
BLOCK_RECORD
  5
94
330
1
100
AcDbSymbolTableRecord
100
AcDbBlockTableRecord
  2
*D6
 70
    0
280
    1
281
    0
  0
BLOCK_RECORD
  5
97
330
1
100
AcDbSymbolTableRecord
100
AcDbBlockTableRecord
  2
*D3
 70
    0
280
    1
281
    0
  0
BLOCK_RECORD
  5
9A
330
1
100
AcDbSymbolTableRecord
100
AcDbBlockTableRecord
  2
*D23
 70
    0
280
    1
281
    0
  0
BLOCK_RECORD
  5
9D
330
1
100
AcDbSymbolTableRecord
100
AcDbBlockTableRecord
  2
*D5
 70
    0
280
    1
281
    0
  0
BLOCK_RECORD
  5
A0
330
1
100
AcDbSymbolTableRecord
100
AcDbBlockTableRecord
  2
*D17
 70
    0
280
    1
281
    0
  0
BLOCK_RECORD
  5
A3
330
1
100
AcDbSymbolTableRecord
100
AcDbBlockTableRecord
  2
*D2
 70
    0
280
    1
281
    0
  0
BLOCK_RECORD
  5
A6
330
1
100
AcDbSymbolTableRecord
100
AcDbBlockTableRecord
  2
*D10
 70
    0
280
    1
281
    0
  0
BLOCK_RECORD
  5
A9
330
1
100
AcDbSymbolTableRecord
100
AcDbBlockTableRecord
  2
Infobox-3
 70
    0
280
    1
281
    0
  0
BLOCK_RECORD
  5
AC
330
1
100
AcDbSymbolTableRecord
100
AcDbBlockTableRecord
  2
BananaPro
 70
    0
280
    1
281
    0
  0
BLOCK_RECORD
  5
AF
330
1
100
AcDbSymbolTableRecord
100
AcDbBlockTableRecord
  2
xMZ-Mod-Touch-Deckelplatine
 70
    0
280
    1
281
    0
  0
BLOCK_RECORD
  5
B2
330
1
100
AcDbSymbolTableRecord
100
AcDbBlockTableRecord
  2
Deckelplatine mit BananaPro
 70
    0
280
    1
281
    0
  0
ENDTAB
  0
ENDSEC
  0
SECTION
  2
BLOCKS
  0
BLOCK
  5
20
330
1F
100
AcDbEntity
  8
0
100
AcDbBlockBegin
  2
*Model_Space
 70
    0
 10
0
 20
0
 30
0
  3
*Model_Space
  1

  0
ENDBLK
  5
21
330
1F
100
AcDbEntity
  8
0
100
AcDbBlockEnd
  0
BLOCK
  5
1C
330
1B
100
AcDbEntity
  8
0
100
AcDbBlockBegin
  2
*Paper_Space
 70
    0
 10
0
 20
0
 30
0
  3
*Paper_Space
  1

  0
ENDBLK
  5
1D
330
1F
100
AcDbEntity
  8
0
100
AcDbBlockEnd
  0
BLOCK
  5
65
330
64
100
AcDbEntity
  8
0
100
AcDbBlockBegin
  2
*D8
 70
    1
 10
0
 20
0
  3
*D8
  1

  0
LINE
  5
B5
100
AcDbEntity
  8
annotation
  6
CONTINUOUS
 62
    7
370
    0
100
AcDbLine
 10
229.6199999999997
 20
110.399999999997
 11
240
 21
125
  0
LINE
  5
B6
100
AcDbEntity
  8
annotation
  6
CONTINUOUS
 62
    7
370
    0
100
AcDbLine
 10
240
 20
125
 11
267
 21
125
  0
SOLID
  5
B7
100
AcDbEntity
  8
annotation
  6
CONTINUOUS
 62
    7
370
    0
100
AcDbTrace
 10
229.6199999999997
 20
110.399999999997
 30
0
 11
230.7293257012159
 21
112.6787473323966
 31
0
 12
231.4078812726521
 22
112.196322206951
 32
0
 13
231.4078812726521
 23
112.196322206951
 33
0
  0
ENDBLK
  5
66
330
64
100
AcDbEntity
  8
0
100
AcDbBlockEnd
  0
BLOCK
  5
68
330
67
100
AcDbEntity
  8
0
100
AcDbBlockBegin
  2
*D18
 70
    1
 10
0
 20
0
  3
*D18
  1

  0
LINE
  5
B8
100
AcDbEntity
  8
dimension
  6
ByBlock
 62
    0
370
   -2
100
AcDbLine
 10
200.069959183677
 20
112.8099961853021
 11
200.069959183677
 21
58.80999999999945
  0
SOLID
  5
B9
100
AcDbEntity
  8
dimension
  6
ByBlock
 62
    0
370
   -2
100
AcDbTrace
 10
200.069959183677
 20
112.8099961853021
 30
0
 11
200.4862438414499
 21
110.3099961853021
 31
0
 12
199.6536745259042
 22
110.3099961853021
 32
0
 13
199.6536745259042
 23
110.3099961853021
 33
0
  0
SOLID
  5
BA
100
AcDbEntity
  8
dimension
  6
ByBlock
 62
    0
370
   -2
100
AcDbTrace
 10
200.069959183677
 20
58.80999999999945
 30
0
 11
199.6536745259042
 21
61.30999999999945
 31
0
 12
200.4862438414499
 22
61.30999999999945
 32
0
 13
200.4862438414499
 23
61.30999999999945
 33
0
  0
MTEXT
  5
BB
100
AcDbEntity
  8
dimension
  6
CONTINUOUS
 62
    0
370
   -2
100
AcDbMText
 10
198.194959183677
 20
85.80999809265077
 30
0
 40
2.5
 41
3.333333333333488
 71
    5
 72
    1
  1
54
  7
standard
210
0
220
0
230
1
 50
90
 73
    2
 44
1
  0
LINE
  5
BC
100
AcDbEntity
  8
dimension
  6
ByBlock
 62
    0
370
   -2
100
AcDbLine
 10
206.1849999999999
 20
112.8099961853021
 11
198.819959183677
 21
112.8099961853021
  0
LINE
  5
BD
100
AcDbEntity
  8
dimension
  6
ByBlock
 62
    0
370
   -2
100
AcDbLine
 10
206.1849999999975
 20
58.80999999999945
 11
198.819959183677
 21
58.80999999999945
  0
ENDBLK
  5
69
330
67
100
AcDbEntity
  8
0
100
AcDbBlockEnd
  0
BLOCK
  5
6B
330
6A
100
AcDbEntity
  8
0
100
AcDbBlockBegin
  2
*D20
 70
    1
 10
0
 20
0
  3
*D20
  1

  0
LINE
  5
BE
100
AcDbEntity
  8
dimension
  6
ByBlock
 62
    0
370
   -2
100
AcDbLine
 10
209.8099961853027
 20
44.89359810662273
 11
295.3099999999998
 21
44.89359810662273
  0
SOLID
  5
BF
100
AcDbEntity
  8
dimension
  6
ByBlock
 62
    0
370
   -2
100
AcDbTrace
 10
209.8099961853027
 20
44.89359810662273
 30
0
 11
212.3099961853027
 21
45.30988276439557
 31
0
 12
212.3099961853027
 22
44.47731344884988
 32
0
 13
212.3099961853027
 23
44.47731344884988
 33
0
  0
SOLID
  5
C0
100
AcDbEntity
  8
dimension
  6
ByBlock
 62
    0
370
   -2
100
AcDbTrace
 10
295.3099999999998
 20
44.89359810662273
 30
0
 11
292.8099999999998
 21
44.47731344884988
 31
0
 12
292.8099999999998
 22
45.30988276439557
 32
0
 13
292.8099999999998
 23
45.30988276439557
 33
0
  0
MTEXT
  5
C1
100
AcDbEntity
  8
dimension
  6
CONTINUOUS
 62
    0
370
   -2
100
AcDbMText
 10
252.5599980926512
 20
46.76859810662273
 30
0
 40
2.5
 41
5.972222222222534
 71
    5
 72
    1
  1
85,5
  7
standard
210
0
220
0
230
1
 50
0
 73
    2
 44
1
  0
LINE
  5
C2
100
AcDbEntity
  8
dimension
  6
ByBlock
 62
    0
370
   -2
100
AcDbLine
 10
209.8099961853027
 20
55.1849999999994
 11
209.8099961853027
 21
43.64359810662273
  0
LINE
  5
C3
100
AcDbEntity
  8
dimension
  6
ByBlock
 62
    0
370
   -2
100
AcDbLine
 10
295.3099999999998
 20
60.18500000000665
 11
295.3099999999998
 21
43.64359810662273
  0
ENDBLK
  5
6C
330
6A
100
AcDbEntity
  8
0
100
AcDbBlockEnd
  0
BLOCK
  5
6E
330
6D
100
AcDbEntity
  8
0
100
AcDbBlockBegin
  2
*D11
 70
    1
 10
0
 20
0
  3
*D11
  1

  0
LINE
  5
C4
100
AcDbEntity
  8
annotation
  6
CONTINUOUS
 62
    7
370
    0
100
AcDbLine
 10
315
 20
39.07821193866643
 11
330
 21
50.69000000000055
  0
LINE
  5
C5
100
AcDbEntity
  8
annotation
  6
CONTINUOUS
 62
    7
370
    0
100
AcDbLine
 10
330
 20
50.69000000000055
 11
400
 21
50.69000000000055
  0
SOLID
  5
C6
100
AcDbEntity
  8
annotation
  6
CONTINUOUS
 62
    7
370
    0
100
AcDbTrace
 10
315
 20
39.07821193866643
 30
0
 11
316.7220574024937
 21
40.93773102133639
 31
0
 12
317.231703415652
 22
40.27937503369742
 32
0
 13
317.231703415652
 23
40.27937503369742
 33
0
  0
ENDBLK
  5
6F
330
6D
100
AcDbEntity
  8
0
100
AcDbBlockEnd
  0
BLOCK
  5
71
330
70
100
AcDbEntity
  8
0
100
AcDbBlockBegin
  2
*D9
 70
    1
 10
0
 20
0
  3
*D9
  1

  0
LINE
  5
C7
100
AcDbEntity
  8
annotation
  6
CONTINUOUS
 62
    7
370
    0
100
AcDbLine
 10
229.6199999999997
 20
211.9000000000043
 11
240
 21
221
  0
LINE
  5
C8
100
AcDbEntity
  8
annotation
  6
CONTINUOUS
 62
    7
370
    0
100
AcDbLine
 10
240
 20
221
 11
266
 21
221
  0
SOLID
  5
C9
100
AcDbEntity
  8
annotation
  6
CONTINUOUS
 62
    7
370
    0
100
AcDbTrace
 10
229.6199999999997
 20
211.9000000000043
 30
0
 11
231.2254460982309
 21
213.8610802487375
 31
0
 12
231.7742943719037
 22
213.2350313387675
 32
0
 13
231.7742943719037
 23
213.2350313387675
 33
0
  0
ENDBLK
  5
72
330
70
100
AcDbEntity
  8
0
100
AcDbBlockEnd
  0
BLOCK
  5
74
330
73
100
AcDbEntity
  8
0
100
AcDbBlockBegin
  2
*D1
 70
    1
 10
0
 20
0
  3
*D1
  1

  0
LINE
  5
CA
100
AcDbEntity
  8
dimension
  6
ByBlock
 62
    0
370
   -2
100
AcDbLine
 10
30
 20
10
 11
315
 21
10
  0
SOLID
  5
CB
100
AcDbEntity
  8
dimension
  6
ByBlock
 62
    0
370
   -2
100
AcDbTrace
 10
30
 20
10
 30
0
 11
32.5
 21
10.41628465777284
 31
0
 12
32.5
 22
9.583715342227158
 32
0
 13
32.5
 23
9.583715342227158
 33
0
  0
SOLID
  5
CC
100
AcDbEntity
  8
dimension
  6
ByBlock
 62
    0
370
   -2
100
AcDbTrace
 10
315
 20
10
 30
0
 11
312.5
 21
9.58371534222716
 31
0
 12
312.5
 22
10.41628465777284
 32
0
 13
312.5
 23
10.41628465777284
 33
0
  0
MTEXT
  5
CD
100
AcDbEntity
  8
dimension
  6
CONTINUOUS
 62
    0
370
   -2
100
AcDbMText
 10
172.5
 20
11.875
 30
0
 40
2.5
 41
5.000000000000156
 71
    5
 72
    1
  1
285
  7
standard
210
0
220
0
230
1
 50
0
 73
    2
 44
1
  0
LINE
  5
CE
100
AcDbEntity
  8
dimension
  6
ByBlock
 62
    0
370
   -2
100
AcDbLine
 10
30
 20
33.16603008523194
 11
30
 21
8.75
  0
LINE
  5
CF
100
AcDbEntity
  8
dimension
  6
ByBlock
 62
    0
370
   -2
100
AcDbLine
 10
315
 20
33.16603008523199
 11
315
 21
8.75
  0
ENDBLK
  5
75
330
73
100
AcDbEntity
  8
0
100
AcDbBlockEnd
  0
BLOCK
  5
77
330
76
100
AcDbEntity
  8
0
100
AcDbBlockBegin
  2
*D15
 70
    1
 10
0
 20
0
  3
*D15
  1

  0
LINE
  5
D0
100
AcDbEntity
  8
dimension
  6
ByBlock
 62
    0
370
   -2
100
AcDbLine
 10
405.0000000000118
 20
128.4536586374301
 11
405.0000000000118
 21
107.4536586374301
  0
SOLID
  5
D1
100
AcDbEntity
  8
dimension
  6
ByBlock
 62
    0
370
   -2
100
AcDbTrace
 10
405.0000000000118
 20
128.4536586374301
 30
0
 11
405.4162846577847
 21
125.9536586374301
 31
0
 12
404.583715342239
 22
125.9536586374301
 32
0
 13
404.583715342239
 23
125.9536586374301
 33
0
  0
SOLID
  5
D2
100
AcDbEntity
  8
dimension
  6
ByBlock
 62
    0
370
   -2
100
AcDbTrace
 10
405.0000000000118
 20
107.4536586374301
 30
0
 11
404.583715342239
 21
109.9536586374301
 31
0
 12
405.4162846577847
 22
109.9536586374301
 32
0
 13
405.4162846577847
 23
109.9536586374301
 33
0
  0
MTEXT
  5
D3
100
AcDbEntity
  8
dimension
  6
CONTINUOUS
 62
    0
370
   -2
100
AcDbMText
 10
403.1250000000118
 20
117.9536586374301
 30
0
 40
2.5
 41
2.5
 71
    5
 72
    1
  1
21
  7
standard
210
0
220
0
230
1
 50
90
 73
    2
 44
1
  0
LINE
  5
D4
100
AcDbEntity
  8
dimension
  6
ByBlock
 62
    0
370
   -2
100
AcDbLine
 10
398.6250000000117
 20
128.4536586374301
 11
406.2500000000118
 21
128.4536586374301
  0
LINE
  5
D5
100
AcDbEntity
  8
dimension
  6
ByBlock
 62
    0
370
   -2
100
AcDbLine
 10
398.6250000000117
 20
107.4536586374301
 11
406.2500000000118
 21
107.4536586374301
  0
ENDBLK
  5
78
330
76
100
AcDbEntity
  8
0
100
AcDbBlockEnd
  0
BLOCK
  5
7A
330
79
100
AcDbEntity
  8
0
100
AcDbBlockBegin
  2
*D4
 70
    1
 10
0
 20
0
  3
*D4
  1

  0
LINE
  5
D6
100
AcDbEntity
  8
annotation
  6
CONTINUOUS
 62
    7
370
    0
100
AcDbLine
 10
295.3099999999998
 20
60.81000000000665
 11
290
 21
50
  0
LINE
  5
D7
100
AcDbEntity
  8
annotation
  6
CONTINUOUS
 62
    7
370
    0
100
AcDbLine
 10
290
 20
50
 11
260
 21
50
  0
SOLID
  5
D8
100
AcDbEntity
  8
annotation
  6
CONTINUOUS
 62
    7
370
    0
100
AcDbTrace
 10
295.3099999999998
 20
60.81000000000665
 30
0
 11
294.5814101338418
 21
58.38256313713482
 31
0
 12
293.8341291432664
 22
58.74963640817582
 32
0
 13
293.8341291432664
 23
58.74963640817582
 33
0
  0
ENDBLK
  5
7B
330
79
100
AcDbEntity
  8
0
100
AcDbBlockEnd
  0
BLOCK
  5
7D
330
7C
100
AcDbEntity
  8
0
100
AcDbBlockBegin
  2
*D12
 70
    1
 10
0
 20
0
  3
*D12
  1

  0
LINE
  5
D9
100
AcDbEntity
  8
dimension
  6
ByBlock
 62
    0
370
   -2
100
AcDbLine
 10
365.0000000000118
 20
146.4000000000214
 11
365.0000000000118
 21
130.400000000002
  0
SOLID
  5
DA
100
AcDbEntity
  8
dimension
  6
ByBlock
 62
    0
370
   -2
100
AcDbTrace
 10
365.0000000000118
 20
141.4000000000214
 30
0
 11
364.583715342239
 21
143.9000000000214
 31
0
 12
365.4162846577847
 22
143.9000000000214
 32
0
 13
365.4162846577847
 23
143.9000000000214
 33
0
  0
SOLID
  5
DB
100
AcDbEntity
  8
dimension
  6
ByBlock
 62
    0
370
   -2
100
AcDbTrace
 10
365.0000000000118
 20
135.400000000002
 30
0
 11
365.4162846577847
 21
132.900000000002
 31
0
 12
364.583715342239
 22
132.900000000002
 32
0
 13
364.583715342239
 23
132.900000000002
 33
0
  0
MTEXT
  5
DC
100
AcDbEntity
  8
dimension
  6
CONTINUOUS
 62
    0
370
   -2
100
AcDbMText
 10
363.1250000000118
 20
138.4000000000117
 30
0
 40
2.5
 41
1.111111111111266
 71
    5
 72
    1
  1
6
  7
standard
210
0
220
0
230
1
 50
90
 73
    2
 44
1
  0
LINE
  5
DD
100
AcDbEntity
  8
dimension
  6
ByBlock
 62
    0
370
   -2
100
AcDbLine
 10
355.6250000000001
 20
141.4000000000214
 11
366.2500000000118
 21
141.4000000000214
  0
LINE
  5
DE
100
AcDbEntity
  8
dimension
  6
ByBlock
 62
    0
370
   -2
100
AcDbLine
 10
355.6250000000001
 20
135.400000000002
 11
366.2500000000118
 21
135.400000000002
  0
ENDBLK
  5
7E
330
7C
100
AcDbEntity
  8
0
100
AcDbBlockEnd
  0
BLOCK
  5
80
330
7F
100
AcDbEntity
  8
0
100
AcDbBlockBegin
  2
*D16
 70
    1
 10
0
 20
0
  3
*D16
  1

  0
LINE
  5
DF
100
AcDbEntity
  8
dimension
  6
ByBlock
 62
    0
370
   -2
100
AcDbLine
 10
308.8421293817086
 20
107.3999999999994
 11
308.8421293817086
 21
209
  0
SOLID
  5
E0
100
AcDbEntity
  8
dimension
  6
ByBlock
 62
    0
370
   -2
100
AcDbTrace
 10
308.8421293817086
 20
107.3999999999994
 30
0
 11
308.4258447239358
 21
109.8999999999994
 31
0
 12
309.2584140394815
 22
109.8999999999994
 32
0
 13
309.2584140394815
 23
109.8999999999994
 33
0
  0
SOLID
  5
E1
100
AcDbEntity
  8
dimension
  6
ByBlock
 62
    0
370
   -2
100
AcDbTrace
 10
308.8421293817086
 20
209
 30
0
 11
309.2584140394815
 21
206.5
 31
0
 12
308.4258447239358
 22
206.5
 32
0
 13
308.4258447239358
 23
206.5
 33
0
  0
MTEXT
  5
E2
100
AcDbEntity
  8
dimension
  6
CONTINUOUS
 62
    0
370
   -2
100
AcDbMText
 10
306.9671293817086
 20
158.1999999999997
 30
0
 40
2.5
 41
6.80555555555571
 71
    5
 72
    1
  1
101,6
  7
standard
210
0
220
0
230
1
 50
90
 73
    2
 44
1
  0
LINE
  5
E3
100
AcDbEntity
  8
dimension
  6
ByBlock
 62
    0
370
   -2
100
AcDbLine
 10
300.624999999995
 20
107.3999999999994
 11
310.0921293817086
 21
107.3999999999994
  0
LINE
  5
E4
100
AcDbEntity
  8
dimension
  6
ByBlock
 62
    0
370
   -2
100
AcDbLine
 10
300.6249999999995
 20
209
 11
310.0921293817086
 21
209
  0
ENDBLK
  5
81
330
7F
100
AcDbEntity
  8
0
100
AcDbBlockEnd
  0
BLOCK
  5
83
330
82
100
AcDbEntity
  8
0
100
AcDbBlockBegin
  2
*D21
 70
    1
 10
0
 20
0
  3
*D21
  1

  0
LINE
  5
E5
100
AcDbEntity
  8
Infobox A3
  6
ByBlock
 62
    0
370
   -2
100
AcDbLine
 10
252.8565893358309
 20
53.80999999999942
 11
252.8565893358309
 21
69
  0
SOLID
  5
E6
100
AcDbEntity
  8
Infobox A3
  6
ByBlock
 62
    0
370
   -2
100
AcDbTrace
 10
252.8565893358309
 20
58.80999999999942
 30
0
 11
253.2728739936038
 21
56.30999999999942
 31
0
 12
252.4403046780581
 22
56.30999999999942
 32
0
 13
252.4403046780581
 23
56.30999999999942
 33
0
  0
SOLID
  5
E7
100
AcDbEntity
  8
Infobox A3
  6
ByBlock
 62
    0
370
   -2
100
AcDbTrace
 10
252.8565893358309
 20
64
 30
0
 11
252.4403046780581
 21
66.5
 31
0
 12
253.2728739936038
 22
66.5
 32
0
 13
253.2728739936038
 23
66.5
 33
0
  0
MTEXT
  5
E8
100
AcDbEntity
  8
Infobox A3
  6
CONTINUOUS
 62
    0
370
   -2
100
AcDbMText
 10
250.9815893358309
 20
67.33333333333341
 30
0
 40
2.5
 41
5.416666666666822
 71
    5
 72
    1
  1
5,19
  7
standard
210
0
220
0
230
1
 50
90
 73
    2
 44
1
  0
LINE
  5
E9
100
AcDbEntity
  8
Infobox A3
  6
ByBlock
 62
    0
370
   -2
100
AcDbLine
 10
213.4350000000023
 20
58.80999999999942
 11
254.1065893358309
 21
58.80999999999942
  0
LINE
  5
EA
100
AcDbEntity
  8
Infobox A3
  6
ByBlock
 62
    0
370
   -2
100
AcDbLine
 10
291.375
 20
64
 11
251.6065893358309
 21
64
  0
ENDBLK
  5
84
330
82
100
AcDbEntity
  8
0
100
AcDbBlockEnd
  0
BLOCK
  5
86
330
85
100
AcDbEntity
  8
0
100
AcDbBlockBegin
  2
*D7
 70
    1
 10
0
 20
0
  3
*D7
  1

  0
LINE
  5
EB
100
AcDbEntity
  8
dimension
  6
ByBlock
 62
    0
370
   -2
100
AcDbLine
 10
9.999999999999988
 20
30
 11
10
 21
259
  0
SOLID
  5
EC
100
AcDbEntity
  8
dimension
  6
ByBlock
 62
    0
370
   -2
100
AcDbTrace
 10
9.999999999999988
 20
30
 30
0
 11
9.583715342227148
 21
32.5
 31
0
 12
10.41628465777283
 22
32.5
 32
0
 13
10.41628465777283
 23
32.5
 33
0
  0
SOLID
  5
ED
100
AcDbEntity
  8
dimension
  6
ByBlock
 62
    0
370
   -2
100
AcDbTrace
 10
10
 20
259
 30
0
 11
10.41628465777284
 21
256.5
 31
0
 12
9.58371534222716
 22
256.5
 32
0
 13
9.58371534222716
 23
256.5
 33
0
  0
MTEXT
  5
EE
100
AcDbEntity
  8
dimension
  6
CONTINUOUS
 62
    0
370
   -2
100
AcDbMText
 10
8.124999999999993
 20
144.5
 30
0
 40
2.5
 41
5
 71
    5
 72
    1
  1
229
  7
standard
210
0
220
0
230
1
 50
90
 73
    2
 44
1
  0
LINE
  5
EF
100
AcDbEntity
  8
dimension
  6
ByBlock
 62
    0
370
   -2
100
AcDbLine
 10
50.87499999999957
 20
30
 11
8.749999999999988
 21
30
  0
LINE
  5
F0
100
AcDbEntity
  8
dimension
  6
ByBlock
 62
    0
370
   -2
100
AcDbLine
 10
50.87500000000091
 20
259
 11
8.75
 21
259
  0
ENDBLK
  5
87
330
85
100
AcDbEntity
  8
0
100
AcDbBlockEnd
  0
BLOCK
  5
89
330
88
100
AcDbEntity
  8
0
100
AcDbBlockBegin
  2
*D22
 70
    1
 10
0
 20
0
  3
*D22
  1

  0
LINE
  5
F1
100
AcDbEntity
  8
dimension
  6
ByBlock
 62
    0
370
   -2
100
AcDbLine
 10
324.1581863287023
 20
144.5
 11
324.1581863287023
 21
209
  0
SOLID
  5
F2
100
AcDbEntity
  8
dimension
  6
ByBlock
 62
    0
370
   -2
100
AcDbTrace
 10
324.1581863287023
 20
144.5
 30
0
 11
323.7419016709295
 21
147
 31
0
 12
324.5744709864751
 22
147
 32
0
 13
324.5744709864751
 23
147
 33
0
  0
SOLID
  5
F3
100
AcDbEntity
  8
dimension
  6
ByBlock
 62
    0
370
   -2
100
AcDbTrace
 10
324.1581863287023
 20
209
 30
0
 11
324.5744709864751
 21
206.5
 31
0
 12
323.7419016709295
 22
206.5
 32
0
 13
323.7419016709295
 23
206.5
 33
0
  0
MTEXT
  5
F4
100
AcDbEntity
  8
dimension
  6
CONTINUOUS
 62
    0
370
   -2
100
AcDbMText
 10
322.2831863287023
 20
176.75
 30
0
 40
2.5
 41
6.250000000000309
 71
    5
 72
    1
  1
64,5
  7
standard
210
0
220
0
230
1
 50
90
 73
    2
 44
1
  0
LINE
  5
F5
100
AcDbEntity
  8
dimension
  6
ByBlock
 62
    0
370
   -2
100
AcDbLine
 10
315.625
 20
144.5
 11
325.4081863287023
 21
144.5
  0
LINE
  5
F6
100
AcDbEntity
  8
dimension
  6
ByBlock
 62
    0
370
   -2
100
AcDbLine
 10
315.625
 20
209
 11
325.4081863287023
 21
209
  0
ENDBLK
  5
8A
330
88
100
AcDbEntity
  8
0
100
AcDbBlockEnd
  0
BLOCK
  5
8C
330
8B
100
AcDbEntity
  8
0
100
AcDbBlockBegin
  2
*D13
 70
    1
 10
0
 20
0
  3
*D13
  1

  0
LINE
  5
F7
100
AcDbEntity
  8
dimension
  6
ByBlock
 62
    0
370
   -2
100
AcDbLine
 10
405.0000000000118
 20
146.3999999999885
 11
405.0000000000118
 21
130.4000000000079
  0
SOLID
  5
F8
100
AcDbEntity
  8
dimension
  6
ByBlock
 62
    0
370
   -2
100
AcDbTrace
 10
405.0000000000118
 20
141.3999999999885
 30
0
 11
404.583715342239
 21
143.8999999999885
 31
0
 12
405.4162846577847
 22
143.8999999999885
 32
0
 13
405.4162846577847
 23
143.8999999999885
 33
0
  0
SOLID
  5
F9
100
AcDbEntity
  8
dimension
  6
ByBlock
 62
    0
370
   -2
100
AcDbTrace
 10
405.0000000000118
 20
135.4000000000079
 30
0
 11
405.4162846577847
 21
132.9000000000079
 31
0
 12
404.583715342239
 22
132.9000000000079
 32
0
 13
404.583715342239
 23
132.9000000000079
 33
0
  0
MTEXT
  5
FA
100
AcDbEntity
  8
dimension
  6
CONTINUOUS
 62
    0
370
   -2
100
AcDbMText
 10
403.1250000000118
 20
138.3999999999982
 30
0
 40
2.5
 41
1.111111111111266
 71
    5
 72
    1
  1
6
  7
standard
210
0
220
0
230
1
 50
90
 73
    2
 44
1
  0
LINE
  5
FB
100
AcDbEntity
  8
dimension
  6
ByBlock
 62
    0
370
   -2
100
AcDbLine
 10
395.6250000000118
 20
141.3999999999885
 11
406.2500000000118
 21
141.3999999999885
  0
LINE
  5
FC
100
AcDbEntity
  8
dimension
  6
ByBlock
 62
    0
370
   -2
100
AcDbLine
 10
395.6250000000118
 20
135.4000000000079
 11
406.2500000000118
 21
135.4000000000079
  0
ENDBLK
  5
8D
330
8B
100
AcDbEntity
  8
0
100
AcDbBlockEnd
  0
BLOCK
  5
8F
330
8E
100
AcDbEntity
  8
0
100
AcDbBlockBegin
  2
*D14
 70
    1
 10
0
 20
0
  3
*D14
  1

  0
LINE
  5
FD
100
AcDbEntity
  8
dimension
  6
ByBlock
 62
    0
370
   -2
100
AcDbLine
 10
365.0000000000118
 20
117.3999999999994
 11
365.0000000000118
 21
102.3999999999994
  0
SOLID
  5
FE
100
AcDbEntity
  8
dimension
  6
ByBlock
 62
    0
370
   -2
100
AcDbTrace
 10
365.0000000000118
 20
112.3999999999994
 30
0
 11
364.583715342239
 21
114.8999999999994
 31
0
 12
365.4162846577847
 22
114.8999999999994
 32
0
 13
365.4162846577847
 23
114.8999999999994
 33
0
  0
SOLID
  5
FF
100
AcDbEntity
  8
dimension
  6
ByBlock
 62
    0
370
   -2
100
AcDbTrace
 10
365.0000000000118
 20
107.3999999999994
 30
0
 11
365.4162846577847
 21
104.8999999999994
 31
0
 12
364.583715342239
 22
104.8999999999994
 32
0
 13
364.583715342239
 23
104.8999999999994
 33
0
  0
MTEXT
  5
100
100
AcDbEntity
  8
dimension
  6
CONTINUOUS
 62
    0
370
   -2
100
AcDbMText
 10
363.1250000000118
 20
109.8999999999994
 30
0
 40
2.5
 41
1.111111111111266
 71
    5
 72
    1
  1
5
  7
standard
210
0
220
0
230
1
 50
90
 73
    2
 44
1
  0
LINE
  5
101
100
AcDbEntity
  8
dimension
  6
ByBlock
 62
    0
370
   -2
100
AcDbLine
 10
358.6250000000171
 20
112.3999999999994
 11
366.2500000000118
 21
112.3999999999994
  0
LINE
  5
102
100
AcDbEntity
  8
dimension
  6
ByBlock
 62
    0
370
   -2
100
AcDbLine
 10
358.6250000000171
 20
107.3999999999994
 11
366.2500000000118
 21
107.3999999999994
  0
ENDBLK
  5
90
330
8E
100
AcDbEntity
  8
0
100
AcDbBlockEnd
  0
BLOCK
  5
92
330
91
100
AcDbEntity
  8
0
100
AcDbBlockBegin
  2
*D19
 70
    1
 10
0
 20
0
  3
*D19
  1

  0
LINE
  5
103
100
AcDbEntity
  8
dimension
  6
ByBlock
 62
    0
370
   -2
100
AcDbLine
 10
172.5
 20
17.38526593344704
 11
297.1199999999999
 21
17.38526593344704
  0
SOLID
  5
104
100
AcDbEntity
  8
dimension
  6
ByBlock
 62
    0
370
   -2
100
AcDbTrace
 10
172.5
 20
17.38526593344704
 30
0
 11
175
 21
17.80155059121989
 31
0
 12
175
 22
16.9689812756742
 32
0
 13
175
 23
16.9689812756742
 33
0
  0
SOLID
  5
105
100
AcDbEntity
  8
dimension
  6
ByBlock
 62
    0
370
   -2
100
AcDbTrace
 10
297.1199999999999
 20
17.38526593344704
 30
0
 11
294.6199999999999
 21
16.9689812756742
 31
0
 12
294.6199999999999
 22
17.80155059121989
 32
0
 13
294.6199999999999
 23
17.80155059121989
 33
0
  0
MTEXT
  5
106
100
AcDbEntity
  8
dimension
  6
CONTINUOUS
 62
    0
370
   -2
100
AcDbMText
 10
234.8099999999999
 20
19.26026593344704
 30
0
 40
2.5
 41
9.583333333333488
 71
    5
 72
    1
  1
124,62
  7
standard
210
0
220
0
230
1
 50
0
 73
    2
 44
1
  0
LINE
  5
107
100
AcDbEntity
  8
dimension
  6
ByBlock
 62
    0
370
   -2
100
AcDbLine
 10
172.5
 20
29.375
 11
172.5
 21
16.13526593344704
  0
LINE
  5
108
100
AcDbEntity
  8
dimension
  6
ByBlock
 62
    0
370
   -2
100
AcDbLine
 10
297.1199999999999
 20
106.7749999999994
 11
297.1199999999999
 21
16.13526593344704
  0
ENDBLK
  5
93
330
91
100
AcDbEntity
  8
0
100
AcDbBlockEnd
  0
BLOCK
  5
95
330
94
100
AcDbEntity
  8
0
100
AcDbBlockBegin
  2
*D6
 70
    1
 10
0
 20
0
  3
*D6
  1

  0
LINE
  5
109
100
AcDbEntity
  8
annotation
  6
CONTINUOUS
 62
    7
370
    0
100
AcDbLine
 10
296.9999999999999
 20
205.9999999999898
 11
294
 21
201
  0
LINE
  5
10A
100
AcDbEntity
  8
annotation
  6
CONTINUOUS
 62
    7
370
    0
100
AcDbLine
 10
294
 20
201
 11
268
 21
201
  0
SOLID
  5
10B
100
AcDbEntity
  8
annotation
  6
CONTINUOUS
 62
    7
370
    0
100
AcDbTrace
 10
296.9999999999999
 20
205.9999999999898
 30
0
 11
296.0707217605519
 21
203.6420909962355
 31
0
 12
295.3567994623065
 22
204.0704443751836
 32
0
 13
295.3567994623065
 23
204.0704443751836
 33
0
  0
ENDBLK
  5
96
330
94
100
AcDbEntity
  8
0
100
AcDbBlockEnd
  0
BLOCK
  5
98
330
97
100
AcDbEntity
  8
0
100
AcDbBlockBegin
  2
*D3
 70
    1
 10
0
 20
0
  3
*D3
  1

  0
LINE
  5
10C
100
AcDbEntity
  8
annotation
  6
CONTINUOUS
 62
    7
370
    0
100
AcDbLine
 10
209.8099961853027
 20
55.8099999999994
 11
200
 21
50
  0
LINE
  5
10D
100
AcDbEntity
  8
annotation
  6
CONTINUOUS
 62
    7
370
    0
100
AcDbLine
 10
200
 20
50
 11
180
 21
50
  0
SOLID
  5
10E
100
AcDbEntity
  8
annotation
  6
CONTINUOUS
 62
    7
370
    0
100
AcDbTrace
 10
209.8099961853027
 20
55.8099999999994
 30
0
 11
207.8710799711597
 21
54.17785514404132
 31
0
 12
207.4468141842659
 22
54.89421413732583
 32
0
 13
207.4468141842659
 23
54.89421413732583
 33
0
  0
ENDBLK
  5
99
330
97
100
AcDbEntity
  8
0
100
AcDbBlockEnd
  0
BLOCK
  5
9B
330
9A
100
AcDbEntity
  8
0
100
AcDbBlockBegin
  2
*D23
 70
    1
 10
0
 20
0
  3
*D23
  1

  0
LINE
  5
10F
100
AcDbEntity
  8
dimension
  6
ByBlock
 62
    0
370
   -2
100
AcDbLine
 10
324.1581863287023
 20
63.80999999999941
 11
324.1581863287023
 21
144.5
  0
SOLID
  5
110
100
AcDbEntity
  8
dimension
  6
ByBlock
 62
    0
370
   -2
100
AcDbTrace
 10
324.1581863287023
 20
63.80999999999941
 30
0
 11
323.7419016709295
 21
66.30999999999941
 31
0
 12
324.5744709864751
 22
66.30999999999941
 32
0
 13
324.5744709864751
 23
66.30999999999941
 33
0
  0
SOLID
  5
111
100
AcDbEntity
  8
dimension
  6
ByBlock
 62
    0
370
   -2
100
AcDbTrace
 10
324.1581863287023
 20
144.5
 30
0
 11
324.5744709864751
 21
142
 31
0
 12
323.7419016709295
 22
142
 32
0
 13
323.7419016709295
 23
142
 33
0
  0
MTEXT
  5
112
100
AcDbEntity
  8
dimension
  6
CONTINUOUS
 62
    0
370
   -2
100
AcDbMText
 10
322.2831863287023
 20
104.1549999999997
 30
0
 40
2.5
 41
7.916666666666822
 71
    5
 72
    1
  1
80,69
  7
standard
210
0
220
0
230
1
 50
90
 73
    2
 44
1
  0
LINE
  5
113
100
AcDbEntity
  8
dimension
  6
ByBlock
 62
    0
370
   -2
100
AcDbLine
 10
295.9349999999999
 20
63.80999999999941
 11
325.4081863287023
 21
63.80999999999941
  0
LINE
  5
114
100
AcDbEntity
  8
dimension
  6
ByBlock
 62
    0
370
   -2
100
AcDbLine
 10
315.625
 20
144.5
 11
325.4081863287023
 21
144.5
  0
ENDBLK
  5
9C
330
9A
100
AcDbEntity
  8
0
100
AcDbBlockEnd
  0
BLOCK
  5
9E
330
9D
100
AcDbEntity
  8
0
100
AcDbBlockBegin
  2
*D5
 70
    1
 10
0
 20
0
  3
*D5
  1

  0
LINE
  5
115
100
AcDbEntity
  8
annotation
  6
CONTINUOUS
 62
    7
370
    0
100
AcDbLine
 10
297
 20
104
 11
292
 21
101
  0
LINE
  5
116
100
AcDbEntity
  8
annotation
  6
CONTINUOUS
 62
    7
370
    0
100
AcDbLine
 10
292
 20
101
 11
270
 21
101
  0
SOLID
  5
117
100
AcDbEntity
  8
annotation
  6
CONTINUOUS
 62
    7
370
    0
100
AcDbTrace
 10
297
 20
104
 30
0
 11
295.0704443751924
 21
102.3567994623083
 31
0
 12
294.6420909962449
 22
103.0707217605541
 32
0
 13
294.6420909962449
 23
103.0707217605541
 33
0
  0
ENDBLK
  5
9F
330
9D
100
AcDbEntity
  8
0
100
AcDbBlockEnd
  0
BLOCK
  5
A1
330
A0
100
AcDbEntity
  8
0
100
AcDbBlockBegin
  2
*D17
 70
    1
 10
0
 20
0
  3
*D17
  1

  0
LINE
  5
118
100
AcDbEntity
  8
dimension
  6
ByBlock
 62
    0
370
   -2
100
AcDbLine
 10
296.9999999999997
 20
220.1498583900865
 11
229.6199999999999
 21
220.1498583900865
  0
SOLID
  5
119
100
AcDbEntity
  8
dimension
  6
ByBlock
 62
    0
370
   -2
100
AcDbTrace
 10
296.9999999999997
 20
220.1498583900865
 30
0
 11
294.4999999999997
 21
219.7335737323136
 31
0
 12
294.4999999999997
 22
220.5661430478593
 32
0
 13
294.4999999999997
 23
220.5661430478593
 33
0
  0
SOLID
  5
11A
100
AcDbEntity
  8
dimension
  6
ByBlock
 62
    0
370
   -2
100
AcDbTrace
 10
229.6199999999999
 20
220.1498583900865
 30
0
 11
232.1199999999999
 21
220.5661430478593
 31
0
 12
232.1199999999999
 22
219.7335737323136
 32
0
 13
232.1199999999999
 23
219.7335737323136
 33
0
  0
MTEXT
  5
11B
100
AcDbEntity
  8
dimension
  6
CONTINUOUS
 62
    0
370
   -2
100
AcDbMText
 10
263.3099999999998
 20
222.0248583900865
 30
0
 40
2.5
 41
7.916666666666977
 71
    5
 72
    1
  1
67,38
  7
standard
210
0
220
0
230
1
 50
360
 73
    2
 44
1
  0
LINE
  5
11C
100
AcDbEntity
  8
dimension
  6
ByBlock
 62
    0
370
   -2
100
AcDbLine
 10
296.9999999999997
 20
209.6249999999994
 11
296.9999999999997
 21
221.3998583900865
  0
LINE
  5
11D
100
AcDbEntity
  8
dimension
  6
ByBlock
 62
    0
370
   -2
100
AcDbLine
 10
229.6199999999999
 20
209.625
 11
229.6199999999999
 21
221.3998583900865
  0
ENDBLK
  5
A2
330
A0
100
AcDbEntity
  8
0
100
AcDbBlockEnd
  0
BLOCK
  5
A4
330
A3
100
AcDbEntity
  8
0
100
AcDbBlockBegin
  2
*D2
 70
    1
 10
0
 20
0
  3
*D2
  1

  0
LINE
  5
11E
100
AcDbEntity
  8
annotation
  6
CONTINUOUS
 62
    7
370
    0
100
AcDbLine
 10
209.8099999999999
 20
109.8099999705893
 11
200
 21
100
  0
LINE
  5
11F
100
AcDbEntity
  8
annotation
  6
CONTINUOUS
 62
    7
370
    0
100
AcDbLine
 10
200
 20
100
 11
180
 21
100
  0
SOLID
  5
120
100
AcDbEntity
  8
annotation
  6
CONTINUOUS
 62
    7
370
    0
100
AcDbTrace
 10
209.8099999999999
 20
109.8099999705893
 30
0
 11
208.3365907483575
 21
107.7478753154165
 31
0
 12
207.7478753404098
 22
108.3365907251292
 32
0
 13
207.7478753404098
 23
108.3365907251292
 33
0
  0
ENDBLK
  5
A5
330
A3
100
AcDbEntity
  8
0
100
AcDbBlockEnd
  0
BLOCK
  5
A7
330
A6
100
AcDbEntity
  8
0
100
AcDbBlockBegin
  2
*D10
 70
    1
 10
0
 20
0
  3
*D10
  1

  0
LINE
  5
121
100
AcDbEntity
  8
dimension
  6
ByBlock
 62
    0
370
   -2
100
AcDbLine
 10
30
 20
280
 11
296.9999999999997
 21
280
  0
SOLID
  5
122
100
AcDbEntity
  8
dimension
  6
ByBlock
 62
    0
370
   -2
100
AcDbTrace
 10
30
 20
280
 30
0
 11
32.5
 21
280.4162846577728
 31
0
 12
32.5
 22
279.5837153422272
 32
0
 13
32.5
 23
279.5837153422272
 33
0
  0
SOLID
  5
123
100
AcDbEntity
  8
dimension
  6
ByBlock
 62
    0
370
   -2
100
AcDbTrace
 10
296.9999999999997
 20
280
 30
0
 11
294.4999999999997
 21
279.5837153422272
 31
0
 12
294.4999999999997
 22
280.4162846577728
 32
0
 13
294.4999999999997
 23
280.4162846577728
 33
0
  0
MTEXT
  5
124
100
AcDbEntity
  8
dimension
  6
CONTINUOUS
 62
    0
370
   -2
100
AcDbMText
 10
163.4999999999999
 20
281.875
 30
0
 40
2.5
 41
5.000000000000155
 71
    5
 72
    1
  1
267
  7
standard
210
0
220
0
230
1
 50
0
 73
    2
 44
1
  0
LINE
  5
125
100
AcDbEntity
  8
dimension
  6
ByBlock
 62
    0
370
   -2
100
AcDbLine
 10
30
 20
255.8339699147679
 11
30
 21
281.25
  0
LINE
  5
126
100
AcDbEntity
  8
dimension
  6
ByBlock
 62
    0
370
   -2
100
AcDbLine
 10
296.9999999999997
 20
259.0078555675204
 11
296.9999999999997
 21
281.25
  0
ENDBLK
  5
A8
330
A6
100
AcDbEntity
  8
0
100
AcDbBlockEnd
  0
BLOCK
  5
AA
330
A9
100
AcDbEntity
  8
0
100
AcDbBlockBegin
  2
Infobox-3
 70
    0
 10
0
 20
0
  3
Infobox-3
  1

  0
LINE
  5
127
100
AcDbEntity
  8
Infobox construction
  6
ByLayer
 62
  256
370
   -1
100
AcDbLine
 10
380
 20
255.1884833388197
 11
380
 21
265.1884833388197
  0
LINE
  5
128
100
AcDbEntity
  8
Infobox construction
  6
ByLayer
 62
  256
370
   -1
100
AcDbLine
 10
390
 20
255
 11
390
 21
265
  0
LINE
  5
129
100
AcDbEntity
  8
Infobox construction
  6
ByLayer
 62
  256
370
   -1
100
AcDbLine
 10
400
 20
255
 11
400
 21
265
  0
LINE
  5
12A
100
AcDbEntity
  8
Infobox construction
  6
ByLayer
 62
  256
370
   -1
100
AcDbLine
 10
410
 20
256.8711897791678
 11
410
 21
266.8711897791678
  0
LINE
  5
12B
100
AcDbEntity
  8
Infobox construction
  6
ByLayer
 62
  256
370
   -1
100
AcDbLine
 10
399.5
 20
281.416015625
 11
400.5
 21
281.416015625
  0
LINE
  5
12C
100
AcDbEntity
  8
Infobox construction
  6
ByLayer
 62
  256
370
   -1
100
AcDbLine
 10
399.5
 20
256.416015625
 11
400.5
 21
256.416015625
  0
LINE
  5
12D
100
AcDbEntity
  8
Infobox construction
  6
ByLayer
 62
  256
370
   -1
100
AcDbLine
 10
394.5
 20
201.416015625
 11
395.5
 21
201.416015625
  0
LINE
  5
12E
100
AcDbEntity
  8
Infobox A3
  6
ByLayer
 62
  256
370
   -1
100
AcDbLine
 10
380
 20
281.416015625
 11
410
 21
281.416015625
  0
LINE
  5
12F
100
AcDbEntity
  8
Infobox A3
  6
ByLayer
 62
  256
370
   -1
100
AcDbLine
 10
410
 20
281.416015625
 11
410
 21
201.416015625
  0
LINE
  5
130
100
AcDbEntity
  8
Infobox A3
  6
ByLayer
 62
  256
370
   -1
100
AcDbLine
 10
410
 20
201.416015625
 11
380
 21
201.416015625
  0
LINE
  5
131
100
AcDbEntity
  8
Infobox A3
  6
ByLayer
 62
  256
370
   -1
100
AcDbLine
 10
380
 20
201.416015625
 11
380
 21
281.416015625
  0
LINE
  5
132
100
AcDbEntity
  8
Infobox A3
  6
ByLayer
 62
  256
370
   -1
100
AcDbLine
 10
390
 20
281.416015625
 11
390
 21
201.416015625
  0
LINE
  5
133
100
AcDbEntity
  8
Infobox A3
  6
ByLayer
 62
  256
370
   -1
100
AcDbLine
 10
400
 20
201.416015625
 11
400
 21
281.416015625
  0
LINE
  5
134
100
AcDbEntity
  8
Infobox A3
  6
ByLayer
 62
  256
370
   -1
100
AcDbLine
 10
390
 20
256.416015625
 11
410
 21
256.416015625
  0
LINE
  5
135
100
AcDbEntity
  8
Infobox construction
  6
ByLayer
 62
  256
370
   -1
100
AcDbLine
 10
394.5
 20
202.416015625
 11
395.5
 21
202.416015625
  0
LINE
  5
136
100
AcDbEntity
  8
Infobox construction
  6
ByLayer
 62
  256
370
   -1
100
AcDbLine
 10
399.5
 20
258.416015625
 11
400.5
 21
258.416015625
  0
LINE
  5
137
100
AcDbEntity
  8
Infobox construction
  6
ByLayer
 62
  256
370
   -1
100
AcDbLine
 10
382
 20
255.1884833388197
 11
382
 21
265.1884833388197
  0
LINE
  5
138
100
AcDbEntity
  8
Infobox construction
  6
ByLayer
 62
  256
370
   -1
100
AcDbLine
 10
392
 20
255
 11
392
 21
265
  0
LINE
  5
139
100
AcDbEntity
  8
Infobox construction
  6
ByLayer
 62
  256
370
   -1
100
AcDbLine
 10
402
 20
255
 11
402
 21
265
  0
MTEXT
  5
13A
100
AcDbEntity
  8
Infobox A3
  6
ByLayer
 62
  256
370
   -1
100
AcDbMText
 10
391
 20
258.416015625
 30
0
 40
1
 41
4.777778292065022
 71
    1
 72
    1
  1
Version
  7
standard
210
0
220
0
230
1
 50
90
 73
    2
 44
1
  0
MTEXT
  5
13B
100
AcDbEntity
  8
Infobox A3
  6
ByLayer
 62
  256
370
   -1
100
AcDbMText
 10
401
 20
258.416015625
 30
0
 40
1
 41
2.777777777777886
 71
    1
 72
    1
  1
Date
  7
standard
210
0
220
0
230
1
 50
90
 73
    2
 44
1
  0
MTEXT
  5
13C
100
AcDbEntity
  8
Infobox A3
  6
ByLayer
 62
  256
370
   -1
100
AcDbMText
 10
401
 20
202.416015625
 30
0
 40
1
 41
4.333333333333379
 71
    1
 72
    1
  1
Author
  7
standard
210
0
220
0
230
1
 50
90
 73
    2
 44
1
  0
MTEXT
  5
13D
100
AcDbEntity
  8
Infobox A3
  6
ByLayer
 62
  256
370
   -1
100
AcDbMText
 10
391
 20
202.416015625
 30
0
 40
1
 41
6.861111111111249
 71
    1
 72
    1
  1
Part Name
  7
standard
210
0
220
0
230
1
 50
90
 73
    2
 44
1
  0
MTEXT
  5
13E
100
AcDbEntity
  8
Infobox A3
  6
ByLayer
 62
  256
370
   -1
100
AcDbMText
 10
381
 20
202.416015625
 30
0
 40
1
 41
7.305555555555756
 71
    1
 72
    1
  1
Drawing No
  7
standard
210
0
220
0
230
1
 50
90
 73
    2
 44
1
  0
LINE
  5
13F
100
AcDbEntity
  8
Infobox construction
  6
ByLayer
 62
  256
370
   -1
100
AcDbLine
 10
378
 20
255.1884833388197
 11
378
 21
265.1884833388197
  0
MTEXT
  5
140
100
AcDbEntity
  8
Infobox A3
  6
ByLayer
 62
  256
370
   -1
100
AcDbMText
 10
376
 20
202.416015625
 30
0
 40
2
 41
28.27777983492726
 71
    1
 72
    1
  1
All Dimensions in mm
  7
standard
210
0
220
0
230
1
 50
90
 73
    2
 44
1
  0
LINE
  5
141
100
AcDbEntity
  8
Infobox construction
  6
ByLayer
 62
  256
370
   -1
100
AcDbLine
 10
-5
 20
0
 11
5
 21
0
  0
LINE
  5
142
100
AcDbEntity
  8
Infobox construction
  6
ByLayer
 62
  256
370
   -1
100
AcDbLine
 10
-3.061616997868383e-17
 20
-0.5
 11
3.061616997868383e-17
 21
0.5
  0
LINE
  5
143
100
AcDbEntity
  8
Infobox A3 landscape
  6
ByLayer
 62
  256
370
   -1
100
AcDbLine
 10
410
 20
40
 11
410
 21
9.999999999999972
  0
LINE
  5
144
100
AcDbEntity
  8
Infobox A3 landscape
  6
ByLayer
 62
  256
370
   -1
100
AcDbLine
 10
410
 20
9.999999999999972
 11
330
 21
10
  0
LINE
  5
145
100
AcDbEntity
  8
Infobox A3 landscape
  6
ByLayer
 62
  256
370
   -1
100
AcDbLine
 10
330
 20
10
 11
330
 21
40
  0
LINE
  5
146
100
AcDbEntity
  8
Infobox A3 landscape
  6
ByLayer
 62
  256
370
   -1
100
AcDbLine
 10
330
 20
40
 11
410
 21
40
  0
LINE
  5
147
100
AcDbEntity
  8
Infobox A3 landscape
  6
ByLayer
 62
  256
370
   -1
100
AcDbLine
 10
410
 20
30
 11
330
 21
30
  0
LINE
  5
148
100
AcDbEntity
  8
Infobox A3 landscape
  6
ByLayer
 62
  256
370
   -1
100
AcDbLine
 10
330
 20
20
 11
410
 21
20
  0
LINE
  5
149
100
AcDbEntity
  8
Infobox A3 landscape
  6
ByLayer
 62
  256
370
   -1
100
AcDbLine
 10
385
 20
30
 11
385
 21
10
  0
MTEXT
  5
14A
100
AcDbEntity
  8
Infobox A3 landscape
  6
ByLayer
 62
  256
370
   -1
100
AcDbMText
 10
387
 20
29
 30
0
 40
1
 41
4.777778292065022
 71
    1
 72
    1
  1
Version
  7
standard
210
0
220
0
230
1
 50
360
 73
    2
 44
1
  0
MTEXT
  5
14B
100
AcDbEntity
  8
Infobox A3 landscape
  6
ByLayer
 62
  256
370
   -1
100
AcDbMText
 10
387
 20
19
 30
0
 40
1
 41
2.777777777777886
 71
    1
 72
    1
  1
Date
  7
standard
210
0
220
0
230
1
 50
360
 73
    2
 44
1
  0
MTEXT
  5
14C
100
AcDbEntity
  8
Infobox A3 landscape
  6
ByLayer
 62
  256
370
   -1
100
AcDbMText
 10
331
 20
19
 30
0
 40
1
 41
4.333333333333379
 71
    1
 72
    1
  1
Author
  7
standard
210
0
220
0
230
1
 50
360
 73
    2
 44
1
  0
MTEXT
  5
14D
100
AcDbEntity
  8
Infobox A3 landscape
  6
ByLayer
 62
  256
370
   -1
100
AcDbMText
 10
331
 20
29
 30
0
 40
1
 41
6.861111111111249
 71
    1
 72
    1
  1
Part Name
  7
standard
210
0
220
0
230
1
 50
360
 73
    2
 44
1
  0
MTEXT
  5
14E
100
AcDbEntity
  8
Infobox A3 landscape
  6
ByLayer
 62
  256
370
   -1
100
AcDbMText
 10
331
 20
39
 30
0
 40
1
 41
7.305555555555756
 71
    1
 72
    1
  1
Drawing No
  7
standard
210
0
220
0
230
1
 50
360
 73
    2
 44
1
  0
MTEXT
  5
14F
100
AcDbEntity
  8
Infobox A3 landscape
  6
ByLayer
 62
  256
370
   -1
100
AcDbMText
 10
331
 20
44
 30
0
 40
2
 41
28.27777983492726
 71
    1
 72
    1
  1
All Dimensions in mm
  7
standard
210
0
220
0
230
1
 50
360
 73
    2
 44
1
  0
ENDBLK
  5
AB
330
A9
100
AcDbEntity
  8
0
100
AcDbBlockEnd
  0
BLOCK
  5
AD
330
AC
100
AcDbEntity
  8
0
100
AcDbBlockBegin
  2
BananaPro
 70
    0
 10
0
 20
0
  3
BananaPro
  1

  0
LINE
  5
150
100
AcDbEntity
  8
BananaPro_construction
  6
ByLayer
 62
  256
370
   -1
100
AcDbLine
 10
-54
 20
3
 11
-54
 21
-54
  0
LINE
  5
151
100
AcDbEntity
  8
BananaPro_construction
  6
ByLayer
 62
  256
370
   -1
100
AcDbLine
 10
-57
 20
2.5
 11
31.5
 21
2.5
  0
LINE
  5
152
100
AcDbEntity
  8
BananaPro_construction
  6
ByLayer
 62
  256
370
   -1
100
AcDbLine
 10
-25.40000000000001
 20
3
 11
-25.40000000000001
 21
-54
  0
LINE
  5
153
100
AcDbEntity
  8
BananaPro_construction
  6
ByLayer
 62
  256
370
   -1
100
AcDbLine
 10
25.40000000000001
 20
3.000000000000028
 11
25.40000000000001
 21
-54
  0
LINE
  5
154
100
AcDbEntity
  8
BananaPro_construction
  6
ByLayer
 62
  256
370
   -1
100
AcDbLine
 10
-57
 20
-2.5
 11
31.5
 21
-2.5
  0
LINE
  5
155
100
AcDbEntity
  8
BananaPro_GPIO
  6
ByLayer
 62
  256
370
   -1
100
AcDbLine
 10
-25.40000000000001
 20
-2.5
 11
25.40000000000001
 21
-2.5
  0
LINE
  5
156
100
AcDbEntity
  8
BananaPro_GPIO
  6
ByLayer
 62
  256
370
   -1
100
AcDbLine
 10
25.40000000000001
 20
-2.5
 11
25.40000000000001
 21
2.5
  0
LINE
  5
157
100
AcDbEntity
  8
BananaPro_GPIO
  6
ByLayer
 62
  256
370
   -1
100
AcDbLine
 10
25.40000000000001
 20
2.5
 11
-25.40000000000001
 21
2.5
  0
LINE
  5
158
100
AcDbEntity
  8
BananaPro_construction
  6
ByLayer
 62
  256
370
   -1
100
AcDbLine
 10
-57
 20
0
 11
31.5
 21
0
  0
LINE
  5
159
100
AcDbEntity
  8
BananaPro_GPIO
  6
ByLayer
 62
  256
370
   -1
100
AcDbLine
 10
-25.40000000000001
 20
2.5
 11
-25.40000000000001
 21
-2.5
  0
LINE
  5
15A
100
AcDbEntity
  8
BananaPro_GPIO
  6
DASHDOTTINY
 62
  256
370
   13
100
AcDbLine
 10
0
 20
-5.5
 11
0
 21
5.5
  0
LINE
  5
15B
100
AcDbEntity
  8
BananaPro_GPIO
  6
DASHDOTTINY
 62
  256
370
   13
100
AcDbLine
 10
-28.40000000000001
 20
0
 11
28.40000000000001
 21
0
  0
CIRCLE
  5
15C
100
AcDbEntity
  8
BananaPro_outlines
  6
ByLayer
 62
  256
370
   -1
100
AcDbCircle
 10
-54
 20
0
 40
1.5
  0
LINE
  5
15D
100
AcDbEntity
  8
BananaPro_outlines
  6
DASHDOTTINY
 62
  256
370
   13
100
AcDbLine
 10
-54.00000000000001
 20
4.5
 11
-54.00000000000001
 21
-4.5
  0
LINE
  5
15E
100
AcDbEntity
  8
BananaPro_outlines
  6
DASHDOTTINY
 62
  256
370
   13
100
AcDbLine
 10
-58.49999999999999
 20
0
 11
-49.49999999999999
 21
0
  0
LEADER
  5
15F
100
AcDbEntity
  8
BananaPro_anotation
  6
ByLayer
 62
  256
370
   -1
100
AcDbLeader
  3
Standard
 71
    1
 72
    0
 73
    3
 74
    0
 75
    0
 40
1
 41
10
 76
3
 76
3
 10
0
 20
-2.5
 30
0
 10
-4
 20
-5
 30
0
 10
-13
 20
-5
 30
0
  0
LINE
  5
160
100
AcDbEntity
  8
BananaPro_outlines
  6
ByLayer
 62
  256
370
   -1
100
AcDbLine
 10
-57
 20
3
 11
34.5
 21
3
  0
LINE
  5
161
100
AcDbEntity
  8
BananaPro_construction
  6
ByLayer
 62
  256
370
   -1
100
AcDbLine
 10
31.5
 20
3.000000000000028
 11
31.5
 21
-53.99999999999997
  0
CIRCLE
  5
162
100
AcDbEntity
  8
BananaPro_outlines
  6
ByLayer
 62
  256
370
   -1
100
AcDbCircle
 10
31.5
 20
0
 40
1.5
  0
LINE
  5
163
100
AcDbEntity
  8
BananaPro_outlines
  6
DASHDOTTINY
 62
  256
370
   13
100
AcDbLine
 10
31.5
 20
-4.5
 11
31.5
 21
4.5
  0
LINE
  5
164
100
AcDbEntity
  8
BananaPro_outlines
  6
DASHDOTTINY
 62
  256
370
   13
100
AcDbLine
 10
27.00000000000239
 20
0
 11
35.99999999999761
 21
0
  0
LINE
  5
165
100
AcDbEntity
  8
BananaPro_ETHERNET
  6
ByLayer
 62
  256
370
   -1
100
AcDbLine
 10
-60.97999999999999
 20
-12.41499999999999
 11
-60.98
 21
-25.58499999999998
  0
LINE
  5
166
100
AcDbEntity
  8
BananaPro_ETHERNET
  6
ByLayer
 62
  256
370
   -1
100
AcDbLine
 10
-60.47
 20
-31.03
 11
-60.46999999999999
 21
-46.97
  0
LINE
  5
167
100
AcDbEntity
  8
BananaPro_ETHERNET
  6
ByLayer
 62
  256
370
   -1
100
AcDbLine
 10
-39.37
 20
-31.03
 11
-39.36999999999999
 21
-46.97
  0
LINE
  5
168
100
AcDbEntity
  8
BananaPro_ETHERNET
  6
ByLayer
 62
  256
370
   -1
100
AcDbLine
 10
-43.57999999999999
 20
-12.41500000000002
 11
-43.58
 21
-25.58500000000001
  0
LINE
  5
169
100
AcDbEntity
  8
BananaPro_ETHERNET
  6
ByLayer
 62
  256
370
   -1
100
AcDbLine
 10
-60.98
 20
-25.58499999999998
 11
-43.58
 21
-25.58499999999998
  0
LINE
  5
16A
100
AcDbEntity
  8
BananaPro_ETHERNET
  6
ByLayer
 62
  256
370
   -1
100
AcDbLine
 10
-60.98
 20
-12.41499999999999
 11
-43.57999999999999
 21
-12.41499999999999
  0
LINE
  5
16B
100
AcDbEntity
  8
BananaPro_ETHERNET
  6
ByLayer
 62
  256
370
   -1
100
AcDbLine
 10
-60.47
 20
-46.97
 11
-39.36999999999999
 21
-46.97
  0
LINE
  5
16C
100
AcDbEntity
  8
BananaPro_ETHERNET
  6
ByLayer
 62
  256
370
   -1
100
AcDbLine
 10
-60.47
 20
-31.03
 11
-39.37
 21
-31.03
  0
MTEXT
  5
16D
100
AcDbEntity
  8
BananaPro_anotation
  6
ByLayer
 62
  256
370
   -1
100
AcDbMText
 10
-32
 20
-43.5
 30
0
 40
2
 41
12.88888888888889
 71
    7
 72
    1
  1
ETHERNET
  7
standard
210
0
220
0
230
1
 50
0
 73
    2
 44
1
  0
LEADER
  5
16E
100
AcDbEntity
  8
BananaPro_anotation
  6
ByLayer
 62
  256
370
   -1
100
AcDbLeader
  3
Standard
 71
    1
 72
    0
 73
    3
 74
    0
 75
    0
 40
1
 41
10
 76
3
 76
3
 10
-39.37
 20
-39
 30
0
 10
-37
 20
-40.5
 30
0
 10
-19
 20
-40.5
 30
0
  0
MTEXT
  5
16F
100
AcDbEntity
  8
BananaPro_anotation
  6
ByLayer
 62
  256
370
   -1
100
AcDbMText
 10
-35
 20
-23.5
 30
0
 40
2
 41
4.666666242662368
 71
    7
 72
    1
  1
USB
  7
standard
210
0
220
0
230
1
 50
0
 73
    2
 44
1
  0
LEADER
  5
170
100
AcDbEntity
  8
BananaPro_anotation
  6
ByLayer
 62
  256
370
   -1
100
AcDbLeader
  3
Standard
 71
    1
 72
    0
 73
    3
 74
    0
 75
    0
 40
1
 41
10
 76
3
 76
3
 10
-43.57999999999999
 20
-19
 30
0
 10
-41
 20
-20.5
 30
0
 10
-30
 20
-20.5
 30
0
  0
MTEXT
  5
171
100
AcDbEntity
  8
BananaPro_anotation
  6
ByLayer
 62
  256
370
   -1
100
AcDbMText
 10
-12
 20
-11.5
 30
0
 40
2
 41
5.333333333333457
 71
    7
 72
    1
  1
GPIO
  7
standard
210
0
220
0
230
1
 50
0
 73
    2
 44
1
  0
DIMENSION
  5
172
100
AcDbEntity
  8
BananaPro_dimension
  6
ByLayer
 62
  256
370
   -1
100
AcDbDimension
 10
40
 20
-6.735557395310443e-16
 30
0
 11
38.125
 21
1.5
 31
0
 70
   32
 71
    5
  3
Standard
 53
0
210
0
220
0
230
1
100
AcDbAlignedDimension
 13
34.5
 23
3
 33
0
 14
34.5
 24
0
 34
0
 50
90
100
AcDbRotatedDimension
  0
DIMENSION
  5
173
100
AcDbEntity
  8
BananaPro_dimension
  6
ByLayer
 62
  256
370
   -1
100
AcDbDimension
 10
-60
 20
3.67394039744206e-16
 30
0
 11
-61.875
 21
1.5
 31
0
 70
   32
 71
    5
  3
Standard
 53
0
210
0
220
0
230
1
100
AcDbAlignedDimension
 13
-57
 23
3
 33
0
 14
-57
 24
0
 34
0
 50
90
100
AcDbRotatedDimension
  0
LINE
  5
174
100
AcDbEntity
  8
BananaPro_outlines
  6
ByLayer
 62
  256
370
   -1
100
AcDbLine
 10
-57.00000000000001
 20
-57
 11
34.49999999999999
 21
-57
  0
LINE
  5
175
100
AcDbEntity
  8
BananaPro_construction
  6
ByLayer
 62
  256
370
   -1
100
AcDbLine
 10
-57.00000000000001
 20
-49
 11
34.49999999999999
 21
-49
  0
LINE
  5
176
100
AcDbEntity
  8
BananaPro_construction
  6
ByLayer
 62
  256
370
   -1
100
AcDbLine
 10
-57.00000000000001
 20
-54
 11
34.49999999999999
 21
-54
  0
CIRCLE
  5
177
100
AcDbEntity
  8
BananaPro_outlines
  6
ByLayer
 62
  256
370
   -1
100
AcDbCircle
 10
-54
 20
-53.99999999999999
 40
1.5
  0
LINE
  5
178
100
AcDbEntity
  8
BananaPro_outlines
  6
DASHDOTTINY
 62
  256
370
   13
100
AcDbLine
 10
-53.99999999999996
 20
-58.50000000000239
 11
-54.00000000000003
 21
-49.49999999999758
  0
LINE
  5
179
100
AcDbEntity
  8
BananaPro_outlines
  6
DASHDOTTINY
 62
  256
370
   13
100
AcDbLine
 10
-58.49999999999999
 20
-53.99999999999999
 11
-49.50000000000001
 21
-53.99999999999999
  0
CIRCLE
  5
17A
100
AcDbEntity
  8
BananaPro_outlines
  6
ByLayer
 62
  256
370
   -1
100
AcDbCircle
 10
31.5
 20
-48.99999999999999
 40
1.5
  0
LINE
  5
17B
100
AcDbEntity
  8
BananaPro_outlines
  6
DASHDOTTINY
 62
  256
370
   13
100
AcDbLine
 10
31.5
 20
-53.49999999999758
 11
31.5
 21
-44.50000000000242
  0
LINE
  5
17C
100
AcDbEntity
  8
BananaPro_outlines
  6
DASHDOTTINY
 62
  256
370
   13
100
AcDbLine
 10
27
 20
-48.99999999999999
 11
36
 21
-48.99999999999999
  0
LINE
  5
17D
100
AcDbEntity
  8
BananaPro_outlines
  6
ByLayer
 62
  256
370
   -1
100
AcDbLine
 10
34.5
 20
3.000000000000028
 11
34.5
 21
-57
  0
LINE
  5
17E
100
AcDbEntity
  8
BananaPro_outlines
  6
ByLayer
 62
  256
370
   -1
100
AcDbLine
 10
-57
 20
3
 11
-57
 21
-57
  0
DIMENSION
  5
17F
100
AcDbEntity
  8
BananaPro_dimension
  6
ByLayer
 62
  256
370
   -1
100
AcDbDimension
 10
40
 20
-48.99999999999999
 30
0
 11
38.125
 21
-52.99999999999999
 31
0
 70
   32
 71
    5
  3
Standard
 53
0
210
0
220
0
230
1
100
AcDbAlignedDimension
 13
34.5
 23
-57
 33
0
 14
34.5
 24
-48.99999999999999
 34
0
 50
90
100
AcDbRotatedDimension
  0
DIMENSION
  5
180
100
AcDbEntity
  8
BananaPro_dimension
  6
ByLayer
 62
  256
370
   -1
100
AcDbDimension
 10
-60
 20
-57
 30
0
 11
-61.875
 21
-55.49999999999999
 31
0
 70
   32
 71
    5
  3
Standard
 53
0
210
0
220
0
230
1
100
AcDbAlignedDimension
 13
-57
 23
-53.99999999999999
 33
0
 14
-57
 24
-57
 34
0
 50
90
100
AcDbRotatedDimension
  0
DIMENSION
  5
181
100
AcDbEntity
  8
BananaPro_dimension
  6
ByLayer
 62
  256
370
   -1
100
AcDbDimension
 10
-70
 20
-57
 30
0
 11
-71.875
 21
-27
 31
0
 70
   32
 71
    5
  3
Standard
 53
0
210
0
220
0
230
1
100
AcDbAlignedDimension
 13
-57
 23
3
 33
0
 14
-57
 24
-57
 34
0
 50
90
100
AcDbRotatedDimension
  0
DIMENSION
  5
182
100
AcDbEntity
  8
BananaPro_dimension
  6
ByLayer
 62
  256
370
   -1
100
AcDbDimension
 10
-54.00000000000001
 20
10
 30
0
 11
-55.5
 21
11.875
 31
0
 70
   32
 71
    5
  3
Standard
 53
0
210
0
220
0
230
1
100
AcDbAlignedDimension
 13
-57
 23
3
 33
0
 14
-54.00000000000001
 24
3
 34
0
100
AcDbRotatedDimension
  0
DIMENSION
  5
183
100
AcDbEntity
  8
BananaPro_dimension
  6
ByLayer
 62
  256
370
   -1
100
AcDbDimension
 10
1.04094977927525e-15
 20
20
 30
0
 11
-28.5
 21
21.875
 31
0
 70
   32
 71
    5
  3
Standard
 53
0
210
0
220
0
230
1
100
AcDbAlignedDimension
 13
-57
 23
3
 33
0
 14
0
 24
3
 34
0
100
AcDbRotatedDimension
  0
DIMENSION
  5
184
100
AcDbEntity
  8
BananaPro_dimension
  6
ByLayer
 62
  256
370
   -1
100
AcDbDimension
 10
25.40000000000001
 20
-20
 30
0
 11
1.148106374200644e-16
 21
-18.125
 31
0
 70
   32
 71
    5
  3
Standard
 53
0
210
0
220
0
230
1
100
AcDbAlignedDimension
 13
-25.40000000000001
 23
-2.5
 33
0
 14
25.40000000000001
 24
-2.5
 34
0
100
AcDbRotatedDimension
  0
DIMENSION
  5
185
100
AcDbEntity
  8
BananaPro_dimension
  6
ByLayer
 62
  256
370
   -1
100
AcDbDimension
 10
34.5
 20
-70
 30
0
 11
-11.25
 21
-68.125
 31
0
 70
   32
 71
    5
  3
Standard
 53
0
210
0
220
0
230
1
100
AcDbAlignedDimension
 13
-57
 23
-57
 33
0
 14
34.5
 24
-57
 34
0
100
AcDbRotatedDimension
  0
DIMENSION
  5
186
100
AcDbEntity
  8
BananaPro_dimension
  6
ByLayer
 62
  256
370
   -1
100
AcDbDimension
 10
-30
 20
-2.499999999999995
 30
0
 11
-31.875
 21
3.338245743790567e-15
 31
0
 70
   32
 71
    5
  3
Standard
 53
0
210
0
220
0
230
1
100
AcDbAlignedDimension
 13
9.971808455640751
 23
2.5
 33
0
 14
10.01516414457832
 24
-2.5
 34
0
 50
90
100
AcDbRotatedDimension
  0
DIMENSION
  5
187
100
AcDbEntity
  8
BananaPro_dimension
  6
ByLayer
 62
  256
370
   -1
100
AcDbDimension
 10
27
 20
2.5
 30
0
 11
24
 21
5
 31
0
 70
   32
 71
    5
  3
Standard
 53
0
210
0
220
0
230
1
100
AcDbAlignedDimension
 13
25
 23
3
 33
0
 14
25
 24
2.5
 34
0
 50
90
100
AcDbRotatedDimension
  0
ENDBLK
  5
AE
330
AC
100
AcDbEntity
  8
0
100
AcDbBlockEnd
  0
BLOCK
  5
B0
330
AF
100
AcDbEntity
  8
0
100
AcDbBlockBegin
  2
xMZ-Mod-Touch-Deckelplatine
 70
    0
 10
0
 20
0
  3
xMZ-Mod-Touch-Deckelplatine
  1

  0
LEADER
  5
188
100
AcDbEntity
  8
Deckelplatine_annotation
  6
ByLayer
 62
  256
370
   -1
100
AcDbLeader
  3
Standard
 71
    1
 72
    0
 73
    3
 74
    0
 75
    0
 40
1
 41
10
 76
3
 76
3
 10
-18.99999999999998
 20
82.40000000000001
 30
0
 10
-14.99999999999998
 20
78
 30
0
 10
-14.99999999999998
 20
55
 30
0
  0
MTEXT
  5
189
100
AcDbEntity
  8
Deckelplatine_annotation
  6
ByLayer
 62
  256
370
   -1
100
AcDbMText
 10
-11.99999999999998
 20
78
 30
0
 40
2
 41
29.72222222222273
 71
    1
 72
    1
  1
Conector Bodenplatine
  7
standard
210
0
220
0
230
1
 50
270
 73
    2
 44
1
  0
LEADER
  5
18A
100
AcDbEntity
  8
Deckelplatine_annotation
  6
ByLayer
 62
  256
370
   -1
100
AcDbLeader
  3
Standard
 71
    1
 72
    0
 73
    3
 74
    0
 75
    0
 40
1
 41
10
 76
3
 76
3
 10
1.112473146687665e-14
 20
2.540000000000003
 30
0
 10
5.000000000000012
 20
7.999999999999996
 30
0
 10
5.000000000000016
 20
28.99999999999999
 30
0
  0
MTEXT
  5
18B
100
AcDbEntity
  8
Deckelplatine_annotation
  6
ByLayer
 62
  256
370
   -1
100
AcDbMText
 10
8.000000000000018
 20
34
 30
0
 40
2
 41
26.83333333333402
 71
    1
 72
    1
  1
Conector BananaPro
  7
standard
210
0
220
0
230
1
 50
270
 73
    2
 44
1
  0
LINE
  5
18C
100
AcDbEntity
  8
Deckelplatine_annotation
  6
DASHDOTTINY
 62
  256
370
   13
100
AcDbLine
 10
1.167582252649295e-14
 20
5.540000000000003
 11
9.640459546310054e-15
 21
-5.539999999999996
  0
LINE
  5
18D
100
AcDbEntity
  8
Deckelplatine_annotation
  6
DASHDOTTINY
 62
  256
370
   13
100
AcDbLine
 10
28.4
 20
-8.769709043168225e-15
 11
-28.39999999999999
 21
1.664281685567223e-15
  0
DIMENSION
  5
18E
100
AcDbEntity
  8
Deckelplatine_dimension
  6
ByLayer
 62
  256
370
   -1
100
AcDbDimension
 10
42.00000000000002
 20
96.18999999999998
 30
0
 11
43.87500000000003
 21
98.09499999999998
 31
0
 70
   32
 71
    5
 72
    0
  3
Standard
 53
0
210
0
220
0
230
1
100
AcDbAlignedDimension
 13
37.00000000000003
 23
100
 33
0
 14
37.00000000000002
 24
96.19
 34
0
 50
270
100
AcDbRotatedDimension
  0
DIMENSION
  5
18F
100
AcDbEntity
  8
Deckelplatine_dimension
  6
ByLayer
 62
  256
370
   -1
100
AcDbDimension
 10
-34.18999999999999
 20
-15.99999999999999
 30
0
 11
-36.09500000000001
 21
-14.12499999999999
 31
0
 70
   32
 71
    5
 72
    0
  3
Standard
 53
0
210
0
220
0
230
1
100
AcDbAlignedDimension
 13
-38.00000000000002
 23
-9.999999999999989
 33
0
 14
-34.18999999999999
 24
-9.999999999999989
 34
0
 50
360
100
AcDbRotatedDimension
  0
DIMENSION
  5
190
100
AcDbEntity
  8
Deckelplatine_dimension
  6
ByLayer
 62
  256
370
   -1
100
AcDbDimension
 10
33.19
 20
-16
 30
0
 11
35.09500000000001
 21
-14.125
 31
0
 70
   32
 71
    5
 72
    0
  3
Standard
 53
0
210
0
220
0
230
1
100
AcDbAlignedDimension
 13
37.00000000000001
 23
-10
 33
0
 14
33.19
 24
-10.2099999999999
 34
0
 50
360
100
AcDbRotatedDimension
  0
DIMENSION
  5
191
100
AcDbEntity
  8
Deckelplatine_dimension
  6
ByLayer
 62
  256
370
   -1
100
AcDbDimension
 10
52.00000000000001
 20
-5.410000000000003
 30
0
 11
53.87500000000001
 21
-7.705000000000019
 31
0
 70
   32
 71
    5
 72
    0
  3
Standard
 53
0
210
0
220
0
230
1
100
AcDbAlignedDimension
 13
37.00000000000001
 23
-10
 33
0
 14
36.48999999999771
 24
-5.41
 34
0
 50
270
100
AcDbRotatedDimension
  0
DIMENSION
  5
192
100
AcDbEntity
  8
Deckelplatine_dimension
  6
ByLayer
 62
  256
370
   -1
100
AcDbDimension
 10
-37.99999999999997
 20
120
 30
0
 11
-0.499999999999967
 21
121.875
 31
0
 70
   32
 71
    5
 72
    0
  3
Standard
 53
0
210
0
220
0
230
1
100
AcDbAlignedDimension
 13
37.00000000000003
 23
100
 33
0
 14
-37.99999999999997
 24
100
 34
0
 50
360
100
AcDbRotatedDimension
  0
DIMENSION
  5
193
100
AcDbEntity
  8
Deckelplatine_dimension
  6
ByLayer
 62
  256
370
   -1
100
AcDbDimension
 10
-34.18999999999997
 20
110
 30
0
 11
-0.5000000000001393
 21
111.875
 31
0
 70
   32
 71
    5
 72
    0
  3
Standard
 53
0
210
0
220
0
230
1
100
AcDbAlignedDimension
 13
33.18999999999972
 23
96.19
 33
0
 14
-34.18999999999998
 24
96.19
 34
0
 50
360
100
AcDbRotatedDimension
  0
DIMENSION
  5
194
100
AcDbEntity
  8
Deckelplatine_dimension
  6
ByLayer
 62
  256
370
   -1
100
AcDbDimension
 10
-57.99999999999999
 20
-9.999999999999986
 30
0
 11
-56.12499999999999
 21
45.00000000000001
 31
0
 70
   32
 71
    5
 72
    0
  3
Standard
 53
0
210
0
220
0
230
1
100
AcDbAlignedDimension
 13
-37.99999999999997
 23
100
 33
0
 14
-38.00000000000002
 24
-9.999999999999989
 34
0
 50
270
100
AcDbRotatedDimension
  0
DIMENSION
  5
195
100
AcDbEntity
  8
Deckelplatine_dimension
  6
ByLayer
 62
  256
370
   -1
100
AcDbDimension
 10
-47.99999999999999
 20
-5.409999999999984
 30
0
 11
-46.12499999999999
 21
45.39000000000001
 31
0
 70
   32
 71
    5
 72
    0
  3
Standard
 53
0
210
0
220
0
230
1
100
AcDbAlignedDimension
 13
-34.18999999999998
 23
96.19
 33
0
 14
-34.19000000000032
 24
-5.409999999999987
 34
0
 50
270
100
AcDbRotatedDimension
  0
LINE
  5
196
100
AcDbEntity
  8
Deckelplatine_outlines
  6
ByLayer
 62
  256
370
   -1
100
AcDbLine
 10
-37.99999999999997
 20
100
 11
-37.99999999999999
 21
-10
  0
LINE
  5
197
100
AcDbEntity
  8
Deckelplatine_outlines
  6
ByLayer
 62
  256
370
   -1
100
AcDbLine
 10
-37.99999999999997
 20
100
 11
37.00000000000003
 21
100
  0
LINE
  5
198
100
AcDbEntity
  8
Deckelplatine_outlines
  6
ByLayer
 62
  256
370
   -1
100
AcDbLine
 10
-38.00000000000002
 20
-10
 11
37.00000000000001
 21
-10.00000000000001
  0
LINE
  5
199
100
AcDbEntity
  8
Deckelplatine_outlines
  6
ByLayer
 62
  256
370
   -1
100
AcDbLine
 10
37.00000000000003
 20
100
 11
37.00000000000001
 21
-10.00000000000001
  0
LINE
  5
19A
100
AcDbEntity
  8
Deckelplatine_connector Bodenplatine
  6
ByLayer
 62
  256
370
   -1
100
AcDbLine
 10
-35.49999999999998
 20
91.59999999999999
 11
-2.499999999999972
 21
91.59999999999999
  0
LINE
  5
19B
100
AcDbEntity
  8
Deckelplatine_connector Bodenplatine
  6
ByLayer
 62
  256
370
   -1
100
AcDbLine
 10
-35.49999999999998
 20
82.40000000000001
 11
-2.499999999999974
 21
82.40000000000001
  0
LINE
  5
19C
100
AcDbEntity
  8
Deckelplatine_connector Bodenplatine
  6
ByLayer
 62
  256
370
   -1
100
AcDbLine
 10
-2.499999999999972
 20
91.59999999999999
 11
-2.499999999999974
 21
82.40000000000001
  0
LINE
  5
19D
100
AcDbEntity
  8
Deckelplatine_connector Bodenplatine
  6
ByLayer
 62
  256
370
   -1
100
AcDbLine
 10
-35.49999999999998
 20
91.59999999999999
 11
-35.49999999999998
 21
82.40000000000001
  0
LINE
  5
19E
100
AcDbEntity
  8
Deckelplatine_conector BananaPro
  6
ByLayer
 62
  256
370
   -1
100
AcDbLine
 10
-25.39999999999999
 20
2.540000000000008
 11
25.40000000000002
 21
2.539999999999998
  0
LINE
  5
19F
100
AcDbEntity
  8
Deckelplatine_conector BananaPro
  6
ByLayer
 62
  256
370
   -1
100
AcDbLine
 10
-25.39999999999999
 20
-2.539999999999991
 11
25.40000000000002
 21
-2.54
  0
LINE
  5
1A0
100
AcDbEntity
  8
Deckelplatine_conector BananaPro
  6
ByLayer
 62
  256
370
   -1
100
AcDbLine
 10
25.4
 20
2.540000000000012
 11
25.40000000000002
 21
-2.54
  0
LINE
  5
1A1
100
AcDbEntity
  8
Deckelplatine_conector BananaPro
  6
ByLayer
 62
  256
370
   -1
100
AcDbLine
 10
-25.39999999999999
 20
2.540000000000021
 11
-25.39999999999999
 21
-2.539999999999991
  0
CIRCLE
  5
1A2
100
AcDbEntity
  8
Deckelplatine_outlines
  6
ByLayer
 62
  256
370
   -1
100
AcDbCircle
 10
-34.18999999999998
 20
96.19
 40
1.65
  0
CIRCLE
  5
1A3
100
AcDbEntity
  8
Deckelplatine_outlines
  6
ByLayer
 62
  256
370
   -1
100
AcDbCircle
 10
33.19000000000002
 20
96.19000000000059
 40
1.65
  0
CIRCLE
  5
1A4
100
AcDbEntity
  8
Deckelplatine_outlines
  6
ByLayer
 62
  256
370
   -1
100
AcDbCircle
 10
-34.19000000000032
 20
-5.409999999999994
 40
1.65
  0
CIRCLE
  5
1A5
100
AcDbEntity
  8
Deckelplatine_outlines
  6
ByLayer
 62
  256
370
   -1
100
AcDbCircle
 10
33.19
 20
-5.410000000000006
 40
1.65
  0
LINE
  5
1A6
100
AcDbEntity
  8
Deckelplatine_outlines
  6
DASHDOTTINY
 62
  256
370
   13
100
AcDbLine
 10
40.00000000000001
 20
44.99999999999999
 11
-40.99999999999999
 21
45
  0
LINE
  5
1A7
100
AcDbEntity
  8
Deckelplatine_outlines
  6
DASHDOTTINY
 62
  256
370
   13
100
AcDbLine
 10
2.000000000000029
 20
103
 11
2.000000000000008
 21
-13.00000000000001
  0
LINE
  5
1A8
100
AcDbEntity
  8
Deckelplatine_annotation
  6
DASHDOTTINY
 62
  256
370
   13
100
AcDbLine
 10
-30.88999999999997
 20
96.19
 11
-37.48999999999996
 21
96.19
  0
LINE
  5
1A9
100
AcDbEntity
  8
Deckelplatine_annotation
  6
DASHDOTTINY
 62
  256
370
   13
100
AcDbLine
 10
-34.18999999999996
 20
99.49000000000004
 11
-34.18999999999998
 21
92.88999999999999
  0
LINE
  5
1AA
100
AcDbEntity
  8
Deckelplatine_annotation
  6
DASHDOTTINY
 62
  256
370
   13
100
AcDbLine
 10
36.48999999999932
 20
96.19
 11
29.89000000000003
 21
96.19
  0
LINE
  5
1AB
100
AcDbEntity
  8
Deckelplatine_annotation
  6
DASHDOTTINY
 62
  256
370
   13
100
AcDbLine
 10
33.19000000000003
 20
99.48999999999998
 11
33.19000000000002
 21
92.89000000000118
  0
LINE
  5
1AC
100
AcDbEntity
  8
Deckelplatine_annotation
  6
DASHDOTTINY
 62
  256
370
   13
100
AcDbLine
 10
36.49
 20
-5.410000000000007
 11
29.89000000000001
 21
-5.410000000000005
  0
LINE
  5
1AD
100
AcDbEntity
  8
Deckelplatine_annotation
  6
DASHDOTTINY
 62
  256
370
   13
100
AcDbLine
 10
33.19
 20
-2.110000000000109
 11
33.19
 21
-8.709999999999903
  0
LINE
  5
1AE
100
AcDbEntity
  8
Deckelplatine_annotation
  6
DASHDOTTINY
 62
  256
370
   13
100
AcDbLine
 10
-30.89000000000065
 20
-5.409999999999995
 11
-37.48999999999997
 21
-5.409999999999993
  0
LINE
  5
1AF
100
AcDbEntity
  8
Deckelplatine_annotation
  6
DASHDOTTINY
 62
  256
370
   13
100
AcDbLine
 10
-34.18999999999999
 20
-2.110000000000011
 11
-34.18999999999999
 21
-8.710000000000004
  0
ENDBLK
  5
B1
330
AF
100
AcDbEntity
  8
0
100
AcDbBlockEnd
  0
BLOCK
  5
B3
330
B2
100
AcDbEntity
  8
0
100
AcDbBlockBegin
  2
Deckelplatine mit BananaPro
 70
    0
 10
0
 20
0
  3
Deckelplatine mit BananaPro
  1

  0
INSERT
  5
1B0
100
AcDbEntity
  8
0
  6
ByLayer
 62
  256
370
   -1
100
AcDbBlockReference
  2
BananaPro
 10
0
 20
0
 30
0
 41
1
 42
1
 43
0
 50
0
 70
    1
 71
    1
 44
0
 45
0
  0
INSERT
  5
1B1
100
AcDbEntity
  8
0
  6
ByLayer
 62
  256
370
   -1
100
AcDbBlockReference
  2
xMZ-Mod-Touch-Deckelplatine
 10
0
 20
0
 30
0
 41
1
 42
1
 43
0
 50
0
 70
    1
 71
    1
 44
0
 45
0
  0
ENDBLK
  5
B4
330
B2
100
AcDbEntity
  8
0
100
AcDbBlockEnd
  0
ENDSEC
  0
SECTION
  2
ENTITIES
  0
LINE
  5
1B2
100
AcDbEntity
  8
outlines
  6
ByLayer
 62
  256
370
   -1
100
AcDbLine
 10
293.5
 20
259
 11
315
 21
255.2089699147681
  0
LINE
  5
1B3
100
AcDbEntity
  8
outlines
  6
ByLayer
 62
  256
370
   -1
100
AcDbLine
 10
293.5
 20
30
 11
315
 21
33.79103008523199
  0
LINE
  5
1B4
100
AcDbEntity
  8
outlines
  6
ByLayer
 62
  256
370
   -1
100
AcDbLine
 10
51.5
 20
258.9999999999999
 11
30
 21
255.2089699147679
  0
LINE
  5
1B5
100
AcDbEntity
  8
outlines
  6
ByLayer
 62
  256
370
   -1
100
AcDbLine
 10
51.5
 20
29.99999999999993
 11
30
 21
33.79103008523194
  0
LINE
  5
1B6
100
AcDbEntity
  8
outlines
  6
ByLayer
 62
  256
370
   -1
100
AcDbLine
 10
293.5
 20
259
 11
51.5
 21
259
  0
LINE
  5
1B7
100
AcDbEntity
  8
outlines
  6
ByLayer
 62
  256
370
   -1
100
AcDbLine
 10
293.5
 20
30
 11
51.5
 21
30
  0
LINE
  5
1B8
100
AcDbEntity
  8
outlines
  6
ByLayer
 62
  256
370
   -1
100
AcDbLine
 10
315
 20
33.79103008523199
 11
315
 21
255.2089699147681
  0
LINE
  5
1B9
100
AcDbEntity
  8
outlines
  6
ByLayer
 62
  256
370
   -1
100
AcDbLine
 10
30
 20
33.79103008523194
 11
30
 21
255.2089699147679
  0
LINE
  5
1BA
100
AcDbEntity
  8
cut TFT
  6
ByLayer
 62
  256
370
   -1
100
AcDbLine
 10
212.8
 20
237.7399999999999
 11
39.43000000000006
 21
237.74
  0
LINE
  5
1BB
100
AcDbEntity
  8
cut TFT
  6
ByLayer
 62
  256
370
   -1
100
AcDbLine
 10
212.8
 20
123
 11
39.43000000000006
 21
122.9999999999999
  0
LINE
  5
1BC
100
AcDbEntity
  8
cut TFT
  6
ByLayer
 62
  256
370
   -1
100
AcDbLine
 10
212.8
 20
237.74
 11
212.8
 21
123
  0
LINE
  5
1BD
100
AcDbEntity
  8
cut TFT
  6
ByLayer
 62
  256
370
   -1
100
AcDbLine
 10
39.43000000000001
 20
237.74
 11
39.43000000000006
 21
122.9999999999999
  0
LINE
  5
1BE
100
AcDbEntity
  8
construction
  6
ByLayer
 62
  256
370
   -1
100
AcDbLine
 10
310
 20
33.79103008523199
 11
310
 21
255.2089699147681
  0
LINE
  5
1BF
100
AcDbEntity
  8
construction
  6
ByLayer
 62
  256
370
   -1
100
AcDbLine
 10
35
 20
33.79103008523194
 11
35
 21
255.2089699147679
  0
LINE
  5
1C0
100
AcDbEntity
  8
construction
  6
ByLayer
 62
  256
370
   -1
100
AcDbLine
 10
293.5
 20
249.5
 11
51.5
 21
249.5
  0
LINE
  5
1C1
100
AcDbEntity
  8
construction
  6
ByLayer
 62
  256
370
   -1
100
AcDbLine
 10
293.5
 20
39.5
 11
51.5
 21
39.5
  0
DIMENSION
  5
1C2
100
AcDbEntity
  8
dimension
  6
ByLayer
 62
  256
370
   -1
100
AcDbDimension
  2
*D1
 10
315
 20
10
 30
0
 11
172.5
 21
11.875
 31
0
 70
   32
 71
    5
 72
    0
  3
Standard
 53
0
210
0
220
0
230
1
100
AcDbAlignedDimension
 13
30
 23
33.79103008523194
 33
0
 14
315
 24
33.79103008523199
 34
0
100
AcDbRotatedDimension
  0
LINE
  5
1C3
100
AcDbEntity
  8
cut cable Frontfolie
  6
ByLayer
 62
  256
370
   -1
100
AcDbLine
 10
300.8
 20
182
 11
300.8
 21
146
  0
LINE
  5
1C4
100
AcDbEntity
  8
cut cable Frontfolie
  6
ByLayer
 62
  256
370
   -1
100
AcDbLine
 10
294.8
 20
182
 11
294.8
 21
146
  0
LINE
  5
1C5
100
AcDbEntity
  8
cut cable Frontfolie
  6
ByLayer
 62
  256
370
   -1
100
AcDbLine
 10
300.8
 20
182
 11
294.8
 21
182
  0
LINE
  5
1C6
100
AcDbEntity
  8
cut cable Frontfolie
  6
ByLayer
 62
  256
370
   -1
100
AcDbLine
 10
300.8
 20
146
 11
294.8
 21
146
  0
INSERT
  5
1C7
100
AcDbEntity
  8
0
  6
ByLayer
 62
  256
370
   -1
100
AcDbBlockReference
  2
Infobox-3
 10
0
 20
0
 30
0
 41
1
 42
1
 43
0
 50
0
 70
    1
 71
    1
 44
0
 45
0
  0
LINE
  5
1C8
100
AcDbEntity
  8
sockets
  6
DASHDOTTINY
 62
  256
370
   13
100
AcDbLine
 10
30
 20
249.5
 11
40
 21
249.5
  0
LINE
  5
1C9
100
AcDbEntity
  8
sockets
  6
DASHDOTTINY
 62
  256
370
   13
100
AcDbLine
 10
167.5
 20
249.5
 11
177.5
 21
249.5
  0
LINE
  5
1CA
100
AcDbEntity
  8
sockets
  6
DASHDOTTINY
 62
  256
370
   13
100
AcDbLine
 10
305
 20
249.5
 11
315
 21
249.5
  0
LINE
  5
1CB
100
AcDbEntity
  8
sockets
  6
DASHDOTTINY
 62
  256
370
   13
100
AcDbLine
 10
305
 20
39.5
 11
315
 21
39.5
  0
LINE
  5
1CC
100
AcDbEntity
  8
sockets
  6
DASHDOTTINY
 62
  256
370
   13
100
AcDbLine
 10
167.5
 20
39.5
 11
177.5
 21
39.5
  0
LINE
  5
1CD
100
AcDbEntity
  8
sockets
  6
DASHDOTTINY
 62
  256
370
   13
100
AcDbLine
 10
30
 20
39.5
 11
40
 21
39.5
  0
LINE
  5
1CE
100
AcDbEntity
  8
sockets
  6
DASHDOTTINY
 62
  256
370
   13
100
AcDbLine
 10
35
 20
34.5
 11
35
 21
44.5
  0
LINE
  5
1CF
100
AcDbEntity
  8
sockets
  6
DASHDOTTINY
 62
  256
370
   13
100
AcDbLine
 10
35
 20
244.5
 11
35
 21
254.5
  0
LINE
  5
1D0
100
AcDbEntity
  8
sockets
  6
DASHDOTTINY
 62
  256
370
   13
100
AcDbLine
 10
172.5
 20
244.5
 11
172.5
 21
254.5
  0
LINE
  5
1D1
100
AcDbEntity
  8
sockets
  6
DASHDOTTINY
 62
  256
370
   13
100
AcDbLine
 10
310
 20
244.5
 11
310
 21
254.5
  0
LINE
  5
1D2
100
AcDbEntity
  8
sockets
  6
DASHDOTTINY
 62
  256
370
   13
100
AcDbLine
 10
310
 20
34.5
 11
310
 21
44.5
  0
LINE
  5
1D3
100
AcDbEntity
  8
sockets
  6
DASHDOTTINY
 62
  256
370
   13
100
AcDbLine
 10
172.5
 20
39
 11
172.5
 21
40
  0
LINE
  5
1D4
100
AcDbEntity
  8
sockets
  6
DASHDOTTINY
 62
  256
370
   13
100
AcDbLine
 10
172.5
 20
39
 11
172.5
 21
40
  0
LINE
  5
1D5
100
AcDbEntity
  8
sockets
  6
DASHDOTTINY
 62
  256
370
   13
100
AcDbLine
 10
172.5
 20
39
 11
172.5
 21
40
  0
LINE
  5
1D6
100
AcDbEntity
  8
sockets
  6
DASHDOTTINY
 62
  256
370
   13
100
AcDbLine
 10
172.5
 20
34.5
 11
172.5
 21
44.5
  0
LINE
  5
1D7
100
AcDbEntity
  8
outlines
  6
DASHDOTTINY
 62
  256
370
   13
100
AcDbLine
 10
172.5
 20
262
 11
172.5
 21
27
  0
LINE
  5
1D8
100
AcDbEntity
  8
outlines
  6
DASHDOTTINY
 62
  256
370
   13
100
AcDbLine
 10
315
 20
144.5
 11
30
 21
144.4999999999999
  0
LINE
  5
1D9
100
AcDbEntity
  8
outlines
  6
DASHDOTTINY
 62
  256
370
   13
100
AcDbLine
 10
30
 20
144.4999999999999
 11
27
 21
144.4999999999999
  0
LINE
  5
1DA
100
AcDbEntity
  8
outlines
  6
DASHDOTTINY
 62
  256
370
   13
100
AcDbLine
 10
315
 20
144.5
 11
318
 21
144.5
  0
LINE
  5
1DB
100
AcDbEntity
  8
outlines
  6
DASHDOTTINY
 62
  256
370
   13
100
AcDbLine
 10
172.5
 20
30
 11
172.5
 21
27
  0
INSERT
  5
1DC
100
AcDbEntity
  8
0
  6
ByLayer
 62
  256
370
   -1
100
AcDbBlockReference
  2
Deckelplatine mit BananaPro
 10
263.8099999999999
 20
112.8099999999994
 30
0
 41
1
 42
1
 43
0
 50
0
 70
    1
 71
    1
 44
0
 45
0
  0
LINE
  5
1DD
100
AcDbEntity
  8
construction
  6
ByLayer
 62
  256
370
   -1
100
AcDbLine
 10
209.8099999999999
 20
112.8099999999994
 11
295.3099999999999
 21
112.8099999999994
  0
LINE
  5
1DE
100
AcDbEntity
  8
construction
  6
ByLayer
 62
  256
370
   -1
100
AcDbLine
 10
209.8099999999999
 20
58.80999999999945
 11
298.3099999999999
 21
58.80999999999945
  0
LINE
  5
1DF
100
AcDbEntity
  8
construction
  6
ByLayer
 62
  256
370
   -1
100
AcDbLine
 10
209.8099999999999
 20
58.80999999999945
 11
209.8099999999999
 21
147.3099999999994
  0
LINE
  5
1E0
100
AcDbEntity
  8
construction
  6
ByLayer
 62
  256
370
   -1
100
AcDbLine
 10
295.3099999999999
 20
63.80999999999943
 11
296.3099999999999
 21
63.80999999999943
  0
LINE
  5
1E1
100
AcDbEntity
  8
construction
  6
ByLayer
 62
  256
370
   -1
100
AcDbLine
 10
229.6199999999999
 20
107.3999999999994
 11
230.6199999999999
 21
107.3999999999994
  0
CIRCLE
  5
1E2
100
AcDbEntity
  8
sockets
  6
ByLayer
 62
  256
370
   -1
100
AcDbCircle
 10
310
 20
249.5
 40
3
  0
CIRCLE
  5
1E3
100
AcDbEntity
  8
sockets
  6
ByLayer
 62
  256
370
   -1
100
AcDbCircle
 10
172.5
 20
249.5
 40
3
  0
CIRCLE
  5
1E4
100
AcDbEntity
  8
sockets
  6
ByLayer
 62
  256
370
   -1
100
AcDbCircle
 10
35
 20
249.5
 40
3
  0
CIRCLE
  5
1E5
100
AcDbEntity
  8
sockets
  6
ByLayer
 62
  256
370
   -1
100
AcDbCircle
 10
35
 20
39.5
 40
3
  0
CIRCLE
  5
1E6
100
AcDbEntity
  8
sockets
  6
ByLayer
 62
  256
370
   -1
100
AcDbCircle
 10
172.5
 20
39.5
 40
3
  0
CIRCLE
  5
1E7
100
AcDbEntity
  8
sockets
  6
ByLayer
 62
  256
370
   -1
100
AcDbCircle
 10
310
 20
39.5
 40
3
  0
CIRCLE
  5
1E8
100
AcDbEntity
  8
sockets
  6
ByLayer
 62
  256
370
   -1
100
AcDbCircle
 10
310
 20
249.5
 40
1.2
  0
CIRCLE
  5
1E9
100
AcDbEntity
  8
sockets
  6
ByLayer
 62
  256
370
   -1
100
AcDbCircle
 10
172.5
 20
249.5
 40
1.2
  0
CIRCLE
  5
1EA
100
AcDbEntity
  8
sockets
  6
ByLayer
 62
  256
370
   -1
100
AcDbCircle
 10
229.6199999999997
 20
208.9999999999994
 40
1.2
  0
CIRCLE
  5
1EB
100
AcDbEntity
  8
sockets
  6
ByLayer
 62
  256
370
   -1
100
AcDbCircle
 10
296.9999999999999
 20
209
 40
1.2
  0
CIRCLE
  5
1EC
100
AcDbEntity
  8
sockets
  6
ByLayer
 62
  256
370
   -1
100
AcDbCircle
 10
296.9999999999999
 20
107.3999999999994
 40
1.2
  0
CIRCLE
  5
1ED
100
AcDbEntity
  8
sockets
  6
ByLayer
 62
  256
370
   -1
100
AcDbCircle
 10
209.8099999999999
 20
112.8099999999994
 40
1.2
  0
CIRCLE
  5
1EE
100
AcDbEntity
  8
sockets
  6
ByLayer
 62
  256
370
   -1
100
AcDbCircle
 10
35
 20
249.5
 40
1.2
  0
CIRCLE
  5
1EF
100
AcDbEntity
  8
sockets
  6
ByLayer
 62
  256
370
   -1
100
AcDbCircle
 10
35
 20
39.5
 40
1.2
  0
CIRCLE
  5
1F0
100
AcDbEntity
  8
sockets
  6
ByLayer
 62
  256
370
   -1
100
AcDbCircle
 10
172.5
 20
39.5
 40
1.2
  0
CIRCLE
  5
1F1
100
AcDbEntity
  8
sockets
  6
ByLayer
 62
  256
370
   -1
100
AcDbCircle
 10
310
 20
39.5
 40
1.2
  0
CIRCLE
  5
1F2
100
AcDbEntity
  8
sockets
  6
ByLayer
 62
  256
370
   -1
100
AcDbCircle
 10
295.3099999999999
 20
63.80999999999941
 40
1.2
  0
CIRCLE
  5
1F3
100
AcDbEntity
  8
sockets
  6
ByLayer
 62
  256
370
   -1
100
AcDbCircle
 10
209.8099999999999
 20
58.80999999999945
 40
1.2
  0
LINE
  5
1F4
100
AcDbEntity
  8
construction
  6
ByLayer
 62
  256
370
   -1
100
AcDbLine
 10
229.6199999999997
 20
107.3999999999994
 11
229.6199999999997
 21
111.3999999999994
  0
LINE
  5
1F5
100
AcDbEntity
  8
construction
  6
ByLayer
 62
  256
370
   -1
100
AcDbLine
 10
295.3099999999999
 20
63.80999999999944
 11
295.3099999999999
 21
158.3099999999994
  0
LINE
  5
1F6
100
AcDbEntity
  8
construction
  6
ByLayer
 62
  256
370
   -1
100
AcDbLine
 10
302.5
 20
209
 11
51.49999999999999
 21
209
  0
LINE
  5
1F7
100
AcDbEntity
  8
construction
  6
ByLayer
 62
  256
370
   -1
100
AcDbLine
 10
297
 20
33.79103008523199
 11
297
 21
258.2089699147681
  0
CIRCLE
  5
1F8
100
AcDbEntity
  8
sockets
  6
ByLayer
 62
  256
370
   -1
100
AcDbCircle
 10
229.6199999999997
 20
107.3999999999994
 40
1.2
  0
LINE
  5
1F9
100
AcDbEntity
  8
sockets
  6
DASHDOTTINY
 62
  256
370
   13
100
AcDbLine
 10
229.6199999999997
 20
214.9000000000043
 11
229.6199999999997
 21
202.8999999999994
  0
LINE
  5
1FA
100
AcDbEntity
  8
sockets
  6
DASHDOTTINY
 62
  256
370
   13
100
AcDbLine
 10
235.618332870116
 20
209
 11
223.6216671298835
 21
209
  0
LINE
  5
1FB
100
AcDbEntity
  8
sockets
  6
DASHDOTTINY
 62
  256
370
   13
100
AcDbLine
 10
290.9999999999899
 20
209
 11
303
 21
209
  0
LINE
  5
1FC
100
AcDbEntity
  8
sockets
  6
DASHDOTTINY
 62
  256
370
   13
100
AcDbLine
 10
297
 20
215
 11
297
 21
203.0000000000235
  0
LINE
  5
1FD
100
AcDbEntity
  8
sockets
  6
DASHDOTTINY
 62
  256
370
   13
100
AcDbLine
 10
229.6199999999997
 20
113.3999999999994
 11
229.6199999999997
 21
101.3999999999994
  0
LINE
  5
1FE
100
AcDbEntity
  8
sockets
  6
DASHDOTTINY
 62
  256
370
   13
100
AcDbLine
 10
223.6200000000023
 20
107.3999999999994
 11
235.6199999999974
 21
107.3999999999994
  0
LINE
  5
1FF
100
AcDbEntity
  8
sockets
  6
DASHDOTTINY
 62
  256
370
   13
100
AcDbLine
 10
203.8100000000005
 20
112.8099942779535
 11
215.8099999999944
 21
112.810001907348
  0
LINE
  5
200
100
AcDbEntity
  8
sockets
  6
DASHDOTTINY
 62
  256
370
   13
100
AcDbLine
 10
209.8100080921948
 20
118.8099999999982
 11
209.8099973026016
 21
106.8099999999958
  0
LINE
  5
201
100
AcDbEntity
  8
sockets
  6
DASHDOTTINY
 62
  256
370
   13
100
AcDbLine
 10
303.1199999999999
 20
107.3999999999994
 11
291.1199999999999
 21
107.3999999999994
  0
LINE
  5
202
100
AcDbEntity
  8
sockets
  6
DASHDOTTINY
 62
  256
370
   13
100
AcDbLine
 10
297
 20
113.4000000000092
 11
296.9999999999998
 21
101.3999999999898
  0
LINE
  5
203
100
AcDbEntity
  8
sockets
  6
DASHDOTTINY
 62
  256
370
   13
100
AcDbLine
 10
295.31
 20
69.80999999999939
 11
295.3099999999998
 21
57.80999999999943
  0
LINE
  5
204
100
AcDbEntity
  8
sockets
  6
DASHDOTTINY
 62
  256
370
   13
100
AcDbLine
 10
203.8099999999999
 20
58.80999999999945
 11
215.8099999999974
 21
58.80999999999945
  0
LINE
  5
205
100
AcDbEntity
  8
sockets
  6
DASHDOTTINY
 62
  256
370
   13
100
AcDbLine
 10
209.8100019073485
 20
64.8100000000013
 11
209.8099942779541
 21
52.81000000000002
  0
CIRCLE
  5
206
100
AcDbEntity
  8
sockets
  6
ByLayer
 62
   20
420
16733440
370
   -1
100
AcDbCircle
 10
296.9999999999999
 20
107.3999999999994
 40
3
  0
CIRCLE
  5
207
100
AcDbEntity
  8
sockets
  6
ByLayer
 62
   20
420
16733440
370
   -1
100
AcDbCircle
 10
229.6199999999997
 20
208.8999999999994
 40
3
  0
CIRCLE
  5
208
100
AcDbEntity
  8
sockets
  6
ByLayer
 62
   20
420
16733440
370
   -1
100
AcDbCircle
 10
296.9999999999995
 20
208.9999999999994
 40
3
  0
CIRCLE
  5
209
100
AcDbEntity
  8
sockets
  6
ByLayer
 62
   20
420
16733440
370
   -1
100
AcDbCircle
 10
229.6199999999999
 20
107.3999999999994
 40
3
  0
CIRCLE
  5
20A
100
AcDbEntity
  8
sockets
  6
ByLayer
 62
  140
420
43775
370
   -1
100
AcDbCircle
 10
209.8099999999999
 20
112.8099999999994
 40
3
  0
CIRCLE
  5
20B
100
AcDbEntity
  8
sockets
  6
ByLayer
 62
  140
420
43775
370
   -1
100
AcDbCircle
 10
209.8099999999999
 20
58.80999999999945
 40
3
  0
CIRCLE
  5
20C
100
AcDbEntity
  8
sockets
  6
ByLayer
 62
  140
420
43775
370
   -1
100
AcDbCircle
 10
295.3099999999999
 20
63.80999999999941
 40
3
  0
LEADER
  5
20D
100
AcDbEntity
  8
annotation
  6
ByLayer
 62
  256
370
   -1
100
AcDbLeader
  3
Standard
 71
    1
 72
    0
 73
    3
 74
    0
 75
    0
 40
1
 41
10
 76
3
 76
3
 10
209.8099999999999
 20
109.8099999705893
 30
0
 10
200
 20
100
 30
0
 10
180
 20
100
 30
0
  0
LEADER
  5
20E
100
AcDbEntity
  8
annotation
  6
ByLayer
 62
  256
370
   -1
100
AcDbLeader
  3
Standard
 71
    1
 72
    0
 73
    3
 74
    0
 75
    0
 40
1
 41
10
 76
3
 76
3
 10
209.8099961853027
 20
55.8099999999994
 30
0
 10
200
 20
50
 30
0
 10
180
 20
50
 30
0
  0
LEADER
  5
20F
100
AcDbEntity
  8
annotation
  6
ByLayer
 62
  256
370
   -1
100
AcDbLeader
  3
Standard
 71
    1
 72
    0
 73
    3
 74
    0
 75
    0
 40
1
 41
10
 76
3
 76
3
 10
295.3099999999998
 20
60.81000000000665
 30
0
 10
290
 20
50
 30
0
 10
260
 20
50
 30
0
  0
LEADER
  5
210
100
AcDbEntity
  8
annotation
  6
ByLayer
 62
  256
370
   -1
100
AcDbLeader
  3
Standard
 71
    1
 72
    0
 73
    3
 74
    0
 75
    0
 40
1
 41
10
 76
3
 76
3
 10
297
 20
104
 30
0
 10
292
 20
101
 30
0
 10
270
 20
101
 30
0
  0
LEADER
  5
211
100
AcDbEntity
  8
annotation
  6
ByLayer
 62
  256
370
   -1
100
AcDbLeader
  3
Standard
 71
    1
 72
    0
 73
    3
 74
    0
 75
    0
 40
1
 41
10
 76
3
 76
3
 10
296.9999999999999
 20
205.9999999999898
 30
0
 10
294
 20
201
 30
0
 10
268
 20
201
 30
0
  0
DIMENSION
  5
212
100
AcDbEntity
  8
dimension
  6
ByLayer
 62
  256
370
   -1
100
AcDbDimension
  2
*D7
 10
10
 20
259
 30
0
 11
8.124999999999993
 21
144.5
 31
0
 70
   32
 71
    5
  3
Standard
 53
0
210
0
220
0
230
1
100
AcDbAlignedDimension
 13
51.49999999999957
 23
30
 33
0
 14
51.50000000000091
 24
259
 34
0
 50
90
100
AcDbRotatedDimension
  0
LEADER
  5
213
100
AcDbEntity
  8
annotation
  6
ByLayer
 62
  256
370
   -1
100
AcDbLeader
  3
Standard
 71
    1
 72
    0
 73
    3
 74
    0
 75
    0
 40
1
 41
10
 76
3
 76
3
 10
229.6199999999997
 20
110.399999999997
 30
0
 10
240
 20
125
 30
0
 10
267
 20
125
 30
0
  0
LEADER
  5
214
100
AcDbEntity
  8
annotation
  6
ByLayer
 62
  256
370
   -1
100
AcDbLeader
  3
Standard
 71
    1
 72
    0
 73
    3
 74
    0
 75
    0
 40
1
 41
10
 76
3
 76
3
 10
229.6199999999997
 20
211.9000000000043
 30
0
 10
240
 20
221
 30
0
 10
266
 20
221
 30
0
  0
MTEXT
  5
215
100
AcDbEntity
  8
Infobox A3
  6
ByLayer
 62
  256
370
   -1
100
AcDbMText
 10
387
 20
203
 30
0
 40
1
 41
44.33333333333371
 71
    1
 72
    1
  1
xMZ-Mod-Touch-Halter-Elektronik_Deckel_Bopla_BCD_310.dxf
  7
standard
210
0
220
0
230
1
 50
90
 73
    2
 44
1
  0
MTEXT
  5
216
100
AcDbEntity
  8
Infobox A3
  6
ByLayer
 62
  256
370
   -1
100
AcDbMText
 10
406
 20
203
 30
0
 40
2
 41
18.16666624266255
 71
    1
 72
    1
  1
Stefan Mller
  7
standard
210
0
220
0
230
1
 50
90
 73
    2
 44
1
  0
MTEXT
  5
217
100
AcDbEntity
  8
Infobox A3
  6
ByLayer
 62
  256
370
   -1
100
AcDbMText
 10
406
 20
260
 30
0
 40
2
 41
14.00000000000037
 71
    1
 72
    1
  1
2016-03-31
  7
standard
210
0
220
0
230
1
 50
90
 73
    2
 44
1
  0
DIMENSION
  5
218
100
AcDbEntity
  8
dimension
  6
ByLayer
 62
  256
370
   -1
100
AcDbDimension
  2
*D10
 10
296.9999999999997
 20
280
 30
0
 11
163.4999999999999
 21
281.875
 31
0
 70
   32
 71
    5
  3
Standard
 53
0
210
0
220
0
230
1
100
AcDbAlignedDimension
 13
30
 23
255.2089699147679
 33
0
 14
296.9999999999997
 24
258.3828555675204
 34
0
100
AcDbRotatedDimension
  0
LEADER
  5
219
100
AcDbEntity
  8
annotation
  6
ByLayer
 62
  256
370
   -1
100
AcDbLeader
  3
Standard
 71
    1
 72
    0
 73
    3
 74
    0
 75
    0
 40
1
 41
10
 76
3
 76
3
 10
315
 20
39.07821193866643
 30
0
 10
330
 20
50.69000000000055
 30
0
 10
400
 20
50.69000000000055
 30
0
  0
MTEXT
  5
21A
100
AcDbEntity
  8
annotation
  6
ByLayer
 62
  256
370
   -1
100
AcDbMText
 10
265.8099999999999
 20
99.80999999999939
 30
0
 40
2
 41
27.05555555555596
 71
    1
 72
    1
  1
Halter Deckelplatine\PHhe 5mm
  7
standard
210
0
220
0
230
1
 50
0
 73
    2
 44
1
  0
MTEXT
  5
21B
100
AcDbEntity
  8
annotation
  6
ByLayer
 62
  256
370
   -1
100
AcDbMText
 10
240
 20
230
 30
0
 40
2
 41
25.50000000000053
 71
    1
 72
    1
  1
Dome Deckelplatine\PHhe 5mm
  7
standard
210
0
220
0
230
1
 50
0
 73
    2
 44
1
  0
MTEXT
  5
21C
100
AcDbEntity
  8
annotation
  6
ByLayer
 62
  256
370
   -1
100
AcDbMText
 10
265.8099999999999
 20
198.9765881708811
 30
0
 40
2
 41
25.50000000000053
 71
    1
 72
    1
  1
Dome Deckelplatine\PHhe 5mm
  7
standard
210
0
220
0
230
1
 50
0
 73
    2
 44
1
  0
MTEXT
  5
21D
100
AcDbEntity
  8
annotation
  6
ByLayer
 62
  256
370
   -1
100
AcDbMText
 10
240
 20
132
 30
0
 40
2
 41
25.50000000000053
 71
    1
 72
    1
  1
Dome Deckelplatine\PHhe 5mm
  7
standard
210
0
220
0
230
1
 50
0
 73
    2
 44
1
  0
MTEXT
  5
21E
100
AcDbEntity
  8
annotation
  6
ByLayer
 62
  256
370
   -1
100
AcDbMText
 10
177
 20
107
 30
0
 40
2
 41
21.94444444444512
 71
    1
 72
    1
  1
Dome BananaPro\PHhe 21mm
  7
standard
210
0
220
0
230
1
 50
0
 73
    2
 44
1
  0
MTEXT
  5
21F
100
AcDbEntity
  8
annotation
  6
ByLayer
 62
  256
370
   -1
100
AcDbMText
 10
179
 20
57
 30
0
 40
2
 41
21.94444444444512
 71
    1
 72
    1
  1
Dome BananaPro\PHhe 21mm
  7
standard
210
0
220
0
230
1
 50
0
 73
    2
 44
1
  0
MTEXT
  5
220
100
AcDbEntity
  8
annotation
  6
ByLayer
 62
  256
370
   -1
100
AcDbMText
 10
260
 20
49
 30
0
 40
2
 41
21.94444444444512
 71
    1
 72
    1
  1
Dome BananaPro\PHhe 21mm
  7
standard
210
0
220
0
230
1
 50
0
 73
    2
 44
1
  0
MTEXT
  5
221
100
AcDbEntity
  8
annotation
  6
ByLayer
 62
  256
370
   -1
100
AcDbMText
 10
340.4444434158698
 20
65.69000000000055
 30
0
 40
2
 41
63.44444547301981
 71
    1
 72
    1
  1
Mae der Dome aus BOPLA Catalogue drawing\P20311524_BCD-310-OT-FSC-7024.pdf\P\P  BCD 310 OT-FSC, ABS, RAL 7024\P\P
  7
standard
210
0
220
0
230
1
 50
0
 73
    2
 44
1
  0
MTEXT
  5
222
100
AcDbEntity
  8
Infobox A3
  6
ByLayer
 62
  256
370
   -1
100
AcDbMText
 10
393
 20
203
 30
0
 40
2
 41
32.77777777777818
 71
    1
 72
    1
  1
Elektronik Halter/ Dome\PDeckel Bopla BCD 310
  7
standard
210
0
220
0
230
1
 50
90
 73
    2
 44
1
  0
CIRCLE
  5
223
100
AcDbEntity
  8
sockets detail
  6
ByLayer
 62
  256
370
   -1
100
AcDbCircle
 10
355.0000000000001
 20
138.4000000000112
 40
1.2
  0
LINE
  5
224
100
AcDbEntity
  8
sockets detail
  6
DASHDOTTINY
 62
  256
370
   13
100
AcDbLine
 10
355.0000000000001
 20
144.4000000000213
 11
355.0000000000001
 21
132.4000000000112
  0
LINE
  5
225
100
AcDbEntity
  8
sockets detail
  6
DASHDOTTINY
 62
  256
370
   13
100
AcDbLine
 10
361.0000000000001
 20
138.4000000000112
 11
349.0000000000236
 21
138.4000000000112
  0
CIRCLE
  5
226
100
AcDbEntity
  8
sockets detail
  6
ByLayer
 62
   20
420
16733440
370
   -1
100
AcDbCircle
 10
354.9999999999994
 20
138.4000000000116
 40
3
  0
LINE
  5
227
100
AcDbEntity
  8
sockets detail
  6
ByLayer
 62
  256
370
   -1
100
AcDbLine
 10
352.0000000000067
 20
112.3999999999994
 11
358.0000000000171
 21
112.3999999999994
  0
LINE
  5
228
100
AcDbEntity
  8
sockets detail
  6
ByLayer
 62
  256
370
   -1
100
AcDbLine
 10
352.0000000000067
 20
107.3999999999994
 11
358.0000000000171
 21
107.3999999999994
  0
LINE
  5
229
100
AcDbEntity
  8
sockets detail
  6
ByLayer
 62
  256
370
   -1
100
AcDbLine
 10
358.0000000000171
 20
112.3999999999994
 11
358.0000000000171
 21
107.3999999999994
  0
LINE
  5
22A
100
AcDbEntity
  8
sockets detail
  6
ByLayer
 62
  256
370
   -1
100
AcDbLine
 10
352.0000000000067
 20
112.3999999999994
 11
352.0000000000067
 21
107.3999999999994
  0
MTEXT
  5
22B
100
AcDbEntity
  8
annotation
  6
ByLayer
 62
  256
370
   -1
100
AcDbMText
 10
335.0000000000118
 20
138.3999999999994
 30
0
 40
2
 41
11.94444444444444
 71
    1
 72
    1
  1
TOP view
  7
standard
210
0
220
0
230
1
 50
0
 73
    2
 44
1
  0
MTEXT
  5
22C
100
AcDbEntity
  8
annotation
  6
ByLayer
 62
  256
370
   -1
100
AcDbMText
 10
335.0000000000118
 20
108.3999999999994
 30
0
 40
2
 41
15.27777777777778
 71
    1
 72
    1
  1
FRONT view
  7
standard
210
0
220
0
230
1
 50
0
 73
    2
 44
1
  0
CIRCLE
  5
22D
100
AcDbEntity
  8
sockets detail
  6
ByLayer
 62
  256
370
   -1
100
AcDbCircle
 10
395.0000000000118
 20
138.3999999999982
 40
1.2
  0
LINE
  5
22E
100
AcDbEntity
  8
sockets detail
  6
DASHDOTTINY
 62
  256
370
   13
100
AcDbLine
 10
395.0000000000118
 20
144.4000000000006
 11
395.0000000000118
 21
132.3999999999982
  0
LINE
  5
22F
100
AcDbEntity
  8
sockets detail
  6
DASHDOTTINY
 62
  256
370
   13
100
AcDbLine
 10
401.0000000000118
 20
138.3999999999981
 11
389.0000000000118
 21
138.3999999999983
  0
CIRCLE
  5
230
100
AcDbEntity
  8
sockets detail
  6
ByLayer
 62
  140
420
43775
370
   -1
100
AcDbCircle
 10
395.0000000000118
 20
138.3999999999982
 40
3
  0
LINE
  5
231
100
AcDbEntity
  8
sockets detail
  6
ByLayer
 62
  256
370
   -1
100
AcDbLine
 10
398.0000000000118
 20
128.4536586374301
 11
392.0000000000022
 21
128.4536586374301
  0
LINE
  5
232
100
AcDbEntity
  8
sockets detail
  6
ByLayer
 62
  256
370
   -1
100
AcDbLine
 10
398.0000000000118
 20
107.4536586374301
 11
392.0000000000022
 21
107.4536586374301
  0
LINE
  5
233
100
AcDbEntity
  8
sockets detail
  6
ByLayer
 62
  256
370
   -1
100
AcDbLine
 10
398.0000000000118
 20
128.4536586374301
 11
398.0000000000118
 21
107.4536586374301
  0
LINE
  5
234
100
AcDbEntity
  8
sockets detail
  6
ByLayer
 62
  256
370
   -1
100
AcDbLine
 10
392.0000000000022
 20
128.4536586374301
 11
392.0000000000022
 21
107.4536586374301
  0
MTEXT
  5
235
100
AcDbEntity
  8
annotation
  6
ByLayer
 62
  256
370
   -1
100
AcDbMText
 10
375.0000000000118
 20
138.3999999999994
 30
0
 40
2
 41
11.94444444444444
 71
    1
 72
    1
  1
TOP view
  7
standard
210
0
220
0
230
1
 50
0
 73
    2
 44
1
  0
MTEXT
  5
236
100
AcDbEntity
  8
annotation
  6
ByLayer
 62
  256
370
   -1
100
AcDbMText
 10
375.0000000000118
 20
108.3999999999994
 30
0
 40
2
 41
15.27777777777778
 71
    1
 72
    1
  1
FRONT view
  7
standard
210
0
220
0
230
1
 50
0
 73
    2
 44
1
  0
DIMENSION
  5
237
100
AcDbEntity
  8
dimension
  6
ByLayer
 62
  256
370
   -1
100
AcDbDimension
  2
*D12
 10
365.0000000000118
 20
135.400000000002
 30
0
 11
363.1250000000118
 21
138.4000000000117
 31
0
 70
   32
 71
    5
  3
Standard
 53
0
210
0
220
0
230
1
100
AcDbAlignedDimension
 13
355.0000000000001
 23
141.4000000000214
 33
0
 14
355.0000000000001
 24
135.400000000002
 34
0
 50
90
100
AcDbRotatedDimension
  0
DIMENSION
  5
238
100
AcDbEntity
  8
dimension
  6
ByLayer
 62
  256
370
   -1
100
AcDbDimension
  2
*D13
 10
405.0000000000118
 20
135.4000000000079
 30
0
 11
403.1250000000118
 21
138.3999999999982
 31
0
 70
   32
 71
    5
  3
Standard
 53
0
210
0
220
0
230
1
100
AcDbAlignedDimension
 13
395.0000000000118
 23
141.3999999999885
 33
0
 14
395.0000000000118
 24
135.4000000000079
 34
0
 50
90
100
AcDbRotatedDimension
  0
DIMENSION
  5
239
100
AcDbEntity
  8
dimension
  6
ByLayer
 62
  256
370
   -1
100
AcDbDimension
  2
*D14
 10
365.0000000000118
 20
107.3999999999994
 30
0
 11
363.1250000000118
 21
109.8999999999994
 31
0
 70
   32
 71
    5
  3
Standard
 53
0
210
0
220
0
230
1
100
AcDbAlignedDimension
 13
358.0000000000171
 23
112.3999999999994
 33
0
 14
358.0000000000171
 24
107.3999999999994
 34
0
 50
90
100
AcDbRotatedDimension
  0
DIMENSION
  5
23A
100
AcDbEntity
  8
dimension
  6
ByLayer
 62
  256
370
   -1
100
AcDbDimension
  2
*D15
 10
405.0000000000118
 20
107.4536586374301
 30
0
 11
403.1250000000118
 21
117.9536586374301
 31
0
 70
   32
 71
    5
  3
Standard
 53
0
210
0
220
0
230
1
100
AcDbAlignedDimension
 13
398.0000000000117
 23
128.4536586374301
 33
0
 14
398.0000000000117
 24
107.4536586374301
 34
0
 50
90
100
AcDbRotatedDimension
  0
LINE
  5
23B
100
AcDbEntity
  8
sockets detail
  6
DASHDOTTINY
 62
  256
370
   13
100
AcDbLine
 10
355.0000000000118
 20
115.3999999999994
 11
355.0000000000118
 21
104.3999999999994
  0
LINE
  5
23C
100
AcDbEntity
  8
sockets detail
  6
DASHDOTTINY
 62
  256
370
   13
100
AcDbLine
 10
395.000000000007
 20
131.4536586374301
 11
395.000000000007
 21
104.4536586374301
  0
MTEXT
  5
23D
100
AcDbEntity
  8
annotation
  6
ByLayer
 62
  256
370
   -1
100
AcDbMText
 10
354.3800000000119
 20
170
 30
0
 40
4
 41
54.44444650159429
 71
    1
 72
    1
  1
Detail Ansicht DOME
  7
standard
210
0
220
0
230
1
 50
0
 73
    2
 44
1
  0
MTEXT
  5
23E
100
AcDbEntity
  8
annotation
  6
ByLayer
 62
  256
370
   -1
100
AcDbMText
 10
344.3800000000119
 20
160
 30
0
 40
2
 41
25.50000000000053
 71
    1
 72
    1
  1
Dome Deckelplatine\PHhe 5mm
  7
standard
210
0
220
0
230
1
 50
0
 73
    2
 44
1
  0
MTEXT
  5
23F
100
AcDbEntity
  8
annotation
  6
ByLayer
 62
  256
370
   -1
100
AcDbMText
 10
384.3800000000119
 20
160
 30
0
 40
2
 41
21.94444444444512
 71
    1
 72
    1
  1
Dome BananaPro\PHhe 21mm
  7
standard
210
0
220
0
230
1
 50
0
 73
    2
 44
1
  0
DIMENSION
  5
240
100
AcDbEntity
  8
dimension
  6
ByLayer
 62
  256
370
   -1
100
AcDbDimension
  2
*D16
 10
308.8421293817086
 20
197.1863810976965
 30
0
 11
306.9671293817086
 21
158.1999999999997
 31
0
 70
   32
 71
    5
  3
Standard
 53
0
210
0
220
0
230
1
100
AcDbAlignedDimension
 13
299.999999999995
 23
107.3999999999994
 33
0
 14
299.9999999999995
 24
209
 34
0
 50
90
100
AcDbRotatedDimension
  0
DIMENSION
  5
241
100
AcDbEntity
  8
dimension
  6
ByLayer
 62
  256
370
   -1
100
AcDbDimension
  2
*D17
 10
229.8011749332649
 20
220.1498583900865
 30
0
 11
263.3099999999998
 21
222.0248583900865
 31
0
 70
   32
 71
    5
 72
    0
  3
Standard
 53
0
210
0
220
0
230
1
100
AcDbAlignedDimension
 13
296.9999999999997
 23
208.9999999999994
 33
0
 14
229.6199999999999
 24
209
 34
0
100
AcDbRotatedDimension
  0
DIMENSION
  5
242
100
AcDbEntity
  8
dimension
  6
ByLayer
 62
  256
370
   -1
100
AcDbDimension
  2
*D18
 10
200.069959183677
 20
65.5096326530624
 30
0
 11
198.194959183677
 21
85.80999809265077
 31
0
 70
   32
 71
    5
  3
Standard
 53
0
210
0
220
0
230
1
100
AcDbAlignedDimension
 13
206.8099999999999
 23
112.8099961853021
 33
0
 14
206.8099999999975
 24
58.80999999999945
 34
0
 50
90
100
AcDbRotatedDimension
  0
DIMENSION
  5
243
100
AcDbEntity
  8
dimension
  6
ByLayer
 62
  256
370
   -1
100
AcDbDimension
  2
*D19
 10
297.1199999999999
 20
17.38526593344704
 30
0
 11
234.8099999999999
 21
19.26026593344704
 31
0
 70
   32
 71
    5
  3
Standard
 53
0
210
0
220
0
230
1
100
AcDbAlignedDimension
 13
172.5
 23
30
 33
0
 14
297.1199999999999
 24
107.3999999999994
 34
0
100
AcDbRotatedDimension
  0
DIMENSION
  5
244
100
AcDbEntity
  8
dimension
  6
ByLayer
 62
  256
370
   -1
100
AcDbDimension
  2
*D20
 10
296.6498541555266
 20
44.89359810662273
 30
0
 11
252.5599980926512
 21
46.76859810662273
 31
0
 70
   32
 71
    5
  3
Standard
 53
0
210
0
220
0
230
1
100
AcDbAlignedDimension
 13
209.8099961853027
 23
55.8099999999994
 33
0
 14
295.3099999999998
 24
60.81000000000665
 34
0
100
AcDbRotatedDimension
  0
DIMENSION
  5
245
100
AcDbEntity
  8
Infobox A3
  6
ByLayer
 62
  256
370
   -1
100
AcDbDimension
  2
*D21
 10
252.8565893358309
 20
54.13639771680975
 30
0
 11
250.9815893358309
 21
61.40499999999971
 31
0
 70
   32
 71
    5
  3
Standard
 53
0
210
0
220
0
230
1
100
AcDbAlignedDimension
 13
212.8100000000023
 23
58.80999999999942
 33
0
 14
292
 24
64
 34
0
 50
90
100
AcDbRotatedDimension
  0
DIMENSION
  5
246
100
AcDbEntity
  8
dimension
  6
ByLayer
 62
  256
370
   -1
100
AcDbDimension
  2
*D22
 10
324.1581863287023
 20
207.9629912292082
 30
0
 11
322.2831863287023
 21
176.75
 31
0
 70
   32
 71
    5
  3
Standard
 53
0
210
0
220
0
230
1
100
AcDbAlignedDimension
 13
315
 23
144.5
 33
0
 14
315
 24
209
 34
0
 50
90
100
AcDbRotatedDimension
  0
DIMENSION
  5
247
100
AcDbEntity
  8
dimension
  6
ByLayer
 62
  256
370
   -1
100
AcDbDimension
  2
*D23
 10
324.1581863287023
 20
141.9429940135865
 30
0
 11
322.2831863287023
 21
104.1549999999997
 31
0
 70
   32
 71
    5
  3
Standard
 53
0
210
0
220
0
230
1
100
AcDbAlignedDimension
 13
295.3099999999999
 23
63.80999999999941
 33
0
 14
315
 24
144.5
 34
0
 50
90
100
AcDbRotatedDimension
  0
MTEXT
  5
248
100
AcDbEntity
  8
Infobox A3
  6
ByLayer
 62
  256
370
   -1
100
AcDbMText
 10
396
 20
260
 30
0
 40
2
 41
5.333333333333334
 71
    1
 72
    1
  1
0.2.0
  7
standard
210
0
220
0
230
1
 50
90
 73
    2
 44
1
  0
ENDSEC
  0
SECTION
  2
OBJECTS
  0
DICTIONARY
  5
C
330
0
100
AcDbDictionary
281
    1
  3
ACAD_GROUP
350
D
  0
DICTIONARY
  5
D
330
C
100
AcDbDictionary
281
    1
  0
ENDSEC
  0
EOF
